<svg width="28" height="23" viewBox="0 0 28 23" fill="none" xmlns="http://www.w3.org/2000/svg">
<circle cx="5.5" cy="17.5" r="5.5" fill="url(#paint0_linear)"/>
<path d="M27.5781 13.8305V3.66667C27.5781 2.4851 26.6319 1.52381 25.4688 1.52381H22.7031V0.714286C22.7031 0.319809 22.3883 0 22 0C21.6117 0 21.2969 0.319809 21.2969 0.714286V1.52381H16.7031V0.714286C16.7031 0.319809 16.3883 0 16 0C15.6117 0 15.2969 0.319809 15.2969 0.714286V1.52381H10.7031V0.714286C10.7031 0.319809 10.3883 0 10 0C9.61169 0 9.29688 0.319809 9.29688 0.714286V1.52381H6.10938C4.94627 1.52381 4 2.4851 4 3.66667V16.8095C4 17.9911 4.94627 18.9524 6.10938 18.9524H17.028C18.0323 20.7694 19.9475 22 22.1406 22C25.3715 22 28 19.3298 28 16.0476C28 15.2643 27.85 14.5161 27.5781 13.8305ZM22.8438 11.5804C24.7372 11.8868 26.2364 13.4098 26.5381 15.3333H22.8438V11.5804ZM6.10938 17.5238C5.72167 17.5238 5.40625 17.2034 5.40625 16.8095V3.66667C5.40625 3.27281 5.72167 2.95238 6.10938 2.95238H9.29688V3.80952C9.29688 4.204 9.61169 4.52381 10 4.52381C10.3883 4.52381 10.7031 4.204 10.7031 3.80952V2.95238H15.2969V3.80952C15.2969 4.204 15.6117 4.52381 16 4.52381C16.3883 4.52381 16.7031 4.204 16.7031 3.80952V2.95238H21.2969V3.80952C21.2969 4.204 21.6117 4.52381 22 4.52381C22.3883 4.52381 22.7031 4.204 22.7031 3.80952V2.95238H25.4688C25.8565 2.95238 26.1719 3.27281 26.1719 3.66667V11.732C25.1208 10.7182 23.701 10.0952 22.1406 10.0952C18.9098 10.0952 16.2812 12.7655 16.2812 16.0476C16.2812 16.557 16.3447 17.0516 16.4637 17.5238H6.10938ZM22.1406 20.5714C19.6852 20.5714 17.6875 18.542 17.6875 16.0476C17.6875 13.7962 19.315 11.9239 21.4375 11.5804V16.0476C21.4375 16.4421 21.7523 16.7619 22.1406 16.7619H26.5381C26.1999 18.9181 24.3568 20.5714 22.1406 20.5714Z" fill="#758FA4"/>
<path d="M8.875 7.61905H7.75C7.36169 7.61905 7.04688 7.93886 7.04688 8.33333C7.04688 8.72781 7.36169 9.04762 7.75 9.04762H8.875C9.26331 9.04762 9.57812 8.72781 9.57812 8.33333C9.57812 7.93886 9.26331 7.61905 8.875 7.61905Z" fill="#758FA4"/>
<path d="M13 7.61905H11.875C11.4867 7.61905 11.1719 7.93886 11.1719 8.33333C11.1719 8.72781 11.4867 9.04762 11.875 9.04762H13C13.3883 9.04762 13.7031 8.72781 13.7031 8.33333C13.7031 7.93886 13.3883 7.61905 13 7.61905Z" fill="#758FA4"/>
<path d="M13 10.6667H11.875C11.4867 10.6667 11.1719 10.9865 11.1719 11.381C11.1719 11.7754 11.4867 12.0952 11.875 12.0952H13C13.3883 12.0952 13.7031 11.7754 13.7031 11.381C13.7031 10.9865 13.3883 10.6667 13 10.6667Z" fill="#758FA4"/>
<path d="M8.875 10.6667H7.75C7.36169 10.6667 7.04688 10.9865 7.04688 11.381C7.04688 11.7754 7.36169 12.0952 7.75 12.0952H8.875C9.26331 12.0952 9.57812 11.7754 9.57812 11.381C9.57812 10.9865 9.26331 10.6667 8.875 10.6667Z" fill="#758FA4"/>
<path d="M8.875 13.7143H7.75C7.36169 13.7143 7.04688 14.0341 7.04688 14.4286C7.04688 14.823 7.36169 15.1429 7.75 15.1429H8.875C9.26331 15.1429 9.57812 14.823 9.57812 14.4286C9.57812 14.0341 9.26331 13.7143 8.875 13.7143Z" fill="#758FA4"/>
<path d="M13 13.7143H11.875C11.4867 13.7143 11.1719 14.0341 11.1719 14.4286C11.1719 14.823 11.4867 15.1429 11.875 15.1429H13C13.3883 15.1429 13.7031 14.823 13.7031 14.4286C13.7031 14.0341 13.3883 13.7143 13 13.7143Z" fill="#758FA4"/>
<defs>
<linearGradient id="paint0_linear" x1="5.5" y1="12" x2="5.5" y2="23" gradientUnits="userSpaceOnUse">
<stop stop-color="#6E92F6"/>
<stop offset="1" stop-color="#86ACFA"/>
</linearGradient>
</defs>
</svg>
