<svg width="28" height="27" viewBox="0 0 28 27" fill="none" xmlns="http://www.w3.org/2000/svg">
<circle cx="22.5" cy="5.5" r="5.5" fill="url(#paint0_linear)"/>
<path d="M11.4982 5.34766C10.8829 4.5299 9.90455 4 8.80469 4H0V21.6094H5.47319C5.80948 24.6374 8.38381 27 11.5 27C14.6162 27 17.1905 24.6374 17.5268 21.6094H23V5.34766H11.4982ZM11.5 25.6523C8.89916 25.6523 6.7832 23.5364 6.7832 20.9355C6.7832 18.3347 8.89916 16.2188 11.5 16.2188C14.1008 16.2188 16.2168 18.3347 16.2168 20.9355C16.2168 23.5364 14.1008 25.6523 11.5 25.6523ZM21.6523 20.2617H17.5268C17.1905 17.2337 14.6162 14.8711 11.5 14.8711C8.38381 14.8711 5.80948 17.2337 5.47319 20.2617H1.34766V5.34766H8.80469C9.91933 5.34766 10.8262 6.25449 10.8262 7.36914V9.39062H21.6523V20.2617ZM21.6523 8.04297H12.1738V7.36914C12.1738 7.13842 12.1504 6.91309 12.106 6.69531H21.6523V8.04297Z" fill="#758FA4"/>
<path d="M10.4279 21.7694L9.47501 20.8165L8.52208 21.7694L10.4279 23.6752L14.2397 19.8635L13.2868 18.9106L10.4279 21.7694Z" fill="#758FA4"/>
<defs>
<linearGradient id="paint0_linear" x1="22.5" y1="0" x2="22.5" y2="11" gradientUnits="userSpaceOnUse">
<stop stop-color="#FD858F"/>
<stop offset="1" stop-color="#FF9D97"/>
</linearGradient>
</defs>
</svg>
