<svg width="20" height="18" viewBox="0 0 20 18" fill="none" xmlns="http://www.w3.org/2000/svg">
<path d="M19.3459 14.2251C19.7799 13.3427 19.9999 12.3963 19.9999 11.4088C19.9999 7.88415 17.0974 4.99711 13.463 4.8276C12.644 1.98367 9.95352 0 6.87515 0C3.08434 0 0.000301026 2.95594 0.000301026 6.58927C0.000301026 7.57668 0.220218 8.52308 0.654271 9.40548L0.011668 12.503C-0.0701271 12.8973 0.290724 13.2458 0.699856 13.1678L3.95287 12.5478C4.76778 12.9205 5.63463 13.1287 6.53758 13.1702C7.67615 17.1219 12.2491 19.1041 16.0472 17.3674C19.6099 18.0464 19.3321 17.9981 19.4139 17.9981C19.7842 17.9981 20.0608 17.6711 19.9885 17.3226L19.3459 14.2251ZM4.30052 11.4538C4.1833 11.396 4.04924 11.378 3.92018 11.4026L1.33273 11.8958L1.84245 9.43892C1.86835 9.3141 1.84975 9.18442 1.78956 9.07105C1.37992 8.29856 1.17215 7.4636 1.17215 6.58927C1.17215 3.5788 3.73049 1.12959 6.87515 1.12959C9.33272 1.12959 11.4969 2.66997 12.2532 4.87293C8.67101 5.31441 5.97306 8.43008 6.31919 12.0229C5.61315 11.9575 4.93676 11.7673 4.30052 11.4538ZM18.1578 14.2585L18.6675 16.7153L16.08 16.2222C15.9509 16.1976 15.8169 16.2156 15.6997 16.2734C14.8983 16.6682 14.0321 16.8685 13.1251 16.8685C10.002 16.8685 7.46112 14.4193 7.46112 11.4088C7.46112 8.39838 10.002 5.94917 13.1251 5.94917C16.2697 5.94917 18.8281 8.39838 18.8281 11.4088C18.8281 12.2832 18.6203 13.1181 18.2106 13.8906C18.1505 14.004 18.1319 14.1336 18.1578 14.2585Z" fill="#354356"/>
<path d="M16 16.9999L19 17.4999L18.5 14C20.9 8.8 17.1667 6.49996 15 5.99994C10.2 4.39994 7.66667 8.33327 7 10.4999C7.4 17.6999 13.1667 17.8333 16 16.9999Z" fill="#354356"/>
</svg>
