<svg width="17" height="16" viewBox="0 0 17 16" fill="none" xmlns="http://www.w3.org/2000/svg">
<path d="M2.05714 0H9.71429C10.72 0.64 10.1333 1.33333 9.71429 1.6H2.17143C1.80571 1.64571 1.6 2.0381 1.54286 2.22857V13.7143C1.58857 14.08 1.94286 14.3238 2.11429 14.4H14.4C14.9486 14.4 15.1238 13.9429 15.1429 13.7143V6.97143C15.92 6.10286 16.5333 6.60952 16.7429 6.97143V13.8857C16.4229 15.3486 15.2381 15.9048 14.6857 16H2.28571C0.64 15.8629 0.0761905 14.6476 0 14.0571V2C0.182857 0.582857 1.44762 0.0761905 2.05714 0Z" fill="#354356"/>
<rect x="3.08572" y="3.20001" width="5.71429" height="1.6" rx="0.8" fill="#354356"/>
<rect x="3.20001" y="6.40002" width="8.68571" height="1.6" rx="0.8" fill="#354356"/>
<circle cx="14" cy="3" r="3" fill="#354356"/>
</svg>
