<?xml version="1.0" encoding="UTF-8" standalone="no"?>
<svg
   xmlns:dc="http://purl.org/dc/elements/1.1/"
   xmlns:cc="http://creativecommons.org/ns#"
   xmlns:rdf="http://www.w3.org/1999/02/22-rdf-syntax-ns#"
   xmlns:svg="http://www.w3.org/2000/svg"
   xmlns="http://www.w3.org/2000/svg"
   xmlns:sodipodi="http://sodipodi.sourceforge.net/DTD/sodipodi-0.dtd"
   xmlns:inkscape="http://www.inkscape.org/namespaces/inkscape"
   width="18"
   height="18"
   viewBox="0 0 18 18"
   fill="none"
   id="svg2"
   version="1.1"
   inkscape:version="0.91 r13725"
   sodipodi:docname="rench.svg">
  <metadata
     id="metadata12">
    <rdf:RDF>
      <cc:Work
         rdf:about="">
        <dc:format>image/svg+xml</dc:format>
        <dc:type
           rdf:resource="http://purl.org/dc/dcmitype/StillImage" />
      </cc:Work>
    </rdf:RDF>
  </metadata>
  <defs
     id="defs10" />
  <sodipodi:namedview
     pagecolor="#ffffff"
     bordercolor="#666666"
     borderopacity="1"
     objecttolerance="10"
     gridtolerance="10"
     guidetolerance="10"
     inkscape:pageopacity="0"
     inkscape:pageshadow="2"
     inkscape:window-width="1366"
     inkscape:window-height="722"
     id="namedview8"
     showgrid="false"
     inkscape:zoom="13.111111"
     inkscape:cx="-3.7372881"
     inkscape:cy="9"
     inkscape:window-x="0"
     inkscape:window-y="0"
     inkscape:window-maximized="1"
     inkscape:current-layer="svg2" />
  <path
     style="fill:#354356;stroke:none;stroke-width:1px;stroke-linecap:butt;stroke-linejoin:miter;stroke-opacity:1;fill-opacity:1"
     d="M 7.4765625 0 C 7.2236025 0 7.0048719 0.17663613 6.9511719 0.42382812 L 6.6503906 1.8066406 C 6.2820706 1.9269406 5.9222419 2.0760331 5.5761719 2.2519531 L 4.3847656 1.4863281 C 4.1719056 1.3495481 3.8917006 1.3797938 3.7128906 1.5585938 L 1.5585938 3.7128906 C 1.3797937 3.8917006 1.3495481 4.1719056 1.4863281 4.3847656 L 2.2519531 5.5761719 C 2.0760331 5.9222419 1.9269406 6.2820706 1.8066406 6.6503906 L 0.42382812 6.9511719 C 0.17663613 7.0050019 3.7007434e-17 7.2236025 0 7.4765625 L 0 10.523438 C 0 10.776438 0.17663613 10.995028 0.42382812 11.048828 L 1.8066406 11.349609 C 1.9269406 11.717909 2.0760331 12.077728 2.2519531 12.423828 L 1.4863281 13.615234 C 1.3495481 13.828134 1.3797938 14.108309 1.5585938 14.287109 L 3.7128906 16.441406 C 3.8917006 16.620206 4.1719056 16.650472 4.3847656 16.513672 L 5.5761719 15.748047 C 5.9222419 15.923947 6.2820706 16.073059 6.6503906 16.193359 L 6.9511719 17.576172 C 7.0048719 17.823372 7.2236025 18 7.4765625 18 L 10.523438 18 C 10.776438 18 10.995128 17.823372 11.048828 17.576172 L 11.349609 16.193359 C 11.717909 16.073059 12.077728 15.923947 12.423828 15.748047 L 13.615234 16.513672 C 13.828134 16.650472 14.108309 16.620306 14.287109 16.441406 L 16.441406 14.287109 C 16.620206 14.108309 16.650472 13.828134 16.513672 13.615234 L 15.748047 12.423828 C 15.923947 12.077728 16.073059 11.717909 16.193359 11.349609 L 17.576172 11.048828 C 17.823372 10.995028 18 10.776436 18 10.523438 L 18 7.4765625 C 18 7.2236025 17.823372 7.0050019 17.576172 6.9511719 L 16.193359 6.6503906 C 16.073059 6.2820706 15.923947 5.9222419 15.748047 5.5761719 L 16.513672 4.3847656 C 16.650472 4.1719056 16.620206 3.8917006 16.441406 3.7128906 L 14.287109 1.5585938 C 14.108309 1.3797937 13.828134 1.3495481 13.615234 1.4863281 L 12.423828 2.2519531 C 12.077728 2.0760331 11.717909 1.9269406 11.349609 1.8066406 L 11.048828 0.42382812 C 10.995128 0.17663613 10.776438 3.7007434e-17 10.523438 0 L 7.4765625 0 z M 9 5.109375 A 3.8898304 3.8898304 0 0 1 12.890625 9 A 3.8898304 3.8898304 0 0 1 9 12.890625 A 3.8898304 3.8898304 0 0 1 5.109375 9 A 3.8898304 3.8898304 0 0 1 9 5.109375 z "
     id="path3340" />
</svg>
