<svg width="88" height="97" xmlns="http://www.w3.org/2000/svg" xmlns:xlink="http://www.w3.org/1999/xlink" overflow="hidden"><defs><clipPath id="clip0"><path d="M155 186 243 186 243 283 155 283Z" fill-rule="evenodd" clip-rule="evenodd"/></clipPath><clipPath id="clip1"><path d="M156 186 243 186 243 282 156 282Z" fill-rule="evenodd" clip-rule="evenodd"/></clipPath><clipPath id="clip2"><path d="M156 186 243 186 243 282 156 282Z" fill-rule="evenodd" clip-rule="evenodd"/></clipPath><clipPath id="clip3"><path d="M156 186 243 186 243 309 156 309Z" fill-rule="evenodd" clip-rule="evenodd"/></clipPath><clipPath id="clip4"><path d="M241.149 258.174C238.745 262.341 204.309 282.232 199.5 282.232 194.691 282.232 160.255 262.341 157.851 258.174 155.446 254.007 155.446 214.225 157.851 210.058 160.255 205.891 194.691 186 199.5 186 204.309 186 238.745 205.891 241.149 210.058 243.554 214.225 243.554 254.007 241.149 258.174Z"/></clipPath></defs><g clip-path="url(#clip0)" transform="translate(-155 -186)"><g clip-path="url(#clip1)"><g clip-path="url(#clip2)"><g clip-path="url(#clip3)"><g clip-path="url(#clip4)"><path d="M-79.4234 234.928C-80.39 232.375-82.1639 206.913-81.6824 202.501-81.1824 197.918-77.7653 189.327-76.2519 188.846-75.08 188.474-68.8499 189.383-63.8181 190.659-58.4371 192.024-54.2577 193.828-49.2041 196.968-45.562 199.23-40.3384 203.687-40.3384 204.532-40.3384 205.382-44.1719 213.032-45.6166 215.066-50.831 222.406-55.6503 226.722-63.1036 230.728-67.4903 233.085-71.1779 234.458-74.5666 234.996-76.06 235.233-77.6837 235.526-78.1746 235.647-78.8552 235.816-79.1518 235.645-79.4234 234.928Z" fill="#50E1AD" transform="matrix(1 0 -0 1.00049 285.476 45.6122)"/><path d="M-41.6524 193.707C-47.7182 188.855-58.6144 184.072-66.7797 182.678-71.1463 181.932-71.1529 181.929-70.7272 181.134-69.871 179.534-60.9835 173.055-56.5137 170.772-55.0687 170.034-45.3577 166.402-44.0851 166.124L-42.8395 165.851-41.2003 169.589C-38.4457 175.869-37.8105 179.271-37.7739 187.938-37.7549 192.431-37.9015 195.563-38.1418 195.801-38.4062 196.063-39.5921 195.356-41.6524 193.707Z" fill="#50E1AD" transform="matrix(1 0 -0 1.00049 285.476 45.6122)"/><path d="M-91.66 235.9C-95.5976 235.359-100.95 234.023-103.496 232.946-115.778 227.747-124.863 218.823-130.139 206.777-131.302 204.122-132.578 199.662-132.592 198.206-132.595 197.857-131.205 196.574-129.502 195.355-123.1 190.769-113.315 186.788-107.424 186.371-104.707 186.179-104.204 186.264-102.232 187.254-97.9054 189.423-93.3771 192.368-91.0431 194.528L-88.6646 196.731-88.6658 203.577C-88.667 211.801-88.0521 223.314-87.2377 230.311-86.9105 233.122-86.7489 235.593-86.8786 235.803-87.1105 236.178-89.3091 236.223-91.6601 235.9Z" fill="#5467FF" transform="matrix(1 0 -0 1.00049 285.476 45.6122)"/><path d="M-90.0455 186.288C-90.1719 186.083-92.3256 184.725-94.8315 183.27-99.4905 180.565-106.824 177.502-112.978 175.691-116.265 174.724-128.629 172.282-130.238 172.282-131.405 172.282-131.183 171.436-128.81 166.849-126.507 162.4-123.37 157.69-122.518 157.406-121.589 157.096-114.858 159.161-111.2 160.878-105.525 163.542-102.311 165.574-98.7529 168.747-93.2115 173.69-88.7505 180.555-88.3459 184.763-88.1815 186.473-88.2448 186.66-88.9896 186.66-89.4439 186.66-89.9191 186.492-90.0455 186.288Z" fill="#5467FF" transform="matrix(1 0 -0 1.00049 285.476 45.6122)"/><path d="M-90.4618 167.08C-91.9995 165.358-93.9296 163.464-94.7511 162.872-97.838 160.646-99.2859 155.65-98.9114 148.518-98.5816 142.235-98.4241 141.837-96.0267 141.226-90.6839 139.863-78.6798 139.605-78.6798 140.854-78.6798 141.101-79.4801 143.285-80.4581 145.709-82.2595 150.173-85.3572 161.559-86.3053 167.202-86.5903 168.897-87.013 170.268-87.2448 170.248-87.4765 170.228-88.9242 168.802-90.4618 167.08Z" fill="#5467FF" transform="matrix(1 0 -0 1.00049 285.476 45.6122)"/><path d="M-133.788 187.159C-133.778 184.276-133.154 179.868-132.691 179.404-132.49 179.204-129.678 179.484-126.1 180.061-122.668 180.615-119.76 181.068-119.639 181.068-119.517 181.068-119.418 181.299-119.418 181.58-119.418 181.862-121.068 182.805-123.085 183.677-125.102 184.549-128.267 186.205-130.118 187.359-131.968 188.512-133.553 189.456-133.639 189.456-133.725 189.456-133.792 188.422-133.788 187.159Z" fill="#898BC9" transform="matrix(1 0 -0 1.00049 285.476 45.6122)"/><path d="M-81.0699 180.569C-81.0558 179.444-79.4835 169.062-78.8772 166.091-77.1575 157.665-74.8991 150.165-72.4132 144.626-71.3896 142.345-71.3035 142.265-70.1222 142.501-69.4471 142.636-67.1874 143.596-65.1006 144.634L-61.3064 146.521-61.4078 148.464C-61.5334 150.869-62.9888 156.402-65.38 163.565-67.1169 168.768-67.2853 169.086-68.9296 170.267-72.1874 172.606-75.6866 175.809-77.8565 178.437-79.9036 180.917-81.0841 181.7-81.0699 180.569Z" fill="#898BC9" transform="matrix(1 0 -0 1.00049 285.476 45.6122)"/><path d="M-57.3596 162.917C-57.4752 162.616-57.1306 160.96-56.5937 159.238-56.0568 157.516-55.3969 155.163-55.1272 154.01-54.8574 152.856-54.5003 151.913-54.3334 151.913-53.3945 151.913-46.6507 159.205-47.1715 159.657-47.2574 159.732-48.3162 160.116-49.5244 160.51-50.7325 160.905-52.9424 161.731-54.4352 162.346-56.5872 163.233-57.193 163.352-57.3596 162.917Z" fill="#898BC9" transform="matrix(1 0 -0 1.00049 285.476 45.6122)"/><path d="M-109.033 154.139C-110.022 153.626-111.909 152.882-113.227 152.485-116.439 151.518-116.637 151.282-115.216 150.104-113.772 148.907-106.915 144.724-106.396 144.724-106.187 144.724-106.028 146.982-106.032 149.916-106.039 155.786-105.99 155.717-109.033 154.139Z" fill="#898BC9" transform="matrix(1 0 -0 1.00049 285.476 45.6122)"/></g><text fill="#3D4C59" font-family="Gabriola,Gabriola_MSFontService,sans-serif" font-weight="400" font-size="58" transform="matrix(0.39939 0 0 0.399586 163.088 303)">Professary</text></g></g></g></g></svg>