<svg width="420" height="482" xmlns="http://www.w3.org/2000/svg" xmlns:xlink="http://www.w3.org/1999/xlink" overflow="hidden"><defs><clipPath id="clip0"><path d="M430 138 850 138 850 620 430 620Z" fill-rule="evenodd" clip-rule="evenodd"/></clipPath></defs><g clip-path="url(#clip0)" transform="translate(-430 -138)"><path d="M848.982 454.94 848.982 468.994 588.471 618.94 430.981 528.882 430.981 513.774Z" fill="#0D0D1C" fill-rule="evenodd"/><path d="M446.085 539.952 575.8 616.098C575.8 616.098 586.974 622.523 598.151 616.099 609.326 609.674 843.987 474.297 843.987 474.297 843.987 474.297 855.153 467.868 843.987 461.418 832.821 454.968 703.111 378.825 703.111 378.825 703.111 378.825 691.92 372.371 680.745 378.816 669.571 385.261 434.935 520.631 434.935 520.631 434.935 520.631 423.735 527.06 434.91 533.506Z" fill="#0D0D1C" fill-rule="evenodd"/><path d="M446.085 527.628 575.8 604.087C575.8 604.087 586.974 610.539 598.151 604.089 609.326 597.638 843.987 461.704 843.987 461.704 843.987 461.704 855.153 455.247 843.987 448.77 832.821 442.296 703.111 365.838 703.111 365.838 703.111 365.838 691.92 359.358 680.745 365.828 669.571 372.3 434.935 508.227 434.935 508.227 434.935 508.227 423.735 514.684 434.91 521.156Z" fill="#373759" fill-rule="evenodd"/><path d="M453.95 510.426 681.181 378.954 821.95 461.597 594.473 592.954Z" fill="#FFFFFF" fill-rule="evenodd"/><path d="M569.362 506.73 564.282 505.142 561.959 497.399 617.95 451.954 673.959 463.191 625.365 517.954Z" fill="#3894E0" fill-rule="evenodd"/><path d="M626.267 521.953 674.964 466.823 673.661 462.953 624.964 518.083Z" fill="#66B3FF" fill-rule="evenodd"/><path d="M667.967 447.19 619.65 501.952 563.967 490.729 612.279 435.952Z" fill="#66B3FF" fill-rule="evenodd"/><path d="M562.447 491.679 563.38 490.951 564.686 494.721C561.654 497.117 562.617 503.815 566.949 505.611L568.652 506.18 569.957 509.951C569.957 509.951 568.876 509.797 566.404 508.907 560.169 506.657 557.682 495.388 562.447 491.679" fill="#AFD8F9" fill-rule="evenodd"/><path d="M564.958 492.639 575.3 495.455 621.422 504.439 665.397 454.953 668.958 465.465 624.985 514.953 568.732 503.778Z" fill="#FFFFFF" fill-rule="evenodd"/><path d="M623.963 514.951 568.712 503.997 564.963 492.952 575.236 495.744 620.214 504.488Z" fill="#EBEFFF" fill-rule="evenodd"/><path d="M570.248 510.764 625.959 521.949 624.666 518.122 568.959 506.949Z" fill="#AFD8F9" fill-rule="evenodd"/><path d="M565.249 494.766 620.958 505.951 619.666 502.124 563.958 490.951Z" fill="#AFD8F9" fill-rule="evenodd"/><path d="M621.267 505.955 669.964 450.825 668.66 446.955 619.964 502.085Z" fill="#3894E0" fill-rule="evenodd"/><path d="M695.316 487.165 699.849 488.96 705.971 484.699 692.333 419.308 645.971 394.96 648.966 462.808Z" fill="#F7AA54" fill-rule="evenodd"/><path d="M645.894 464.96 642.967 396.994 646.041 394.96 648.967 462.927Z" fill="#E29447" fill-rule="evenodd"/><path d="M658.968 386.954 661.944 454.651 707.968 478.954 705.005 411.249Z" fill="#F7AA54" fill-rule="evenodd"/><path d="M708.85 480.043 708.604 478.951 705.303 481.006C706.08 484.574 701.227 489.02 696.89 487.826L695.272 487.255 691.971 489.312C691.971 489.312 692.869 489.829 695.261 490.61 701.295 492.58 710.108 485.605 708.85 480.043" fill="#FFC388" fill-rule="evenodd"/><path d="M706.971 480.102 697.879 476.166 659.421 456.036 656.68 394.96 647.971 400.49 650.713 461.566 697.744 485.96Z" fill="#FFFFFF" fill-rule="evenodd"/><path d="M650.967 461.47 697.694 485.952 706.967 480.005 697.83 476.01 659.894 455.952Z" fill="#E2E8F2" fill-rule="evenodd"/><path d="M692.804 489.953 645.97 465.03 649.146 462.953 695.97 487.88Z" fill="#FFC388" fill-rule="evenodd"/><path d="M704.806 480.955 657.971 456.955 661.148 454.955 707.971 478.961Z" fill="#FFC388" fill-rule="evenodd"/><path d="M658.378 456.961 654.963 388.994 658.549 386.961 661.963 454.929Z" fill="#E29447" fill-rule="evenodd"/><path d="M766.978 413.456C766.978 414.836 764.516 415.957 761.478 415.957 758.441 415.957 755.978 414.836 755.978 413.456 755.978 412.075 758.441 410.957 761.478 410.957 764.516 410.957 766.978 412.075 766.978 413.456" fill="#181830" fill-rule="evenodd"/><path d="M4.82819 55.8314 0.0292203 61.5685 3.20362 72.525 104.297 84.0377 162.029 28.2239 62.5645 0.0376098Z" fill="#3894E0" fill-rule="evenodd" transform="matrix(1 0 0 -1 561 417)"/><path d="M0.0345219 0.0387476 99.631 28.4446 101.035 34.0387 1.43803 5.63403Z" fill="#66B3FF" fill-rule="evenodd" transform="matrix(1 0 0 -1 622 423)"/><path d="M157.042 28.5517 57.7074 0.0334997 0.0421998 56.4924 99.3837 85.0335Z" fill="#66B3FF" fill-rule="evenodd" transform="matrix(1 0 0 -1 571 395)"/><path d="M10.4409 27.8604 12.0262 28.0354 10.6962 22.4782C5.52723 21.8677 1.64763 13.0229 5.17024 7.56709L6.65532 5.59135 5.32528 0.0354482C5.32528 0.0354482 4.22769 1.03736 2.12025 3.98693-3.19863 11.4292 2.36031 26.9694 10.4409 27.8604" fill="#AFD8F9" fill-rule="evenodd" transform="matrix(1 0 0 -1 559 367)"/><path d="M4.07259 72.0397 14.1013 60.8571 61.5567 15.2321 151.03 40.7204 147.214 25.5267 57.7409 0.0396235 0.0295024 55.9421Z" fill="#FFFFFF" fill-rule="evenodd" transform="matrix(1 0 0 -1 567 414)"/><path d="M57.4155 0.0337881 0.0327218 55.0192 4.10022 71.0339 14.186 59.9089 61.0327 15.3532Z" fill="#EBEFFF" fill-rule="evenodd" transform="matrix(1 0 0 -1 567 413)"/><path d="M0.0277909 56.4482 57.6294 0.0406578 59.0279 5.65197 1.4209 62.0407Z" fill="#AFD8F9" fill-rule="evenodd" transform="matrix(1 0 0 -1 564 423)"/><path d="M0.0284201 55.5357 57.6301 0.0377095 59.0285 5.5584 1.42289 61.0378Z" fill="#AFD8F9" fill-rule="evenodd" transform="matrix(1 0 0 -1 570 400)"/><path d="M0.035153 0.0363179 99.6318 28.4412 101.035 34.0364 1.43864 5.63149Z" fill="#3894E0" fill-rule="evenodd" transform="matrix(1 0 0 -1 627 400)"/><path d="M41.0362 30.2375 21.7067 0.0327029 17.2739 10.1277 0.0362284 1.87882 18.6945 31.0328Z" fill="#E05344" fill-rule="evenodd" transform="matrix(1 0 0 -1 613 348)"/><path d="M187.064 0.13388C187.647 0.0660487 188.234 0.0513712 188.82 0.0886939 189.379 0.0233791 189.941 0.0100646 190.504 0.0420405L193.591 14.7785 208.522 14.8159C212.247 25.5647 211.937 38.8992 206.965 48.194 203.688 54.3175 198.956 57.6887 194.366 57.4024 193.782 57.4703 193.196 57.4836 192.608 57.4477 192.025 57.5156 191.439 57.5289 190.852 57.493 190.267 57.5609 189.682 57.5755 189.096 57.5383 188.512 57.6074 187.925 57.6208 187.337 57.5835 186.755 57.6527 186.169 57.6661 185.582 57.6301 184.998 57.698 184.412 57.7126 183.824 57.6754 183.241 57.7446 182.654 57.7579 182.067 57.7207 181.483 57.7899 180.898 57.8032 180.31 57.766 179.728 57.8352 179.14 57.8485 178.554 57.8111 177.97 57.8805 177.385 57.8938 176.797 57.8578 176.213 57.9256 175.627 57.9403 175.04 57.9031 174.456 57.9709 173.87 57.9856 173.283 57.9483 172.7 58.0176 172.114 58.0309 171.527 57.9949 170.943 58.0629 170.356 58.0762 169.77 58.0402 169.186 58.1081 168.599 58.1214 168.012 58.0855 167.429 58.1547 166.843 58.168 166.256 58.1307 165.671 58.2 165.086 58.2133 164.498 58.176 163.916 58.2453 163.328 58.2585 162.741 58.2213 162.158 58.2905 161.572 58.3038 160.985 58.2678 160.402 58.3358 159.816 58.3504 159.228 58.3131 158.645 58.3824 158.058 58.3957 157.471 58.3584 156.887 58.4276 156.302 58.4409 155.714 58.4037 155.132 58.4729 154.544 58.4862 153.958 58.4502 153.374 58.5182 152.789 58.5315 152.201 58.4955 151.617 58.5635 151.03 58.578 150.444 58.5408 149.86 58.6088 149.274 58.6233 148.686 58.5861 148.104 58.6553 147.517 58.6686 146.93 58.6327 146.345 58.7006 145.76 58.7139 145.174 58.678 144.59 58.7459 144.003 58.7592 143.416 58.7233 142.833 58.7924 142.247 58.8058 141.66 58.7685 141.075 58.8377 140.49 58.851 139.902 58.8137 139.32 58.883 138.732 58.8963 138.145 58.859 137.562 58.9283 136.976 58.9416 136.389 58.9057 135.806 58.9735 135.218 58.9882 134.632 58.9509 134.048 59.0202 133.462 59.0335 132.874 58.9961 132.291 59.0654 131.705 59.0788 131.118 59.0428 130.536 59.1106 129.948 59.1239 129.362 59.0881 128.778 59.1559 128.193 59.1692 127.605 59.1333 127.021 59.2012 126.434 59.2159 125.848 59.1786 125.264 59.2465 124.678 59.2612 124.09 59.2239 123.507 59.293 122.921 59.3064 122.334 59.2704 121.751 59.3383 121.164 59.353 120.576 59.3157 119.994 59.3836 119.406 59.3983 118.82 59.361 118.236 59.4302 117.651 59.4435 117.064 59.4063 116.479 59.4755 115.894 59.4888 115.306 59.4516 114.724 59.5208 114.136 59.5341 113.549 59.4967 112.965 59.5661 112.38 59.5794 111.792 59.5434 111.21 59.6113 110.622 59.6259 110.036 59.5887 109.452 59.6579 108.865 59.6712 108.278 59.634 107.695 59.7032 107.109 59.7165 106.522 59.6805 105.938 59.7485 105.352 59.7618 104.764 59.7258 104.182 59.7938 103.595 59.8071 103.009 59.7711 102.425 59.8403 101.838 59.8536 101.252 59.8163 100.668 59.8856 100.082 59.8989 99.4938 59.8616 98.9113 59.9309 98.3249 59.9442 97.7384 59.9082 97.1546 59.9761 96.5681 59.9908 95.9803 59.9535 95.3978 60.0214 94.8113 60.036 94.2235 59.9987 93.6397 60.068 93.0532 60.0813 92.4668 60.044 91.883 60.1133 91.2965 60.1266 90.71 60.0893 90.1261 60.1585 89.5397 60.1718 88.9532 60.1359 88.3694 60.2038 87.783 60.2171 87.1964 60.1811 86.6126 60.2491 86.0262 60.2638 85.4397 60.2264 84.8559 60.2956 84.2694 60.3089 83.6829 60.2717 83.0992 60.3409 82.5126 60.3542 81.9262 60.3183 81.3423 60.3862 80.7559 60.3995 80.1681 60.3636 79.5856 60.4329 78.9991 60.4448 78.4112 60.4089 77.8288 60.4781 77.2424 60.4914 76.6545 60.4541 76.0707 60.5233 75.4843 60.5367 74.8977 60.4994 74.3153 60.5686 73.7288 60.5819 73.141 60.546 72.5585 60.6139 71.972 60.6285 71.3843 60.5913 70.8017 60.6592 70.2153 60.6738 69.6274 60.6366 69.0436 60.7058 68.4572 60.7191 67.8707 60.6818 67.2869 60.751 66.7004 60.7644 66.1139 60.7284 65.5301 60.7963 64.9436 60.8097 64.3572 60.7737 63.7734 60.8415 63.1868 60.8548 62.599 60.819 62.0166 60.8868 61.4301 60.9015 60.8437 60.8642 60.2598 60.9335 59.6734 60.9468 59.0868 60.9095 58.503 60.9788 57.9166 60.9921 57.3301 60.9561 56.7463 61.0239 56.1598 61.0373 55.572 61.0013 54.9895 61.0706 54.403 61.0826 53.8152 61.0466 53.2328 61.1159 52.6463 61.1292 52.0585 61.0919 51.476 61.1611 50.8882 61.1744 50.3017 61.1372 49.7178 61.2064 49.1314 61.2197 48.5449 61.1837 47.9611 61.2517 47.3747 61.2663 46.7881 61.229 46.2043 61.2983 45.6192 61.3116 45.0314 61.2743 44.4476 61.3435 43.8611 61.3568 43.2746 61.3209 42.6909 61.3888 42.1043 61.4021 41.5179 61.3661 40.934 61.4341 40.3476 61.4474 39.761 61.4114 39.1773 61.4794 38.5908 61.4927 38.003 61.4567 37.4205 61.5247 36.8341 61.5392 36.2462 61.502 35.6638 61.5712 35.0772 61.5845 34.4894 61.5472 33.9057 61.6165 33.3205 61.6298 32.7341 61.5938 32.1502 61.6618 31.5637 61.6764 30.976 61.6391 30.3934 61.7083 29.807 61.7217 29.2192 61.6844 28.6367 61.7536 28.0503 61.7669 27.4624 61.7296 26.8799 61.7989 26.2921 61.8122 25.7056 61.7749 25.1218 61.8442 24.5354 61.8575 23.9489 61.8216 23.3651 61.8894 22.7786 61.9041 22.1921 61.8667 21.6083 61.936 21.0218 61.9494 20.4354 61.912 19.8515 61.9813 19.2651 61.9947 18.6785 61.9587 14.1404 62.4913 9.41117 59.8417 5.71459 53.9686-1.2216 42.9455-1.88958 24.7498 4.22769 13.3167 7.50076 7.19731 12.0563 4.26674 16.6466 4.55306 17.2305 4.48512 17.8155 4.47045 18.4034 4.50777 18.9872 4.43847 19.5736 4.42516 20.1602 4.46248 20.7439 4.39329 21.3304 4.37997 21.9169 4.41719 22.5007 4.34799 23.0872 4.33468 23.6736 4.3719 24.2574 4.3027 24.844 4.28939 25.4318 4.32535 26.0143 4.25741 26.6007 4.24274 27.1885 4.28006 27.771 4.21212 28.3575 4.19755 28.9453 4.23477 29.5278 4.16558 30.1142 4.15226 30.7021 4.18822 31.2859 4.12028 31.871 4.10697 32.4589 4.14293 33.0413 4.07499 33.6278 4.06168 34.2156 4.09764 34.7981 4.0297 35.3845 4.01639 35.9723 4.05235 36.5549 3.98452 37.1413 3.96984 37.7291 4.00716 38.313 3.93786 38.8994 3.92455 39.4859 3.96187 40.0697 3.89257 40.6561 3.87926 41.2427 3.91522 41.8265 3.84739 42.413 3.83271 42.9994 3.86993 43.5832 3.80073 44.1697 3.78742 44.7575 3.82474 45.34 3.75544 45.9265 3.74213 46.5129 3.77945 47.0968 3.71015 47.6832 3.69684 48.2698 3.73416 48.8535 3.66497 49.44 3.65165 50.0279 3.68761 50.6103 3.61968 51.1968 3.605 51.7846 3.64232 52.367 3.57302 52.9536 3.55971 53.5414 3.59703 54.1238 3.52784 54.7103 3.51452 55.2981 3.55038 55.8819 3.48255 56.4684 3.46923 57.0549 3.50519 57.6388 3.43726 58.2252 3.42394 58.8116 3.4599 59.3955 3.39197 59.9819 3.37865 60.5685 3.41461 61.1509 3.34668 61.7374 3.3321 62.3252 3.36932 62.909 3.30013 63.4955 3.28681 64.0819 3.32403 64.6657 3.25484 65.2523 3.24016 65.8387 3.27748 66.4226 3.20955 67.009 3.19497 67.5954 3.23219 68.1793 3.163 68.7657 3.14968 69.3536 3.1869 69.9361 3.11771 70.5225 3.10439 71.1104 3.14172 71.6928 3.07242 72.2793 3.0591 72.8671 3.09642 73.4509 3.02713 74.0374 3.01381 74.6239 3.04977 75.2064 2.98194 75.7928 2.96726 76.3806 3.00448 76.9632 2.93529 77.5496 2.92197 78.1374 2.9593 78.7199 2.89 79.3063 2.87668 79.8941 2.91264 80.478 2.84471 81.0644 2.83139 81.651 2.86735 82.2348 2.79952 82.8212 2.78484 83.4077 2.82217 83.9915 2.75287 84.578 2.73955 85.1645 2.77688 85.7483 2.70758 86.3348 2.69426 86.9226 2.73158 87.5051 2.66239 88.0915 2.64908 88.6781 2.68629 89.2618 2.6171 89.8483 2.60242 90.4348 2.63975 91.0186 2.57181 91.605 2.55713 92.1915 2.59446 92.7753 2.52516 93.3619 2.51184 93.9497 2.54916 94.5321 2.47997 95.1186 2.46666 95.705 2.50262 96.2902 2.43468 96.8754 2.42137 97.4632 2.45733 98.0457 2.38939 98.6335 2.37608 99.2199 2.41203 99.8038 2.3441 100.389 2.32953 100.977 2.36674 101.56 2.29755 102.147 2.28424 102.733 2.32145 103.316 2.25226 103.904 2.23895 104.49 2.27491 105.074 2.20697 105.659 2.1924 106.247 2.22961 106.829 2.16042 107.417 2.14711 108.004 2.18432 108.588 2.11513 109.174 2.10182 109.762 2.13914 110.344 2.06984 110.931 2.05653 111.517 2.09385 112.102 2.02455 112.688 2.01123 113.275 2.04719 113.858 1.97936 114.446 1.96469 115.032 2.0019 115.616 1.93407 116.201 1.9194 116.788 1.95672 117.371 1.88742 117.958 1.87411 118.546 1.91006 119.128 1.84213 119.715 1.82881 120.301 1.86477 120.886 1.79694 121.471 1.78363 122.059 1.81959 122.642 1.75165 123.23 1.73834 123.816 1.7743 124.4 1.70636 124.985 1.69168 125.573 1.72901 126.157 1.65981 126.743 1.6465 127.33 1.68372 127.913 1.61452 128.5 1.60121 129.088 1.63717 129.67 1.56923 130.257 1.55456 130.843 1.59188 131.427 1.52258 132.013 1.50926 132.6 1.54659 133.184 1.47739 133.77 1.46408 134.358 1.5013 134.94 1.4321 135.527 1.41879 136.113 1.45601 136.697 1.38681 137.284 1.3735 137.872 1.40946 138.454 1.34152 139.042 1.32695 139.628 1.36417 140.212 1.29623 140.797 1.28166 141.385 1.31888 141.968 1.24968 142.555 1.23637 143.142 1.27233 143.726 1.20439 144.311 1.19108 144.898 1.22704 145.482 1.1591 146.068 1.14579 146.655 1.18175 147.238 1.11392 147.826 1.1006 148.412 1.13646 148.996 1.06863 149.581 1.05395 150.169 1.09127 150.753 1.02197 151.339 1.00866 151.926 1.04598 152.509 0.976682 153.096 0.963367 153.684 0.999327 154.266 0.931496 154.853 0.916819 155.439 0.954141 156.023 0.884843 156.609 0.871528 157.197 0.908851 157.78 0.839552 158.367 0.826237 158.954 0.86356 159.538 0.794366 160.123 0.781052 160.709 0.81827 161.293 0.749076 161.88 0.735761 162.468 0.771721 163.05 0.703785 163.638 0.689108 164.224 0.726431 164.808 0.658495 165.393 0.643817 165.981 0.68114 166.564 0.611946 167.151 0.598632 167.738 0.634592 168.322 0.566656 168.908 0.553341 169.496 0.589301 170.078 0.521365 170.665 0.506688 171.251 0.54401 171.835 0.474817 172.422 0.461502 173.008 0.49872 173.592 0.429526 174.177 0.416212 174.765 0.453429 175.349 0.384236 175.935 0.370921 176.522 0.408244 177.105 0.338945 177.692 0.32563 178.28 0.36159 178.862 0.293655 179.449 0.279082 180.035 0.3163 180.619 0.247106 181.205 0.233791 181.793 0.271009 182.376 0.201815 182.964 0.188501 183.55 0.224461 184.134 0.156525 184.719 0.14321 185.307 0.17917 185.889 0.111234 186.477 0.0979198 187.064 0.13388" fill="#FFFFFF" fill-rule="evenodd" transform="matrix(1 0 0 -1 546 323)"/><path d="M33.9639 47.7954C31.7738 51.8452 28.9344 54.6736 25.9211 56.0284 24.9357 56.4166 23.9184 56.7006 22.8849 56.8815 22.3681 56.9382 21.8514 56.9593 21.3373 56.9276 20.7537 56.995 20.1647 57.0095 19.577 56.9725 19.1941 57.0175 18.8086 57.0307 18.423 57.0293 13.5623 56.513 8.81389 53.8061 5.72414 48.9481-1.22633 38.0148-1.88493 20.0567 4.24493 8.71927 7.107 3.42424 10.9464 0.533797 14.933 0.0716373 15.2155 0.0663347 15.498 0.0702856 15.7818 0.0874412 16.0923 0.0517785 16.4056 0.034623 16.7175 0.0293203 16.9732 0.0465798 17.2275 0.0716373 17.4819 0.1073L20.5609 14.656 31.1821 14.6824C31.1968 14.7234 31.2129 14.763 31.2289 14.8039 31.2825 14.9505 34.7738 14.8066 35.5863 14.8897 39.2477 25.5155 38.9157 38.6341 33.9639 47.7954" fill="#C0CBFF" fill-rule="evenodd" transform="matrix(1 0 0 -1 719 323)"/><path d="M2.25219 42.0307C-1.20237 31.3619-0.644579 17.9625 4.21503 8.84392 10.3196-2.61535 20.8849-2.94254 27.8127 8.11215 33.178 16.6712 37.7802 29.0666 35.401 39.7607Z" fill="#9FB0ED" fill-rule="evenodd" transform="matrix(1 0 0 -1 719 323)"/><path d="M29.6782 8.76721C23.615 20.1558 24.2771 38.2839 31.1519 49.2653 34.5549 54.6983 38.8384 57.359 43.0345 57.2861 42.9497 57.2901 42.8663 57.2915 42.7816 57.2927 42.6982 57.2968 42.6148 57.2994 42.53 57.3008 42.4466 57.3047 42.3619 57.306 42.2784 57.3087 42.1924 57.3113 42.109 57.314 42.0242 57.3153 41.9408 57.3192 41.856 57.3206 41.7726 57.322 41.6879 57.3259 41.6045 57.3285 41.5197 57.3299 41.4363 57.3339 41.3515 57.3352 41.2681 57.3378 41.1835 57.3405 41.0987 57.3432 41.0153 57.3445 40.9305 57.3485 40.8471 57.3498 40.7623 57.3511 40.6789 57.3551 40.5942 57.3578 40.5108 57.359 40.426 57.3631 40.3426 57.3644 40.2578 57.3671 40.1744 57.3697 40.0896 57.3723 40.005 57.3737 39.9202 57.3776 39.8368 57.379 39.752 57.3803 39.6686 57.3843 39.5839 57.3869 39.5005 57.3883 39.4157 57.3923 39.3323 57.3949 39.2489 57.3962 39.1641 57.3988 39.0807 57.4015 38.9959 57.4029 38.9125 57.4069 38.8265 57.4081 38.7431 57.4095 38.6583 57.4134 38.5762 57.4162 38.4915 57.4174 38.4068 57.4214 38.322 57.4241 38.2386 57.4254 38.1538 57.4294 38.0704 57.4307 37.9857 57.432 37.9022 57.436 37.8175 57.4374 37.7327 57.44 37.6493 57.4427 37.5646 57.4453 37.4811 57.4467 37.3965 57.4506 37.3131 57.4532 37.2283 57.4546 37.1449 57.4572 37.0601 57.4599 36.9767 57.4612 36.892 57.4651 36.8085 57.4665 36.7224 57.4692 36.639 57.4718 36.5556 57.4744 36.4722 57.4758 36.3862 57.4798 36.3027 57.4825 36.218 57.4837 36.1346 57.4865 36.0498 57.4891 35.9664 57.4904 35.883 57.4944 35.7982 57.4958 35.7148 57.4984 35.6301 57.501 35.5467 57.5037 35.4605 57.5049 35.3771 57.509 35.2924 57.5116 35.209 57.513 35.1243 57.5156 35.0408 57.5182 34.9561 57.5196 34.8727 57.5235 34.788 57.5262 34.7045 57.5275 34.6198 57.5302 34.5364 57.5328 34.4503 57.5342 34.3668 57.5382 34.2834 57.5408 34.1987 57.5408 34.1166 57.5447 34.0319 57.5475 33.9484 57.5488 33.8623 57.5528 33.7789 57.5554 33.6943 57.5567 33.6107 57.5607 33.5261 57.5621 33.4427 57.5633 33.3579 57.5673 33.2745 57.5687 33.1897 57.5713 33.1063 57.574 33.0202 57.5766 32.9368 57.5779 32.852 57.5819 32.7686 57.5845 32.6852 57.5859 32.6004 57.5899 32.517 57.5912 32.4323 57.5926 32.3489 57.5965 32.2642 57.5978 32.1794 57.6005 32.0947 57.6031 32.0113 57.6058 31.9279 57.6071 31.8431 57.6111 31.7597 57.6138 31.6749 57.6151 31.5902 57.6191 31.5067 57.6204 31.422 57.6231 31.3386 57.6257 31.2538 57.6284 31.1691 57.6296 31.0857 57.6324 31.0023 57.635 30.9176 57.6363 30.8342 57.6403 30.7494 57.6429 30.666 57.6443 30.5812 57.6482 30.4965 57.6496 30.413 57.6508 30.3283 57.6549 30.2449 57.6575 30.1601 57.6589 30.0754 57.6629 29.9919 57.6641 29.9073 57.6655 29.8239 57.6694 29.7404 57.6721 29.6557 57.6734 29.5709 57.6774 29.4875 57.6787 29.4028 57.6801 29.3193 57.6841 29.2346 57.6867 29.1512 57.688 29.0664 57.692 28.9816 57.6934 28.8982 57.6947 28.8135 57.6987 28.7301 57.7013 28.6454 57.7026 28.5619 57.7066 28.4772 57.708 28.3938 57.7092 28.309 57.7132 28.2243 57.7159 28.1409 57.7172 28.0561 57.7212 27.9727 57.7225 27.8879 57.7239 27.8032 57.7278 27.7198 57.7304 27.6364 57.7318 27.5516 57.7345 27.4682 57.7371 27.3834 57.7385 27.3 57.7424 27.2153 57.7451 27.1306 57.7464 27.0472 57.7504 26.9624 57.7517 26.8776 57.7543 26.7942 57.757 26.7095 57.7597 26.6261 57.761 26.5413 57.765 26.4579 57.7663 26.3731 57.7676 26.2897 57.7716 26.2051 57.7743 26.1215 57.7756 26.0369 57.7795 25.9535 57.7809 25.8687 57.7835 25.7853 57.7862 25.7005 57.7888 25.6158 57.7902 25.5324 57.7941 25.4476 57.7955 25.3642 57.7967 25.2794 57.8008 25.196 57.8034 25.1126 57.8048 25.0278 57.8088 24.9431 57.8114 24.8584 57.8127 24.775 57.8153 24.6902 57.8181 24.6055 57.8193 24.5221 57.8233 24.4387 57.8246 24.3539 57.826 24.2705 57.83 24.1857 57.8326 24.1023 57.8339 24.0175 57.8379 23.9341 57.8406 23.8494 57.8419 23.7646 57.8446 23.6812 57.8472 23.5965 57.8486 23.513 57.8525 23.4284 57.8539 23.345 57.8551 23.2602 57.8591 23.1768 57.8618 23.092 57.8631 23.0073 57.8671 22.9238 57.8698 22.8391 57.8711 22.7557 57.8737 22.6709 57.8763 22.5875 57.8777 22.5027 57.8817 22.4193 57.883 22.3347 57.8856 22.2512 57.8884 22.1665 57.891 22.0817 57.8923 21.9983 57.8963 21.9136 57.8989 21.8301 57.9003 21.7454 57.9029 21.662 57.9056 21.5772 57.9069 21.4924 57.9109 21.409 57.9122 21.3243 57.9149 21.2409 57.9175 21.1562 57.9202 21.0727 57.9215 20.9893 57.9254 20.9046 57.9281 20.8199 57.9281 20.7364 57.9321 20.653 57.9347 20.5683 57.9361 20.4835 57.9401 20.4001 57.9427 20.3153 57.944 20.2306 57.948 20.1472 57.9493 20.0624 57.9507 19.979 57.9547 19.8942 57.9559 19.8108 57.9573 19.7261 57.9613 19.6414 57.964 19.558 57.9652 19.4732 57.9692 19.3898 57.9719 19.3064 57.9733 19.2216 57.9772 19.1369 57.9785 19.0535 57.9798 18.9687 57.9838 18.8853 57.9852 18.8005 57.9865 18.7171 57.9905 18.6323 57.9931 18.5477 57.9945 18.4642 57.9984 18.3795 58.001 18.2961 58.0024 18.2113 58.0064 18.1266 58.0077 18.0432 58.009 17.9584 58.0131 17.875 58.0143 17.7902 58.017 13.5147 58.204 9.12652 55.5446 5.65608 50.0027-1.21882 39.0214-1.88088 20.8946 4.18234 9.50468 7.24231 3.7547 11.4332 0.831257 15.7167 0.756999 15.8014 0.75303 15.8848 0.751672 15.9696 0.750314 16.0544 0.746345 16.1378 0.743734 16.2224 0.742377 16.306 0.738408 16.3906 0.73705 16.474 0.735692 16.5588 0.731723 16.6422 0.729112 16.727 0.727755 16.8117 0.725144 16.8951 0.722428 16.9799 0.721175 17.0633 0.717206 17.1481 0.71449 17.2315 0.713237 17.3163 0.709164 17.4009 0.707911 17.4844 0.705195 17.5678 0.702584 17.6525 0.699973 17.736 0.698615 17.8207 0.6959 17.9041 0.693289 17.9888 0.691931 18.0736 0.687962 18.157 0.685351 18.2418 0.683993 18.3265 0.680025 18.41 0.678667 18.4947 0.676056 18.5781 0.673445 18.6628 0.670729 18.7463 0.669371 18.831 0.665403 18.9144 0.664149 18.9991 0.662791 19.0839 0.658823 19.1673 0.656107 19.2521 0.654854 19.3355 0.650885 19.4189 0.649527 19.5037 0.646916 19.5884 0.644201 19.6718 0.64159 19.7566 0.640232 19.84 0.636263 19.9248 0.634905 20.0082 0.633652 20.0928 0.629579 20.1763 0.626968 20.261 0.62561 20.3458 0.621641 20.4292 0.61903 20.5139 0.617672 20.5974 0.615061 20.6821 0.612346 20.7669 0.611093 20.8503 0.607124 20.9337 0.605766 21.0185 0.604408 21.1019 0.600439 21.1866 0.597828 21.2713 0.596471 21.3548 0.592502 21.4395 0.589786 21.5229 0.588533 21.6076 0.585817 21.6911 0.583206 21.7758 0.581849 21.8592 0.57788 21.944 0.576522 22.0288 0.573911 22.1122 0.5713 22.1969 0.568584 22.2803 0.567331 22.3651 0.563258 22.4498 0.560647 22.5332 0.560647 22.6167 0.556678 22.7014 0.554067 22.7848 0.552709 22.8695 0.54874 22.9529 0.547383 23.0377 0.544772 23.1225 0.542056 23.2059 0.539445 23.2906 0.538087 23.374 0.534118 23.4588 0.532761 23.5436 0.531507 23.627 0.527539 23.7116 0.524823 23.7952 0.523465 23.8798 0.519497 23.9632 0.516885 24.048 0.515528 24.1328 0.512917 24.2162 0.510201 24.2996 0.508948 24.3843 0.504979 24.4677 0.503621 24.5525 0.502263 24.6359 0.498295 24.7207 0.495684 24.8055 0.494326 24.8889 0.490357 24.9736 0.487746 25.057 0.486388 25.1417 0.482419 25.2265 0.481062 25.3099 0.479704 25.3946 0.475735 25.478 0.474482 25.5628 0.473124 25.6462 0.469155 25.731 0.46644 25.8157 0.465186 25.8992 0.461218 25.9826 0.458502 26.0673 0.457249 26.1507 0.453176 26.2355 0.451922 26.3189 0.450565 26.4037 0.446596 26.4883 0.445238 26.5717 0.442627 26.6565 0.439911 26.7399 0.4373 26.8247 0.435943 26.9094 0.431974 26.9929 0.429363 27.0776 0.428005 27.161 0.424036 27.2458 0.422678 27.3292 0.421425 27.414 0.417352 27.4974 0.414741 27.582 0.413383 27.6655 0.410772 27.7502 0.408161 27.835 0.406803 27.9184 0.402834 28.0031 0.400119 28.0866 0.398866 28.1713 0.394897 28.2547 0.393539 28.3395 0.392181 28.4229 0.388212 28.5077 0.385601 28.5924 0.384244 28.6758 0.380275 28.7605 0.378917 28.844 0.377664 28.9287 0.37359 29.0121 0.370979 29.0968 0.369622 29.1803 0.367011 29.265 0.3644 29.3484 0.363042 29.4332 0.359073 29.5166 0.356357 29.6014 0.355104 29.6848 0.351135 29.7695 0.349778 29.8543 0.34842 29.9377 0.344451 30.0225 0.34184 30.1071 0.340482 30.1905 0.337871 30.2753 0.335156 30.3587 0.333798 30.4435 0.329829 30.5269 0.327218 30.6117 0.32586 30.6951 0.321891 30.7798 0.320534 30.8632 0.31928 30.948 0.315312 31.0314 0.312596 31.1162 0.311343 31.1996 0.308627 31.2844 0.306016 31.3678 0.304658 31.4524 0.30069 31.5372 0.297974 31.6206 0.296721 31.7054 0.292752 31.7888 0.291394 31.8735 0.290037 31.9569 0.286068 32.0417 0.283457 32.1265 0.282099 32.2099 0.279488 32.2946 0.276772 32.3781 0.275519 32.4628 0.27155 32.5462 0.268835 32.6296 0.267477 32.7144 0.263508 32.7978 0.262255 32.8838 0.259539 32.9672 0.256928 33.052 0.254213 33.1354 0.252959 33.2202 0.250244 33.3036 0.247633 33.3884 0.246275 33.4718 0.242306 33.5565 0.239695 33.6399 0.238338 33.7247 0.234369 33.8081 0.233011 33.8929 0.2304 33.9763 0.227684 34.0623 0.225073 34.1457 0.223716 34.2305 0.219747 34.3139 0.218493 34.3973 0.217136 34.4821 0.213167 34.5655 0.210451 34.6502 0.209198 34.7336 0.205229 34.8184 0.202514 34.9018 0.201156 34.9866 0.198545 35.07 0.195934 35.1547 0.194576 35.2394 0.190607 35.3242 0.18925 35.4076 0.187892 35.4923 0.183923 35.5758 0.181312 35.6605 0.179954 35.7439 0.175985 35.8287 0.173374 35.9121 0.173374 35.9955 0.169406 36.0803 0.16669 36.1637 0.165437 36.2485 0.161363 36.3332 0.16011 36.4179 0.157395 36.5013 0.154784 36.586 0.152173 36.6695 0.150815 36.7542 0.146846 36.8376 0.145488 36.9224 0.144131 37.0058 0.140162 37.0906 0.137551 37.174 0.136193 37.2587 0.132224 37.3422 0.130866 37.4282 0.128255 37.5117 0.125644 37.5951 0.122929 37.6797 0.121571 37.7633 0.117602 37.8479 0.116349 37.9313 0.114991 38.0161 0.111022 38.0995 0.108307 38.1843 0.107053 38.2677 0.103085 38.3524 0.100369 38.4359 0.0991158 38.5206 0.0964003 38.6054 0.0937893 38.6901 0.0924315 38.7736 0.0884627 38.8582 0.087105 38.9417 0.0858517 39.0264 0.0817784 39.1098 0.0791673 39.1946 0.0778096 39.278 0.0738408 39.3614 0.0712297 39.4461 0.069872 39.5296 0.0672609 39.6143 0.0645454 39.6991 0.0632921 39.7838 0.0593233 39.8673 0.0579655 39.952 0.0566078 40.0354 0.052639 40.1201 0.0500279 40.2036 0.0486702 40.2883 0.0447013 40.3717 0.0419858 40.4564 0.0407325 40.5398 0.0367637 40.6246 0.035406 40.708 0.0340482 40.7941 0.0300794 40.8776 0.0287217 40.961 0.0261106 36.7661 0.209198 32.6799 3.12993 29.6782 8.76721" fill="#F76D59" fill-rule="evenodd" transform="matrix(1 0 0 -1 609 321)"/><path d="M166.042 52.0163 166.042 48.2006 83.0635 0.0216266 0.0422928 48.206 0.0422928 52.0216Z" fill="#373759" fill-rule="evenodd" transform="matrix(1 0 0 -1 564 238)"/><path d="M0.0319784 72.0249 0.0319784 27.7964C0.0319784 12.4584 20.8505 0.0248709 46.532 0.0248709 72.2121 0.0248709 93.032 12.4584 93.032 27.7964L93.032 72.0249Z" fill="#262644" fill-rule="evenodd" transform="matrix(1 0 0 -1 601 271)"/><path d="M0.0291747 48.0259 83.0292 96.0172 166.029 48.0206 83.0519 0.0172382Z" fill="#373759" fill-rule="evenodd" transform="matrix(1 0 0 -1 564 238)"/><path d="M0.0291747 48.0268 83.0292 96.0168 166.029 48.0214 83.0519 0.0168178Z" fill="#181830" fill-rule="evenodd" transform="matrix(1 0 0 -1 564 234)"/><path d="M83.0346 0.0175123 83.0346 3.83192 0.0346224 52.0176 0.0346224 48.2018Z" fill="#373759" fill-rule="evenodd" transform="matrix(1 0 0 -1 564 238)"/><path d="M3.36564 0.0226762 6.71094 0.0226762C8.64432 0.0226762 10.1705 1.73446 10.0292 3.74505L8.35663 12.8079C8.22817 14.6202 6.78033 16.0227 5.03834 16.0227 3.29503 16.0227 1.84851 14.6202 1.72126 12.8079L0.0473406 3.74505C-0.0939732 1.73446 1.43226 0.0226762 3.36564 0.0226762" fill="#EABD70" fill-rule="evenodd" transform="matrix(1 0 0 -1 681 255)"/><path d="M45.3542 0.017012 47.0395 0.017012 47.0395 50.8039 0.894164 78.0171 0.0395152 76.5652 45.3542 49.8431Z" fill="#EABD70" fill-rule="evenodd" transform="matrix(1 0 0 -1 640 256)"/><path d="M8.04133 4.02234C8.04133 1.81339 6.25028 0.0223355 4.04133 0.0223355 1.83367 0.0223355 0.0413261 1.81339 0.0413261 4.02234 0.0413261 6.23129 1.83367 8.02234 4.04133 8.02234 6.25028 8.02234 8.04133 6.23129 8.04133 4.02234" fill="#EABD70" fill-rule="evenodd" transform="matrix(1 0 0 -1 682 237)"/></g></svg>