<svg width="564" height="480" xmlns="http://www.w3.org/2000/svg" xmlns:xlink="http://www.w3.org/1999/xlink" overflow="hidden"><defs><clipPath id="clip0"><path d="M358 120 922 120 922 600 358 600Z" fill-rule="evenodd" clip-rule="evenodd"/></clipPath></defs><g clip-path="url(#clip0)" transform="translate(-358 -120)"><path d="M49.1653 203.915C33.8724 202.098 9.09885 195.103 2.07723 179.429L2.07723 179.429C-5.7014 162.066 10.1361 147.168 23.3091 137.988L23.3091 137.988C35.9522 129.18 45.1098 119.419 41.9393 102.493L41.9393 102.493C39.5659 89.8164 32.5775 78.9655 31.595 65.7256L31.595 65.7256C30.2722 47.8807 40.6058 41.1888 56.9039 35.7168L56.9039 35.7168C71.6694 30.7589 88.069 31.1091 103.387 29.9399L103.387 29.9399C127.872 28.0728 152.084 27.909 176.587 26.801L176.587 26.801C189.38 26.2204 202.188 26.6506 214.996 27.0821L214.996 27.0821C228.46 27.5335 241.926 27.9863 255.379 27.2658L255.379 27.2658C267.753 26.6039 274.218 25.6798 276.196 14.1631L276.196 14.1631C278.595 0.214752 283.495-0.869285 299.202 0.463794L299.202 0.463794C322.715 2.46263 347.305 10.5688 369.16 19.0052L369.16 19.0052C404.76 32.7485 437.646 49.4349 469.317 70.8022L469.317 70.8022C478.699 77.1331 496.276 88.5779 493.778 102.113L493.778 102.113C491.1 116.63 473.113 119.034 476.527 136.137L476.527 136.137C479.7 152.031 501.731 172.163 480.706 186.092L480.706 186.092C467.083 195.265 448.564 195.749 432.724 196.554L432.724 196.554C397.3 198.352 361.956 201.456 326.607 204.67L326.607 204.67C296.234 207.431 265.858 210.274 235.423 212.442L235.423 212.442C219.91 213.547 204.494 214.038 189.131 214.037L189.131 214.037C142.342 214.037 96.0612 209.488 49.1653 203.915" fill="#FFFFFF" fill-rule="evenodd" transform="matrix(1 0 0 -1 401 583)"/><path d="M55.9109 231.59C35.9446 229.208 9.95282 220.436 2.42136 203.551L2.42136 203.551C-4.5198 188.003 3.59284 171.982 26.5286 155.938L26.5286 155.938C41.413 145.527 50.6252 134.842 47.2093 116.528L47.2093 116.528C46.0591 110.367 43.8946 104.465 41.8009 98.7606L41.8009 98.7606C39.046 91.2527 36.1979 83.4887 35.5635 74.9382L35.5635 74.9382C34.0734 54.7723 45.5233 46.7599 64.4821 40.3708L64.4821 40.3708C77.4219 36.0082 91.4948 35.2592 105.104 34.5343L105.104 34.5343C109.005 34.3287 113.04 34.1125 116.927 33.8148L116.927 33.8148C134.681 32.4544 152.615 31.8844 169.958 31.3331L169.958 31.3331C179.554 31.0274 189.475 30.7124 199.28 30.2678L199.28 30.2678C213.692 29.611 228.358 30.1063 242.537 30.5855L242.537 30.5855C257.411 31.0875 272.792 31.604 287.898 30.7951L287.898 30.7951C301.772 30.0502 308.536 29.1317 310.691 16.5524L310.691 16.5524C312.962 3.28296 317.491 0.0376312 328.169 0.0376312L328.169 0.0376312C330.811 0.0376312 333.828 0.236509 337.277 0.531568L337.277 0.531568C365.388 2.92914 394.192 13.0014 416.15 21.5091L416.15 21.5091C457.559 37.5567 494.452 56.712 528.935 80.0671L528.935 80.0671 529.754 80.6212C540.898 88.1557 559.548 100.77 556.732 116.099L556.732 116.099C555.393 123.379 550.792 127.998 546.341 132.466L546.341 132.466C540.618 138.213 535.211 143.639 537.326 154.266L537.326 154.266C538.359 159.472 541.185 165.035 544.176 170.926L544.176 170.926C551.08 184.526 558.906 199.943 541.745 211.356L541.745 211.356C527.01 221.319 507.372 222.293 490.043 223.151L490.043 223.151 487.437 223.283C447.797 225.303 408.372 228.77 368.106 232.446L368.106 232.446 357.246 233.439C327.207 236.189 296.145 239.033 265.534 241.225L265.534 241.225C248.132 242.469 230.845 243.039 213.416 243.038L213.416 243.038C163.858 243.038 113.208 238.428 55.9109 231.59M199.34 31.6014C189.526 32.0473 179.601 32.3637 170.001 32.668L170.001 32.668C152.671 33.2181 134.751 33.7881 117.029 35.1458L117.029 35.1458C113.126 35.4461 109.083 35.6611 105.174 35.8667L105.174 35.8667C91.6534 36.5875 77.6751 37.3324 64.9058 41.635L64.9058 41.635C46.0804 47.9814 35.4595 55.4491 36.8949 74.8394L36.8949 74.8394C37.5133 83.203 40.3281 90.8777 43.0524 98.3001L43.0524 98.3001C45.1648 104.058 47.3505 110.009 48.518 116.282L48.518 116.282C52.2738 136.42 40.536 147.768 27.2896 157.033L27.2896 157.033C4.9549 172.657-3.00442 188.127 3.63544 203.006L3.63544 203.006C10.9418 219.381 36.4485 227.925 56.0709 230.265L56.0709 230.265C133.444 239.499 198.655 244.668 265.441 239.893L265.441 239.893C296.036 237.703 327.092 234.86 357.125 232.11L357.125 232.11 367.987 231.115C408.265 227.44 447.705 223.972 487.369 221.949L487.369 221.949 489.979 221.817C507.132 220.968 526.573 220.003 541.004 210.247L541.004 210.247C557.179 199.489 549.966 185.277 542.989 171.532L542.989 171.532C539.953 165.555 537.089 159.912 536.018 154.526L536.018 154.526C533.765 143.201 539.68 137.265 545.397 131.523L545.397 131.523C549.705 127.199 554.157 122.728 555.42 115.856L555.42 115.856C558.078 101.388 539.881 89.0808 529.008 81.7266L529.008 81.7266 528.187 81.1739C493.789 57.8748 456.983 38.7648 415.667 22.756L415.667 22.756C393.794 14.2777 365.104 4.24539 337.165 1.86117L337.165 1.86117C319.39 0.342045 314.6 1.61152 312.005 16.7793L312.005 16.7793C309.686 30.3065 301.767 31.3852 287.969 32.1274L287.969 32.1274C282.25 32.4345 276.496 32.5519 270.747 32.5519L270.747 32.5519C261.253 32.5519 251.773 32.2328 242.49 31.9192L242.49 31.9192C233.224 31.6054 223.753 31.2864 214.283 31.2864L214.283 31.2864C209.292 31.2864 204.3 31.3758 199.34 31.6014" fill="#FFFFFF" fill-rule="evenodd" transform="matrix(1 0 0 -1 364 600)"/><path d="M52.4298 217.3C33.7087 215.066 9.34066 206.83 2.27339 190.975L2.27339 190.975C-4.23771 176.371 3.36703 161.33 24.8769 146.267L24.8769 146.267C38.8088 136.513 47.4351 126.5 44.2382 109.345L44.2382 109.345C43.1619 103.569 41.1334 98.0406 39.1729 92.6912L39.1729 92.6912C36.5895 85.6464 33.9195 78.3597 33.3259 70.3336L33.3259 70.3336C31.9269 51.3934 42.6672 43.87 60.4507 37.8682L60.4507 37.8682C72.5795 33.7742 85.7671 33.0723 98.5225 32.393L98.5225 32.393C102.178 32.1979 105.959 31.9959 109.603 31.7165L109.603 31.7165C126.238 30.4424 143.041 29.9076 159.293 29.3901L159.293 29.3901C168.285 29.1053 177.58 28.8098 186.77 28.3914L186.77 28.3914C200.277 27.775 214.014 28.2389 227.299 28.6882L227.299 28.6882C241.239 29.1588 255.654 29.6455 269.806 28.886L269.806 28.886C282.784 28.1868 289.111 27.3285 291.122 15.5641L291.122 15.5641C293.256 3.08831 297.507 0.0372681 307.532 0.0372681L307.532 0.0372681C310.01 0.0372681 312.843 0.224451 316.081 0.501225L316.081 0.501225C342.43 2.75142 369.423 12.1988 389.996 20.1781L389.996 20.1781C428.806 35.2343 463.377 53.2011 495.685 75.1067L495.685 75.1067 496.45 75.6242C506.901 82.6983 524.392 94.5376 521.75 108.944L521.75 108.944C520.494 115.783 516.178 120.121 512.002 124.316L512.002 124.316C506.647 129.699 501.59 134.78 503.565 144.725L503.565 144.725C504.533 149.601 507.179 154.817 509.981 160.34L509.981 160.34C516.458 173.113 523.8 187.59 507.689 198.316L507.689 198.316C493.87 207.667 475.459 208.58 459.214 209.386L459.214 209.386 456.78 209.508C419.635 211.404 382.696 214.655 344.968 218.102L344.968 218.102 334.634 219.047C306.539 221.624 277.487 224.287 248.856 226.335L248.856 226.335C232.544 227.503 216.343 228.037 200.007 228.037L200.007 228.037C153.572 228.036 106.115 223.713 52.4298 217.3M186.83 29.7257C177.634 30.1455 168.33 30.441 159.333 30.7285L159.333 30.7285C143.099 31.2446 126.309 31.778 109.706 33.0509L109.706 33.0509C106.046 33.3303 102.256 33.5321 98.5933 33.7274L98.5933 33.7274C85.9285 34.4026 72.8329 35.0992 60.8763 39.1343L60.8763 39.1343C43.2553 45.0826 33.3166 52.0766 34.657 70.2346L34.657 70.2346C35.2358 78.0735 37.8738 85.2707 40.4252 92.2312L40.4252 92.2312C42.4045 97.6301 44.4516 103.215 45.548 109.1L45.548 109.1C49.073 128.01 38.0632 138.666 25.6398 147.364L25.6398 147.364C4.73003 162.006-2.72128 176.495 3.48969 190.431L3.48969 190.431C10.3303 205.773 34.2129 213.778 52.5872 215.973L52.5872 215.973C125.082 224.632 186.185 229.484 248.761 225.001L248.761 225.001C277.377 222.954 306.424 220.291 334.512 217.717L334.512 217.717 344.848 216.77C382.588 213.321 419.543 210.069 456.713 208.173L456.713 208.173 459.149 208.05C475.22 207.255 493.432 206.351 506.947 197.206L506.947 197.206C522.073 187.135 515.322 173.821 508.792 160.947L508.792 160.947C505.948 155.338 503.261 150.042 502.258 144.986L502.258 144.986C500.141 134.342 505.692 128.765 511.058 123.373L511.058 123.373C515.088 119.322 519.256 115.133 520.438 108.701L520.438 108.701C522.922 95.1553 505.883 83.6235 495.704 76.7313L495.704 76.7313 494.937 76.2138C462.715 54.3655 428.23 36.4456 389.515 21.4268L389.515 21.4268C369.025 13.4783 342.148 4.0697 315.969 1.83288L315.969 1.83288C299.342 0.417003 294.865 1.59884 292.437 15.7886L292.437 15.7886C290.261 28.5103 282.827 29.5238 269.875 30.2191L269.875 30.2191C264.514 30.5078 259.119 30.6188 253.728 30.6188L253.728 30.6188C244.834 30.6188 235.952 30.3193 227.255 30.0253L227.255 30.0253C218.57 29.7311 209.692 29.4329 200.819 29.4329L200.819 29.4329C196.146 29.4329 191.472 29.5158 186.83 29.7257" fill="#FFFFFF" fill-rule="evenodd" transform="matrix(1 0 0 -1 387 590)"/><path d="M47.8303 0.0206208C47.8303 0.0206208 14.7588 10.6643 2.7066 39.986-6.35804 62.043 9.08346 76.675 34.5919 55.7457 34.5919 55.7457-3.28057 87.9294 14.9874 109.879 28.4226 126.023 47.1409 98.4354 47.1409 98.4354 47.1409 98.4354 13.6296 143.596 37.9389 153.196 55.2057 160.017 61.9522 131.668 61.9522 131.668 61.9522 131.668 64.5753 177.848 87.0922 172.606Z" fill="#E6ECEF" fill-rule="evenodd" transform="matrix(1 0 0 -1 791 335)"/><path d="M39.4657 173.034C39.4657 173.034 66.5855 171.855 45.403 125.454 45.403 125.454 64.5525 149.447 78.4918 137.109 92.4284 124.769 44.0164 89.5688 44.0164 89.5688 44.0164 89.5688 70.6183 106.503 80.0348 87.8809 89.4512 69.2602 33.1484 44.7738 33.1484 44.7738 33.1484 44.7738 56.6246 51.9925 63.8466 39.2108 71.0686 26.4306 23.9187-4.84229 0.0966709 0.68188Z" fill="#E6ECEF" fill-rule="evenodd" transform="matrix(1 0 0 -1 839 336)"/><path d="M66.9467 56.9688C62.9129 55.4325 58.7752 54.1977 54.6123 53.1445 51.3866 52.3476 48.1182 51.7829 44.8419 51.3905L53.8175 93.6641C58.3159 94.3663 62.7905 95.1992 67.1424 96.5073 71.9817 97.8382 76.6931 99.5936 81.2701 101.616 85.8578 103.617 90.287 105.962 94.5418 108.58 98.794 111.196 102.9 114.063 106.659 117.342 102.785 114.205 98.589 111.498 94.2662 109.05 89.9409 106.601 85.461 104.435 80.8481 102.621 76.2458 100.787 71.5357 99.2238 66.727 98.0904 62.6387 97.0213 58.4637 96.3792 54.2847 95.8666L61.298 128.891C65.7752 130.686 70.2031 132.606 74.3581 135.038 76.5826 136.202 78.6541 137.629 80.7922 138.933 82.8397 140.379 84.9378 141.75 86.8962 143.311 90.8808 146.34 94.667 149.62 98.2109 153.14 101.757 156.653 105.116 160.367 108.096 164.366 104.972 160.479 101.492 156.902 97.8367 153.535 94.1837 150.163 90.3057 147.045 86.2532 144.191 84.2602 142.716 82.1341 141.437 80.064 140.085 77.9046 138.874 75.8172 137.544 73.5846 136.478 69.8077 134.448 65.8338 132.851 61.8266 131.383L75.3405 195.027 59.7337 131.794C56.7517 134.694 53.8853 137.734 51.2813 141.01 48.2859 144.783 45.4277 148.686 42.8676 152.793 40.2808 156.879 37.8685 161.086 35.652 165.398 33.446 169.715 31.3918 174.119 29.6185 178.64 31.2214 174.055 33.1132 169.569 35.1647 165.158 37.2255 160.751 39.4874 156.436 41.9383 152.223 44.3613 147.993 47.0984 143.943 49.9939 140.005 52.7618 136.243 55.865 132.735 59.136 129.373L50.9872 96.3565C47.2822 98.1572 43.7356 100.32 40.4127 102.827 36.6278 105.793 33.0586 109.06 29.7436 112.59 26.462 116.147 23.3827 119.906 20.5231 123.831 17.6755 127.763 14.9942 131.832 12.6338 136.09 14.8332 131.745 17.3679 127.571 20.0784 123.517 22.801 119.471 25.7564 115.576 28.9355 111.86 32.1493 108.171 35.6426 104.719 39.3995 101.544 42.8196 98.7579 46.5233 96.3138 50.4666 94.2488L40.1424 52.425C36.906 54.4073 33.7322 56.5084 30.7009 58.8243 26.9026 61.7143 23.195 64.7511 19.6831 68.0108 16.1538 71.2505 12.7417 74.6277 9.46805 78.141 6.20364 81.6598 3.04584 85.2865 0.0957068 89.0842 2.90202 85.1771 5.92407 81.4261 9.06332 77.7753 12.2118 74.1311 15.5068 70.6125 18.9348 67.2192 22.343 63.8059 25.9641 60.6036 29.6983 57.5335 32.8523 54.9292 36.1897 52.5518 39.6179 50.2945L27.5724 1.49347 33.9346 0.026487 44.3852 49.2427C47.989 49.7994 51.5503 50.5455 55.0302 51.5626 59.2186 52.8094 63.3455 54.2351 67.3475 55.9543 71.3533 57.6576 75.2779 59.5358 79.1055 61.5902 82.9276 63.6511 86.6752 65.8496 90.2723 68.2765 86.578 66.0045 82.7491 63.9689 78.8578 62.076 74.9624 60.1926 70.9845 58.4893 66.9467 56.9688" fill="#B2C3CE" fill-rule="evenodd" transform="matrix(1 0 0 -1 801 368)"/><path d="M30.3028 0.0205839C30.3028 0.0205839 55.7702 8.08044 65.0518 30.2833 72.0338 46.9859 60.1415 58.0653 40.4988 42.2177 40.4988 42.2177 69.6631 66.588 55.5945 83.2078 45.2482 95.4329 30.8337 74.5425 30.8337 74.5425 30.8337 74.5425 56.6404 108.738 37.9203 116.009 24.6227 121.173 19.4268 99.7063 19.4268 99.7063 19.4268 99.7063 17.406 134.676 0.065672 130.707Z" fill="#E6ECEF" fill-rule="evenodd" transform="matrix(1 0 0 -1 543 298)"/><path d="M31.9271 131.031C31.9271 131.031 11.1693 130.139 27.3822 95.0017 27.3822 95.0017 12.7248 113.17 2.05528 103.827-8.61297 94.4836 28.4445 67.8286 28.4445 67.8286 28.4445 67.8286 8.08095 80.6513 0.875271 66.5512-6.33314 52.4512 36.7621 33.9091 36.7621 33.9091 36.7621 33.9091 18.7933 39.3754 13.2647 29.6974 7.73612 20.0195 43.8274-3.6612 62.0622 0.52114Z" fill="#E6ECEF" fill-rule="evenodd" transform="matrix(1 0 0 -1 511 299)"/><path d="M31.306 43.2434C34.3694 42.0761 37.5088 41.1399 40.6694 40.34 43.1199 39.7349 45.6009 39.3075 48.0901 39.0097L41.2731 71.0936C37.8592 71.6264 34.4614 72.2595 31.1568 73.2518 27.4818 74.2615 23.9054 75.5944 20.4316 77.1289 16.9485 78.6475 13.584 80.4277 10.354 82.4137 7.12674 84.3996 4.0087 86.5765 1.15318 89.0634 4.09526 86.6834 7.28128 84.628 10.5645 82.7703 13.8464 80.9125 17.2483 79.2684 20.7514 77.8916 24.2452 76.4985 27.8216 75.3139 31.4726 74.4525 34.5773 73.6418 37.7459 73.1543 40.9186 72.7643L35.5953 97.8299C32.1948 99.1921 28.8343 100.648 25.6777 102.495 23.9894 103.378 22.417 104.461 20.7926 105.452 19.2377 106.548 17.6453 107.589 16.1597 108.775 13.1335 111.073 10.258 113.563 7.56772 116.234 4.87482 118.901 2.32578 121.719 0.0631622 124.755 2.43363 121.804 5.07596 119.089 7.85153 116.534 10.6245 113.974 13.5706 111.607 16.6473 109.443 18.161 108.323 19.7747 107.352 21.3457 106.325 22.986 105.406 24.5703 104.397 26.2652 103.589 29.1328 102.048 32.1508 100.835 35.1929 99.721L24.9327 148.025 36.7826 100.034C39.0478 102.233 41.2211 104.541 43.1998 107.028 45.4744 109.89 47.645 112.853 49.5891 115.971 51.5519 119.072 53.3827 122.265 55.0656 125.539 56.7419 128.815 58.3009 132.156 59.6481 135.589 58.4302 132.108 56.9937 128.702 55.4361 125.356 53.8731 122.011 52.1542 118.735 50.294 115.538 48.4525 112.327 46.3765 109.254 44.1779 106.265 42.0765 103.41 39.7194 100.747 37.2356 98.1958L43.4237 73.137C46.2353 74.5045 48.9282 76.1446 51.4519 78.0477 54.3261 80.2995 57.0364 82.7796 59.5521 85.4574 62.0439 88.1578 64.3811 91.0106 66.5531 93.9888 68.7143 96.9738 70.7517 100.062 72.5426 103.294 70.8716 99.9962 68.9488 96.8282 66.8915 93.7512 64.8234 90.6807 62.5809 87.7238 60.1664 84.9031 57.7252 82.1038 55.0737 79.4835 52.2208 77.0741 49.6251 74.96 46.8122 73.1035 43.8195 71.5383L51.6558 39.7936C54.1143 41.2975 56.5247 42.8935 58.8246 44.6511 61.7094 46.844 64.5249 49.1491 67.1913 51.6226 69.871 54.0813 72.4626 56.6456 74.9464 59.3114 77.4248 61.9825 79.8233 64.735 82.0632 67.6172 79.9325 64.6522 77.638 61.8048 75.2529 59.0349 72.8637 56.269 70.3626 53.5979 67.7589 51.023 65.1712 48.432 62.4237 46.0013 59.5881 43.6707 57.1922 41.6955 54.6565 39.8911 52.0555 38.1764L61.2018 1.1389 56.3714 0.0250284 48.4352 37.379C45.6996 37.801 42.996 38.3686 40.3536 39.1392 37.173 40.0862 34.0404 41.1679 31.0009 42.4727 27.9602 43.7656 24.9807 45.1906 22.0746 46.7492 19.1724 48.3145 16.3262 49.9839 13.5959 51.8256 16.3995 50.1001 19.307 48.5549 22.2624 47.1192 25.2205 45.6888 28.24 44.3959 31.306 43.2434" fill="#B2C3CE" fill-rule="evenodd" transform="matrix(1 0 0 -1 520 323)"/><path d="M103.056 15.0574C96.4204 6.61497 85.9415 1.33256 75.2064 0.257766 62.7379-1.00156 50.077 2.95999 39.5635 9.80301 39.2512 10.0024 38.9415 10.2005 38.6373 10.4239 40.9154 10.8442 43.1814 11.3194 45.4475 11.7944 55.7702 14.0135 66.6547 16.6996 75.0984 22.7328 59.3481 18.0178 42.4114 17.2683 26.2968 20.4991 19.7028 26.9808 14.1805 34.4943 9.93533 42.6596 12.0238 41.7322 14.1805 40.9037 16.3958 40.2292 31.0637 35.6828 46.802 37.5953 61.6996 41.9302 41.8402 44.1064 22.3105 49.2162 3.94721 57.063 1.76791 64.0023 0.443973 71.2041 0.0796525 78.4754 2.24036 76.7717 4.29283 74.9675 6.18389 72.9734 9.81785 69.1095 12.8353 64.5015 17.3687 61.7593 23.497 58.0253 31.2039 58.4147 38.3397 59.1455 41.9777 59.5296 45.6236 59.9793 49.2737 60.4918 44.7735 61.4769 40.2868 62.5503 35.8348 63.7454 31.8686 64.7974 27.901 65.927 24.1294 67.5945 14.7049 71.7434 7.07268 78.8648 0.0556937 86.5457 0.283828 91.0987 0.896458 95.6572 1.9187 100.171 12.3708 92.4986 24.2723 86.8174 36.7783 83.4447 24.9102 90.083 13.8362 98.1519 3.93786 107.474 5.22564 111.459 6.80713 115.278 8.7128 118.986 17.9345 110.277 29.3062 103.84 41.5333 100.458 30.6074 107.424 21.0147 116.482 13.4091 126.985 15.1467 129.685 17.0151 132.292 19.0075 134.784 21.2456 132.712 23.6157 130.814 26.2141 129.204 28.4454 127.825 30.7956 126.672 33.2163 125.66 29.2301 129.801 25.6922 134.392 22.7442 139.322 25.408 142.382 28.2679 145.302 31.2533 148.026Z" fill="#E6ECEF" fill-rule="evenodd" transform="matrix(1 0 0 -1 391 350)"/><path d="M72.0874 0.165564C77.8094-0.632563 87.6508 2.07102 92.5481 5.11706 98.0438 8.5256 102.967 12.9481 106.6 18.2794 113.729 28.7047 115.544 41.9176 114.953 54.5642 111.051 49.8392 106.504 45.6619 101.444 42.2028 96.203 38.6251 90.4944 35.8335 84.7697 33.0726 89.9227 39.7723 94.4706 47.101 100.385 53.1544 102.467 55.2931 104.716 57.2772 106.707 59.509 109.397 62.5218 111.572 65.9916 113.137 69.7212 111.208 79.5323 107.739 89.0235 102.515 97.4235 101.656 92.7745 100.175 88.1774 98.6114 83.6963 96.8482 78.6808 94.9097 73.6133 91.6257 69.404 89.1342 66.2128 85.9814 63.6797 82.5581 61.4891 84.3413 63.9542 85.9439 66.5245 87.292 69.2628 93.2737 81.3471 93.6017 95.3022 93.591 108.831 90.0927 112.411 86.213 115.604 82.0547 118.403 82.301 109.696 80.9408 100.936 78.0464 92.7105 75.3862 85.1793 71.4408 78.0945 66.4565 71.8318 67.2759 74.0411 67.9559 76.3183 68.6293 78.5715 70.7794 85.7256 72.939 92.9037 73.8935 100.307 74.492 104.836 74.6298 109.422 74.6405 113.981 74.6553 116.243 74.6285 118.506 74.3138 120.734 74.1974 121.585 74.026 122.428 73.8132 123.268 69.4072 125.587 64.7482 127.547 59.9795 129.143 61.6851 123.418 62.6825 117.533 62.2193 111.593 61.9368 107.946 61.1147 104.352 60.1147 100.825 58.077 93.6112 55.3219 86.5571 51.4822 80.1399 57.0797 97.0971 56.6392 116.145 49.1219 132.212 45.5286 132.998 42.0437 133.476 38.5884 133.748 40.792 127.031 41.6702 119.864 41.1629 112.803 39.6287 120.422 36.4758 127.719 31.9293 134.019 27.9664 134.057 24.0198 133.882 20.0248 133.64 21.3863 129.375 22.1039 124.905 22.1455 120.436 20.6045 125.071 18.2991 129.458 15.335 133.327 10.415 132.991 5.35705 132.642 0.0568194 132.55Z" fill="#E6ECEF" fill-rule="evenodd" transform="matrix(1 0 0 -1 422 335)"/><path d="M70.4171 47.5866C67.6689 47.0439 64.9433 46.4041 62.179 45.9439 56.6772 44.9157 51.13 44.1296 45.5735 43.4885 40.009 42.9005 34.4273 42.4828 28.8375 42.3432 23.2517 42.2249 17.6473 42.2767 12.0961 42.9072 17.6606 42.4256 23.2544 42.5215 28.8201 42.7888 34.39 43.0774 39.9398 43.6414 45.4643 44.3743 50.9807 45.1591 56.4746 46.0889 61.9206 47.2568 64.6542 47.7861 67.3492 48.4964 70.0628 49.1069L76.1841 50.7084 68.0872 66.2351C64.477 65.4676 60.8455 64.8451 57.186 64.5006 53.0976 64.1135 48.9999 63.8754 44.9021 63.9007 36.7133 63.91 28.5324 64.5325 20.4781 65.8879 28.5737 64.8264 36.7519 64.5046 44.8848 64.7919 48.9546 64.9143 53.007 65.3013 57.0275 65.8281 60.4845 66.2816 63.8935 66.9866 67.2613 67.818L59.5386 82.6223C54.615 82.1049 49.6606 81.8402 44.7382 82.2845 39.4842 82.7128 34.2541 83.4962 29.1625 84.8263 24.063 86.106 19.054 87.734 14.1863 89.6973 9.32657 91.6752 4.56809 93.9245 0.0546505 96.5914 4.62264 94.0216 9.41982 91.8787 14.3089 90.0099 19.2046 88.1544 24.2242 86.6407 29.3171 85.4755 34.4033 84.2623 39.6041 83.5986 44.8008 83.2861 49.5141 82.9602 54.226 83.298 58.8885 83.87L50.749 99.4751C46.51 99.813 42.2764 100.291 38.164 101.347 33.8384 102.373 29.5888 103.702 25.4857 105.392 21.376 107.049 17.3702 108.962 13.5122 111.13 9.66223 113.309 5.92281 115.692 2.42455 118.391 5.98942 115.783 9.7795 113.497 13.6721 111.422 17.5727 109.359 21.6051 107.557 25.7296 106.014 29.8419 104.442 34.0875 103.231 38.3811 102.327 42.2152 101.444 46.1304 101.074 50.0349 100.844L41.5557 117.102C36.183 119.12 31.0023 121.622 26.1172 124.599 21.1416 127.626 16.3897 131.046 12.1188 134.992 16.4897 131.158 21.3161 127.868 26.3436 124.983 31.0009 122.306 35.9047 120.078 40.9469 118.269L26.1239 146.688 47.0856 109.488C48.2165 112.545 49.241 115.651 49.8364 118.867 50.2747 120.668 50.452 122.516 50.7397 124.346 50.8835 126.191 51.1074 128.034 51.1127 129.89 51.2326 133.596 51.0567 137.316 50.5678 140.999 50.0842 144.68 49.3463 148.34 48.2006 151.881 49.4155 148.363 50.2307 144.712 50.789 141.03 51.3525 137.345 51.6056 133.612 51.5603 129.881 51.5909 128.013 51.4044 126.152 51.2952 124.287 51.0421 122.437 50.9008 120.568 50.4932 118.74 49.9164 115.231 48.84 111.833 47.6544 108.481L55.9631 93.7329C58.2571 97.8391 60.4046 102.045 61.9246 106.513 63.7776 111.414 64.9832 116.549 65.7758 121.731 66.5898 126.919 66.8296 132.195 66.5845 137.448 66.3393 142.698 65.644 147.953 64.2172 153.029 65.7519 147.984 66.5605 142.731 66.9189 137.466 67.2758 132.199 67.1493 126.885 66.4393 121.64 65.7519 116.398 64.6435 111.184 62.8744 106.182 61.3478 101.369 59.115 96.8282 56.7264 92.3815L64.3078 78.9272 65.9211 81.0394 67.2625 82.7979 68.4735 84.6481 70.8874 88.3605 73.0389 92.2326C75.8363 97.4347 78.2343 102.874 80.0993 108.5 82.007 114.109 83.531 119.861 84.63 125.697 85.7091 131.535 86.4538 137.452 86.619 143.399 86.6017 137.449 86.0075 131.503 85.0697 125.622 84.1145 119.738 82.729 113.922 80.9466 108.223 79.2107 102.509 76.9301 96.9558 74.2258 91.614L72.141 87.6303 69.7843 83.7982 68.5988 81.8841 67.2772 80.0592 65.2469 77.2592 69.8403 69.1082C73.5504 72.1768 77.1512 75.4063 80.3164 79.0668 83.884 83.0852 87.2077 87.3483 90.1305 91.8814 93.088 96.3918 95.7736 101.087 98.1542 105.94 100.52 110.796 102.645 115.784 104.333 120.926 102.788 115.739 100.797 110.685 98.5592 105.749 96.3051 100.817 93.7367 96.0261 90.8833 91.4026 88.0657 86.755 84.8312 82.3602 81.3263 78.189 78.1543 74.3103 74.5002 70.8586 70.7142 67.5599L75.9789 58.2157C77.7294 59.2759 79.4892 60.3239 81.205 61.4386 83.3671 62.8978 85.5892 64.2758 87.6821 65.8387 91.9743 68.8182 96.0227 72.1316 100.006 75.5141 103.948 78.9471 107.719 82.5811 111.292 86.4052 114.845 90.2414 118.249 94.2424 121.187 98.5826 118.372 94.1586 115.077 90.0551 111.622 86.106 108.149 82.1701 104.467 78.4138 100.601 74.8491 96.6955 71.3361 92.7123 67.8845 88.476 64.7613 86.4098 63.1252 84.2117 61.6741 82.0709 60.1391 80.3524 58.9525 78.5887 57.8326 76.8315 56.7006L87.6061 37.5813C91.4587 38.5257 95.2101 39.9144 98.7497 41.7965 102.781 44.0471 106.578 46.7353 110.106 49.7614 113.589 52.838 116.84 56.1872 119.841 59.7533 122.827 63.3301 125.625 67.0837 128.055 71.0741 125.753 67.0078 123.07 63.1598 120.187 59.474 117.289 55.7961 114.127 52.3205 110.703 49.0976 107.233 45.9253 103.464 43.0681 99.4051 40.6299 95.9774 38.6641 92.302 37.1398 88.4773 36.0344L107.332 2.57753 102.618 0.0289069 84.7247 34.3358C82.1216 32.5986 79.4612 30.9559 76.6477 29.5992 73.2227 27.8407 69.6458 26.4055 66.001 25.215 62.3615 24.002 58.6328 23.0749 54.8641 22.4165 51.098 21.7554 47.2854 21.3258 43.4687 21.3165 47.28 21.4733 51.0607 22.052 54.7788 22.8541 58.4982 23.6548 62.1577 24.7176 65.7066 26.0557 69.2621 27.3752 72.7284 28.9261 76.0228 30.7817 78.7991 32.2568 81.3982 34.0193 83.9306 35.8615L77.01 49.1256Z" fill="#B2C3CE" fill-rule="evenodd" transform="matrix(1 0 0 -1 404 363)"/><path d="M0.0678367 24.0529 20.8306 0.0528884 31.0679 17.9264Z" fill="#D8E1E5" fill-rule="evenodd" transform="matrix(1 0 0 -1 588 486)"/><path d="M0.0715166 7.05448 6.09898 0.0544827 9.07152 5.26847Z" fill="#2A3B42" fill-rule="evenodd" transform="matrix(1 0 0 -1 588 469)"/><path d="M7.16227 73.0604C3.2028 70.7811 0.00659789 65.2658 0.0186416 60.714L0.0186416 60.714C0.026601 58.4599 0.823269 56.8764 2.10944 56.1329L2.10944 56.1329 98.8544 0.0422586C97.5669 0.78695 96.7702 2.37181 96.7635 4.6233L96.7635 4.6233C96.7502 9.17513 99.9463 14.6917 103.907 16.9696L103.907 16.9696C105.902 18.1172 107.714 18.2245 109.019 17.4692L109.019 17.4692 12.275 73.5586C11.7271 73.8767 11.0913 74.0423 10.3889 74.0423L10.3889 74.0423C9.41675 74.0423 8.32077 73.7256 7.16227 73.0604" fill="#00B6CA" fill-rule="evenodd" transform="matrix(1 0 0 -1 607 542)"/><path d="M6.9882 18.0347C3.12431 15.6814 0.00643641 9.98217 0.0194114 5.27955L0.0194114 5.27955C0.0323864 0.596223 3.16967-1.29162 7.03499 1.06169L7.03499 1.06169C10.8975 3.41359 14.0311 9.12519 14.0194 13.8085L14.0194 13.8085C14.0103 17.1366 12.4274 19.0492 10.1334 19.0492L10.1334 19.0492C9.18628 19.0492 8.11835 18.7219 6.9882 18.0347" fill="#00B6CA" fill-rule="evenodd" transform="matrix(1 0 0 -1 704 543)"/><path d="M108.087 0.0195265 0.0871543 62.7333 0.0871543 260.02 108.087 197.304Z" fill="#FF7419" fill-rule="evenodd" transform="matrix(1 0 0 -1 692 401)"/><path d="M37.0938 21.0566 0.0937916 0.0249453 0.0937916 196.992 37.0938 218.025Z" fill="#B2C3CE" fill-rule="evenodd" transform="matrix(1 0 0 -1 800 401)"/><path d="M23.0917 13.3632 0.0917403 0.0278703 0.0917403 86.6927 23.0917 100.028Z" fill="#F9FBFC" fill-rule="evenodd" transform="matrix(1 0 0 -1 807 331)"/><path d="M137.878 16.9583 145.09 21.137 36.5482 84.0164 29.3356 79.8377 130.665 21.1356 108.633 8.37376 7.30306 67.0744 0.0904241 62.8957 108.633 0.0163147 115.847 4.19509 115.845 4.19509Z" fill="#E6ECEF" fill-rule="evenodd" transform="matrix(1 0 0 -1 692 204)"/><path d="M20.0922 18.8521C20.0922 12.4313 15.6144 4.6246 10.0915 1.4149 4.56874-1.79607 0.0921775 0.807515 0.0921775 7.22691 0.0921775 13.6476 4.56874 21.4557 10.0915 24.6641 15.6144 27.8751 20.0922 25.2729 20.0922 18.8521" fill="#F9FBFC" fill-rule="evenodd" transform="matrix(1 0 0 -1 809 370)"/><path d="M0.0817654 71.0209 0.0817654 45.66 79.1197 0.02081 101.082 12.7012Z" fill="#B2C3CE" fill-rule="evenodd" transform="matrix(1 0 0 -1 721 196)"/><path d="M0.0801874 54.1652 21.9528 67.0201 114.08 12.8751 92.2077 0.0201424Z" fill="#F9FBFC" fill-rule="evenodd" transform="matrix(1 0 0 -1 708 196)"/><path d="M0.0200154 62.7169 109.02 0.00346436 109.02 197.287 0.0200154 260.003Z" fill="#FA9887" fill-rule="evenodd" transform="matrix(1 0 0 -1 655 422)"/><path d="M0.0215445 196.976 0.0215445 0.00723208 36.0215 21.039 36.0215 218.007Z" fill="#FA9887" fill-rule="evenodd" transform="matrix(1 0 0 -1 764 422)"/><path d="M0.0217844 86.6686 0.0217844 0.00515338 23.0218 13.3391 23.0218 100.005Z" fill="#FA9887" fill-rule="evenodd" transform="matrix(1 0 0 -1 771 352)"/><path d="M29.2654 79.8061 130.594 21.104 108.561 8.34071 7.23309 67.0414 0.0203507 62.864 101.348 4.16204 108.561-0.0166305 145.02 21.104 137.806 25.284 36.4769 83.9834Z" fill="#FA9887" fill-rule="evenodd" transform="matrix(1 0 0 -1 655 225)"/><path d="M10.0212 24.6443C4.49848 21.4347 0.0219119 13.6269 0.0219119 7.20639L0.0219119 7.20639C0.0219119 0.78723 4.49848-1.81626 10.0212 1.3947L10.0212 1.3947C15.5441 4.60428 20.0219 12.4121 20.0219 18.8313L20.0219 18.8313C20.0219 23.3863 17.7676 26.0194 14.4872 26.0194L14.4872 26.0194C13.1425 26.0181 11.6253 25.5763 10.0212 24.6443" fill="#FA9887" fill-rule="evenodd" transform="matrix(1 0 0 -1 772 391)"/><path d="M0.0204939 45.6201 79.0594-0.0169405 101.02 12.6632 0.0204939 70.9832Z" fill="#FA9887" fill-rule="evenodd" transform="matrix(1 0 0 -1 685 217)"/><path d="M0.0771089 54.1677 22.1416 67.0225 115.077 12.8785 93.0126 0.0223682Z" fill="#F9FBFC" fill-rule="evenodd" transform="matrix(1 0 0 -1 671 217)"/><path d="M5.08425 185.042 4.54422 2.41671 0.0842517 0.042108 0.624285 182.666Z" fill="#33CC99" fill-rule="evenodd" transform="matrix(1 0 0 -1 684 413)"/><path d="M97.0761 182.733 96.5774 0.0370948 0.0761121 55.3398 0.576172 238.037Z" fill="#576A7A" fill-rule="evenodd" transform="matrix(1 0 0 -1 588 413)"/><path d="M100.076 2.36883 95.9829 0.0200889 0.076064 54.6713 4.16925 57.0201Z" fill="#425460" fill-rule="evenodd" transform="matrix(1 0 0 -1 589 230)"/><path d="M5.0952 186.048 4.55384 2.43693 0.0951978 0.0482332 0.636557 183.66Z" fill="#425460" fill-rule="evenodd" transform="matrix(1 0 0 -1 780 469)"/><path d="M97.0864 183.51 96.5863 0.0430387 0.0862523 55.5775 0.58508 239.043Z" fill="#576A7A" fill-rule="evenodd" transform="matrix(1 0 0 -1 684 469)"/><path d="M100.086 2.41635 95.9927 0.0262383 0.0861405 55.6375 4.17955 58.0263Z" fill="#425460" fill-rule="evenodd" transform="matrix(1 0 0 -1 685 286)"/><path d="M16.089 181.049 15.5877 8.8041 0.0888847 0.0484562 0.590186 172.293Z" fill="#94A6B2" fill-rule="evenodd" transform="matrix(1 0 0 -1 760 472)"/><path d="M106.075 3.62891C97.7798-1.18078 84.2856-1.18078 75.9354 3.62891L0.0754541 47.3144 15.0975 56.0217Z" fill="#B2C3CE" fill-rule="evenodd" transform="matrix(1 0 0 -1 579 242)"/><path d="M76.7879 176.07 0.562847 220.038 0.0733965 47.6368 76.2997 3.66781C84.6889-1.17158 98.2483-1.17158 106.585 3.66917L107.074 176.07C98.7378 171.23 85.1784 171.23 76.7879 176.07" fill="#E6ECEF" fill-rule="evenodd" transform="matrix(1 0 0 -1 578 414)"/><path d="M6.88809 216.231C2.66761 218.665 0.559376 221.858 0.567376 225.047L0.0781063 52.7915C0.0687377 49.6022 2.17834 46.4089 6.39882 43.9739L82.5902 0.047198 83.0782 172.303Z" fill="#D8E1E5" fill-rule="evenodd" transform="matrix(1 0 0 -1 678 472)"/><path d="M97.0851 8.86398 82.0898 0.0280039 6.36701 44.3562C-1.97039 49.2355-2.01423 57.1474 6.2673 62.0281Z" fill="#B2C3CE" fill-rule="evenodd" transform="matrix(1 0 0 -1 679 300)"/><path d="M0.242946 94.6536 62.9063 58.3539 62.913 60.4272 0.248289 96.7295ZM0.282861 109.232 62.9476 72.932 62.9542 75.0052 0.289566 111.308ZM0.413291 155.04 0.407948 152.966 63.0713 116.665 63.078 118.739ZM0.325499 123.81 62.9889 87.5074 62.9942 89.5833 0.330738 125.886ZM0.366671 138.388 63.0288 102.085 63.0354 104.161 0.372014 140.462ZM0.0779438 36.3414 62.7427 0.0403651 62.748 2.11622 0.0832868 38.4172ZM0.119221 50.9194 62.7826 14.6185 62.7893 16.6943 0.124563 52.9953ZM0.160497 65.4975 62.8239 29.1965 62.8292 31.2711 0.16584 67.5733ZM0.201669 80.0756 62.8652 43.7746 62.8704 45.8492 0.207012 82.1514Z" fill="#94A6B2" fill-rule="evenodd" transform="matrix(1 0 0 -1 688 437)"/><path d="M0.232784 94.0372 62.8975 57.9704 62.9029 60.0316 0.238127 96.0984ZM0.274061 108.521 62.9375 72.4544 62.9441 74.5156 0.279299 110.582ZM0.403129 154.034 0.397786 151.973 63.0612 115.905 63.0678 117.968ZM0.315233 123.004 62.9786 86.9371 62.984 88.9996 0.320576 125.066ZM0.356509 137.489 63.0199 101.421 63.0252 103.484 0.363214 139.55ZM0.0677818 36.1011 62.7325 0.0343605 62.7379 2.09557 0.0731247 38.1623ZM0.109059 50.5851 62.7725 14.5184 62.7791 16.5809 0.114401 52.6463ZM0.150335 65.0692 62.8137 29.0023 62.8203 31.0636 0.155573 67.1304ZM0.191507 79.5531 62.8549 43.4864 62.8602 45.5476 0.198212 81.6143Z" fill="#94A6B2" fill-rule="evenodd" transform="matrix(1 0 0 -1 591 381)"/><path d="M154.84 63.2846 66.5162 11.5143C64.8222 10.5197 62.0716 10.5291 60.3657 11.5223L1.4119 45.8524C0.554912 46.3517 0.125107 47.0053 0.127726 47.6563L0.0971305 36.9444C0.0958732 36.2921 0.524316 35.6385 1.38256 35.1392L60.3351 0.80911C62.041-0.1841 64.7916-0.192132 66.4856 0.801078L154.809 52.5727C155.647 53.0639 156.065 53.7042 156.068 54.3484L156.097 65.0602C156.095 64.4187 155.678 63.7758 154.84 63.2846" fill="#425460" fill-rule="evenodd" transform="matrix(1 0 0 -1 743 567)"/><path d="M154.805 55.4337C156.51 54.4547 156.534 52.8676 154.839 51.8873L66.4982 0.786133C64.8039-0.194238 62.0542-0.184954 60.3466 0.794165L1.38293 34.6804C-0.323411 35.6608-0.332738 37.24 1.36292 38.219L89.7033 89.3201C91.3976 90.3004 94.134 90.3004 95.8403 89.3201Z" fill="#576A7A" fill-rule="evenodd" transform="matrix(1 0 0 -1 743 556)"/><path d="M44.6095 0.642566 1.10612 26.0768C-0.391296 26.951-0.203516 28.4808 1.52448 29.4913L14.7395 37.2162C16.4689 38.2266 19.0841 38.3372 20.5816 37.4616L64.0837 12.0288C65.5812 11.1533 65.3947 9.62479 63.6653 8.61298L50.4516 0.888163C48.7223-0.122267 46.107-0.231575 44.6095 0.642566" fill="#B2C3CE" fill-rule="evenodd" transform="matrix(1 0 0 -1 817 514)"/><path d="M9.64392 13.3757 1.21401 8.65478C-0.375079 7.76415-0.375079 6.32245 1.21401 5.43182L1.21401 5.43182 9.64392 0.710901C11.2344-0.179734 13.8101-0.179734 15.3993 0.710901L15.3993 0.710901 23.8304 5.43182C25.4196 6.32245 25.4196 7.76294 23.8304 8.65348L23.8304 8.65348 15.3993 13.3757C14.6047 13.8198 13.5628 14.043 12.5222 14.043L12.5222 14.043C11.4804 14.043 10.4398 13.8198 9.64392 13.3757" fill="#00B6CA" fill-rule="evenodd" transform="matrix(1 0 0 -1 796 525)"/><path d="M9.64392 13.3722 1.21401 8.65046C-0.375079 7.76001-0.375079 6.31835 1.21401 5.4291L1.21401 5.4291 9.64392 0.707318C11.2344-0.183234 13.8101-0.183234 15.3993 0.707318L15.3993 0.707318 23.8304 5.4291C25.4196 6.31835 25.4196 7.76001 23.8304 8.65046L23.8304 8.65046 15.3993 13.3722C14.6047 13.8162 13.5628 14.0395 12.5222 14.0395L12.5222 14.0395C11.4804 14.0395 10.4398 13.8162 9.64392 13.3722" fill="#00B6CA" fill-rule="evenodd" transform="matrix(1 0 0 -1 796 505)"/><path d="M10.0315 13.3757 1.2616 8.65478C-0.391052 7.76415-0.391052 6.32245 1.2616 5.43182L1.2616 5.43182 10.0315 0.710901C11.6828-0.179734 14.3616-0.179734 16.0157 0.710901L16.0157 0.710901 24.7827 5.43182C26.4354 6.32245 26.4354 7.76415 24.7827 8.65478L24.7827 8.65478 16.0157 13.3757C15.1879 13.8198 14.1058 14.043 13.0221 14.043L13.0221 14.043C11.94 14.043 10.8564 13.8198 10.0315 13.3757" fill="#00B6CA" fill-rule="evenodd" transform="matrix(1 0 0 -1 761 525)"/><path d="M9.64471 13.3752 1.21359 8.65177C-0.375492 7.76113-0.375492 6.32065 1.21359 5.43001L1.21359 5.43001 9.64471 0.709193C11.2339-0.181442 13.8097-0.181442 15.4001 0.709193L15.4001 0.709193 23.8299 5.43001C25.4191 6.32065 25.4191 7.76113 23.8299 8.65177L23.8299 8.65177 15.4001 13.3752C14.6042 13.8193 13.5637 14.0413 12.5218 14.0413L12.5218 14.0413C11.4811 14.0413 10.4393 13.8193 9.64471 13.3752" fill="#00B6CA" fill-rule="evenodd" transform="matrix(1 0 0 -1 779 515)"/><path d="M9.64471 13.3775 1.21359 8.65621C-0.375492 7.76551-0.375492 6.32241 1.21359 5.43301L1.21359 5.43301 9.64471 0.711755C11.2339-0.177637 13.8097-0.177637 15.4001 0.711755L15.4001 0.711755 23.8299 5.43301C25.4191 6.32241 25.4191 7.76551 23.8299 8.65621L23.8299 8.65621 15.4001 13.3775C14.6042 13.8215 13.5637 14.0448 12.5218 14.0448L12.5218 14.0448C11.4811 14.0448 10.4393 13.8215 9.64471 13.3775" fill="#00B6CA" fill-rule="evenodd" transform="matrix(1 0 0 -1 779 535)"/><path d="M9.64728 13.3757 1.21492 8.65348C-0.374141 7.76294-0.374141 6.32245 1.21492 5.43182L1.21492 5.43182 9.64728 0.710901C11.2351-0.179734 13.8121-0.179734 15.4 0.710901L15.4 0.710901 23.8323 5.43182C25.4201 6.32245 25.4201 7.76294 23.8323 8.65348L23.8323 8.65348 15.4 13.3757C14.6054 13.8198 13.5648 14.043 12.5229 14.043L12.5229 14.043C11.4824 14.043 10.4418 13.8198 9.64728 13.3757" fill="#00B6CA" fill-rule="evenodd" transform="matrix(1 0 0 -1 831 525)"/><path d="M10.0315 13.3775 1.26199 8.65621C-0.389317 7.76551-0.389317 6.32241 1.26199 5.43301L1.26199 5.43301 10.0315 0.711755C11.6828-0.177637 14.3629-0.177637 16.0142 0.711755L16.0142 0.711755 24.7852 5.43301C26.4364 6.32241 26.4364 7.76551 24.7852 8.65621L24.7852 8.65621 16.0142 13.3775C15.1879 13.8215 14.1057 14.0448 13.0236 14.0448L13.0236 14.0448C11.9401 14.0448 10.8579 13.8215 10.0315 13.3775" fill="#FA9887" fill-rule="evenodd" transform="matrix(1 0 0 -1 813 535)"/><path d="M10.0318 13.3752 1.26203 8.65177C-0.389328 7.76113-0.389328 6.32065 1.26203 5.43001L1.26203 5.43001 10.0318 0.709193C11.6832-0.181442 14.3633-0.181442 16.0147 0.709193L16.0147 0.709193 24.7831 5.43001C26.4372 6.32065 26.4372 7.76113 24.7831 8.65177L24.7831 8.65177 16.0147 13.3752C15.1883 13.8193 14.1061 14.0413 13.024 14.0413L13.024 14.0413C11.9404 14.0413 10.8582 13.8193 10.0318 13.3752" fill="#00B6CA" fill-rule="evenodd" transform="matrix(1 0 0 -1 813 515)"/><path d="M9.64376 13.3805 1.21399 8.6578C-0.375073 7.76839-0.375073 6.32525 1.21399 5.43454L1.21399 5.43454 9.64376 0.714484C11.2342-0.176235 13.8099-0.176235 15.399 0.714484L15.399 0.714484 23.8314 5.43454C25.4192 6.32525 25.4192 7.76839 23.8314 8.6578L23.8314 8.6578 15.399 13.3805C14.6044 13.8245 13.5626 14.0465 12.522 14.0465L12.522 14.0465C11.4802 14.0465 10.4396 13.8245 9.64376 13.3805" fill="#FA9887" fill-rule="evenodd" transform="matrix(1 0 0 -1 796 545)"/><path d="M179.083 13.035 156.507 0.0457149 0.0829195 90.0565 22.6574 103.046Z" fill="#D8E1E5" fill-rule="evenodd" transform="matrix(1 0 0 -1 585 506)"/><path d="M10.2611 96.0518 167.072 5.90851 156.883 0.051649 0.0719704 90.1949Z" fill="#94A6B2" fill-rule="evenodd" transform="matrix(1 0 0 -1 607 493)"/><path d="M0.0683533 90.4257 156.068 0.0533557 156.068 5.68228 0.0683533 96.0534Z" fill="#E6ECEF" fill-rule="evenodd" transform="matrix(1 0 0 -1 585 512)"/><path d="M33.0866 25.0557 0.0865406 5.78839 0.0865406 0.055742 33.0866 19.3231Z" fill="#94A6B2" fill-rule="evenodd" transform="matrix(1 0 0 -1 741 512)"/><path d="M8.07473 3.83656 2.02064 0.0528154 0.0747321 1.26778 6.12883 5.05292Z" fill="#94A6B2" fill-rule="evenodd" transform="matrix(1 0 0 -1 699 483)"/><path d="M13.0809 5.90338 2.20806 0.0491444 0.08083 1.1948 10.9536 7.04914Z" fill="#94A6B2" fill-rule="evenodd" transform="matrix(1 0 0 -1 687 476)"/><path d="M8.07246 3.83484 2.01836 0.051437 0.0724555 1.26674 6.12655 5.05154Z" fill="#94A6B2" fill-rule="evenodd" transform="matrix(1 0 0 -1 676 470)"/><path d="M13.0834 6.74822 2.21078 0.0576643 0.0833278 1.36561 10.9573 8.05766Z" fill="#94A6B2" fill-rule="evenodd" transform="matrix(1 0 0 -1 710 490)"/><path d="M13.0858 6.74972 2.21303 0.0591636 0.0858075 1.36711 10.9586 8.05916Z" fill="#94A6B2" fill-rule="evenodd" transform="matrix(1 0 0 -1 733 503)"/><path d="M8.07701 3.83902 2.02291 0.0543304 0.0769098 1.26964 6.1311 5.05433Z" fill="#94A6B2" fill-rule="evenodd" transform="matrix(1 0 0 -1 722 496)"/><path d="M12.0724 5.90076 2.03601 0.0477316 0.072315 1.19218 10.1087 7.04783Z" fill="#94A6B2" fill-rule="evenodd" transform="matrix(1 0 0 -1 665 463)"/><path d="M9.07394 3.83088 2.26308 0.0472446 0.0738289 1.26221 6.88469 5.04724Z" fill="#94A6B2" fill-rule="evenodd" transform="matrix(1 0 0 -1 607 430)"/><path d="M13.071 6.74061 2.19821 0.0500526 0.0708751 1.35799 10.9438 8.05005Z" fill="#94A6B2" fill-rule="evenodd" transform="matrix(1 0 0 -1 596 424)"/><path d="M9.07906 3.83238 2.2681 0.05003 0.0789513 1.265 6.88981 5.05003Z" fill="#94A6B2" fill-rule="evenodd" transform="matrix(1 0 0 -1 653 457)"/><path d="M12.0678 6.74211 2.03141 0.0515519 0.0677204 1.35949 10.1041 8.05155Z" fill="#94A6B2" fill-rule="evenodd" transform="matrix(1 0 0 -1 619 437)"/><path d="M12.0701 5.90076 2.03371 0.0464198 0.0700177 1.19087 10.1064 7.04642Z" fill="#94A6B2" fill-rule="evenodd" transform="matrix(1 0 0 -1 642 450)"/><path d="M9.0765 3.83206 2.26565 0.0486508 0.0763901 1.26396 6.88725 5.04876Z" fill="#94A6B2" fill-rule="evenodd" transform="matrix(1 0 0 -1 630 443)"/><path d="M70.4365 0.0434654 80.0971 43.0435 0.0970276 43.0435 9.75632 0.0434654Z" fill="#B2C3CE" fill-rule="evenodd" transform="matrix(1 0 0 -1 813 445)"/><path d="M68.3802 6.9243C52.7588-2.25271 27.4326-2.25133 11.8111 6.92568-3.80894 16.1014-3.80894 30.9815 11.8111 40.1585 27.4326 49.3369 52.7588 49.3369 68.3802 40.1585 84.0015 30.9815 84.0015 16.1014 68.3802 6.9243" fill="#E6ECEF" fill-rule="evenodd" transform="matrix(1 0 0 -1 813 422)"/><path d="M36.0939 0.0420988C26.1008 0.0420988 16.7675 2.30087 9.81197 6.39987 3.54519 10.0938 0.0938152 14.76 0.0938152 19.5422 0.0938152 24.3216 3.54519 28.989 9.81197 32.6843 16.7675 36.7833 26.1008 39.0421 36.0939 39.0421 46.0857 39.0421 55.419 36.7833 62.3759 32.6843 68.6425 28.989 72.0939 24.3216 72.0939 19.5408 72.0939 14.76 68.6425 10.0938 62.3759 6.39987 55.419 2.30087 46.0857 0.0420988 36.0939 0.0420988" fill="#B2C3CE" fill-rule="evenodd" transform="matrix(1 0 0 -1 817 418)"/><path d="M61.7405 21.7461C54.6882 25.8073 45.2268 28.0444 35.098 28.0444 24.9677 28.0444 15.5064 25.8073 8.45536 21.7461 4.52091 19.4822 1.68979 16.8466 0.0972136 14.0438 1.68979 11.2423 4.52091 8.60667 8.45536 6.34002 15.5064 2.28023 24.9677 0.0444337 35.098 0.0444337 45.2268 0.0444337 54.6882 2.28023 61.7405 6.34002 65.6736 8.60667 68.5061 11.2423 70.0973 14.0424 68.5061 16.8452 65.6736 19.4822 61.7405 21.7461" fill="#576A7A" fill-rule="evenodd" transform="matrix(1 0 0 -1 818 418)"/><path d="M53.0176 5.32025C40.9122-1.70988 21.2845-1.70988 9.17766 5.32025-2.92903 12.3489-2.92903 23.7476 9.17766 30.7763 21.2845 37.8049 40.9122 37.8049 53.0176 30.7763 65.1243 23.7476 65.1243 12.3489 53.0176 5.32025" fill="#B2C3CE" fill-rule="evenodd" transform="matrix(1 0 0 -1 822 461)"/><path d="M0.106742 29.044 0.106742 1.59253C0.106742 1.19591 0.399303 0.800672 0.98597 0.497207 2.15752-0.107174 4.05751-0.107174 5.22918 0.497207 5.81584 0.800672 6.10686 1.19591 6.10686 1.59253L6.10686 29.044Z" fill="#94A6B2" fill-rule="evenodd" transform="matrix(1 0 0 -1 850 405)"/><path d="M0.5337 39.9304C0.20217 38.2636 0.0233034 36.7203 0.0233034 35.3255L0.0233034 35.3255C0.0233034 15.8247 15.6944 0.0156737 35.0246 0.0156737L35.0246 0.0156737C54.3536 0.0156737 70.0234 15.8247 70.0234 35.3255L70.0234 35.3255C70.0234 36.7203 69.8445 38.2636 69.513 39.9304L69.513 39.9304C65.7853 58.6536 50.4037 68.0158 35.0234 68.0158L35.0234 68.0158C19.643 68.0158 4.26276 58.6536 0.5337 39.9304" fill="#00B6CA" fill-rule="evenodd" transform="matrix(1 0 0 -1 818 394)"/><path d="M4.28664 16.0746C1.49217 17.7227 0.0962156 19.8907 0.102809 22.0561L0.0674745 10.0356C0.0622208 7.87021 1.45951 5.70345 4.25533 4.05398L11.0335 0.0560977 11.0675 12.0753Z" fill="#D8E1E5" fill-rule="evenodd" transform="matrix(1 0 0 -1 602 528)"/><path d="M20.0699 24.0568 20.0373 11.9869 0.0698021 0.0567566 0.102493 12.1266Z" fill="#EEEEEE" fill-rule="evenodd" transform="matrix(1 0 0 -1 613 528)"/><path d="M31.0699 11.7141 11.044 0.0538195 4.25875 3.97903C-1.30095 7.19581-1.32981 12.4225 4.19328 15.6393 9.72936 18.8627 18.7249 18.8548 24.2846 15.6393Z" fill="#E6ECEF" fill-rule="evenodd" transform="matrix(1 0 0 -1 602 516)"/><path d="M21.0749 24.0576 21.0406 11.9885 0.0747984 0.0575988 0.109121 12.1267Z" fill="#00C3B6" fill-rule="evenodd" transform="matrix(1 0 0 -1 627 536)"/><path d="M0.0172197 8.1753 13.9832 0.045841 14.0173 11.9166 0.0512465 20.0459Z" fill="#FA9887" fill-rule="evenodd" transform="matrix(1 0 0 -1 613 536)"/><path d="M0.0180479 8.22962 14.3975 0.0440646 35.018 11.8585 20.6386 20.0441Z" fill="#FA9887" fill-rule="evenodd" transform="matrix(1 0 0 -1 613 524)"/><path d="M27.8182 14.9811C22.1228 11.6044 12.8353 11.6044 7.10352 14.9811L0.109483 19.1018 0.0744058 6.71358 7.06972 2.59298C12.8015-0.785174 22.089-0.785174 27.7844 2.59298 30.618 4.27377 32.034 6.47113 32.0407 8.67131L32.0745 21.0594C32.0677 18.8593 30.653 16.6619 27.8182 14.9811" fill="#94A6B2" fill-rule="evenodd" transform="matrix(1 0 0 -1 627 543)"/><path d="M27.7463 14.9147C33.4842 11.5201 33.5275 6.00799 27.8139 2.60508 22.1125-0.789549 12.8151-0.790967 7.07721 2.60508L0.0744847 6.7489 20.7436 19.0586Z" fill="#B2C3CE" fill-rule="evenodd" transform="matrix(1 0 0 -1 627 531)"/><path d="M18.0651 7.94131 18.0437 0.0539991C18.0611 6.28344 14.0329 12.5236 5.96323 17.2792 4.11872 18.3658 2.14202 19.3298 0.0652029 20.1668L0.0879188 28.0541C2.16474 27.217 4.14144 26.2544 5.98594 25.1678 14.0556 20.4109 18.0838 14.1706 18.0651 7.94131" fill="#121011" fill-rule="evenodd" transform="matrix(1 0 0 -1 556 510)"/><path d="M18.0651 7.94131 18.0437 0.0539991C18.0611 6.28344 14.0329 12.5236 5.96323 17.2792 4.11872 18.3658 2.14202 19.3298 0.0652029 20.1668L0.0879188 28.0541C2.16474 27.217 4.14144 26.2544 5.98594 25.1678 14.0556 20.4109 18.0838 14.1706 18.0651 7.94131" fill="#121011" fill-rule="evenodd" transform="matrix(1 0 0 -1 556 510)"/><path d="M18.0651 7.94131 18.0437 0.0539991C18.0611 6.28344 14.0329 12.5236 5.96323 17.2792 4.11872 18.3658 2.14202 19.3298 0.0652029 20.1668L0.0879188 28.0541C2.16474 27.217 4.14144 26.2544 5.98594 25.1678 14.0556 20.4109 18.0838 14.1706 18.0651 7.94131" fill="#121011" fill-rule="evenodd" transform="matrix(1 0 0 -1 556 510)"/><path d="M18.0651 7.94131 18.0437 0.0539991C18.0611 6.28344 14.0329 12.5236 5.96323 17.2792 4.11872 18.3658 2.14202 19.3298 0.0652029 20.1668L0.0879188 28.0541C2.16474 27.217 4.14144 26.2544 5.98594 25.1678 14.0556 20.4109 18.0838 14.1706 18.0651 7.94131" fill="#121011" fill-rule="evenodd" transform="matrix(1 0 0 -1 556 510)"/><path d="M18.0651 7.94131 18.0437 0.0539991C18.0611 6.28344 14.0329 12.5236 5.96323 17.2792 4.11872 18.3658 2.14202 19.3298 0.0652029 20.1668L0.0879188 28.0541C2.16474 27.217 4.14144 26.2544 5.98594 25.1678 14.0556 20.4109 18.0838 14.1706 18.0651 7.94131" fill="#121011" fill-rule="evenodd" transform="matrix(1 0 0 -1 556 510)"/><path d="M75.239 21.2491 75.239 21.2517C74.732 21.7006 74.1553 22.129 73.592 22.5629 73.3191 22.7703 73.0823 22.9886 72.7973 23.1947 71.9169 23.8265 70.9724 24.4394 69.9635 25.0291 68.1158 26.1111 66.1344 27.0669 64.0552 27.8995 63.9481 27.9428 63.8291 27.9713 63.722 28.0134 63.3916 28.1435 63.0383 28.2384 62.7025 28.3618 61.5104 28.7998 60.3237 29.2431 59.078 29.6024 58.4076 29.7963 57.7093 29.9413 57.0256 30.1122 56.6349 30.2098 56.2523 30.3129 55.8575 30.4023 55.5017 30.4837 55.1605 30.5895 54.8033 30.664 53.4666 30.9447 52.11 31.1833 50.7386 31.3813 50.2529 31.4491 49.7592 31.4884 49.2708 31.5467 48.9283 31.5874 48.5899 31.6267 48.246 31.6633 47.7469 31.7161 47.2533 31.7894 46.7529 31.8328 45.4109 31.9439 44.0636 32.0158 42.7123 32.051 42.2909 32.0619 41.868 32.0429 41.4439 32.0457 41.0773 32.0484 40.7147 32.0429 40.3481 32.0402 39.7366 32.0348 39.1239 32.0524 38.5125 32.0307 36.9898 31.9779 35.4713 31.8762 33.9648 31.7243 33.7909 31.7067 33.6236 31.6714 33.4524 31.6525 33.0456 31.6077 32.6536 31.5331 32.2482 31.483 31.0721 31.3324 29.8894 31.1968 28.7348 30.9867 28.225 30.8932 27.7594 30.717 27.255 30.6125 25.8541 30.3196 24.5069 29.963 23.1568 29.5793 22.4411 29.3747 21.6744 29.258 20.9747 29.0275 20.4007 28.8404 19.8682 28.5936 19.3063 28.389 18.7697 28.191 18.2439 27.9917 17.7195 27.7774 15.7192 26.9639 13.7779 26.0772 11.9984 25.0277 11.8298 24.9288 11.6626 24.8298 11.498 24.7282 11.1194 24.4977 10.7969 24.2482 10.437 24.0109 9.93927 23.6828 9.42958 23.3587 8.96931 23.0184 8.55992 22.7174 8.19467 22.4042 7.8133 22.0937 7.38779 21.7467 6.95301 21.4023 6.561 21.047 6.48073 20.9738 6.38444 20.906 6.30679 20.8328 6.14624 20.6823 6.0352 20.521 5.88128 20.3704 5.25118 19.7508 4.67049 19.1204 4.14332 18.4763 4.02828 18.3367 3.87436 18.2051 3.76332 18.0628 3.65629 17.9258 3.58539 17.7794 3.48372 17.6411 3.12922 17.1611 2.81475 16.6758 2.5164 16.1877 2.39335 15.9829 2.23005 15.7877 2.11638 15.5816 2.05749 15.4786 2.02536 15.3728 1.97047 15.2711 1.74176 14.8399 1.55708 14.4061 1.36976 13.9708 1.26273 13.72 1.11819 13.4746 1.02327 13.221 0.992505 13.1356 0.980389 13.0488 0.950997 12.9634 0.806456 12.5526 0.707532 12.1391 0.600496 11.7255 0.526857 11.4449 0.417187 11.1656 0.36093 10.8823 0.346286 10.809 0.34892 10.7331 0.33691 10.6572 0.257897 10.226 0.228505 9.79351 0.189736 9.35964 0.164241 9.07352 0.101347 8.7888 0.0920761 8.5014 0.089337 8.37937 0.0880728 8.25863 0.0867033 8.1366L0.0639476 0.293056 0.0639476 0.291668 0.0639476 0.293056C0.0653172 0.697142 0.130845 1.10112 0.16698 1.50382 0.205749 1.94314 0.235247 2.37968 0.314154 2.81494 0.378313 3.17013 0.485349 3.52265 0.576371 3.87656 0.683407 4.29004 0.78507 4.7063 0.928241 5.11988 1.04729 5.45885 1.20521 5.79237 1.34838 6.12866 1.53432 6.56253 1.72163 6.9964 1.94908 7.42611 2.11364 7.7339 2.30896 8.03763 2.49501 8.34136 2.79336 8.83214 3.10773 9.31758 3.46234 9.79757 3.66967 10.0782 3.89585 10.3547 4.12193 10.6328 4.64774 11.2767 5.22969 11.9059 5.8599 12.5255 6.08735 12.7505 6.29742 12.9798 6.53825 13.2008 6.92889 13.5586 7.36641 13.903 7.79191 14.2501 8.17191 14.5579 8.53716 14.8738 8.94655 15.1749 9.40809 15.5138 9.91788 15.8392 10.4157 16.1673 10.9321 16.5076 11.4218 16.8574 11.977 17.1842 13.7552 18.231 15.6978 19.1204 17.6967 19.9339 18.2198 20.1468 18.7497 20.3474 19.2849 20.5426 20.5264 20.9996 21.8323 21.3643 23.1354 21.7344 24.4801 22.1181 25.8367 22.4774 27.2336 22.7689 28.8752 23.1106 30.5303 23.4225 32.2215 23.6366 32.6269 23.6882 33.0242 23.7627 33.4323 23.8076 35.7082 24.0543 38.0147 24.1763 40.3227 24.1953 40.692 24.1994 41.0586 24.2034 41.4265 24.2008 43.7037 24.1844 45.9755 24.0557 48.2246 23.8197 48.5657 23.7817 48.9083 23.7438 49.2495 23.7032 51.4852 23.432 53.6874 23.0496 55.8348 22.5588 56.2282 22.4679 56.6135 22.3649 57.0015 22.2686 58.9549 21.7805 60.8508 21.1908 62.6825 20.5169 63.0156 20.3949 63.3702 20.2986 63.6979 20.1697 65.8975 19.3074 67.9981 18.3217 69.9408 17.1842 70.9496 16.5944 71.8928 15.9815 72.7746 15.3483 73.0408 15.1585 73.2615 14.9539 73.5157 14.7613 79.1874 10.4308 82.0572 5.24458 82.0424 0.0544475L82.0639 7.89799C82.0773 12.554 79.8001 17.2141 75.239 21.2491" fill="#141213" fill-rule="evenodd" transform="matrix(1 0 0 -1 492 510)"/><path d="M11.9312 41.0161C-4.03597 31.639-3.93965 16.4446 12.1199 7.07422L12.1199 7.07422C28.1915-2.30156 54.133-2.30156 70.1002 7.0756L70.1002 7.0756C86.054 16.4446 85.9831 31.639 69.9101 41.0175L69.9101 41.0175C61.8817 45.7013 51.3761 48.044 40.8826 48.0426L40.8826 48.0426C30.3889 48.0426 19.9074 45.7013 11.9312 41.0161" fill="#00B6CA" fill-rule="evenodd" transform="matrix(1 0 0 -1 492 526)"/><path d="M3.34211 8.0542 2.57895 0.410934C2.53008 0.292023 2.4812 0.173112 2.33835 0.0542017L3.15038 7.69747C3.29323 7.81638 3.34211 7.93529 3.34211 8.0542" fill="#949494" fill-rule="evenodd" transform="matrix(1 0 0 -1 574 510)"/><path d="M1.22613 10.0546 1.14773 2.38424C1.07405 1.60592 0.760436 0.828957 0.225771 0.0546026L0.299456 7.72496C0.838838 8.49932 1.14773 9.27628 1.22613 10.0546" fill="#999999" fill-rule="evenodd" transform="matrix(1 0 0 -1 573 512)"/><path d="M1.09601 10.0552 1.06457 2.35206C0.837571 1.58111 0.514717 0.815404 0.0958545 0.0550453L0.127138 7.75824C0.548004 8.51849 0.870858 9.28556 1.09601 10.0552" fill="#9E9E9E" fill-rule="evenodd" transform="matrix(1 0 0 -1 573 515)"/><path d="M1.05877 10.0552 1.03956 2.36955C0.775128 1.58967 0.44823 0.817851 0.0587734 0.0552347L0.0792164 7.74092C0.467443 8.50354 0.794435 9.27546 1.05877 10.0552" fill="#A3A3A3" fill-rule="evenodd" transform="matrix(1 0 0 -1 572 517)"/><path d="M2.07824 10.0548 2.05103 2.45797C1.49099 1.64378 0.83495 0.840141 0.0781152 0.054803L0.105329 7.65164C0.859015 8.43832 1.51657 9.24062 2.07824 10.0548" fill="#A8A8A8" fill-rule="evenodd" transform="matrix(1 0 0 -1 570 519)"/><path d="M2.0508 10.0536 2.03304 2.66444C1.45999 1.77033 0.798175 0.897936 0.0507952 0.0536066L0.0674804 7.44408C0.814943 8.28841 1.47569 9.1608 2.0508 10.0536" fill="#ADADAD" fill-rule="evenodd" transform="matrix(1 0 0 -1 568 522)"/><path d="M6.07458 12.0586 6.04996 4.03918C4.35906 2.63374 2.36779 1.29761 0.0745771 0.0586053L0.10077 8.07661C2.39083 9.31573 4.38368 10.6518 6.07458 12.0586" fill="#B3B3B3" fill-rule="evenodd" transform="matrix(1 0 0 -1 562 526)"/><path d="M9.06081 12.057 9.03928 4.31015C8.88357 4.21103 8.72527 4.11065 8.56577 4.01279 5.97684 2.42195 3.10929 1.10284 0.0608081 0.0570454L0.0797483 7.80394C3.12952 8.84985 5.99708 10.1689 8.5873 11.7611 8.7468 11.8602 8.9038 11.9579 9.06081 12.057" fill="#B8B8B8" fill-rule="evenodd" transform="matrix(1 0 0 -1 553 530)"/><path d="M8.0651 9.05323 8.04311 1.85102C5.4855 1.1003 2.8111 0.501427 0.0649966 0.0532307L0.0870955 7.25545C2.83309 7.70364 5.5089 8.30251 8.0651 9.05323" fill="#B3B3B3" fill-rule="evenodd" transform="matrix(1 0 0 -1 545 532)"/><path d="M5.05961 9.06091 5.03794 0.834519C3.40138 0.504541 1.73943 0.248575 0.0595131 0.0609122L0.0811907 8.2873C1.7598 8.47508 3.42305 8.73239 5.05961 9.06091" fill="#ADADAD" fill-rule="evenodd" transform="matrix(1 0 0 -1 540 533)"/><path d="M5.06787 8.057 5.04305 0.359074C3.39539 0.211337 1.73457 0.108864 0.0678686 0.0569992L0.0912994 7.75629C1.758 7.80815 3.42032 7.90937 5.06787 8.057" fill="#A8A8A8" fill-rule="evenodd" transform="matrix(1 0 0 -1 535 533)"/><path d="M4.05837 8.05902 4.03678 0.100828C2.71145 0.0526344 1.38361 0.0458114 0.0582752 0.0815509L0.0773671 8.03834C1.4039 8.0026 2.73304 8.00953 4.05837 8.05902" fill="#A3A3A3" fill-rule="evenodd" transform="matrix(1 0 0 -1 531 533)"/><path d="M4.06027 7.84098 4.03918 0.0576317C2.70886 0.0899436 1.38124 0.162619 0.0601668 0.27428L0.0812615 8.05763C1.40233 7.94735 2.72995 7.87329 4.06027 7.84098" fill="#9E9E9E" fill-rule="evenodd" transform="matrix(1 0 0 -1 527 533)"/><path d="M4.06051 7.62058 4.03778 0.0560117C2.70269 0.163196 1.3756 0.308373 0.0605088 0.490103L0.081871 8.05601C1.39833 7.87294 2.72542 7.72777 4.06051 7.62058" fill="#999999" fill-rule="evenodd" transform="matrix(1 0 0 -1 523 533)"/><path d="M4.05891 8.30839 4.03662 0.060945C2.69631 0.267575 1.36776 0.518538 0.058907 0.813611L0.0811905 9.06106C1.39004 8.76452 2.71859 8.51502 4.05891 8.30839" fill="#949494" fill-rule="evenodd" transform="matrix(1 0 0 -1 519 533)"/><path d="M4.0556 7.98571 4.03452 0.058471C2.68455 0.36539 1.35576 0.724307 0.0555991 1.13123L0.0767798 9.05847C1.37694 8.65014 2.70573 8.29393 4.0556 7.98571" fill="#8F8F8F" fill-rule="evenodd" transform="matrix(1 0 0 -1 515 532)"/><path d="M5.0593 8.27681 5.03655 0.0603804C3.32712 0.577304 1.66309 1.17227 0.0592981 1.8454L0.0806791 10.0605C1.68584 9.38736 3.34987 8.79373 5.0593 8.27681" fill="#8A8A8A" fill-rule="evenodd" transform="matrix(1 0 0 -1 510 531)"/><path d="M18.0585 7.65781 18.0358 0.0541279C15.9575 0.862424 13.978 1.79171 12.1319 2.84197 4.06963 7.42391 0.0412008 13.4411 0.0585429 19.4504L0.079879 27.0542C0.0639032 21.0461 4.09096 15.0289 12.1519 10.4457 14.0007 9.39549 15.9788 8.46621 18.0585 7.65781" fill="#858585" fill-rule="evenodd" transform="matrix(1 0 0 -1 492 529)"/><path d="M3.36842 8.05381 2.55639 0.464361C2.55639 0.327924 2.45865 0.19159 2.36466 0.0538105L3.12782 7.6446C3.27068 7.7797 3.36842 7.91737 3.36842 8.05381" fill="#141213" fill-rule="evenodd" transform="matrix(1 0 0 -1 580 510)"/><path d="M1.19849 11.058 1.13043 2.92845C1.05451 1.96871 0.742281 1.01196 0.198173 0.0579716L0.266226 8.18605C0.806238 9.14004 1.11846 10.0982 1.19849 11.058" fill="#151313" fill-rule="evenodd" transform="matrix(1 0 0 -1 580 513)"/><path d="M1.08367 11.0586 1.05493 2.88976C0.828545 1.94078 0.504256 0.994683 0.0835329 0.0584846L0.110668 8.22743C0.531258 9.16363 0.855547 10.1097 1.08367 11.0586" fill="#161314" fill-rule="evenodd" transform="matrix(1 0 0 -1 579 516)"/><path d="M1.05124 10.0534 1.03468 2.64614C0.770379 1.77293 0.44186 0.907386 0.0512444 0.0533341L0.0687882 7.46184C0.459486 8.31589 0.787026 9.18013 1.05124 10.0534" fill="#161414" fill-rule="evenodd" transform="matrix(1 0 0 -1 578 518)"/><path d="M2.06804 11.0582 2.04467 3.01542C1.48419 2.01298 0.824476 1.02587 0.0680361 0.0582393L0.0900989 8.10106C0.846538 9.06869 1.50636 10.0558 2.06804 11.0582" fill="#171415" fill-rule="evenodd" transform="matrix(1 0 0 -1 576 521)"/><path d="M3.06635 11.0568 3.04342 3.25746C2.18176 2.16127 1.18813 1.09088 0.0662491 0.0567946L0.0891814 7.85613C1.21096 8.89159 2.20342 9.96209 3.06635 11.0568" fill="#181516" fill-rule="evenodd" transform="matrix(1 0 0 -1 573 524)"/><path d="M6.06497 12.0559 6.04241 4.44657C4.34972 2.89568 2.35713 1.42381 0.0648666 0.0558255L0.0860709 7.66518C2.37969 9.03317 4.37228 10.5051 6.06497 12.0559" fill="#191616" fill-rule="evenodd" transform="matrix(1 0 0 -1 567 529)"/><path d="M11.0646 13.0588 11.0419 5.1191C10.8513 5.00109 10.6579 4.88297 10.4633 4.76636 7.29827 2.87235 3.79337 1.30504 0.0644546 0.0587893L0.0857645 7.99848C3.81605 9.24473 7.31958 10.8134 10.4846 12.7061 10.6806 12.8228 10.8726 12.9408 11.0646 13.0588" fill="#191617" fill-rule="evenodd" transform="matrix(1 0 0 -1 556 534)"/><path d="M0.0573455 27.4131 0.0680584 31.2353 0.0800317 35.0561 0.0800317 35.0548 0.0800317 35.0561C0.0720495 32.4243 0.724276 29.7912 2.03682 27.2453 4.22435 23.0017 8.24599 19.0012 14.0963 15.656 15.2154 15.0152 16.3772 14.4168 17.5763 13.8566 17.6776 13.809 17.787 13.7694 17.8884 13.7217 19.0089 13.2065 20.1506 12.715 21.3271 12.2645 21.6006 12.1601 21.8793 12.0663 22.1554 11.9659 23.1011 11.6198 24.0629 11.2935 25.0392 10.9883 25.3727 10.8853 25.7061 10.7796 26.0423 10.6804 26.6611 10.4981 27.2988 10.3448 27.9297 10.1797 28.9034 9.92476 29.8825 9.67893 30.8789 9.46234 31.5311 9.32222 32.1887 9.1928 32.8476 9.06859 33.6826 8.9114 34.5216 8.76472 35.3686 8.63396 36.0716 8.52555 36.7772 8.42787 37.4881 8.33799 38.2751 8.2376 39.0674 8.15167 39.8624 8.07511 40.592 8.00509 41.3229 7.94424 42.0565 7.89409 42.8568 7.83854 43.6585 7.79631 44.4615 7.76593 45.1871 7.7368 45.9141 7.71568 46.641 7.70642 47.5067 7.69456 48.3737 7.70247 49.2407 7.71839 49.9277 7.7316 50.6146 7.74481 51.3016 7.77519 52.3766 7.82138 53.4451 7.89805 54.5134 7.98658 55.1497 8.03942 55.7873 8.07635 56.4209 8.14377 56.7423 8.1781 57.0611 8.22044 57.3826 8.25872 58.4857 8.38948 59.5821 8.54272 60.6693 8.71978 60.9386 8.76212 61.2094 8.8004 61.4762 8.84659 62.1204 8.95759 62.7501 9.10292 63.3876 9.22973 64.2693 9.40679 65.1536 9.5799 66.018 9.78733 66.6476 9.93797 67.2598 10.1163 67.8801 10.2841 68.7031 10.5047 69.5261 10.7254 70.3304 10.9764 74.2532 12.1998 77.948 13.7495 81.2586 15.656 90.4409 20.942 95.0374 27.8597 95.0574 34.7879L95.0348 27.1436C95.0147 20.2166 90.4182 13.2977 81.236 8.01165 78.0748 6.19237 74.5574 4.70735 70.8333 3.51038L70.8333 3.48136C70.6611 3.42716 70.4798 3.38492 70.3063 3.33208 69.5034 3.0823 68.6817 2.863 67.86 2.64111 67.2385 2.47331 66.6263 2.2949 65.9953 2.14301 65.1296 1.93693 64.248 1.76383 63.3676 1.58677 62.8554 1.48503 62.3579 1.35561 61.8403 1.26438 61.7137 1.24066 61.5829 1.2261 61.4535 1.20227 61.1867 1.15608 60.916 1.11905 60.6479 1.07546 59.5594 0.898401 58.4644 0.745166 57.3613 0.6144 57.0398 0.577365 56.7197 0.535129 56.3982 0.5008 56.1928 0.478329 55.99 0.449201 55.782 0.428083 55.3551 0.385847 54.9217 0.379189 54.4921 0.343506 53.4237 0.255081 52.3553 0.177059 51.2789 0.132118 51.0241 0.120258 50.772 0.0885294 50.5146 0.0806231 50.0838 0.0660589 49.6502 0.0819755 49.2181 0.0753176 48.3511 0.0581527 47.4867 0.0515988 46.6183 0.0621058 46.2956 0.0674113 45.9727 0.0502464 45.65 0.0581527 45.2458 0.0687637 44.843 0.105694 44.4389 0.122963 43.6358 0.15334 42.8355 0.194224 42.0352 0.248423 41.6804 0.273494 41.3229 0.277448 40.9709 0.305223 40.592 0.336953 40.2172 0.395105 39.8397 0.430787 39.0447 0.507353 38.255 0.59453 37.4654 0.693671 37.0973 0.741212 36.7198 0.765035 36.353 0.81653 36.0129 0.864072 35.6834 0.939389 35.346 0.990884 34.4989 1.12175 33.6613 1.26708 32.825 1.42427 32.4328 1.49959 32.0326 1.54848 31.6432 1.62775 31.3764 1.6832 31.123 1.76122 30.8575 1.81927 29.8612 2.03597 28.8821 2.28044 27.9084 2.53541 27.5055 2.64111 27.088 2.71903 26.6906 2.83128 26.4638 2.89473 26.245 2.9714 26.0209 3.03746 25.6834 3.1365 25.3527 3.24084 25.0179 3.34529 24.0402 3.65041 23.0798 3.9755 22.1341 4.32161 21.8593 4.42335 21.5791 4.51718 21.3071 4.62152 21.1803 4.66907 21.0483 4.71005 20.9243 4.7602L20.9243 4.78267 20.9243 4.7602C18.5114 5.70229 16.2171 6.78691 14.0749 8.01165 9.39437 10.6897 5.88506 13.7852 3.54807 17.0881 2.26357 18.9047 1.36863 20.7847 0.7937 22.6925 0.321492 24.2529 0.0520941 25.833 0.0573455 27.4131" fill="#425460" fill-rule="evenodd" transform="matrix(1 0 0 -1 485 537)"/><path d="M18.7515 10.8202C34.7737 1.57509 60.6367 1.57509 76.5534 10.8215 92.4581 20.0586 92.3861 35.0389 76.3653 44.2854 60.3565 53.5211 34.4682 53.5211 18.5634 44.284 2.64672 35.0389 2.74274 20.0586 18.7515 10.8202M81.0389 46.999C99.6466 36.2604 99.744 18.8451 81.2577 8.10656 62.7686-2.63201 32.687-2.63201 14.0793 8.10656-4.52854 18.8451-4.62719 36.2604 13.8604 46.9977 32.3468 57.7375 62.4285 57.7375 81.0389 46.999" fill="#576A7A" fill-rule="evenodd" transform="matrix(1 0 0 -1 485 529)"/><path d="M17.9614 10.2974C22.0761 7.95251 22.0951 4.15472 18.009 1.81259 13.9203-0.532284 7.27663-0.532284 3.16073 1.81259-0.952495 4.15472-0.976973 7.95251 3.11188 10.2974 7.19785 12.6395 13.8483 12.6395 17.9614 10.2974" fill="#425460" fill-rule="evenodd" transform="matrix(1 0 0 -1 501 503)"/><path d="M37.8896 8.99893C37.9066 9.00016 37.9236 9.00284 37.942 9.00418 38.1441 9.02116 38.3384 9.01066 38.5194 8.97401 38.5286 8.97278 38.5378 8.9701 38.5483 8.96887 38.7346 8.9283 38.9077 8.86427 39.0665 8.77275L39.056 8.77924C39.06 8.77666 39.064 8.77532 39.0665 8.77275L6.18359 27.8154C6.17708 27.818 6.16913 27.8219 6.16262 27.8246 6.10487 27.8585 6.04453 27.8873 5.98285 27.9134 5.92251 27.9383 5.85825 27.9618 5.79264 27.9801 5.75194 27.9919 5.70865 27.9997 5.66401 28.0089 5.65616 28.0115 5.64562 28.0141 5.63519 28.0168 5.62073 28.0194 5.60626 28.0246 5.5918 28.0272 5.52102 28.0389 5.44746 28.0468 5.37535 28.052 5.29662 28.0572 5.21789 28.0572 5.13658 28.0533 5.11158 28.052 5.0841 28.0468 5.0591 28.0455 5.04071 28.0442 5.02242 28.0416 5.00537 28.0403 4.9594 28.0363 4.91476 28.035 4.86889 28.0272 4.7665 28.0115 4.66019 27.988 4.55398 27.9605 4.50935 27.9474 4.46079 27.9278 4.41616 27.9134 4.37556 27.8991 4.33351 27.8847 4.2928 27.8703 4.23907 27.8507 4.18525 27.8377 4.13142 27.8154 3.96611 27.7474 3.80081 27.6638 3.63023 27.5657 3.24972 27.3473 2.89017 27.0544 2.54644 26.7315 2.51235 26.6975 2.47164 26.6792 2.43486 26.6452 2.38764 26.5982 2.34301 26.5459 2.29714 26.4975 2.25777 26.4569 2.21841 26.4151 2.18039 26.3733 2.137 26.3262 2.09113 26.2818 2.04784 26.2334 1.94814 26.1197 1.85236 26.002 1.75917 25.8817 1.72373 25.8373 1.69088 25.7901 1.65678 25.7444 1.63974 25.7222 1.62269 25.7 1.60822 25.6777 1.57806 25.6398 1.54923 25.6006 1.5203 25.5614 1.45077 25.4607 1.38124 25.3587 1.31439 25.2541 1.25003 25.1547 1.18835 25.0541 1.12935 24.9521 1.12274 24.9403 1.11757 24.9299 1.10962 24.9168 1.10445 24.9063 1.09918 24.8972 1.09391 24.8868 1.04928 24.8096 1.00465 24.7311 0.96136 24.6527 0.907635 24.5521 0.85639 24.4501 0.807831 24.3494 0.759273 24.25 0.714743 24.1507 0.670111 24.05 0.670111 24.0487 0.668767 24.0473 0.668767 24.0461 0.667424 24.0448 0.666185 24.0409 0.666185 24.0395 0.618969 23.9337 0.575576 23.8264 0.53363 23.7192 0.49034 23.6068 0.449633 23.4931 0.412956 23.3806 0.391879 23.3204 0.374832 23.259 0.356545 23.1988 0.349933 23.1754 0.342081 23.1518 0.335469 23.1282 0.32369 23.0903 0.309226 23.0525 0.300031 23.0158 0.260667 22.8772 0.227916 22.7399 0.197748 22.6027 0.1807 22.5176 0.168819 22.4314 0.154458 22.3477 0.146606 22.3045 0.138651 22.2628 0.133485 22.2183 0.126873 22.1804 0.117677 22.1425 0.112408 22.1033 0.0822399 21.8653 0.0665358 21.6299 0.0665358 21.3985 0.0704618 20.2689 0.468024 19.4714 1.11489 19.0988L33.9978 0.0561062C33.3523 0.428672 32.9534 1.22754 32.9495 2.35852 32.9495 2.62515 32.9744 2.89971 33.0164 3.17829 33.0229 3.22009 33.0308 3.26322 33.0386 3.30636 33.0833 3.56527 33.141 3.82542 33.2172 4.08433 33.225 4.11048 33.2329 4.13261 33.2407 4.15876 33.3273 4.44248 33.431 4.72497 33.5517 5.00344 33.5517 5.00468 33.5531 5.00601 33.5531 5.00735 33.679 5.29365 33.8207 5.57603 33.9794 5.84802 33.9821 5.85718 33.9873 5.86634 33.9926 5.87283 34.1447 6.13823 34.3127 6.39323 34.4912 6.63639 34.5082 6.65863 34.524 6.68086 34.5397 6.70176 34.705 6.92269 34.8809 7.13321 35.0646 7.33324 35.1026 7.3738 35.1407 7.41426 35.1813 7.45482 35.26 7.53986 35.348 7.61037 35.4306 7.68882 35.7745 8.01176 36.1327 8.30599 36.5132 8.52434 36.7402 8.65374 36.9593 8.75175 37.1745 8.82762 37.2164 8.84327 37.2597 8.85902 37.3004 8.87076 37.5038 8.93479 37.7006 8.9806 37.8896 8.99893" fill="#B2C3CE" fill-rule="evenodd" transform="matrix(1 0 0 -1 562 551)"/><path d="M3.54734 8.57692C5.48324 9.69255 7.05895 8.79571 7.06531 6.57734 7.07177 4.35645 5.50505 1.64942 3.57046 0.533891 1.63456-0.580431 0.0717747 0.324062 0.0653139 2.54364 0.0589542 4.76332 1.61155 7.46269 3.54734 8.57692" fill="#171516" fill-rule="evenodd" transform="matrix(1 0 0 -1 595 551)"/><path d="M48.3855 13.5439C48.6942 13.6414 48.9949 13.7107 49.2823 13.7388 49.3077 13.7401 49.3343 13.7441 49.3595 13.7468 49.6682 13.7708 49.9623 13.7561 50.2378 13.7015 50.2524 13.6974 50.267 13.6934 50.283 13.6908 50.5651 13.6294 50.8298 13.532 51.0707 13.3918L9.38396 37.6886C9.37474 37.6953 9.36542 37.7006 9.35473 37.706 9.26693 37.7567 9.17378 37.8008 9.08063 37.8408 8.98749 37.8795 8.889 37.9141 8.79051 37.9422 8.72796 37.9623 8.66143 37.9743 8.59762 37.9876 8.58158 37.9902 8.56828 37.9942 8.55235 37.9982 8.52972 38.0023 8.50709 38.0103 8.48446 38.0143 8.37675 38.033 8.26757 38.045 8.15452 38.053 8.03602 38.0597 7.91626 38.061 7.79252 38.0557 7.75532 38.053 7.71404 38.0463 7.67548 38.0436 7.64887 38.041 7.62226 38.0382 7.59564 38.0356 7.52639 38.029 7.45723 38.0263 7.38536 38.0143 7.22966 37.9902 7.06998 37.9569 6.90632 37.9129 6.83979 37.8942 6.77063 37.8635 6.70138 37.8408 6.63883 37.8207 6.57502 37.7994 6.5111 37.7754 6.43001 37.746 6.34881 37.7247 6.26624 37.6912 6.0175 37.5872 5.76468 37.4617 5.50651 37.3123 5.1552 37.1067 4.81321 36.8638 4.48054 36.597 4.37011 36.5102 4.26764 36.4101 4.16118 36.3153 4.00151 36.1765 3.83648 36.0457 3.68215 35.8949 3.61163 35.8241 3.5451 35.7468 3.47459 35.6733 3.4134 35.6093 3.35347 35.5452 3.29364 35.4811 3.22574 35.405 3.15387 35.3357 3.08733 35.2596 2.93562 35.0847 2.78799 34.9046 2.6456 34.7191 2.59499 34.6537 2.54711 34.5857 2.49786 34.5176 2.47261 34.4829 2.44736 34.4495 2.42201 34.4148 2.37548 34.3521 2.3276 34.2907 2.2836 34.2266 2.17452 34.0718 2.06943 33.9144 1.96832 33.7555 1.87109 33.602 1.77795 33.4485 1.68616 33.2923 1.67684 33.2777 1.67024 33.2617 1.66227 33.247 1.65421 33.235 1.6476 33.2216 1.6409 33.2083 1.56777 33.0855 1.49851 32.96 1.43072 32.8319 1.34815 32.6784 1.27104 32.5236 1.19518 32.3675 1.12592 32.2234 1.06212 32.0778 0.998202 31.9324 0.994221 31.9244 0.991601 31.919 0.98762 31.911 0.984896 31.9043 0.982276 31.8991 0.979552 31.8923 0.909038 31.7296 0.842505 31.5667 0.779954 31.4025 0.713421 31.2304 0.652232 31.0583 0.595024 30.8848 0.564429 30.7966 0.540435 30.7073 0.512565 30.6191 0.50324 30.583 0.491295 30.5457 0.480608 30.5111 0.461958 30.4496 0.442051 30.3882 0.424762 30.3282 0.366193 30.1187 0.315586 29.9091 0.271685 29.6996 0.243709 29.5715 0.227783 29.4446 0.205152 29.3165 0.194569 29.2525 0.181158 29.187 0.173195 29.1203 0.16387 29.0603 0.149306 29.0002 0.141343 28.9402 0.0947176 28.5785 0.0694666 28.2195 0.0707239 27.8685 0.0760675 26.1401 0.680207 24.9243 1.65955 24.3557L43.3436 0.0588497C42.367 0.627485 41.7615 1.842 41.7575 3.57165 41.7561 3.98003 41.7948 4.39912 41.8573 4.82347 41.8679 4.88894 41.8799 4.95431 41.8905 5.02104 41.9584 5.41607 42.0476 5.81383 42.1646 6.21285 42.1767 6.24889 42.1886 6.28631 42.2006 6.32361 42.3323 6.75605 42.488 7.18975 42.673 7.61684 42.6756 7.62219 42.6783 7.62493 42.681 7.63018 42.8699 8.06662 43.0881 8.49643 43.325 8.91142 43.333 8.92477 43.3396 8.93812 43.3476 8.9502 43.5805 9.35322 43.8347 9.74289 44.106 10.1179 44.1327 10.1526 44.1567 10.186 44.1819 10.2207 44.4321 10.5584 44.7009 10.8787 44.979 11.183L45.1586 11.3751C45.3809 11.6061 45.6138 11.8156 45.8479 12.0211 45.9544 12.1133 46.0555 12.2133 46.1646 12.3001 46.4972 12.567 46.8392 12.8099 47.1932 13.0155 47.5352 13.2143 47.8705 13.3597 48.1965 13.4786 48.2604 13.5013 48.323 13.5239 48.3855 13.5439" fill="#576A7A" fill-rule="evenodd" transform="matrix(1 0 0 -1 584 572)"/><path d="M5.55437 13.3172C8.58619 15.0487 11.0625 13.6531 11.0719 10.2061 11.0813 6.74181 8.62117 2.54451 5.58925 0.811752 2.54263-0.929061 0.0825351 0.458466 0.0718616 3.92284 0.0610823 7.36986 2.50649 11.5763 5.55437 13.3172" fill="#425460" fill-rule="evenodd" transform="matrix(1 0 0 -1 626 572)"/><path d="M150.063 119.621 149.847 43.208C149.815 32.1784 142.566 21.1674 128.086 12.7538 98.9324-4.18636 51.5146-4.18636 22.1694 12.7524 7.40506 21.2749 0.0315812 32.4638 0.0634761 43.6341L0.279943 120.049C0.248048 108.877 7.62152 97.6892 22.3858 89.1668 51.731 72.2266 99.1488 72.228 128.303 89.1668 142.784 97.5816 150.033 108.593 150.063 119.621" fill="#3A4D57" fill-rule="evenodd" transform="matrix(1 0 0 -1 426 467)"/><path d="M127.919 74.3003C157.307 57.311 157.461 29.769 128.27 12.7825 99.0741-4.20668 51.5866-4.20804 22.2004 12.7825-7.18325 29.769-7.3375 57.3097 21.8586 74.3003 51.0506 91.2868 98.5354 91.2868 127.919 74.3003" fill="#3A4D57" fill-rule="evenodd" transform="matrix(1 0 0 -1 426 391)"/><path d="M53.1705 89.4823C38.5304 80.997 19.3114 76.7471 0.0630196 76.7337L0.0630196 0.0462772C19.2379 0.0929742 38.3674 4.33894 52.9526 12.7936 67.5206 21.2376 74.8133 32.2883 74.8452 43.3577L75.0631 120.046C75.031 108.978 67.7383 97.9275 53.1705 89.4823" fill="#2A3B42" fill-rule="evenodd" transform="matrix(1 0 0 -1 501 467)"/><path d="M284.069 82.5399 142.532 0.0385436 0.0688761 82.5372 141.605 165.039Z" fill="#445C66" fill-rule="evenodd" transform="matrix(1 0 0 -1 359 436)"/><path d="M142.071 88.0463 142.052 81.7937 0.0709887 0.0462277 0.0883672 6.29616Z" fill="#3A4D57" fill-rule="evenodd" transform="matrix(1 0 0 -1 501 442)"/><path d="M142.056 6.29114 142.038 0.0398629 0.0556681 81.7898 0.0742939 88.0399Z" fill="#2A3B42" fill-rule="evenodd" transform="matrix(1 0 0 -1 359 442)"/><path d="M1.32642 4.29997C-0.428847 3.32087-0.418496 1.73986 1.34195 0.764566L1.34195 0.764566C3.10239-0.210828 5.95697-0.214526 7.71234 0.764566L7.71234 0.764566C9.46244 1.73986 9.44701 3.32457 7.68525 4.29997L7.68525 4.29997C6.80503 4.7882 5.65284 5.03173 4.50198 5.03173L4.50198 5.03173C3.35111 5.03173 2.20157 4.7882 1.32642 4.29997" fill="#FA9887" fill-rule="evenodd" transform="matrix(1 0 0 -1 568 462)"/><path d="M2.34759 8.57756C-0.773856 6.62028-0.756292 3.45529 2.37447 1.5068L2.37447 1.5068C5.50407-0.444769 10.5779-0.451961 13.6994 1.5068L13.6994 1.5068C16.81 3.45529 16.7832 6.6261 13.6523 8.57756L13.6523 8.57756C12.0869 9.55329 10.0377 10.0405 7.99259 10.0405L7.99259 10.0405C5.94612 10.0405 3.90229 9.55329 2.34759 8.57756" fill="#FA9887" fill-rule="evenodd" transform="matrix(1 0 0 -1 565 481)"/><path d="M3.3244 15.8063 0.0163988 0.0349929 16.0164 0.0349929 12.6869 16.035Z" fill="#FA9887" fill-rule="evenodd" transform="matrix(1 0 0 -1 565 476)"/><path d="M0.0156941 2.73401C0.0144791 2.04247 0.455533 1.34821 1.34017 0.821596L1.34017 0.821596C3.0967-0.227651 5.94502-0.230374 7.69638 0.821596L7.69638 0.821596C8.56178 1.34297 8.99514 2.02519 8.99646 2.70741L8.99646 2.70741 9.01569 10.0085C9.01448 9.32626 8.58233 8.64394 7.71572 8.12266L7.71572 8.12266C5.96426 7.06944 3.11603 7.07342 1.35951 8.12266L1.35951 8.12266C0.476088 8.65064 0.0350332 9.34218 0.0362483 10.0337L0.0362483 10.0337Z" fill="#FA9887" fill-rule="evenodd" transform="matrix(1 0 0 -1 568 462)"/><path d="M1.32642 4.2987C-0.428847 3.32087-0.418496 1.73869 1.34195 0.763301L1.34195 0.763301C3.10239-0.211996 5.95697-0.215694 7.71234 0.763301L7.71234 0.763301C9.46244 1.73869 9.44701 3.32457 7.68525 4.2987L7.68525 4.2987C6.80503 4.78693 5.65284 5.03047 4.50198 5.03047L4.50198 5.03047C3.35111 5.03047 2.20157 4.78693 1.32642 4.2987" fill="#FA9887" fill-rule="evenodd" transform="matrix(1 0 0 -1 568 455)"/><path d="M0.0175865 2.66383 3.54361 0.0287437C4.12 0.458733 4.64022 0.49769 5.0177 0.215943L5.0177 0.215943 1.49031 2.85103C1.33317 2.96761 1.15027 3.02889 0.948534 3.02889L0.948534 3.02889C0.667491 3.02889 0.351956 2.91202 0.0175865 2.66383" fill="#FA9887" fill-rule="evenodd" transform="matrix(1 0 0 -1 571 388)"/><path d="M1.89394 66.7634C0.86109 66.1527 0.00962285 64.6633 0.0161415 63.4406L0.0161415 63.4406 0.238191 0.0342727C1.2251-0.01392 2.24481 0.181593 3.00564 0.630196L3.00564 0.630196C3.64437 1.00393 3.98603 1.49946 4.01614 1.98697L4.01614 1.98697 4.01614 2.15834 3.79678 65.6625C3.78757 66.2839 3.57463 66.7178 3.21858 66.9107L3.21858 66.9107 3.1713 66.9347C3.15681 66.9428 3.14098 66.9509 3.12525 66.9509L3.12525 66.9509C3.08055 66.9749 3.02799 66.9883 2.97408 67.0044L2.97408 67.0044 2.95183 67.0044C2.8913 67.0205 2.82167 67.0272 2.75472 67.0272L2.75472 67.0272C2.49449 67.0272 2.20539 66.9428 1.89394 66.7634" fill="#FA9887" fill-rule="evenodd" transform="matrix(1 0 0 -1 572 454)"/><path d="M0.0157281 1.84316 3.16915 0.0201747C3.16651 1.18859 3.99645 2.61313 5.01583 3.1986L5.01583 3.1986 1.8624 5.02028C0.843024 4.43612 0.0131913 3.01027 0.0157281 1.84316" fill="#FA9887" fill-rule="evenodd" transform="matrix(1 0 0 -1 569 391)"/><path d="M0.0315762 1.1419C0.0332937 0.73268 0.362135 0.323564 1.01823 0.0143304L1.01823 0.0143304 1.00304 3.88687C0.348659 4.19879 0.0198177 4.60662 0.0181001 5.01444L0.0181001 5.01444Z" fill="#FA9887" fill-rule="evenodd" transform="matrix(1 0 0 -1 500 352)"/><path d="M0.809789 43.5625C-0.246603 42.9553-0.24786 41.9676 0.796484 41.3619L0.796484 41.3619 71.4082 0.473492C72.4566-0.13497 74.1636-0.13497 75.2186 0.473492L75.2186 0.473492C76.275 1.08206 76.283 2.06704 75.2305 2.67414L75.2305 2.67414 4.62156 43.5625C4.09734 43.8647 3.40813 44.0172 2.7163 44.0172L2.7163 44.0172C2.0272 44.0172 1.33662 43.8661 0.809789 43.5625" fill="#FA9887" fill-rule="evenodd" transform="matrix(1 0 0 -1 500 390)"/><path d="M0.0274693 102.242 68.5282 62.4403 68.7435 2.24322 68.7435 1.99457C68.7742 1.49212 69.1217 1.00702 69.7873 0.618207L69.7873 0.618207C70.4049 0.262646 71.2029 0.062189 72.0155 0.0234656L72.0155 0.0234656 71.799 61.0585 71.799 64.4756 70.9555 64.8057 0.015366 106.024Z" fill="#FA9887" fill-rule="evenodd" transform="matrix(1 0 0 -1 501 454)"/></g></svg>