<svg width="22" height="26" viewBox="0 0 22 26" fill="none" xmlns="http://www.w3.org/2000/svg">
<path d="M7.29394 26C3.30203 25.9777 0 18.0786 0 14.0557C0 7.48445 5.08543 6.04581 7.04531 6.04581C7.92855 6.04581 8.87167 6.38203 9.70351 6.67956C10.2852 6.88711 10.8868 7.10135 11.2214 7.10135C11.4217 7.10135 11.8936 6.9191 12.3103 6.75919C13.199 6.41626 14.3047 5.99005 15.5924 5.99005C15.5947 5.99005 15.5978 5.99005 15.6 5.99005C16.5615 5.99005 19.4769 6.1946 21.2296 8.74605L21.6401 9.34411L21.0492 9.77631C20.2051 10.3937 18.665 11.5199 18.665 13.7508C18.665 16.393 20.4092 17.4091 21.2472 17.8979C21.6171 18.1136 22 18.336 22 18.8225C22 19.1401 19.3848 25.9606 15.587 25.9606C14.6577 25.9606 14.0008 25.6898 13.4214 25.4511C12.8352 25.2093 12.3294 25.001 11.4938 25.001C11.0702 25.001 10.5345 25.1952 9.96743 25.4012C9.19248 25.6816 8.31532 26 7.32003 26H7.29394Z" fill="#3D4C59"/>
<path d="M15.9947 0C16.0936 3.45698 13.5432 5.85528 10.9957 5.70487C10.576 2.94607 13.5429 0 15.9947 0Z" fill="#3D4C59"/>
</svg>
