<svg width="16" height="16" viewBox="0 0 16 16" fill="none" xmlns="http://www.w3.org/2000/svg">
<path d="M14.8457 14.8457C15.2347 14.4568 15.2339 13.8267 14.8457 13.4385L2.11075 0.703527C1.92415 0.516929 1.67107 0.412099 1.40718 0.412099C1.14329 0.412099 0.890207 0.516928 0.703609 0.703527C0.51701 0.890126 0.412181 1.14321 0.412181 1.4071C0.412181 1.67099 0.517011 1.92407 0.70361 2.11067L13.4386 14.8457C13.6252 15.0323 13.8783 15.1371 14.1422 15.1371C14.4061 15.1371 14.6591 15.0323 14.8457 14.8457V14.8457Z" fill="black"/>
<path d="M0.703655 14.8457C1.09256 15.2347 1.7226 15.2339 2.1108 14.8457L14.8458 2.11075C15.0324 1.92415 15.1372 1.67107 15.1372 1.40718C15.1372 1.14329 15.0324 0.890209 14.8458 0.70361C14.6592 0.517011 14.4061 0.412182 14.1422 0.412182C13.8783 0.412182 13.6252 0.517012 13.4386 0.703611L0.703655 13.4386C0.517057 13.6252 0.412227 13.8783 0.412227 14.1422C0.412227 14.4061 0.517057 14.6591 0.703655 14.8457V14.8457Z" fill="black"/>
</svg>
