<svg width="20" height="16" viewBox="0 0 20 16" fill="none" xmlns="http://www.w3.org/2000/svg">
<g id="Group 241">
<path id="Vector" d="M20 1.995C20 1.445 19.554 1 19.005 1H10.995C10.7311 1 10.478 1.10483 10.2914 1.29143C10.1048 1.47803 10 1.73111 10 1.995C10 2.25889 10.1048 2.51197 10.2914 2.69857C10.478 2.88517 10.7311 2.99 10.995 2.99H19.005C19.2689 2.99 19.522 2.88517 19.7086 2.69857C19.8952 2.51197 20 2.25889 20 1.995V1.995Z" fill="black"/>
<path id="Vector_2" d="M20 7.99988C20 7.44988 19.554 7.00488 19.005 7.00488H0.995001C0.73111 7.00488 0.478028 7.10971 0.29143 7.29631C0.104831 7.48291 0 7.73599 0 7.99988C0 8.26377 0.104831 8.51686 0.29143 8.70345C0.478028 8.89005 0.73111 8.99488 0.995001 8.99488H19.005C19.2689 8.99488 19.522 8.89005 19.7086 8.70345C19.8952 8.51686 20 8.26377 20 7.99988V7.99988Z" fill="black"/>
<path id="Vector_3" d="M19.005 13.01C19.2689 13.01 19.522 13.1148 19.7086 13.3014C19.8952 13.488 20 13.7411 20 14.005C20 14.2689 19.8952 14.522 19.7086 14.7086C19.522 14.8952 19.2689 15 19.005 15H6.995C6.73111 15 6.47803 14.8952 6.29143 14.7086C6.10483 14.522 6 14.2689 6 14.005C6 13.7411 6.10483 13.488 6.29143 13.3014C6.47803 13.1148 6.73111 13.01 6.995 13.01H19.005Z" fill="black"/>
<path id="x1" d="M18.8457 14.8457C19.2347 14.4568 19.2339 13.8267 18.8457 13.4385L6.11075 0.703527C5.92415 0.516929 5.67107 0.412099 5.40718 0.412099C5.14329 0.412099 4.89021 0.516928 4.70361 0.703527C4.51701 0.890126 4.41218 1.14321 4.41218 1.4071C4.41218 1.67099 4.51701 1.92407 4.70361 2.11067L17.4386 14.8457C17.6252 15.0323 17.8783 15.1371 18.1422 15.1371C18.4061 15.1371 18.6591 15.0323 18.8457 14.8457V14.8457Z" fill="black"/>
<path id="x2" d="M4.70366 14.8457C5.09256 15.2347 5.7226 15.2339 6.1108 14.8457L18.8458 2.11075C19.0324 1.92415 19.1372 1.67107 19.1372 1.40718C19.1372 1.14329 19.0324 0.890209 18.8458 0.70361C18.6592 0.517011 18.4061 0.412182 18.1422 0.412182C17.8783 0.412182 17.6252 0.517012 17.4386 0.703611L4.70366 13.4386C4.51706 13.6252 4.41223 13.8783 4.41223 14.1422C4.41223 14.4061 4.51706 14.6591 4.70366 14.8457V14.8457Z" fill="black"/>
</g>
</svg>
