<svg width="22" height="24" viewBox="0 0 22 24" fill="none" xmlns="http://www.w3.org/2000/svg">
<path d="M20.7817 10.2005L16.7172 7.85315L11.1484 12.014L16.7171 16.1748L20.7955 13.8193C21.4314 13.433 21.8109 12.7579 21.8109 12.0141C21.8109 11.2702 21.4313 10.5952 20.7817 10.2005Z" fill="#FF9100"/>
<path d="M12.5564 12.014C12.5503 12.0218 7.63274 18.3444 7.62875 18.3496L1.22279 23.3945C0.82853 23.0003 0.589233 22.4654 0.589233 21.874V2.11912C0.589233 1.52785 0.82853 0.992799 1.22279 0.598633L7.62875 5.67844C7.63274 5.68355 12.5503 12.0062 12.5564 12.014Z" fill="#25D9F8"/>
<path d="M16.7241 7.84664L12.5566 12.0141L1.22302 0.598759C1.36377 0.472001 1.5046 0.373448 1.65947 0.274895C2.33522 -0.105192 3.13777 -0.09116 3.79953 0.317179L11.1487 4.63667L16.7241 7.84664Z" fill="#7FE881"/>
<path d="M16.7238 7.84669L12.5563 12.0141L11.1484 10.6062V4.63672L16.7238 7.84669Z" fill="#5BC980"/>
<path d="M16.7241 16.1815L11.1487 19.3916L3.78545 23.6904C3.44756 23.8874 3.0815 24.0001 2.70132 24.0001C2.34934 24.0001 1.99737 23.9015 1.65947 23.7185C1.5046 23.6199 1.36377 23.5214 1.22302 23.3947L12.5566 12.0142L16.7241 16.1815Z" fill="#FF637B"/>
<path d="M16.7238 16.1815L11.1484 19.3916V13.4221L12.5563 12.0142L16.7238 16.1815Z" fill="#E63950"/>
</svg>
