<svg width="13" height="12" viewBox="0 0 13 12" fill="none" xmlns="http://www.w3.org/2000/svg">
<path d="M12.9813 4.55671C12.9365 4.42327 12.8174 4.32603 12.6739 4.30588L8.64387 3.73919L6.84152 0.205426C6.77739 0.0796298 6.64497 0 6.50002 0C6.35504 0 6.22265 0.0796298 6.15849 0.205426L4.35607 3.73919L0.326087 4.30588C0.182656 4.32603 0.0634475 4.42328 0.0186587 4.55669C-0.0261556 4.69012 0.0112193 4.83658 0.115041 4.93449L3.03109 7.68515L2.34281 11.5692C2.31828 11.7074 2.37703 11.8472 2.49431 11.9296C2.56066 11.9763 2.63924 12 2.7182 12C2.77884 12 2.83967 11.986 2.89538 11.9577L6.49999 10.1238L10.1045 11.9576C10.2328 12.0229 10.3883 12.0121 10.5056 11.9296C10.6228 11.8472 10.6816 11.7074 10.6571 11.5691L9.96859 7.68515L12.885 4.93447C12.9888 4.83658 13.0262 4.69012 12.9813 4.55671Z" fill="#FF971E"/>
</svg>
