<svg width="107" height="87" viewBox="0 0 107 87" fill="none" xmlns="http://www.w3.org/2000/svg">
<path d="M15.6677 67.3594C12.0698 59.046 14.2342 57.0816 22.1609 61.4661C30.0877 65.8506 32.2521 63.8862 28.6542 55.5728C25.0562 47.2594 27.2207 45.295 35.1474 49.6795C43.0741 54.064 45.2385 52.0996 41.6406 43.7862C38.0427 35.4729 40.2071 33.5084 48.1339 37.8929C56.0606 42.2775 58.225 40.313 54.6271 31.9997C51.0292 23.6863 53.1936 21.7219 61.1203 26.1064C69.0471 30.4909 71.2115 28.5265 67.6136 20.2131C64.0157 11.8997 66.1801 9.9353 74.1068 14.3198C82.0335 18.7043 84.1979 16.7399 80.6 8.42653" stroke="#FFAC60" stroke-width="2"/>
<path d="M25.9626 78.5414C22.3647 70.228 24.5291 68.2636 32.4558 72.6481C40.3826 77.0326 42.547 75.0682 38.9491 66.7548C35.3512 58.4414 37.5156 56.477 45.4423 60.8615C53.369 65.246 55.5335 63.2816 51.9355 54.9682C48.3376 46.6549 50.502 44.6904 58.4288 49.075C66.3555 53.4595 68.5199 51.495 64.922 43.1817C61.3241 34.8683 63.4885 32.9039 71.4152 37.2884C79.342 41.6729 81.5064 39.7085 77.9085 31.3951C74.3106 23.0817 76.475 21.1173 84.4017 25.5018C92.3285 29.8863 94.4929 27.9219 90.895 19.6085" stroke="#FFAC60" stroke-opacity="0.5" stroke-width="2"/>
</svg>
