<svg width="16" height="16" viewBox="0 0 16 16" fill="none" xmlns="http://www.w3.org/2000/svg">
<path d="M1.875 0.9375H0.9375V0H3.75V0.9375H2.8125V1.90625H4.71875V2.84375H3.75V7.53125H2.8125V10.8806C3.16553 11.2385 3.53992 11.6499 3.88562 12.0282C5.01282 10.8341 6.23962 9.70776 7.53125 9.47961V7.53125H6.59375V2.84375H5.65625V1.90625H7.53125V0.9375H6.59375V0H9.40625V0.9375H8.46875V1.90625H10.3438V2.84375H9.40625V7.53125H8.46875V9.47961C9.76038 9.70776 10.9872 10.8341 12.1144 12.0283C12.4515 11.6592 12.8148 11.2603 13.1562 10.9124V7.53125H12.2188V2.84375H11.2812V1.90625H13.1562V0.9375H12.2188V0H15.0312V0.9375H14.0938V1.90625H16V2.84375H15.0312V7.53125H14.0938V10.0563C14.5868 9.67371 15.0616 9.4375 15.5312 9.4375H16V10.375H15.5312C15.3859 10.375 15.2167 10.4376 15.0312 10.5459V14.8916C15.2167 14.9999 15.3859 15.0625 15.5312 15.0625H16V16H15.5312C14.3575 16 13.0264 14.4073 12.1144 13.4092C10.8516 14.7469 9.46387 16 8 16C6.53613 16 5.14844 14.7469 3.88562 13.4092C2.68909 14.7186 1.55286 16 0.46875 16H0V15.0625H0.46875C0.605957 15.0625 0.764282 15.007 0.9375 14.9098V10.5277C0.764282 10.4305 0.605957 10.375 0.46875 10.375H0V9.4375H0.46875C0.928467 9.4375 1.39319 9.66345 1.875 10.0319V7.53125H0.9375V2.84375H0V1.90625H1.875V0.9375ZM8.46875 6.59375V4.71875H7.53125V6.59375H8.46875ZM7.53125 2.84375V3.78125H8.46875V2.84375H7.53125ZM14.0938 6.59375V4.71875H13.1562V6.59375H14.0938ZM13.1562 2.84375V3.78125H14.0938V2.84375H13.1562ZM8.46875 15C8.77661 14.9209 9.09033 14.7701 9.40625 14.5681V10.8694C9.09033 10.6674 8.77661 10.5166 8.46875 10.4375V15ZM7.53125 10.4375C7.22339 10.5166 6.90967 10.6674 6.59375 10.8694V14.5681C6.90967 14.7701 7.22339 14.9209 7.53125 15V10.4375ZM14.0938 14.1324V11.3051C13.6495 11.7335 13.1755 12.2571 12.7533 12.7188C13.176 13.181 13.6501 13.7046 14.0938 14.1324ZM11.4769 12.7188C11.1057 12.324 10.7258 11.9379 10.3438 11.5964V13.8411C10.7258 13.4996 11.1058 13.1135 11.4769 12.7188ZM5.65625 13.8411V11.5964C5.27417 11.9379 4.89417 12.324 4.52307 12.7188C4.89417 13.1135 5.27417 13.4996 5.65625 13.8411ZM1.875 14.1626C2.32849 13.7284 2.81445 13.1914 3.2467 12.7188C2.81641 12.2482 2.32837 11.7089 1.875 11.2749V14.1626ZM2.8125 6.59375V4.71875H1.875V6.59375H2.8125ZM1.875 3.78125H2.8125V2.84375H1.875V3.78125Z" fill="white"/>
</svg>
