<svg width="18" height="16" viewBox="0 0 18 16" fill="none" xmlns="http://www.w3.org/2000/svg">
<path d="M7.20901 4.21799C7.11799 4.16248 7.01353 4.13001 6.90556 4.12366C6.7976 4.11732 6.68972 4.13731 6.59219 4.18175C5.29184 4.76975 2.87959 6.16805 1.33382 8.92698C-0.156392 11.5873 -0.0844369 14.1676 0.0910577 15.4689C0.103082 15.5608 0.137095 15.6487 0.190487 15.7262C0.243879 15.8036 0.31523 15.8683 0.399068 15.9155C0.482905 15.9626 0.576999 15.9909 0.674132 15.9981C0.771264 16.0054 0.868854 15.9914 0.959412 15.9573L7.02454 13.6844C7.14305 13.6403 7.24493 13.5636 7.31699 13.4639C7.38906 13.3643 7.428 13.2465 7.42877 13.1256L7.45937 9.7383L9.06944 8.20261L10.5395 9.62068L10.5712 13.1256C10.572 13.2464 10.6109 13.3643 10.683 13.4639C10.7551 13.5635 10.8569 13.6403 10.9754 13.6843L17.0405 15.9572C17.1311 15.9911 17.2286 16.0049 17.3257 15.9976C17.4227 15.9902 17.5167 15.9619 17.6005 15.9148C17.6843 15.8677 17.7556 15.8031 17.809 15.7258C17.8625 15.6485 17.8967 15.5607 17.9089 15.4689C18.0845 14.1676 18.1564 11.5873 16.6662 8.92698C15.1204 6.16805 12.7081 4.76975 11.4078 4.18171C11.31 4.13762 11.2021 4.11785 11.0941 4.12426C10.9861 4.13066 10.8816 4.16303 10.7903 4.21833C10.6991 4.27363 10.6242 4.35004 10.5726 4.44039C10.521 4.53073 10.4944 4.63205 10.4954 4.73483L10.5226 7.74215L9.87209 7.00088C9.87 6.99847 9.86783 6.99613 9.86562 6.9939C9.7991 6.92474 9.76226 6.83443 9.76234 6.74075V0.209526C9.76234 0.153956 9.7391 0.100662 9.69773 0.0613686C9.65635 0.0220749 9.60024 0 9.54173 0H8.53101C8.4725 0 8.41639 0.0220749 8.37502 0.0613686C8.33364 0.100662 8.3104 0.153956 8.3104 0.209526V6.74079C8.31047 6.83447 8.27362 6.92477 8.20708 6.99393C8.20488 6.99627 8.20267 6.99864 8.20054 7.00091L7.47665 7.82704L7.50459 4.73479C7.50582 4.63186 7.47931 4.53034 7.42757 4.43988C7.37584 4.34942 7.3006 4.27304 7.20901 4.21799ZM1.77567 14.9616C1.46239 15.1863 1.13274 15.3896 0.789175 15.5701C0.76136 15.5792 0.731751 15.5823 0.702512 15.5791C0.673274 15.576 0.645146 15.5667 0.620184 15.5519C0.595222 15.5371 0.574057 15.5172 0.558237 15.4936C0.542417 15.47 0.532341 15.4434 0.528746 15.4157C0.356988 14.1055 0.438642 12.7766 0.769688 11.4943C1.11899 11.8972 1.68113 12.3124 2.38499 12.3124C2.43025 12.3124 2.47614 12.3104 2.52254 12.3069C2.52044 12.5364 2.61409 12.783 2.80389 13.0443C2.86995 13.1305 2.91487 13.2296 2.93534 13.3345C2.95582 13.4393 2.95133 13.5472 2.92221 13.6501C2.8219 14.0391 2.42543 14.4925 1.77567 14.9616ZM6.98756 13.1219C6.98732 13.1593 6.97528 13.1957 6.95299 13.2265C6.9307 13.2573 6.89919 13.281 6.86254 13.2946L2.50551 14.9273C2.89765 14.5823 3.24051 14.1759 3.35045 13.7505C3.39494 13.59 3.40155 13.4221 3.36981 13.2589C3.33808 13.0957 3.26878 12.9411 3.16686 12.8063C3.09267 12.7042 2.86695 12.3935 3.01277 12.1214C3.28007 11.6226 4.61608 11.3869 5.51238 11.3408C5.55029 11.623 5.56974 11.8844 5.49205 12.0104C5.47728 12.0342 5.4676 12.0605 5.46355 12.0878C5.45951 12.1151 5.46118 12.1429 5.46847 12.1696C5.47576 12.1963 5.48853 12.2213 5.50604 12.2433C5.52356 12.2653 5.54547 12.2838 5.57053 12.2978C5.59559 12.3117 5.62329 12.3208 5.65206 12.3245C5.68083 12.3283 5.7101 12.3266 5.73818 12.3196C5.76626 12.3126 5.7926 12.3003 5.8157 12.2836C5.8388 12.2669 5.8582 12.246 5.87278 12.2222C6.04743 11.9389 5.98776 11.5357 5.91871 11.0687C5.87866 10.7981 5.83726 10.5182 5.84484 10.2627C5.85465 9.93364 6.52505 9.63765 7.02024 9.48561L6.98756 13.1219ZM7.03116 8.29854C6.93615 8.231 6.82747 8.15886 6.71128 8.09024C6.21892 7.80022 5.81656 7.71253 5.51238 7.82767C5.20353 7.68142 4.80617 7.31981 4.66822 7.18104C4.62798 7.14098 4.57269 7.11768 4.51442 7.11622C4.45616 7.11476 4.39965 7.13526 4.35724 7.17324C4.31484 7.21122 4.28998 7.2636 4.28811 7.31893C4.28623 7.37426 4.30749 7.42805 4.34723 7.46854C4.39503 7.51677 4.73598 7.8548 5.10363 8.08531C4.97222 8.18554 4.84599 8.29285 4.72241 8.39834C4.46015 8.62208 4.18898 8.85347 4.01437 8.86402C3.9572 8.86745 3.90367 8.89188 3.86513 8.93213C3.82658 8.97238 3.80602 9.02529 3.80781 9.07967C3.8096 9.13406 3.8336 9.18564 3.87472 9.22353C3.91585 9.26141 3.97087 9.28261 4.02816 9.28265C4.03283 9.28265 4.03757 9.28265 4.04235 9.28223C4.36988 9.26246 4.66991 9.00635 5.01726 8.71005C5.21709 8.53957 5.4237 8.36325 5.63548 8.23596C5.91157 8.07005 6.60112 8.47618 7.02638 8.83144L7.02444 9.04602C6.59495 9.16329 5.55488 9.50876 5.41866 10.1329C5.09605 10.308 4.51339 10.4279 4.29947 10.4614C4.27077 10.4657 4.24325 10.4754 4.21849 10.4899C4.19374 10.5044 4.17224 10.5233 4.15523 10.5457C4.13822 10.5681 4.12604 10.5935 4.11938 10.6203C4.11273 10.6472 4.11172 10.6751 4.11644 10.7023C4.12115 10.7295 4.13149 10.7556 4.14685 10.7791C4.16221 10.8025 4.1823 10.8228 4.20596 10.8389C4.22961 10.8549 4.25637 10.8663 4.2847 10.8725C4.31303 10.8787 4.34236 10.8795 4.37102 10.8749C4.40095 10.8702 4.96203 10.7811 5.41546 10.599C5.42458 10.7078 5.43781 10.8165 5.45274 10.9244C4.8104 10.961 3.14425 11.1266 2.6595 11.8651C1.71003 12.058 1.08784 11.2295 0.920364 10.9728C1.12401 10.3331 1.39303 9.71381 1.72357 9.12383C3.20959 6.47113 5.53058 5.12594 6.78184 4.56022C6.80798 4.54808 6.83668 4.54172 6.86578 4.54161C6.90338 4.54195 6.94013 4.5523 6.97186 4.57147C7.00031 4.5884 7.02369 4.61202 7.03973 4.64004C7.05577 4.66807 7.06392 4.69955 7.06341 4.73144L7.03116 8.29854ZM11.1374 13.2946C11.1008 13.281 11.0692 13.2573 11.047 13.2265C11.0247 13.1957 11.0126 13.1593 11.0124 13.1219L10.9795 9.48341C11.4883 9.63235 12.193 9.92998 12.2029 10.2627C12.2106 10.5182 12.1691 10.798 12.1291 11.0687C12.06 11.5356 12.0004 11.9388 12.175 12.2221C12.1894 12.2462 12.2087 12.2674 12.2319 12.2844C12.255 12.3014 12.2814 12.3138 12.3096 12.321C12.3378 12.3282 12.3673 12.33 12.3962 12.3263C12.4252 12.3226 12.4531 12.3135 12.4783 12.2995C12.5035 12.2855 12.5256 12.2668 12.5431 12.2447C12.5607 12.2225 12.5735 12.1972 12.5807 12.1703C12.5879 12.1434 12.5894 12.1154 12.5851 12.088C12.5808 12.0605 12.5708 12.0342 12.5557 12.0104C12.4808 11.8888 12.4963 11.6412 12.5315 11.3705C12.8591 11.3853 13.1853 11.4199 13.5083 11.4739C14.2378 11.6002 14.7235 11.8188 14.8761 12.0896C14.9827 12.279 14.9358 12.5149 14.7324 12.8107C14.3034 13.4347 14.7373 14.2171 15.2872 14.8497L11.1374 13.2946ZM17.4714 15.4157C17.4677 15.4441 17.4571 15.4714 17.4406 15.4954C17.4241 15.5193 17.4021 15.5394 17.3761 15.5541C17.3502 15.5687 17.3211 15.5775 17.291 15.5799C17.2609 15.5822 17.2307 15.578 17.2026 15.5675L16.2602 15.2143C15.9587 14.9476 15.5554 14.5521 15.2841 14.1349C14.9826 13.6711 14.9213 13.3027 15.102 13.0398C15.28 12.781 15.37 12.538 15.3731 12.3131C15.4187 12.3166 15.4642 12.3187 15.5096 12.3187C15.9753 12.3187 16.4314 12.1314 16.8493 11.7645C16.9777 11.651 17.0965 11.528 17.2045 11.3967C17.557 12.7087 17.6476 14.0719 17.4714 15.4157ZM10.9366 4.73133C10.9361 4.69944 10.9442 4.66796 10.9602 4.63994C10.9763 4.61192 10.9997 4.5883 11.0281 4.57136C11.0598 4.55219 11.0966 4.54185 11.1342 4.5415C11.1633 4.54163 11.192 4.548 11.2181 4.56012C12.4694 5.12583 14.7904 6.47116 16.2765 9.12386C16.5907 9.68474 16.8493 10.2721 17.049 10.8785C16.8646 11.1597 16.1937 12.0577 15.2544 11.8741C14.8094 11.1264 13.2156 10.9807 12.5914 10.9525C12.6078 10.8354 12.6227 10.7173 12.6326 10.5992C13.086 10.7811 13.6471 10.8703 13.677 10.8751C13.7348 10.8841 13.7939 10.8709 13.8415 10.8385C13.889 10.8061 13.921 10.7571 13.9305 10.7023C13.94 10.6474 13.9261 10.5912 13.892 10.5461C13.8579 10.501 13.8063 10.4705 13.7485 10.4615C13.5348 10.4282 12.9522 10.3086 12.6292 10.1329C12.4889 9.50157 11.4053 9.15829 10.9756 9.04588L10.9737 8.84072C11.4178 8.48104 12.1346 8.06897 12.4126 8.23614C12.6243 8.36342 12.8309 8.53974 13.0308 8.71022C13.3782 9.00667 13.6782 9.26264 14.0057 9.2824C14.0105 9.28268 14.0152 9.28282 14.0199 9.28282C14.0772 9.28278 14.1322 9.26157 14.1733 9.22368C14.2144 9.1858 14.2384 9.13421 14.2402 9.07983C14.242 9.02545 14.2215 8.97254 14.1829 8.9323C14.1444 8.89205 14.0908 8.86763 14.0337 8.86419C13.8591 8.85371 13.5879 8.62226 13.3257 8.39852C13.1124 8.21644 12.8918 8.02815 12.6485 7.88204C12.3349 7.69347 11.8863 7.76429 11.3153 8.09244C11.1888 8.16514 11.071 8.24204 10.969 8.31307L10.9366 4.73133ZM8.75162 0.419051H9.32112V1.04763H8.75162V0.419051ZM8.75162 1.46668H9.32112V2.09526H8.75162V1.46668ZM8.75162 2.51431H9.32112V3.14288H8.75162V2.51431ZM8.75162 3.56193H9.32112V4.19051H8.75162V3.56193ZM8.75162 4.60956H9.32112V5.23814H8.75162V4.60956ZM8.75162 5.65719H9.32112V6.28577H8.75162V5.65719ZM8.53671 7.27249C8.67519 7.12665 8.75176 6.93718 8.75158 6.74079V6.70482H9.32109V6.74079C9.32091 6.93721 9.39749 7.1267 9.536 7.27256L10.5285 8.40362L10.5341 9.01823L9.33543 7.86203C9.30091 7.82858 9.25972 7.80201 9.21427 7.78387C9.16881 7.76574 9.12 7.75639 9.07069 7.75639H9.06985C9.02069 7.75626 8.97199 7.76541 8.92659 7.78333C8.88119 7.80124 8.84 7.82756 8.80541 7.86074L7.46495 9.1393L7.47084 8.48921L8.53671 7.27249Z" fill="white"/>
</svg>
