<svg width="18" height="18" viewBox="0 0 18 18" fill="none" xmlns="http://www.w3.org/2000/svg">
<path d="M16.3652 1.63482C14.1854 -0.544911 10.6386 -0.544981 8.4588 1.63486L8.35939 1.73429C7.74995 2.34371 7.6733 3.27591 8.11495 3.96596C7.69597 4.40453 7.45185 5.00294 7.47351 5.6632C6.39097 6.001 5.68054 6.60427 5.40684 7.42543C5.18311 8.09666 5.15836 8.76044 5.13652 9.34609C5.09904 10.3517 5.07193 11.0782 4.20823 11.6541C2.62633 12.7086 0.64908 12.4292 0.0147722 15.0636C-0.0534053 15.3468 0.120889 15.6317 0.404041 15.6998C0.686561 15.7678 0.971894 15.5945 1.04028 15.3105C1.35526 14.0024 2.03991 13.7439 3.07618 13.3526C3.60132 13.1543 4.19645 12.9296 4.79328 12.5317C6.73484 11.2373 5.8889 9.31494 6.40753 7.75897C6.5961 7.19326 7.17267 6.86988 7.73961 6.68549C7.88349 6.96031 8.08134 7.20528 8.32631 7.40588C8.24635 7.82106 8.30588 8.25228 8.49086 8.62992C8.02262 9.25073 7.7349 9.91577 7.63539 10.6118C7.42636 12.0753 6.86835 12.9981 6.0217 13.2803C5.45389 13.4695 3.72589 14.0456 2.40116 15.7015C1.50536 16.8212 0.62626 16.9061 0.527527 16.9103C0.23787 16.9103 0.00306351 17.1465 0.00306351 17.4362C0.00306351 17.7258 0.23787 17.9648 0.527527 17.9648C0.585262 17.9648 1.95591 17.9466 3.22485 16.3605C4.23787 15.0942 5.49657 14.5672 6.35524 14.281C7.22773 13.9901 8.33928 13.1434 8.67957 10.7611C8.74518 10.3022 8.9257 9.85484 9.21736 9.42594C9.62854 9.67559 10.1217 9.76469 10.5941 9.67372C10.7594 9.87559 10.9547 10.0456 11.1721 10.1798C11.0193 11.0444 10.7347 11.6807 10.3726 11.9522C9.11258 12.8972 8.91009 15.0178 6.90439 15.5193C4.49139 16.1226 4.06027 17.1184 3.99839 17.3118C3.98879 17.3397 3.97919 17.395 3.97919 17.4583C3.97919 17.7497 4.21534 18 4.50665 18C4.72714 18 4.88621 17.8543 4.99458 17.6583C5.02548 17.6008 5.39443 16.9841 7.16022 16.5426C9.63687 15.9235 10.0313 13.5268 11.0055 12.7961C11.679 12.291 12.0151 11.3605 12.1821 10.5166C12.8807 10.5833 13.5453 10.352 14.0339 9.88501C14.7231 10.3261 15.6557 10.2506 16.2656 9.64071L16.3651 9.54127C16.3651 9.54127 16.3651 9.54123 16.3651 9.5412C18.545 7.3614 18.545 3.81462 16.3652 1.63482ZM11.2717 8.80024C11.1384 8.55851 10.8413 8.46047 10.5903 8.57535C10.258 8.72749 9.86102 8.65604 9.60252 8.39754C9.34398 8.13899 9.27253 7.74202 9.42467 7.40971C9.53958 7.15873 9.44151 6.86158 9.19978 6.72831C8.41337 6.29467 8.30911 5.23961 8.92099 4.65227C9.14686 4.75002 9.38631 4.79851 9.62506 4.79893C9.62836 5.77853 10.4202 6.58429 11.4151 6.58574C11.4169 7.57071 12.213 8.37155 13.201 8.37489C13.2014 8.61364 13.25 8.85319 13.3477 9.07904C12.7584 9.69341 11.704 9.58417 11.2717 8.80024ZM15.6193 8.79532L15.5198 8.89479C15.1398 9.27474 14.4876 9.1354 14.3032 8.62201C14.208 8.35288 14.2761 8.05007 14.4756 7.85053C14.8147 7.51143 14.559 6.92476 14.0737 6.95155C13.9381 6.95901 13.8157 7.01864 13.7297 7.10465C13.2629 7.57152 12.4695 7.23475 12.4695 6.58254C12.4695 6.39987 12.5406 6.20529 12.6854 6.06042C12.8914 5.85445 12.8914 5.52052 12.6854 5.31454C12.4795 5.1086 12.1455 5.10857 11.9396 5.31454C11.6497 5.60445 11.1809 5.60005 10.8953 5.31454C10.6074 5.02664 10.6074 4.55818 10.8953 4.27028C11.1159 4.04975 11.0983 3.68649 10.8553 3.48818C10.6481 3.31923 10.3425 3.33129 10.1494 3.5244C9.92058 3.75327 9.56739 3.80049 9.29257 3.66023C8.85067 3.43713 8.74648 2.83896 9.10527 2.48014L9.20467 2.3807C10.9732 0.612184 13.8507 0.612184 15.6193 2.3807C17.3878 4.14922 17.3878 7.0268 15.6193 8.79532Z" fill="white"/>
</svg>
