<svg width="16" height="16" viewBox="0 0 16 16" fill="none" xmlns="http://www.w3.org/2000/svg">
<path d="M2.24556 13.0705L3.75 13.8727V15.6667C3.75 15.8508 3.88994 16 4.0625 16H7.375C7.54756 16 7.6875 15.8508 7.6875 15.6667V11.315C7.6875 10.2938 6.96928 9.44685 6.01903 9.34525C6.01534 9.34415 4.69716 9.12461 4.08559 8.47228L3.38378 7.72402C3.14766 7.47212 2.83378 7.33335 2.5 7.33335V4.66669C2.5 3.93149 1.93925 3.33336 1.25 3.33336C0.56075 3.33336 0 3.93149 0 4.66669V9.19468C0 9.99994 0.209813 10.7877 0.606719 11.4727C1.00359 12.1578 1.57031 12.7103 2.24556 13.0705ZM0.625 4.66669C0.625 4.29909 0.905375 4.00002 1.25 4.00002C1.59462 4.00002 1.875 4.29909 1.875 4.66669V7.51205C1.49388 7.74712 1.25 8.18538 1.25 8.66668C1.25 9.02268 1.38006 9.35745 1.61622 9.60935L3.21653 11.3167C3.3385 11.4468 3.53641 11.4469 3.65847 11.3167C3.7805 11.1865 3.78053 10.9755 3.6585 10.8453L2.05819 9.13795C1.94006 9.01198 1.875 8.84461 1.875 8.66668C1.875 8.38455 2.04241 8.13188 2.29163 8.03798C2.29172 8.03795 2.29181 8.03788 2.29191 8.03785C2.50741 7.95638 2.76309 8.00472 2.94191 8.19545L3.64372 8.94375C4.36828 9.71658 5.95131 10.0074 5.95447 10.0083C6.58616 10.0759 7.0625 10.6376 7.0625 11.315V15.3333H4.375V13.6667C4.375 13.5404 4.30809 13.425 4.20225 13.3685L2.52509 12.4742C1.35309 11.849 0.625 10.5924 0.625 9.19468V4.66669Z" fill="white"/>
<path d="M7.6875 7.66668C7.6875 7.85078 7.82744 8.00002 8 8.00002C8.17256 8.00002 8.3125 7.85078 8.3125 7.66668V6.66669H9.50875C11.2615 6.66669 12.6875 5.14565 12.6875 3.27603V1.6667C12.6875 1.5319 12.6113 1.41033 12.4946 1.35873C12.3778 1.30713 12.2434 1.33566 12.154 1.431C11.81 1.79796 11.3527 2.00003 10.8663 2.00003C9.82109 2.00003 8.89222 2.54093 8.3125 3.37399V0.333365C8.3125 0.149265 8.17256 3.20153e-05 8 3.20153e-05C7.82744 3.20153e-05 7.6875 0.149265 7.6875 0.333365V2.04069C7.10778 1.20763 6.17891 0.666697 5.13375 0.666697C4.64731 0.666697 4.18997 0.464631 3.84597 0.0976652C3.75662 0.00233204 3.62219 -0.0262346 3.50541 0.0253986C3.38866 0.0770318 3.3125 0.198565 3.3125 0.333365V1.94269C3.3125 3.81232 4.73847 5.33335 6.49125 5.33335H7.6875V7.66668ZM10.8663 2.66669C11.292 2.66669 11.7013 2.55143 12.0625 2.33473V3.27603C12.0625 4.77806 10.9169 6.00002 9.50875 6.00002H8.9375L10.6875 4.60002C10.8256 4.48959 10.8535 4.28062 10.75 4.13336C10.6465 3.98609 10.4506 3.95619 10.3125 4.06669L8.3125 5.66669V5.39069C8.3125 3.88869 9.45809 2.66669 10.8663 2.66669ZM3.9375 1.94269V1.0014C4.29878 1.2181 4.70797 1.33336 5.13375 1.33336C6.54191 1.33336 7.6875 2.55536 7.6875 4.05736V4.33336L5.6875 2.73336C5.54944 2.62293 5.35356 2.65276 5.25 2.80003C5.14647 2.94729 5.17444 3.15626 5.3125 3.26669L7.0625 4.66669H6.49125C5.08309 4.66669 3.9375 3.44472 3.9375 1.94269Z" fill="white"/>
<path d="M14.3438 12.6C14.5163 12.6 14.6562 12.4508 14.6562 12.2667C14.6562 12.0826 14.5163 11.9333 14.3438 11.9333C14.1712 11.9333 14.0312 12.0826 14.0312 12.2667C14.0312 12.4508 14.1712 12.6 14.3438 12.6Z" fill="white"/>
<path d="M14.75 3.33336C14.0608 3.33336 13.5 3.93149 13.5 4.66669V7.33335C13.1662 7.33335 12.8523 7.47208 12.6163 7.72392L11.9143 8.47231C11.3163 9.11028 9.98638 9.34405 9.98322 9.34501C9.03072 9.44688 8.3125 10.2938 8.3125 11.315V15.6667C8.3125 15.8508 8.45244 16 8.625 16H11.9375C12.1101 16 12.25 15.8508 12.25 15.6667V13.8727L13.2728 13.3273C13.4272 13.245 13.4897 13.0448 13.4126 12.8801C13.3354 12.7154 13.1478 12.6487 12.9933 12.731L11.7978 13.3685C11.6919 13.425 11.625 13.5404 11.625 13.6667V15.3333H8.9375V11.315C8.9375 10.6376 9.41384 10.0759 10.0478 10.0081C10.0509 10.0071 11.5923 9.75858 12.3562 8.94375L13.0582 8.19535C13.237 8.00455 13.4929 7.95648 13.7081 8.03782H13.7081C13.7082 8.03785 13.7083 8.03792 13.7084 8.03795C13.9576 8.13192 14.125 8.38458 14.125 8.66668C14.125 8.84461 14.0599 9.01198 13.9418 9.13801L12.3415 10.8453C12.2195 10.9755 12.2195 11.1866 12.3416 11.3167C12.4636 11.4469 12.6615 11.4469 12.7835 11.3167L14.3838 9.60938C14.6199 9.35748 14.75 9.02268 14.75 8.66668C14.75 8.18538 14.5061 7.74712 14.125 7.51205V4.66669C14.125 4.29909 14.4054 4.00002 14.75 4.00002C15.0946 4.00002 15.375 4.29909 15.375 4.66669V9.19468C15.375 9.80455 15.2307 10.41 14.9577 10.9456C14.8752 11.1073 14.9313 11.3097 15.083 11.3977C15.2346 11.4856 15.4244 11.4258 15.5068 11.264C15.8295 10.631 16 9.91548 16 9.19468V4.66669C16 3.93149 15.4392 3.33336 14.75 3.33336Z" fill="white"/>
</svg>
