<svg width="22" height="22" viewBox="0 0 22 22" fill="none" xmlns="http://www.w3.org/2000/svg">
<path d="M8.18873 12.0727C8.18873 11.3353 7.5888 10.7354 6.85141 10.7354C6.11402 10.7354 5.51409 11.3353 5.51409 12.0727C5.51409 12.8101 6.11402 13.41 6.85141 13.41C7.5888 13.41 8.18873 12.8101 8.18873 12.0727ZM6.37347 12.0727C6.37347 11.8092 6.58788 11.5948 6.85141 11.5948C7.11494 11.5948 7.32935 11.8092 7.32935 12.0727C7.32935 12.3362 7.11494 12.5506 6.85141 12.5506C6.58788 12.5506 6.37347 12.3362 6.37347 12.0727Z" fill="white"/>
<path d="M10.5259 12.3516C9.78854 12.3516 9.18861 12.9516 9.18861 13.689C9.18861 14.4264 9.78854 15.0263 10.5259 15.0263C11.2633 15.0263 11.8632 14.4264 11.8632 13.689C11.8632 12.9516 11.2633 12.3516 10.5259 12.3516ZM10.5259 14.1669C10.2624 14.1669 10.048 13.9525 10.048 13.689C10.048 13.4254 10.2624 13.211 10.5259 13.211C10.7895 13.211 11.0038 13.4254 11.0038 13.689C11.0038 13.9525 10.7895 14.1669 10.5259 14.1669Z" fill="white"/>
<path d="M7.26971 16.944C8.0071 16.944 8.60703 16.3441 8.60703 15.6067C8.60703 14.8693 8.0071 14.2694 7.26971 14.2694C6.53232 14.2694 5.93239 14.8693 5.93239 15.6067C5.93235 16.3441 6.53228 16.944 7.26971 16.944ZM7.26971 15.1288C7.53324 15.1288 7.74765 15.3432 7.74765 15.6067C7.74765 15.8702 7.53324 16.0846 7.26971 16.0846C7.00618 16.0846 6.79177 15.8702 6.79177 15.6067C6.79173 15.3432 7.00618 15.1288 7.26971 15.1288Z" fill="white"/>
<path d="M12.1726 10.2575C12.1726 10.1441 12.1266 10.0332 12.0467 9.9533C11.9664 9.87338 11.8559 9.82783 11.7429 9.82783C11.6294 9.82783 11.5191 9.87338 11.4387 9.9533C11.3588 10.0332 11.3132 10.1441 11.3132 10.2575C11.3132 10.3705 11.3588 10.481 11.4387 10.5613C11.5191 10.6412 11.6294 10.6868 11.7429 10.6868C11.8559 10.6868 11.9664 10.6412 12.0467 10.5613C12.1266 10.481 12.1726 10.3705 12.1726 10.2575Z" fill="white"/>
<path d="M21.5703 8.86885H21.093C21.0424 8.64176 20.9528 8.42937 20.8313 8.23897L21.1694 7.90089C21.3372 7.7331 21.3372 7.46102 21.1694 7.29323C21.0015 7.12544 20.7295 7.12544 20.5617 7.29327L20.2236 7.63131C20.0332 7.50988 19.8208 7.42016 19.5937 7.36958V6.89229C19.5937 6.65497 19.4013 6.4626 19.164 6.4626C18.9267 6.4626 18.7343 6.65497 18.7343 6.89229V7.36958C18.5072 7.42016 18.2948 7.50984 18.1045 7.63131L17.7664 7.29327C17.5986 7.12548 17.3266 7.12548 17.1587 7.29327C16.9909 7.46107 16.9909 7.73314 17.1587 7.90098L17.4967 8.23902C17.3753 8.42941 17.2856 8.64181 17.2351 8.8689H16.7578C16.5205 8.8689 16.3281 9.06127 16.3281 9.29858C16.3281 9.5359 16.5205 9.72827 16.7578 9.72827H17.2351C17.2857 9.95536 17.3754 10.1678 17.4968 10.3582L17.1588 10.6962C16.991 10.864 16.991 11.1361 17.1588 11.3039C17.2427 11.3878 17.3526 11.4298 17.4626 11.4298C17.5726 11.4298 17.6825 11.3878 17.7664 11.3039L18.1045 10.9659C18.2949 11.0873 18.5072 11.1771 18.7343 11.2276V11.7049C18.7343 11.9422 18.9267 12.1346 19.164 12.1346C19.4013 12.1346 19.5937 11.9422 19.5937 11.7049V11.2276C19.8208 11.1771 20.0332 11.0874 20.2236 10.9659L20.5616 11.3039C20.6455 11.3878 20.7555 11.4298 20.8655 11.4298C20.9754 11.4298 21.0854 11.3878 21.1693 11.3039C21.3371 11.1361 21.3371 10.8641 21.1693 10.6963L20.8312 10.3582C20.9527 10.1678 21.0424 9.95541 21.0929 9.72827H21.5703C21.8076 9.72827 22 9.5359 22 9.29858C22 9.06122 21.8076 8.86885 21.5703 8.86885ZM19.1641 10.4157C18.548 10.4157 18.0469 9.91454 18.0469 9.29854C18.0469 8.6825 18.548 8.18135 19.1641 8.18135C19.7801 8.18135 20.2812 8.6825 20.2812 9.29854C20.2812 9.91454 19.7801 10.4157 19.1641 10.4157Z" fill="white"/>
<path d="M10.3092 3.26563H10.7865C10.8371 3.49272 10.9268 3.70512 11.0482 3.89551L10.7102 4.23359C10.5424 4.40138 10.5424 4.67346 10.7102 4.8413C10.7941 4.92522 10.904 4.96715 11.014 4.96715C11.124 4.96715 11.2339 4.92522 11.3178 4.8413L11.6559 4.50326C11.8463 4.62469 12.0587 4.71441 12.2858 4.76494V5.2422C12.2858 5.47951 12.4782 5.67189 12.7155 5.67189C12.9528 5.67189 13.1452 5.47951 13.1452 5.2422V4.7649C13.3723 4.71433 13.5847 4.62465 13.7751 4.50318L14.1131 4.84121C14.197 4.92513 14.307 4.96707 14.417 4.96707C14.5269 4.96707 14.6369 4.92509 14.7208 4.84121C14.8886 4.67342 14.8886 4.40134 14.7208 4.23355L14.3828 3.89547C14.5042 3.70503 14.5939 3.49268 14.6444 3.26559H15.1217C15.359 3.26559 15.5514 3.07322 15.5514 2.8359C15.5514 2.59858 15.359 2.40621 15.1217 2.40621H14.6444C14.5939 2.17912 14.5042 1.96673 14.3828 1.77633L14.7208 1.43825C14.8886 1.27046 14.8886 0.998381 14.7208 0.830588C14.553 0.662794 14.2809 0.662794 14.1131 0.830588L13.7751 1.16862C13.5846 1.04719 13.3723 0.957475 13.1451 0.9069V0.429688C13.1451 0.192371 12.9527 0 12.7154 0C12.4782 0 12.2858 0.192371 12.2858 0.429688V0.906986C12.0587 0.95756 11.8463 1.04724 11.6559 1.16867L11.3178 0.830631C11.15 0.662837 10.878 0.662837 10.7101 0.830631C10.5423 0.998424 10.5423 1.2705 10.7101 1.4383L11.0481 1.77637C10.9267 1.96677 10.837 2.17916 10.7864 2.40625H10.3091C10.0719 2.40625 9.87946 2.59863 9.87946 2.83594C9.87946 3.07326 10.0719 3.26563 10.3092 3.26563ZM12.7155 1.71875C13.3315 1.71875 13.8327 2.21994 13.8327 2.83594C13.8327 3.45194 13.3315 3.95313 12.7155 3.95313C12.0994 3.95313 11.5983 3.45194 11.5983 2.83594C11.5983 2.21994 12.0994 1.71875 12.7155 1.71875Z" fill="white"/>
<path d="M15.3905 12.3712C14.8304 12.3712 14.3527 12.7305 14.1753 13.2306H13.5643C13.522 12.7077 13.4027 12.1982 13.2073 11.7108C13.119 11.4905 12.8689 11.3836 12.6486 11.4718C12.4284 11.5601 12.3214 11.8103 12.4096 12.0305C12.6173 12.5485 12.7225 13.0969 12.7225 13.6603C12.7225 16.077 10.7564 18.0431 8.33972 18.0431C5.92303 18.0431 3.95691 16.077 3.95691 13.6603C3.95691 11.2436 5.92303 9.27744 8.33972 9.27744C8.903 9.27744 9.45115 9.38268 9.96905 9.59017C10.1894 9.67852 10.4395 9.57144 10.5277 9.35118C10.616 9.13092 10.509 8.88076 10.2887 8.7925C9.80147 8.59725 9.29204 8.47797 8.76945 8.43573V7.82475C9.26956 7.64738 9.62882 7.16978 9.62882 6.6096C9.62882 5.8988 9.05055 5.32053 8.33976 5.32053C7.62897 5.32053 7.0507 5.8988 7.0507 6.6096C7.0507 7.16974 7.40996 7.64738 7.91007 7.82475V8.43581C6.78704 8.52738 5.76318 8.97443 4.95116 9.66399L4.51726 9.23009C4.59796 9.06178 4.64325 8.87345 4.64325 8.67468C4.64325 7.96389 4.06497 7.38561 3.35418 7.38561C2.64339 7.38561 2.06512 7.96389 2.06512 8.67468C2.06512 9.38547 2.64339 9.96374 3.35418 9.96374C3.55291 9.96374 3.74129 9.91845 3.9096 9.83776L4.3435 10.2717C3.65393 11.0836 3.20684 12.1075 3.11528 13.2306H2.50422C2.32684 12.7305 1.8492 12.3712 1.28906 12.3712C0.578273 12.3712 0 12.9495 0 13.6603C0 14.3711 0.578273 14.9493 1.28906 14.9493C1.8492 14.9493 2.32684 14.5901 2.50422 14.09H3.11528C3.20684 15.213 3.65393 16.2369 4.3435 17.0489L3.9096 17.4828C3.74133 17.4021 3.55296 17.3568 3.35418 17.3568C2.64339 17.3568 2.06512 17.9351 2.06512 18.6459C2.06512 19.3566 2.64339 19.9349 3.35418 19.9349C4.06497 19.9349 4.64325 19.3566 4.64325 18.6459C4.64325 18.4471 4.59796 18.2587 4.51726 18.0904L4.95116 17.6565C5.76314 18.3461 6.787 18.7932 7.91007 18.8847V19.4958C7.40996 19.6732 7.0507 20.1508 7.0507 20.7109C7.0507 21.4217 7.62897 22 8.33976 22C9.05055 22 9.62882 21.4217 9.62882 20.7109C9.62882 20.1508 9.26956 19.6732 8.76945 19.4958V18.8847C9.89252 18.7931 10.9164 18.3461 11.7284 17.6565L12.1623 18.0904C12.0816 18.2587 12.0363 18.4471 12.0363 18.6459C12.0363 19.3566 12.6146 19.9349 13.3254 19.9349C14.0362 19.9349 14.6144 19.3566 14.6144 18.6459C14.6144 17.9351 14.0362 17.3568 13.3254 17.3568C13.1267 17.3568 12.9383 17.4021 12.77 17.4828L12.336 17.0489C13.0256 16.2369 13.4727 15.213 13.5642 14.09H14.1753C14.3527 14.5901 14.8303 14.9493 15.3905 14.9493C16.1012 14.9493 16.6795 14.3711 16.6795 13.6603C16.6795 12.9495 16.1013 12.3712 15.3905 12.3712ZM8.33976 6.17986C8.57669 6.17986 8.76945 6.37262 8.76945 6.60955C8.76945 6.84648 8.57669 7.03924 8.33976 7.03924C8.10283 7.03924 7.91007 6.84648 7.91007 6.60955C7.91007 6.37262 8.10283 6.17986 8.33976 6.17986ZM2.9245 8.67463C2.9245 8.4377 3.11725 8.24495 3.35418 8.24495C3.59111 8.24495 3.78387 8.4377 3.78387 8.67463C3.78387 8.91156 3.59111 9.10432 3.35418 9.10432C3.11725 9.10432 2.9245 8.91156 2.9245 8.67463ZM1.28906 14.09C1.05213 14.09 0.859375 13.8972 0.859375 13.6603C0.859375 13.4233 1.05213 13.2306 1.28906 13.2306C1.52599 13.2306 1.71875 13.4233 1.71875 13.6603C1.71875 13.8972 1.52599 14.09 1.28906 14.09ZM3.35418 19.0756C3.11725 19.0756 2.9245 18.8828 2.9245 18.6459C2.9245 18.409 3.11725 18.2162 3.35418 18.2162C3.59111 18.2162 3.78387 18.409 3.78387 18.6459C3.78387 18.8828 3.59107 19.0756 3.35418 19.0756ZM8.33976 21.1407C8.10283 21.1407 7.91007 20.9479 7.91007 20.711C7.91007 20.474 8.10283 20.2813 8.33976 20.2813C8.57669 20.2813 8.76945 20.474 8.76945 20.711C8.76945 20.9479 8.57665 21.1407 8.33976 21.1407ZM13.7551 18.6459C13.7551 18.8828 13.5623 19.0756 13.3254 19.0756C13.0885 19.0756 12.8957 18.8828 12.8957 18.6459C12.8957 18.409 13.0885 18.2162 13.3254 18.2162C13.5623 18.2162 13.7551 18.409 13.7551 18.6459ZM15.3905 14.09C15.1536 14.09 14.9608 13.8972 14.9608 13.6603C14.9608 13.4233 15.1536 13.2306 15.3905 13.2306C15.6274 13.2306 15.8202 13.4233 15.8202 13.6603C15.8202 13.8972 15.6274 14.09 15.3905 14.09Z" fill="white"/>
<path d="M13.7241 6.98686C13.0133 6.98686 12.435 7.56514 12.435 8.27593C12.435 8.98672 13.0133 9.56499 13.7241 9.56499C14.4349 9.56499 15.0132 8.98672 15.0132 8.27593C15.0132 7.56514 14.4349 6.98686 13.7241 6.98686ZM13.7241 8.70562C13.4872 8.70562 13.2944 8.51286 13.2944 8.27593C13.2944 8.039 13.4872 7.84624 13.7241 7.84624C13.961 7.84624 14.1538 8.039 14.1538 8.27593C14.1538 8.51286 13.961 8.70562 13.7241 8.70562Z" fill="white"/>
</svg>
