<svg width="177" height="189" viewBox="0 0 177 189" fill="none" xmlns="http://www.w3.org/2000/svg">
<circle cx="90.3729" cy="95.3729" r="79.3729" fill="#E2EAF0"/>
<path d="M145.84 163.774L146.72 173.384C146.819 174.466 146.023 175.423 144.941 175.522L73.4646 182.069C72.3826 182.169 71.426 181.372 71.3269 180.291L70.4466 170.68C69.5231 160.598 76.9481 151.681 87.033 150.754C90.5968 150.426 93.5669 148.305 95.1187 145.358C96.6781 142.403 96.2689 139.995 96.0893 138.035L96.1178 137.941C86.9969 135.108 80.023 127.016 79.0976 116.914L79.0274 116.148C75.5381 116.468 72.6553 113.951 72.3576 110.702L71.4258 100.529C71.023 96.9937 70.0403 84.4876 78.2664 74.964C87.8315 63.891 104.533 63.1954 117.072 67.502C117.48 67.6423 117.519 68.204 117.137 68.4043L114.115 69.9845C113.663 70.2209 113.827 70.9044 114.336 70.9121L115.876 70.9364C124.161 71.0611 131.437 75.3339 135.373 80.8258C135.41 80.8792 135.407 80.9535 135.365 81.0067C132.906 84.0212 131.73 87.8834 132.085 91.7607L133.276 104.764C133.597 108.271 131.017 111.386 127.494 111.708L127.565 112.475C128.49 122.577 123.102 131.801 114.648 136.243L114.693 136.331C114.867 138.235 114.89 140.711 116.978 143.356C119.039 145.971 122.345 147.517 125.909 147.193C135.995 146.272 144.916 153.692 145.84 163.774Z" fill="#FFD6A6"/>
<path d="M135.372 80.8256C135.41 80.8782 135.407 80.9535 135.364 81.0063C132.907 84.0217 131.73 87.8844 132.085 91.7607L133.276 104.764C133.597 108.271 131.017 111.386 127.494 111.709C126.816 104.301 126.465 100.43 126.273 98.3492C126.152 97.0356 124.796 96.2077 123.576 96.709C119.741 98.2846 115.195 99.3319 110.261 98.7237C101.578 97.653 98.8608 94.5375 91.7636 93.5067C83.8336 92.3571 77.3405 98.9451 78.0859 106.544C78.3295 109.041 78.6573 112.161 79.0274 116.148C75.538 116.468 72.6553 113.951 72.3576 110.702L71.4257 100.529C71.0229 96.9937 70.0403 84.4876 78.2663 74.964C87.8304 63.8908 104.534 63.1956 117.071 67.5028C117.479 67.6429 117.519 68.2046 117.137 68.4046L114.115 69.9852C113.663 70.2216 113.825 70.9045 114.335 70.9124L115.875 70.9364C124.162 71.0621 131.437 75.3331 135.372 80.8256Z" fill="#42434D"/>
<path d="M123.576 96.709C124.796 96.2077 126.152 97.0346 126.273 98.348C126.472 100.501 126.84 104.568 127.564 112.475C128.49 122.577 123.102 131.801 114.647 136.243C99.3611 144.295 80.6798 134.19 79.0973 116.914C78.688 112.447 78.3523 109.277 78.0856 106.544C77.3402 98.9451 83.8333 92.3571 91.7633 93.5067C98.8605 94.5375 101.577 97.653 110.26 98.7237C115.195 99.3319 119.741 98.2845 123.576 96.709Z" fill="#FFDFBA"/>
<path d="M145.84 163.774L146.72 173.384C146.819 174.466 146.023 175.423 144.941 175.522L73.4644 182.069C72.383 182.169 71.4258 181.372 71.3268 180.291L70.4465 170.68C69.5229 160.598 76.9493 151.682 87.0316 150.755C90.5965 150.427 93.5672 148.304 95.1186 145.358C101.916 150.167 111.164 149.323 116.978 143.356C119.038 145.97 122.345 147.519 125.91 147.193C135.993 146.273 144.916 153.692 145.84 163.774Z" fill="#42434D"/>
<path d="M97.4373 155.764C96.5581 156.132 95.6017 156.378 94.5617 156.482C84.4613 157.497 76.9516 166.245 77.8776 176.354L78.0462 178.194C78.2195 180.087 76.8258 181.762 74.9331 181.935L73.4644 182.069C72.383 182.169 71.4258 181.372 71.3268 180.291L70.4465 170.68C69.5229 160.598 76.9493 151.682 87.0316 150.755C90.5965 150.427 93.5672 148.304 95.1186 145.358C95.9035 145.913 96.7341 146.401 97.5999 146.815C101.408 148.636 101.332 154.136 97.4373 155.764Z" fill="#4D4E59"/>
<path d="M116.588 154.01C117.519 154.212 118.504 154.28 119.546 154.193C129.663 153.357 138.637 160.595 139.563 170.704L139.731 172.544C139.905 174.436 141.58 175.83 143.472 175.657L144.941 175.522C146.022 175.423 146.819 174.466 146.72 173.384L145.839 163.774C144.916 153.691 135.993 146.273 125.91 147.193C122.345 147.519 119.038 145.97 116.978 143.356C116.307 144.045 115.578 144.675 114.802 145.239C111.388 147.722 112.463 153.116 116.588 154.01Z" fill="#2C2C33"/>
<path d="M115.337 140.325C109.538 143.402 102.928 144.204 96.1807 142.079C96.3864 140.672 96.2494 139.785 96.0891 138.035L96.1175 137.941C102.237 139.848 108.966 139.236 114.648 136.243L114.693 136.331C114.853 138.082 114.88 138.978 115.337 140.325Z" fill="#F7C388"/>
<path d="M117.137 68.4043C114.916 69.5648 114.436 69.9459 113.36 69.8685C93.6445 68.4503 79.2807 80.0068 79.0061 100.044C79.0013 100.395 78.9433 100.746 78.8176 101.074C77.6059 104.243 78.0763 106.463 78.4496 110.191C78.8422 114.113 72.9503 114.906 72.393 111.004C72.358 110.76 72.422 111.405 71.4257 100.529C71.023 96.9937 70.0403 84.4876 78.2663 74.964C87.8315 63.891 104.533 63.1954 117.072 67.502C117.48 67.6423 117.519 68.204 117.137 68.4043Z" fill="#4D4E59"/>
<path d="M99.2805 130.848C103.492 132.974 100.908 139.374 96.3883 138.024C87.1057 135.251 80.0301 127.096 79.0975 116.915C78.6877 112.442 78.3534 109.288 78.0858 106.544C77.8452 104.087 78.3603 101.737 79.4359 99.7195C80.7878 97.1838 84.6762 97.8786 84.9808 100.975C85.2493 103.729 85.5824 106.869 85.9925 111.346C86.8106 120.28 92.1869 127.267 99.2805 130.848Z" fill="#FFEBD2"/>
<path d="M147.798 163.596L148.857 175.163C148.956 176.245 148.16 177.202 147.078 177.301C145.997 177.4 145.04 176.604 144.941 175.522L143.881 163.954C143.056 154.948 135.1 148.327 126.093 149.152C121.831 149.542 117.765 147.725 115.216 144.291C114.569 143.419 114.751 142.187 115.624 141.54C116.495 140.892 117.727 141.075 118.375 141.947C120.098 144.27 122.85 145.499 125.734 145.235C136.905 144.211 146.774 152.424 147.798 163.596ZM109.359 145.813C105.342 147.082 101.098 146.557 97.5893 144.592C98.0407 143.288 98.2651 141.908 98.2475 140.501C115.486 143.904 131.117 129.698 129.522 112.295C128.001 95.6867 128.046 95.9493 127.916 95.2744C127.411 92.5988 123.544 93.3233 124.053 96.0155C124.138 96.4556 124.158 96.8455 125.606 112.654C126.731 124.937 117.654 135.844 105.371 136.969C93.0884 138.095 82.1805 129.017 81.0554 116.735C80.6513 112.323 80.2914 108.911 80.0413 106.351C79.413 99.9279 84.9087 94.5001 91.4811 95.4526C100.751 96.7967 104.924 102.119 116.5 100.513C117.576 100.363 118.327 99.3701 118.177 98.2943C118.028 97.2187 117.041 96.473 115.959 96.6176C105.523 98.0704 102.131 93.0234 92.0456 91.5606C82.9267 90.2376 75.2524 97.7864 76.127 106.734C76.331 108.815 76.5673 111.093 76.8383 113.9C75.4723 113.34 74.4573 112.073 74.3152 110.522C74.3111 110.478 73.3837 100.351 73.3789 100.306C72.8742 95.8765 72.4848 84.6655 79.7538 76.2495C87.8752 66.847 101.812 65.5672 112.995 68.3518L111.488 69.1394C109.69 70.0795 110.335 72.8168 112.369 72.8482L115.845 72.9015C122.535 73.004 128.71 75.922 132.955 80.9463C130.766 84.1654 129.766 88.0143 130.126 91.9399L131.35 105.298C131.449 106.379 132.406 107.176 133.487 107.077C134.569 106.978 135.365 106.02 135.266 104.939L134.043 91.5811C133.731 88.1779 134.751 84.8499 136.916 82.2106C137.519 81.4766 137.501 80.3828 136.969 79.6774C132.491 73.7738 126.312 70.2744 119.533 69.2647C120.522 68.2514 120.155 66.5707 118.856 66.0566C112.9 63.7026 104.594 62.428 96.8932 63.4334C77.4113 65.9821 67.304 81.6318 69.4693 100.73L70.3992 110.881C70.7424 114.628 73.6519 117.536 77.2476 118.059C78.5288 128.028 85.3146 136.067 94.2368 139.371L94.284 139.886C94.6976 144.401 91.3734 148.383 86.8493 148.797C75.6546 149.823 67.4669 159.711 68.4883 170.861L69.5479 182.428C69.6469 183.51 70.6041 184.306 71.6855 184.207C72.767 184.108 73.5635 183.151 73.4644 182.07L72.4048 170.502C71.5798 161.496 78.2005 153.539 87.208 152.714C90.5427 152.408 93.5959 150.781 95.7142 148.048C100.15 150.516 105.495 151.158 110.544 149.564C111.579 149.237 112.154 148.132 111.827 147.096C111.499 146.06 110.394 145.485 109.359 145.813ZM128.29 168.902L122.415 169.44C121.334 169.539 120.537 170.496 120.636 171.577C120.735 172.659 121.692 173.455 122.774 173.356L128.649 172.818C129.73 172.719 130.527 171.762 130.428 170.681C130.329 169.599 129.371 168.803 128.29 168.902Z" fill="black"/>
<path d="M145.737 179.611C149.823 180.286 153.683 177.52 154.358 173.433C155.033 169.346 152.266 165.486 148.18 164.811C144.093 164.137 140.233 166.903 139.558 170.99C138.884 175.077 141.65 178.937 145.737 179.611Z" fill="url(#paint0_linear)"/>
<path d="M163.712 162.814L159.019 162.04C158.425 161.942 157.906 161.619 157.556 161.13L155.297 157.978C154.713 157.164 153.848 156.625 152.859 156.462L146.432 155.401C145.443 155.238 144.45 155.47 143.636 156.053L140.484 158.312C139.995 158.662 139.4 158.801 138.806 158.703L134.113 157.929C132.48 157.659 130.934 158.767 130.664 160.4L127.488 179.639C127.219 181.272 128.327 182.819 129.96 183.088L159.559 187.974C161.192 188.243 162.738 187.135 163.008 185.503L166.184 166.263C166.453 164.631 165.345 163.084 163.712 162.814ZM145.492 181.091C140.596 180.283 137.27 175.642 138.078 170.745C138.887 165.849 143.527 162.523 148.424 163.331C153.32 164.14 156.646 168.78 155.838 173.677C155.03 178.574 150.389 181.899 145.492 181.091ZM159.531 169.726C158.715 169.591 158.16 168.817 158.295 168.001C158.43 167.186 159.204 166.631 160.019 166.766C160.835 166.9 161.39 167.674 161.255 168.49C161.12 169.306 160.347 169.86 159.531 169.726Z" fill="url(#paint1_linear)"/>
<path d="M18.3737 46.2687C15.4852 45.2018 12.5249 47.6618 13.0452 50.6967L15.2223 63.3978C15.7426 66.4327 19.3531 67.7664 21.7213 65.7984L31.6322 57.5624C34.0004 55.5944 33.3501 51.8007 30.4617 50.7338L18.3737 46.2687Z" fill="#A8CBE5" fill-opacity="0.5"/>
<path d="M141.584 16.9728C146.464 19.2581 147.04 25.9691 142.621 29.0528L131.719 36.6598C127.3 39.7434 121.2 36.8869 120.739 31.518L119.602 18.2734C119.141 12.9045 124.665 9.05004 129.545 11.3353L141.584 16.9728Z" fill="#A8CBE5" fill-opacity="0.5"/>
<rect x="156.651" y="129.301" width="21.1661" height="21.1661" rx="6" transform="rotate(-111.816 156.651 129.301)" fill="#A8CBE5" fill-opacity="0.5"/>
<defs>
<linearGradient id="paint0_linear" x1="131.67" y1="178.866" x2="158.327" y2="160.455" gradientUnits="userSpaceOnUse">
<stop stop-color="#3ED7A0"/>
<stop offset="1" stop-color="#57E4B1"/>
</linearGradient>
<linearGradient id="paint1_linear" x1="131.67" y1="178.866" x2="158.327" y2="160.455" gradientUnits="userSpaceOnUse">
<stop stop-color="#3ED7A0"/>
<stop offset="1" stop-color="#57E4B1"/>
</linearGradient>
</defs>
</svg>
