<svg width="191" height="179" viewBox="0 0 191 179" fill="none" xmlns="http://www.w3.org/2000/svg">
<circle cx="90.3729" cy="94.3729" r="79.3729" fill="#E2EAF0"/>
<path d="M108.172 172.707L100.266 171.737C99.1074 170.847 96.9482 168.094 95.3692 159.623C95.2542 159.006 95.1496 158.394 95.0538 157.791L72.9853 155.084C72.7546 155.627 72.5136 156.176 72.2619 156.729C68.6707 164.612 65.9001 166.771 64.5568 167.356L56.4971 166.368C54.9233 166.175 53.4909 167.294 53.2978 168.868C53.1048 170.442 54.2242 171.874 55.798 172.067L107.473 178.406C109.047 178.599 110.479 177.48 110.672 175.906C110.866 174.332 109.746 172.9 108.172 172.707Z" fill="#758FA4"/>
<path d="M136.027 134.277L141.154 92.4808C141.732 87.7668 138.367 83.4612 133.653 82.883L53.4808 73.0487C48.7668 72.4704 44.4612 75.8352 43.883 80.5492L38.7561 122.345L136.027 134.277ZM79.3342 93.3828L103.652 96.3657C105.226 96.5587 106.345 97.9912 106.152 99.565C105.959 101.139 104.527 102.258 102.953 102.065L78.6351 99.0823C77.0613 98.8892 75.9418 97.4568 76.1349 95.883C76.3279 94.3092 77.7604 93.1897 79.3342 93.3828ZM68.7236 104.423L111.28 109.643C112.853 109.836 113.973 111.269 113.78 112.842C113.587 114.416 112.154 115.536 110.581 115.343L68.0245 110.123C66.4507 109.929 65.3312 108.497 65.5243 106.923C65.7173 105.349 67.1498 104.23 68.7236 104.423Z" fill="#3D4C59"/>
<path d="M38.0571 128.045L37.0551 136.214C36.4768 140.928 39.8416 145.234 44.5556 145.812L115.229 154.481L116.138 147.072C116.331 145.498 117.763 144.378 119.337 144.571C120.911 144.765 122.03 146.197 121.837 147.771L120.928 155.18L124.728 155.646C129.442 156.224 133.748 152.86 134.326 148.146L135.328 139.976L38.0571 128.045Z" fill="#1A242C"/>
<rect x="102.574" y="80.3851" width="58" height="12.8295" rx="6.41475" transform="rotate(-4.67528 102.574 80.3851)" fill="url(#paint0_linear)"/>
<path d="M114.627 82.6174L115.75 85.3051L118.653 85.0677L116.444 86.9662L117.567 89.654L115.079 88.1396L112.87 90.0381L113.541 87.2037L111.053 85.6893L113.956 85.4519L114.627 82.6174Z" fill="#C4C4C4"/>
<path d="M123.13 81.6539L124.253 84.3416L127.156 84.1042L124.947 86.0027L126.07 88.6904L123.581 87.1761L121.372 89.0746L122.043 86.2401L119.555 84.7258L122.458 84.4883L123.13 81.6539Z" fill="#C4C4C4"/>
<path d="M131.633 80.6904L132.756 83.3781L135.659 83.1407L133.45 85.0392L134.572 87.7269L132.084 86.2125L129.875 88.1111L130.546 85.2766L128.058 83.7622L130.961 83.5248L131.633 80.6904Z" fill="#C4C4C4"/>
<path d="M140.136 79.7268L141.258 82.4145L144.162 82.1771L141.952 84.0756L143.075 86.7634L140.587 85.249L138.378 87.1475L139.049 84.3131L136.561 82.7987L139.464 82.5613L140.136 79.7268Z" fill="#C4C4C4"/>
<path d="M148.638 78.7633L149.761 81.451L152.664 81.2136L150.455 83.1121L151.578 85.7998L149.09 84.2855L146.88 86.184L147.552 83.3495L145.063 81.8352L147.967 81.5978L148.638 78.7633Z" fill="#C4C4C4"/>
<path d="M162.497 107.771C159.436 108.106 157.886 111.629 159.707 114.112L167.327 124.504C169.148 126.987 172.974 126.568 174.214 123.749L179.404 111.954C180.644 109.136 178.367 106.032 175.307 106.367L162.497 107.771Z" fill="#A8CBE5" fill-opacity="0.5"/>
<path d="M72.7207 19.1196C77.077 22.2913 76.3662 28.9894 71.4413 31.1762L59.2918 36.571C54.3669 38.7578 48.9215 34.7932 49.4902 29.4347L50.8929 16.2155C51.4615 10.857 57.6177 8.12349 61.974 11.2952L72.7207 19.1196Z" fill="#A8CBE5" fill-opacity="0.5"/>
<rect x="0.0742188" y="120.45" width="29.5139" height="29.5139" rx="10" transform="rotate(-49.3005 0.0742188 120.45)" fill="#A8CBE5" fill-opacity="0.5"/>
<defs>
<linearGradient id="paint0_linear" x1="131.574" y1="80.3851" x2="131.574" y2="93.2146" gradientUnits="userSpaceOnUse">
<stop stop-color="#FD8593"/>
<stop offset="1" stop-color="#FF9D97"/>
</linearGradient>
</defs>
</svg>
