<svg width="190" height="202" viewBox="0 0 190 202" fill="none" xmlns="http://www.w3.org/2000/svg">
<circle cx="101.373" cy="100.373" r="79.3729" fill="#E2EAF0"/>
<path d="M18.3737 70.2687C15.4852 69.2018 12.5249 71.6618 13.0452 74.6967L15.2223 87.3978C15.7426 90.4327 19.3531 91.7664 21.7213 89.7984L31.6322 81.5624C34.0004 79.5944 33.3501 75.8007 30.4617 74.7338L18.3737 70.2687Z" fill="#A8CBE5" fill-opacity="0.5"/>
<path d="M137.255 18.327C142.575 19.1846 144.972 25.4795 141.569 29.6579L133.175 39.9659C129.773 44.1444 123.123 43.0725 121.205 38.0365L116.475 25.6131C114.558 20.5772 118.811 15.3541 124.131 16.2116L137.255 18.327Z" fill="#A8CBE5" fill-opacity="0.5"/>
<rect x="152" y="128.767" width="29.5139" height="29.5139" rx="10" transform="rotate(-70.1907 152 128.767)" fill="#A8CBE5" fill-opacity="0.5"/>
<rect x="46.0654" y="63.5429" width="106" height="90" rx="16" transform="rotate(12.5717 46.0654 63.5429)" fill="#3D4C59"/>
<path d="M52.666 84.4816L133.676 102.547L123.664 147.445C122.462 152.835 117.117 156.23 111.727 155.028L50.2372 141.316C44.8468 140.113 41.4515 134.769 42.6536 129.379L52.666 84.4816Z" fill="#758FA4"/>
<g clip-path="url(#clip0)">
<path d="M142.945 130.633L112.448 126.27C112.163 126.225 111.871 126.269 111.611 126.396L83.7484 139.54C83.1581 139.818 82.82 140.45 82.9169 141.095L87.7464 173.192C89.6874 186.093 111.087 194.609 122.115 196.304C122.413 196.35 122.718 196.305 122.99 196.172C133.019 191.309 150.965 176.873 149.024 163.972L144.194 131.875C144.098 131.231 143.59 130.726 142.945 130.633Z" fill="#2196F3"/>
<path d="M119.483 175.877C128.346 174.544 134.45 166.277 133.117 157.414C131.783 148.55 123.517 142.446 114.653 143.78C105.79 145.113 99.6856 153.38 101.019 162.243C102.353 171.107 110.619 177.211 119.483 175.877Z" fill="#1976D2"/>
<path d="M115.248 167.562C114.861 167.621 114.466 167.524 114.151 167.292L107.436 162.334C106.79 161.838 106.667 160.912 107.162 160.265C107.645 159.634 108.542 159.499 109.189 159.96L114.718 164.04L123.756 151.801C124.228 151.137 125.149 150.982 125.813 151.454C126.477 151.927 126.632 152.848 126.16 153.512C126.15 153.526 126.14 153.54 126.129 153.553L116.213 166.981C115.981 167.295 115.634 167.504 115.248 167.562Z" fill="#FAFAFA"/>
</g>
<defs>
<clipPath id="clip0">
<rect width="70.8254" height="70.8254" fill="white" transform="translate(77 131.538) rotate(-8.55661)"/>
</clipPath>
</defs>
</svg>
