<svg width="185" height="163" viewBox="0 0 185 163" fill="none" xmlns="http://www.w3.org/2000/svg">
<circle cx="94.3729" cy="79.3729" r="79.3729" fill="#E2EAF0"/>
<path d="M166.112 27.2687C169.001 26.2018 171.961 28.6618 171.441 31.6967L169.264 44.3978C168.743 47.4327 165.133 48.7664 162.765 46.7984L152.854 38.5624C150.485 36.5944 151.136 32.8007 154.024 31.7338L166.112 27.2687Z" fill="#A8CBE5" fill-opacity="0.5"/>
<path d="M32.8496 111.613C37.5163 114.307 37.5163 121.043 32.8496 123.737L21.3372 130.384C16.6706 133.078 10.8372 129.71 10.8372 124.322L10.8372 111.028C10.8372 105.64 16.6706 102.272 21.3372 104.966L32.8496 111.613Z" fill="#A8CBE5" fill-opacity="0.5"/>
<rect x="13.9927" y="38.7604" width="29.5139" height="29.5139" rx="10" transform="rotate(-70.1907 13.9927 38.7604)" fill="#A8CBE5" fill-opacity="0.5"/>
<path fill-rule="evenodd" clip-rule="evenodd" d="M143.728 152.981C127.741 154.148 113.835 142.134 112.668 126.147C111.501 110.16 123.515 96.2537 139.502 95.0869C155.489 93.9201 169.395 105.934 170.562 121.921C171.133 129.743 168.549 137.066 163.888 142.643L167.349 158.729L148.772 152.167C147.145 152.578 145.46 152.854 143.728 152.981Z" fill="url(#paint0_linear)"/>
<path fill-rule="evenodd" clip-rule="evenodd" d="M107.066 141.132C135.821 141.132 159.132 117.821 159.132 89.0659C159.132 60.3107 135.821 37 107.066 37C78.3107 37 55 60.3107 55 89.0659C55 103.134 60.5795 115.899 69.6463 125.269L65.5539 154.5L97.9342 140.334C100.899 140.858 103.951 141.132 107.066 141.132Z" fill="#3D4C59"/>
<path d="M112.388 121.3C115.411 120.698 117.376 117.766 116.776 114.751C116.176 111.735 113.239 109.778 110.215 110.38C107.192 110.981 105.228 113.913 105.827 116.929C106.427 119.944 109.364 121.901 112.388 121.3Z" fill="url(#paint1_linear)"/>
<path d="M100.44 61.241C90.781 63.1625 84.4821 72.5635 86.3986 82.1974C86.8785 84.6098 89.2281 86.1752 91.6468 85.6941C94.0654 85.2129 95.637 82.8674 95.1571 80.455C94.1989 75.6381 97.3483 70.9376 102.178 69.9768C107.007 69.0161 111.716 72.1533 112.674 76.9702C113.632 81.7871 110.483 86.4877 105.654 87.4484C103.235 87.9296 101.663 90.2751 102.143 92.6875L104.315 103.607C104.795 106.02 107.145 107.585 109.564 107.104C111.982 106.623 113.554 104.277 113.074 101.865L111.661 94.7603C118.821 91.3146 123.049 83.3541 121.433 75.2278C119.516 65.594 110.099 59.3195 100.44 61.241Z" fill="url(#paint2_linear)"/>
<defs>
<linearGradient id="paint0_linear" x1="166.078" y1="149.092" x2="115.572" y2="118.352" gradientUnits="userSpaceOnUse">
<stop stop-color="#3ED7A0"/>
<stop offset="1" stop-color="#57E4B1"/>
</linearGradient>
<linearGradient id="paint1_linear" x1="96.9933" y1="115.112" x2="129.554" y2="91.1051" gradientUnits="userSpaceOnUse">
<stop stop-color="#3ED7A0"/>
<stop offset="1" stop-color="#57E4B1"/>
</linearGradient>
<linearGradient id="paint2_linear" x1="96.9933" y1="115.112" x2="129.554" y2="91.1051" gradientUnits="userSpaceOnUse">
<stop stop-color="#3ED7A0"/>
<stop offset="1" stop-color="#57E4B1"/>
</linearGradient>
</defs>
</svg>
