<svg width="196" height="196" viewBox="0 0 196 196" fill="none" xmlns="http://www.w3.org/2000/svg">
<circle cx="94.3729" cy="95.3729" r="79.3729" fill="#E2EAF0"/>
<path d="M25.1122 69.2687C28.0006 68.2018 30.9609 70.6618 30.4407 73.6967L28.2635 86.3978C27.7433 89.4327 24.1327 90.7664 21.7645 88.7984L11.8536 80.5624C9.4854 78.5944 10.1357 74.8007 13.0241 73.7338L25.1122 69.2687Z" fill="#A8CBE5" fill-opacity="0.5"/>
<path d="M184.85 96.6127C189.516 99.307 189.516 106.043 184.85 108.737L173.337 115.384C168.671 118.078 162.837 114.71 162.837 109.322L162.837 96.0282C162.837 90.6396 168.671 87.2718 173.337 89.9661L184.85 96.6127Z" fill="#A8CBE5" fill-opacity="0.5"/>
<rect x="90" y="27.7675" width="29.5139" height="29.5139" rx="10" transform="rotate(-70.1907 90 27.7675)" fill="#A8CBE5" fill-opacity="0.5"/>
<g clip-path="url(#clip0)">
<path d="M77.5246 142.226C83.6767 142.903 89.2463 141.282 94.0775 137.407C98.9086 133.533 101.7 128.449 102.377 122.297C103.053 116.146 101.432 110.577 97.5569 105.744C93.6819 100.914 88.598 98.122 82.4466 97.4459C76.2939 96.7696 70.7256 98.3907 65.8946 102.265C61.0635 106.139 58.2709 111.223 57.5947 117.374C56.9185 123.527 58.5402 129.096 62.4152 133.927C66.2902 138.758 71.374 141.55 77.5246 142.226Z" fill="#3D4C59"/>
<path d="M113.768 173.236C113.842 171.411 113.805 169.407 113.661 167.279C113.514 165.135 113.247 163.095 112.865 161.214C112.471 159.271 111.857 157.327 111.043 155.44C110.197 153.48 109.142 151.739 107.906 150.266C106.613 148.725 104.966 147.419 103.01 146.384C101.06 145.353 98.8462 144.696 96.4298 144.431C95.4808 144.326 94.5203 144.615 92.621 145.574C91.452 146.166 90.0856 146.848 88.5615 147.601C87.2584 148.243 85.5288 148.789 83.4188 149.223C81.36 149.648 79.3056 149.753 77.3134 149.534C75.3211 149.315 73.3391 148.767 71.4197 147.904C69.4564 147.023 67.8866 146.115 66.7555 145.205C65.4439 144.149 64.2577 143.186 63.2298 142.343C61.5864 140.994 60.7107 140.504 59.7617 140.4C57.3446 140.134 55.0414 140.295 52.915 140.878C50.782 141.463 48.8903 142.38 47.292 143.604C45.7658 144.775 44.3574 146.244 43.108 147.973C41.9034 149.638 40.8827 151.402 40.0747 153.214C39.2942 154.967 38.59 156.9 37.9816 158.961C37.3788 161.004 36.9076 162.952 36.5825 164.754C36.2636 166.52 35.9983 168.359 35.7933 170.223C35.26 175.076 36.3708 179.174 39.0943 182.406C41.7844 185.595 45.6003 187.482 50.4346 188.014L95.1967 192.934C100.031 193.465 104.164 192.452 107.484 189.923C110.844 187.362 112.819 183.602 113.353 178.748C113.558 176.874 113.698 175.02 113.768 173.236Z" fill="#758FA4"/>
</g>
<g clip-path="url(#clip1)">
<path d="M130.831 142.319C135.753 141.491 139.717 139.009 142.614 134.941C145.51 130.874 146.559 126.316 145.731 121.394C144.904 116.474 142.422 112.51 138.354 109.612C134.286 106.716 129.728 105.668 124.807 106.495C119.885 107.323 115.921 109.804 113.025 113.872C110.128 117.94 109.079 122.498 109.906 127.419C110.734 132.341 113.216 136.305 117.285 139.201C121.353 142.097 125.911 143.146 130.831 142.319Z" fill="#758FA4"/>
<path d="M165.765 158.41C165.421 156.978 164.952 155.432 164.372 153.813C163.788 152.182 163.132 150.657 162.422 149.282C161.689 147.861 160.786 146.488 159.739 145.203C158.652 143.869 157.451 142.75 156.168 141.878C154.827 140.967 153.262 140.316 151.517 139.942C149.777 139.572 147.915 139.549 145.982 139.874C145.223 140.001 144.541 140.436 143.279 141.598C142.502 142.314 141.592 143.144 140.575 144.063C139.705 144.848 138.483 145.651 136.941 146.452C135.438 147.234 133.867 147.766 132.273 148.034C130.679 148.302 129.021 148.313 127.342 148.066C125.625 147.814 124.208 147.454 123.131 146.997C121.881 146.466 120.749 145.979 119.766 145.551C118.195 144.866 117.407 144.678 116.648 144.806C114.715 145.131 112.963 145.762 111.442 146.682C109.915 147.604 108.649 148.732 107.678 150.033C106.752 151.276 105.982 152.726 105.392 154.342C104.824 155.899 104.42 157.491 104.191 159.075C103.971 160.606 103.85 162.261 103.831 163.993C103.812 165.711 103.875 167.326 104.018 168.796C104.159 170.235 104.357 171.72 104.608 173.212C105.261 177.094 107.024 180.029 109.847 181.938C112.635 183.821 116.01 184.446 119.878 183.796L155.686 177.774C159.554 177.124 162.538 175.43 164.557 172.738C166.602 170.012 167.307 166.662 166.654 162.778C166.402 161.28 166.103 159.81 165.765 158.41Z" fill="#3D4C59"/>
</g>
<defs>
<clipPath id="clip0">
<rect width="93.5225" height="93.5228" fill="white" transform="translate(36.6279 92.4098) rotate(6.27242)"/>
</clipPath>
<clipPath id="clip1">
<rect width="75.4126" height="75.4129" fill="white" transform="translate(88.1528 112.659) rotate(-9.54553)"/>
</clipPath>
</defs>
</svg>
