<svg width="184" height="194" viewBox="0 0 184 194" fill="none" xmlns="http://www.w3.org/2000/svg">
<circle cx="90.3729" cy="102.373" r="79.3729" fill="#E2EAF0"/>
<g clip-path="url(#clip0)">
<path d="M79.6747 85.8279L110.621 92.4403C118.098 94.038 122.865 101.395 121.267 108.872L107.216 174.633C105.618 182.11 98.2611 186.877 90.7836 185.279L59.8374 178.666C52.3601 177.069 47.5936 169.712 49.1914 162.234L63.2428 96.4739C64.8405 88.9964 72.1974 84.2301 79.6747 85.8279Z" fill="#455A64"/>
<path d="M120.027 114.675L65.8711 103.103L55.1259 153.39L109.282 164.962L120.027 114.675Z" fill="#FAFAFA"/>
<path d="M76.9632 174.236C74.8268 173.779 73.465 171.677 73.9215 169.541C74.378 167.405 76.4799 166.043 78.6163 166.499C80.7526 166.956 82.1144 169.058 81.6579 171.194C81.2016 173.331 79.0995 174.692 76.9632 174.236Z" fill="#FAFAFA"/>
<path d="M96.5366 101.565L88.8 99.9124C87.7318 99.6841 87.0508 98.6331 87.2791 97.5649C87.5073 96.4967 88.5584 95.8157 89.6266 96.044L97.3632 97.6971C98.4314 97.9253 99.1123 98.9764 98.8841 100.045C98.6558 101.113 97.6048 101.794 96.5366 101.565Z" fill="#FAFAFA"/>
<path d="M108.218 104.062C107.15 103.833 106.469 102.782 106.697 101.714C106.922 100.661 107.948 99.9811 109.006 100.185L109.044 100.193C110.113 100.421 110.794 101.472 110.565 102.541C110.337 103.609 109.286 104.29 108.218 104.062Z" fill="#FAFAFA"/>
<path d="M90.7837 185.279L59.8375 178.666C52.3602 177.069 47.5937 169.712 49.1914 162.234L63.2428 96.4739C64.8405 88.9964 72.1974 84.2301 79.6747 85.8279L110.621 92.4403C118.098 94.038 122.865 101.395 121.267 108.872L119.614 116.609C119.386 117.677 118.335 118.358 117.266 118.13C116.198 117.901 115.517 116.85 115.745 115.782L117.399 108.046C118.54 102.705 115.135 97.4499 109.794 96.3087L78.8482 89.6962C73.5072 88.555 68.2524 91.9595 67.1112 97.3005L55.1262 153.39L107.348 164.549C108.416 164.777 109.097 165.828 108.869 166.896L107.216 174.633C105.618 182.11 98.261 186.876 90.7837 185.279ZM54.2996 157.258L53.0598 163.061C51.9186 168.402 55.3231 173.657 60.6641 174.798L91.6102 181.41C96.9512 182.552 102.206 179.147 103.347 173.806L104.587 168.004L54.2996 157.258Z" fill="#3D4C59"/>
<path d="M118.093 114.261L63.9367 102.69C62.8685 102.461 62.1876 101.41 62.4158 100.342C62.6441 99.2739 63.6951 98.593 64.7633 98.8212L118.919 110.393C119.987 110.621 120.668 111.672 120.44 112.74C120.212 113.809 119.161 114.49 118.093 114.261Z" fill="#3D4C59"/>
<path d="M76.9632 174.236C74.8268 173.779 73.465 171.677 73.9215 169.541C74.378 167.405 76.4799 166.043 78.6163 166.499C80.7526 166.956 82.1144 169.058 81.6579 171.194C81.2016 173.331 79.0995 174.692 76.9632 174.236Z" fill="#758FA4"/>
<path d="M96.5366 101.565L88.8 99.9123C87.7318 99.6841 87.0508 98.633 87.2791 97.5648C87.5073 96.4967 88.5584 95.8157 89.6266 96.0439L97.3632 97.6971C98.4314 97.9253 99.1123 98.9764 98.8841 100.045C98.6558 101.113 97.6048 101.794 96.5366 101.565Z" fill="#758FA4"/>
<path d="M108.218 104.062C107.15 103.833 106.469 102.782 106.697 101.714C106.925 100.646 107.976 99.965 109.045 100.193L109.083 100.201C110.151 100.43 110.832 101.481 110.604 102.549C110.376 103.617 109.325 104.298 108.257 104.07L108.218 104.062Z" fill="#758FA4"/>
<g clip-path="url(#clip1)">
<path d="M134.782 120.368L138.44 140.12C138.706 141.559 137.766 142.926 136.328 143.192L104.859 149.02C103.42 149.286 102.053 148.346 101.786 146.908L98.1285 127.155C97.8645 125.73 98.802 124.349 100.241 124.083L131.71 118.255C133.148 117.989 134.518 118.942 134.782 120.368Z" fill="#6F7070"/>
<path d="M135.182 122.489L98.5156 129.279L99.2952 133.489L135.962 126.699L135.182 122.489Z" fill="#464646"/>
<path d="M124.942 120.606L116.577 122.156C115.862 122.288 115.389 122.975 115.521 123.692C115.654 124.408 116.342 124.88 117.057 124.748L125.422 123.199C126.138 123.066 126.611 122.379 126.478 121.663C126.346 120.947 125.658 120.474 124.942 120.606Z" fill="#787878"/>
<path d="M130.986 119.487L128.719 119.907C128.004 120.04 127.53 120.726 127.663 121.443C127.796 122.16 128.484 122.632 129.199 122.499L131.466 122.079C132.181 121.947 132.655 121.26 132.522 120.543C132.389 119.828 131.703 119.355 130.986 119.487Z" fill="#787878"/>
<path d="M108.419 128.282L102.099 129.452C101.383 129.585 100.91 130.272 101.043 130.988C101.175 131.705 101.863 132.177 102.579 132.044L108.899 130.874C109.614 130.742 110.087 130.055 109.955 129.338C109.822 128.621 109.135 128.149 108.419 128.282Z" fill="#3E3E3E"/>
<path d="M114.463 127.163L112.197 127.582C111.482 127.715 111.009 128.401 111.141 129.118C111.274 129.835 111.962 130.307 112.677 130.174L114.943 129.755C115.658 129.622 116.132 128.935 115.999 128.219C115.866 127.502 115.178 127.03 114.463 127.163Z" fill="#3E3E3E"/>
<g opacity="0.07">
<path opacity="0.07" d="M137.512 135.104L138.441 140.12C138.707 141.559 137.767 142.926 136.328 143.192L133.192 143.773L131.782 131.165L137.512 135.104Z" fill="#010101"/>
</g>
<path d="M133.404 154.249L101.925 160.078C100.493 160.343 99.1177 159.398 98.8525 157.966L95.1939 138.21C94.9289 136.779 95.8739 135.403 97.306 135.138L128.785 129.308C130.218 129.043 131.593 129.989 131.858 131.42L135.516 151.175C135.781 152.607 134.836 153.983 133.404 154.249Z" fill="#4B9FD8"/>
<path d="M111.459 132.517C104.507 140.145 100.272 149.053 98.9257 158.217C98.8935 158.115 98.8614 158.014 98.8397 157.897L95.1819 138.145C94.9539 136.914 95.6173 135.718 96.7228 135.246L111.459 132.517Z" fill="#3A9BD6"/>
<path d="M119.252 156.869C126.205 149.241 130.44 140.333 131.786 131.169C131.818 131.271 131.85 131.372 131.872 131.489L135.53 151.241C135.758 152.472 135.094 153.668 133.989 154.14L119.252 156.869Z" fill="#3A9BD6"/>
<path d="M121.69 141.175C123.434 140.852 124.585 139.177 124.263 137.433C123.94 135.689 122.264 134.537 120.521 134.86C118.777 135.183 117.625 136.859 117.948 138.602C118.271 140.346 119.946 141.498 121.69 141.175Z" fill="#FEE218"/>
<path d="M126.223 140.335C127.967 140.012 129.119 138.337 128.796 136.593C128.473 134.85 126.797 133.698 125.054 134.021C123.31 134.344 122.158 136.019 122.481 137.763C122.804 139.506 124.479 140.658 126.223 140.335Z" fill="#CD494C"/>
<path d="M108.339 148.602L102.207 149.737C101.491 149.87 100.803 149.398 100.671 148.681C100.538 147.965 101.011 147.278 101.727 147.145L107.859 146.01C108.574 145.877 109.262 146.349 109.395 147.066C109.527 147.781 109.054 148.469 108.339 148.602Z" fill="white"/>
<path d="M112.584 140.936L100.975 143.086C100.26 143.218 99.572 142.746 99.4392 142.03C99.3065 141.313 99.7799 140.626 100.495 140.494L112.104 138.344C112.82 138.211 113.508 138.683 113.64 139.4C113.773 140.117 113.3 140.803 112.584 140.936Z" fill="white"/>
<path d="M107.235 155.686L103.437 156.389C102.722 156.522 102.034 156.05 101.901 155.333C101.768 154.616 102.242 153.929 102.957 153.797L106.755 153.094C107.47 152.961 108.158 153.433 108.291 154.15C108.423 154.865 107.952 155.553 107.235 155.686Z" fill="#8BD5EC"/>
<path d="M115.047 154.239L111.25 154.942C110.534 155.075 109.846 154.603 109.714 153.886C109.581 153.17 110.054 152.483 110.77 152.35L114.567 151.647C115.283 151.514 115.971 151.986 116.103 152.703C116.236 153.418 115.763 154.107 115.047 154.239Z" fill="#DAEFF6"/>
<path d="M122.859 152.792L119.061 153.496C118.346 153.628 117.658 153.156 117.525 152.44C117.392 151.723 117.866 151.036 118.581 150.904L122.379 150.2C123.094 150.068 123.782 150.54 123.915 151.256C124.047 151.972 123.574 152.66 122.859 152.792Z" fill="#8BD5EC"/>
<path d="M130.671 151.346L126.874 152.049C126.158 152.182 125.47 151.71 125.338 150.993C125.205 150.276 125.678 149.589 126.394 149.457L130.191 148.754C130.907 148.621 131.595 149.093 131.727 149.81C131.86 150.525 131.387 151.213 130.671 151.346Z" fill="#DAEFF6"/>
</g>
</g>
<path d="M25.1122 133.269C28.0006 132.202 30.9609 134.662 30.4407 137.697L28.2635 150.398C27.7433 153.433 24.1327 154.766 21.7645 152.798L11.8536 144.562C9.4854 142.594 10.1357 138.801 13.0241 137.734L25.1122 133.269Z" fill="#A8CBE5" fill-opacity="0.5"/>
<path d="M125.702 17.735C130.893 19.1828 132.569 25.7066 128.72 29.4777L119.225 38.7808C115.375 42.5519 108.887 40.7421 107.546 35.5231L104.237 22.6481C102.896 17.4291 107.707 12.7152 112.898 14.1631L125.702 17.735Z" fill="#A8CBE5" fill-opacity="0.5"/>
<rect x="146" y="131.767" width="29.5139" height="29.5139" rx="10" transform="rotate(-70.1907 146 131.767)" fill="#A8CBE5" fill-opacity="0.5"/>
<defs>
<clipPath id="clip0">
<rect width="94.9341" height="94.9341" fill="white" transform="translate(55.499 80.6622) rotate(12.0613)"/>
</clipPath>
<clipPath id="clip1">
<rect width="42.1813" height="42.1813" fill="white" transform="translate(92.2422 122.269) rotate(-10.4915)"/>
</clipPath>
</defs>
</svg>
