<svg width="30" height="30" viewBox="0 0 30 30" fill="none" xmlns="http://www.w3.org/2000/svg">
<path d="M15.001 18C14.4487 18 14.0011 17.5524 14.0011 17.0001C14.0011 16.4477 14.4487 16.0001 15.001 16.0001C15.5533 16.0001 16.0009 16.4477 16.0009 17.0001H17.0009C16.9974 16.0909 16.3813 15.2984 15.501 15.0711V14.5001H14.501V15.0711C13.4335 15.3458 12.7909 16.434 13.0656 17.5016C13.2929 18.3844 14.0894 19.0012 15.001 19C15.5533 19 16.0009 19.4477 16.0009 20C16.0009 20.5524 15.5533 21 15.001 21C14.4487 21 14.0011 20.5524 14.0011 20H13.0011C13.0046 20.9092 13.6208 21.7017 14.501 21.929V22.5H15.501V21.929C16.5685 21.6543 17.2111 20.5661 16.9364 19.4985C16.7091 18.6156 15.9126 17.9989 15.001 18Z" fill="#3D4C59"/>
<path d="M15.001 12.0001C11.4114 12.0001 8.50143 14.9102 8.50143 18.5C8.50143 22.0899 11.4114 25 15.001 25C18.5906 25 21.5006 22.0899 21.5006 18.5C21.4964 14.9119 18.5889 12.0042 15.001 12.0001ZM15.001 24C11.9636 24 9.50137 21.5376 9.50137 18.5C9.50137 15.4625 11.9636 13.0001 15.001 13.0001C18.0384 13.0001 20.5006 15.4625 20.5006 18.5C20.4971 21.5361 18.0369 23.9965 15.001 24Z" fill="#3D4C59"/>
<path d="M29.5 11.0001C29.7761 11.0001 30 10.7762 30 10.5001V8.50009C30 8.49359 29.9965 8.48859 29.9965 8.48209C29.9946 8.42747 29.9836 8.37359 29.964 8.32259C29.964 8.31659 29.964 8.30959 29.9595 8.30359C29.9352 8.24903 29.9014 8.19922 29.8595 8.15659C29.8447 8.14347 29.8291 8.13109 29.813 8.11959C29.7906 8.0984 29.7664 8.07934 29.7405 8.06259L15.2415 0.0626247C15.0913 -0.0208749 14.9087 -0.0208749 14.7585 0.0626247L0.259483 8.06259C0.233609 8.07934 0.209361 8.0984 0.186988 8.11959C0.170864 8.13109 0.155302 8.14347 0.140491 8.15659C0.0986184 8.19922 0.0648082 8.24903 0.0404973 8.30359C0.0404973 8.30959 0.0404973 8.31659 0.0359976 8.32259C0.0163739 8.37359 0.00543714 8.42747 0.00349977 8.48209C0.00349977 8.48859 0 8.49359 0 8.50009V10.5001C0 10.7762 0.22386 11.0001 0.499967 11.0001H2.00187V26H0.501966C0.22586 26 0.00199987 26.2239 0.00199987 26.5V29.5C0.00199987 29.7761 0.22586 30 0.501966 30H29.5C29.7761 30 30 29.7761 30 29.5V26.5C30 26.2239 29.7761 26 29.5 26H28.0001V11.0001H29.5ZM15.001 1.07112L27.5587 8.00009H2.44334L15.001 1.07112ZM29.0001 27V29H1.00193V27H29.0001ZM3.0018 26V11.0001H5.00167V26H3.0018ZM6.0016 26V11.0001H24.0004V26H6.0016ZM25.0003 26V11.0001H27.0002V26H25.0003ZM1.00193 10.0001V9.00009H29.0001V10.0001H1.00193Z" fill="#3D4C59"/>
</svg>
