<svg width="8" height="14" viewBox="0 0 8 14" fill="none" xmlns="http://www.w3.org/2000/svg">
<path d="M7.11961 0.5H0.879609C0.449569 0.5 0.0996094 0.880391 0.0996094 1.34783V13.2174C0.0996094 13.3234 0.153949 13.4203 0.240529 13.4686C0.327109 13.517 0.431369 13.5088 0.510669 13.4474L3.99961 10.7386L7.48855 13.4474C7.53353 13.4822 7.58631 13.5 7.63961 13.5C7.68017 13.5 7.72099 13.4895 7.75869 13.4686C7.84527 13.4203 7.89961 13.3234 7.89961 13.2174V1.34783C7.89961 0.880391 7.54965 0.5 7.11961 0.5ZM7.37961 12.6683L4.15067 10.1613C4.10543 10.1262 4.05265 10.1087 3.99961 10.1087C3.94657 10.1087 3.89379 10.1262 3.84855 10.1613L0.619609 12.6683V3.32609H7.37961V12.6683ZM7.37961 2.76087H0.619609V1.34783C0.619609 1.19211 0.736349 1.06522 0.879609 1.06522H7.11961C7.26313 1.06522 7.37961 1.19211 7.37961 1.34783V2.76087Z" fill="#3D4C59"/>
</svg>
