<svg width="28" height="21" viewBox="0 0 28 21" fill="none" xmlns="http://www.w3.org/2000/svg">
<path d="M28 18.6271V2.37288C28 1.06447 26.9533 0 25.6667 0H2.33333C1.04673 0 0 1.06447 0 2.37288V9.49152C0 9.75361 0.20895 9.9661 0.466667 9.9661C0.724383 9.9661 0.933333 9.75361 0.933333 9.49152V2.37288C0.933333 1.58787 1.56141 0.949152 2.33333 0.949152H25.6667C26.4386 0.949152 27.0667 1.58787 27.0667 2.37288V18.6271C27.0667 19.4121 26.4386 20.0508 25.6667 20.0508H2.33333C1.56141 20.0508 0.933333 19.4121 0.933333 18.6271V16.7288H24.85C25.1077 16.7288 25.3167 16.5163 25.3167 16.2542C25.3167 15.9922 25.1077 15.7797 24.85 15.7797H0.933333V12.6949H24.85C25.1077 12.6949 25.3167 12.4824 25.3167 12.2203C25.3167 11.9583 25.1077 11.7458 24.85 11.7458H0.466667C0.20895 11.7458 0 11.9583 0 12.2203V18.6271C0 19.9355 1.04673 21 2.33333 21H25.6667C26.9533 21 28 19.9355 28 18.6271ZM24.2667 6.28813C24.2667 7.50643 22.9349 8.24529 21.926 7.58236C22.916 5.93321 21.7442 3.79661 19.8333 3.79661C18.4824 3.79661 17.3833 4.9143 17.3833 6.28813C17.3833 8.33279 19.6839 9.50398 21.2917 8.28883C22.9066 9.50369 25.2 8.32899 25.2 6.28813C25.2 4.9143 24.1009 3.79661 22.75 3.79661C22.4923 3.79661 22.2833 4.0091 22.2833 4.27119C22.2833 4.53327 22.4923 4.74576 22.75 4.74576C23.5863 4.74576 24.2667 5.43764 24.2667 6.28813ZM21.35 6.28813C21.35 7.13863 20.6697 7.83051 19.8333 7.83051C18.997 7.83051 18.3167 7.13863 18.3167 6.28813C18.3167 5.43764 18.997 4.74576 19.8333 4.74576C20.6697 4.74576 21.35 5.43764 21.35 6.28813ZM4.25833 7.29661H8.16667C8.42438 7.29661 8.63333 7.5091 8.63333 7.77119C8.63333 8.03327 8.42438 8.24576 8.16667 8.24576H4.25833C4.00062 8.24576 3.79167 8.03327 3.79167 7.77119C3.79167 7.5091 4.00062 7.29661 4.25833 7.29661ZM4.25833 4.33051H8.16667C8.42438 4.33051 8.63333 4.543 8.63333 4.80508C8.63333 5.06717 8.42438 5.27966 8.16667 5.27966H4.25833C4.00062 5.27966 3.79167 5.06717 3.79167 4.80508C3.79167 4.543 4.00062 4.33051 4.25833 4.33051Z" fill="#12CE8A"/>
</svg>
