<svg width="25" height="23" viewBox="0 0 25 23" fill="none" xmlns="http://www.w3.org/2000/svg">
<path d="M24.9128 12.9059L21.657 6.12962C21.545 5.94013 21.3296 5.83055 21.1047 5.84847H18.314C17.9929 5.84847 17.7326 6.10023 17.7326 6.41082C17.7326 6.7214 17.9929 6.97317 18.314 6.97317H20.7267L23.4302 12.5966H20.1163C18.6138 12.5895 17.2473 13.4375 16.6279 14.7617C16.1793 15.6724 15.229 16.2523 14.186 16.2519H10.814C9.77096 16.2523 8.82071 15.6724 8.37208 14.7617C7.75273 13.4375 6.38624 12.5895 4.8837 12.5966H1.6279L4.82555 6.97317H6.68603C7.00714 6.97317 7.26743 6.7214 7.26743 6.41082C7.26743 6.10023 7.00714 5.84847 6.68603 5.84847H4.47674C4.26664 5.82921 4.0636 5.92743 3.95349 6.10153L0.11629 12.9059C0.04902 12.9636 0.00734466 13.0441 0 13.1308V20.132C0.0462936 21.7079 1.36455 22.9706 2.99417 23H22.0058C23.6355 22.9706 24.9537 21.7079 25 20.132V13.1308C24.989 13.0504 24.9592 12.9735 24.9128 12.9059Z" fill="#3D4C59"/>
<path d="M12.093 13.0183C12.2992 13.2357 12.6487 13.2502 12.8734 13.0507C12.8851 13.0404 12.8963 13.0295 12.907 13.0183L16.8604 9.1662C17.0531 8.91772 17.0011 8.56527 16.7442 8.3789C16.5374 8.22896 16.2532 8.22896 16.0465 8.3789L13.0813 11.2469V0.562346C13.0813 0.251761 12.8211 0 12.4999 0C12.1788 0 11.9185 0.251761 11.9185 0.562346V11.2469L8.95342 8.37895C8.69652 8.19263 8.33213 8.24295 8.13944 8.49143C7.98443 8.69137 7.98443 8.96632 8.13944 9.16626L12.093 13.0183Z" fill="#3D4C59"/>
</svg>
