<svg width="17" height="18" viewBox="0 0 17 18" fill="none" xmlns="http://www.w3.org/2000/svg">
<g filter="url(#filter0_d)">
<path fill-rule="evenodd" clip-rule="evenodd" d="M12.4421 2.43613C12.1251 2.13876 11.6271 2.15463 11.3298 2.47158L8.38579 5.60938L5.34337 2.56696C5.03606 2.25965 4.5378 2.25965 4.23049 2.56696C3.92317 2.87428 3.92317 3.37253 4.23049 3.67985L7.30838 6.75774L4.33011 9.93211C4.03274 10.2491 4.04861 10.7471 4.36556 11.0444C4.68251 11.3418 5.18051 11.3259 5.47788 11.009L8.42183 7.87119L11.4642 10.9136C11.7716 11.2209 12.2698 11.2209 12.5771 10.9136C12.8844 10.6063 12.8844 10.108 12.5771 9.80072L9.49925 6.72283L12.4775 3.54845C12.7749 3.2315 12.759 2.7335 12.4421 2.43613Z" fill="white"/>
<path fill-rule="evenodd" clip-rule="evenodd" d="M12.4421 2.43613C12.1251 2.13876 11.6271 2.15463 11.3298 2.47158L8.38579 5.60938L5.34337 2.56696C5.03606 2.25965 4.5378 2.25965 4.23049 2.56696C3.92317 2.87428 3.92317 3.37253 4.23049 3.67985L7.30838 6.75774L4.33011 9.93211C4.03274 10.2491 4.04861 10.7471 4.36556 11.0444C4.68251 11.3418 5.18051 11.3259 5.47788 11.009L8.42183 7.87119L11.4642 10.9136C11.7716 11.2209 12.2698 11.2209 12.5771 10.9136C12.8844 10.6063 12.8844 10.108 12.5771 9.80072L9.49925 6.72283L12.4775 3.54845C12.7749 3.2315 12.759 2.7335 12.4421 2.43613Z" fill="white"/>
</g>
<defs>
<filter id="filter0_d" x="0" y="0.223083" width="16.8076" height="17.0344" filterUnits="userSpaceOnUse" color-interpolation-filters="sRGB">
<feFlood flood-opacity="0" result="BackgroundImageFix"/>
<feColorMatrix in="SourceAlpha" type="matrix" values="0 0 0 0 0 0 0 0 0 0 0 0 0 0 0 0 0 0 127 0"/>
<feOffset dy="2"/>
<feGaussianBlur stdDeviation="2"/>
<feColorMatrix type="matrix" values="0 0 0 0 0.3 0 0 0 0 0.095 0 0 0 0 0.095 0 0 0 1 0"/>
<feBlend mode="normal" in2="BackgroundImageFix" result="effect1_dropShadow"/>
<feBlend mode="normal" in="SourceGraphic" in2="effect1_dropShadow" result="shape"/>
</filter>
</defs>
</svg>
