<svg width="26" height="26" viewBox="0 0 26 26" fill="none" xmlns="http://www.w3.org/2000/svg">
<path d="M0 5.99981H26V7.99957H0V5.99981Z" fill="#F5F5F5"/>
<path d="M1.35761 2.00002H24.6422C25.1352 2.57832 25.5146 3.2564 25.7454 4.00004H0.254494C0.485245 3.2564 0.86463 2.57832 1.35761 2.00002Z" fill="#F5F5F5"/>
<path d="M0 9.99984H26V11.9996H0V9.99984Z" fill="#F5F5F5"/>
<path d="M0 13.9999H26V15.9996H0V13.9999Z" fill="#F5F5F5"/>
<path d="M0 17.9999H26V19.9997H0V17.9999Z" fill="#F5F5F5"/>
<path d="M0.254494 22H25.7454C25.5147 22.7436 25.1352 23.4217 24.6422 24H1.35767C0.864632 23.4217 0.485245 22.7436 0.254494 22Z" fill="#F5F5F5"/>
<path d="M5.68752 0H20.3125C22.0466 0 23.5991 0.776293 24.6423 2.00002H1.35776C2.40091 0.776293 3.95344 0 5.68752 0Z" fill="#FF4B55"/>
<path d="M0 8.00008H26V9.99984H0V8.00008Z" fill="#FF4B55"/>
<path d="M0 5.6875C0 5.09991 0.0891209 4.53319 0.254566 4.00004H25.7454C25.9109 4.53319 26 5.09991 26 5.6875V6.00001H0V5.6875Z" fill="#FF4B55"/>
<path d="M0 12.0001H26V13.9999H0V12.0001Z" fill="#FF4B55"/>
<path d="M0 20.3125V20H26V20.3125C26 20.9001 25.9109 21.4668 25.7454 22H0.254566C0.0891209 21.4668 0 20.9001 0 20.3125Z" fill="#FF4B55"/>
<path d="M1.35771 24H24.6423C23.5991 25.2237 22.0466 26 20.3125 26H5.68752C3.95344 26 2.40091 25.2237 1.35771 24Z" fill="#FF4B55"/>
<path d="M0 16.0002H26V17.9999H0V16.0002Z" fill="#FF4B55"/>
<path d="M12 0H20.3125C23.4536 0 26 2.54638 26 5.6875V14H12V0Z" fill="#41479B"/>
<path d="M24.4892 2.18679C24.5025 2.22889 24.4546 2.26373 24.4186 2.23803L24.1412 2.03978L23.8638 2.23803C23.8279 2.26373 23.78 2.22889 23.7933 2.18679L23.8961 1.86169L23.6218 1.65913C23.5863 1.63287 23.6046 1.57655 23.6488 1.5762L23.9897 1.57356L24.0479 1.39907C24.194 1.52648 24.3334 1.66136 24.4658 1.80289L24.3862 1.86169L24.4892 2.18679Z" fill="#F5F5F5"/>
<path d="M24.0978 3.9485L23.99 4.27197L23.649 4.27461C23.6049 4.27497 23.5866 4.33129 23.6221 4.35754L23.8964 4.56011L23.7936 4.88521C23.7803 4.92731 23.8281 4.96209 23.8641 4.93645L24.1415 4.73815L24.4189 4.93645C24.4548 4.96214 24.5028 4.92731 24.4895 4.88521L24.3866 4.56011L24.661 4.35754C24.6965 4.33134 24.6782 4.27497 24.634 4.27461L24.2931 4.27197L24.1852 3.9485C24.1711 3.9066 24.1118 3.9066 24.0978 3.9485Z" fill="#F5F5F5"/>
<path d="M24.0978 6.94119L23.99 7.26466L23.649 7.26731C23.6049 7.26766 23.5866 7.32398 23.6221 7.35023L23.8964 7.5528L23.7936 7.8779C23.7803 7.92 23.8281 7.95478 23.8641 7.92914L24.1415 7.73089L24.4189 7.92914C24.4548 7.95478 24.5028 7.92 24.4895 7.8779L24.3866 7.5528L24.661 7.35023C24.6965 7.32403 24.6782 7.26766 24.634 7.26731L24.2931 7.26466L24.1852 6.94119C24.1711 6.89929 24.1118 6.89929 24.0978 6.94119Z" fill="#F5F5F5"/>
<path d="M24.0978 9.69079L23.99 10.0143L23.649 10.0169C23.6049 10.0173 23.5866 10.0736 23.6221 10.0998L23.8964 10.3024L23.7936 10.6275C23.7803 10.6696 23.8281 10.7044 23.8641 10.6787L24.1415 10.4804L24.4189 10.6787C24.4548 10.7044 24.5028 10.6696 24.4895 10.6275L24.3866 10.3024L24.661 10.0998C24.6965 10.0736 24.6782 10.0173 24.634 10.0169L24.2931 10.0143L24.1852 9.69079C24.1711 9.6489 24.1118 9.6489 24.0978 9.69079Z" fill="#F5F5F5"/>
<path d="M24.0978 12.1929L23.99 12.5164L23.649 12.519C23.6049 12.5194 23.5866 12.5757 23.6221 12.6019L23.8964 12.8045L23.7936 13.1296C23.7803 13.1717 23.8281 13.2065 23.8641 13.1808L24.1415 12.9826L24.4189 13.1808C24.4548 13.2065 24.5028 13.1717 24.4895 13.1296L24.3866 12.8045L24.661 12.6019C24.6965 12.5757 24.6782 12.5194 24.634 12.519L24.2931 12.5164L24.1852 12.1929C24.1711 12.151 24.1118 12.151 24.0978 12.1929Z" fill="#F5F5F5"/>
<path d="M22.7845 2.52794L22.6767 2.85142L22.3357 2.85406C22.2916 2.85441 22.2733 2.91073 22.3087 2.93693L22.5831 3.1395L22.4802 3.4646C22.4669 3.5067 22.5148 3.54154 22.5508 3.51584L22.8281 3.31754L23.1055 3.51584C23.1414 3.54154 23.1893 3.5067 23.176 3.4646L23.0732 3.1395L23.3475 2.93693C23.383 2.91073 23.3647 2.85436 23.3206 2.85406L22.9796 2.85142L22.8718 2.52794C22.8577 2.48605 22.7985 2.48605 22.7845 2.52794Z" fill="#F5F5F5"/>
<path d="M22.7844 5.52063L22.6766 5.84411L22.3356 5.84675C22.2915 5.84711 22.2732 5.90342 22.3086 5.92968L22.583 6.13224L22.4801 6.45734C22.4668 6.49944 22.5147 6.53428 22.5507 6.50858L22.8281 6.31028L23.1055 6.50858C23.1414 6.53428 23.1893 6.49944 23.176 6.45734L23.0732 6.13224L23.3475 5.92968C23.383 5.90347 23.3647 5.84711 23.3206 5.84675L22.9796 5.84411L22.8718 5.52063C22.8576 5.47874 22.7984 5.47874 22.7844 5.52063Z" fill="#F5F5F5"/>
<path d="M22.7844 8.36393L22.6766 8.6874L22.3356 8.69004C22.2915 8.6904 22.2732 8.74671 22.3086 8.77297L22.583 8.97553L22.4801 9.30064C22.4668 9.34273 22.5147 9.37752 22.5507 9.35188L22.8281 9.15357L23.1055 9.35188C23.1414 9.37757 23.1893 9.34273 23.176 9.30064L23.0732 8.97553L23.3475 8.77297C23.383 8.74677 23.3647 8.6904 23.3206 8.69004L22.9796 8.6874L22.8718 8.36393C22.8576 8.32208 22.7984 8.32208 22.7844 8.36393Z" fill="#F5F5F5"/>
<path d="M22.7844 10.9173L22.6766 11.2408L22.3356 11.2434C22.2915 11.2438 22.2732 11.3001 22.3086 11.3264L22.583 11.5289L22.4801 11.854C22.4668 11.8961 22.5147 11.931 22.5507 11.9053L22.8281 11.707L23.1055 11.9053C23.1414 11.931 23.1893 11.8961 23.176 11.854L23.0732 11.5289L23.3475 11.3264C23.383 11.3001 23.3647 11.2438 23.3206 11.2434L22.9796 11.2408L22.8718 10.9173C22.8576 10.8754 22.7984 10.8754 22.7844 10.9173Z" fill="#F5F5F5"/>
<path d="M21.4712 1.25013L21.3633 1.57361L21.0224 1.57625C20.9783 1.57661 20.9599 1.63292 20.9954 1.65913L21.2697 1.86169L21.1669 2.18679C21.1536 2.22889 21.2015 2.26368 21.2374 2.23803L21.5149 2.03973L21.7923 2.23803C21.8282 2.26373 21.8761 2.22889 21.8628 2.18679L21.76 1.86169L22.0342 1.65913C22.0697 1.63292 22.0515 1.57655 22.0073 1.57625L21.6664 1.57361L21.5585 1.25013C21.5444 1.20829 21.4851 1.20829 21.4712 1.25013Z" fill="#F5F5F5"/>
<path d="M21.4712 3.9485L21.3633 4.27197L21.0224 4.27461C20.9783 4.27497 20.9599 4.33129 20.9954 4.35754L21.2697 4.56011L21.1669 4.88521C21.1536 4.92731 21.2015 4.96209 21.2374 4.93645L21.5149 4.73815L21.7923 4.93645C21.8282 4.96214 21.8761 4.92731 21.8628 4.88521L21.76 4.56011L22.0342 4.35754C22.0697 4.33134 22.0515 4.27497 22.0073 4.27461L21.6664 4.27197L21.5585 3.9485C21.5444 3.9066 21.4851 3.9066 21.4712 3.9485Z" fill="#F5F5F5"/>
<path d="M21.4712 6.94119L21.3633 7.26466L21.0224 7.26731C20.9783 7.26766 20.9599 7.32398 20.9954 7.35023L21.2697 7.5528L21.1669 7.8779C21.1536 7.92 21.2015 7.95478 21.2374 7.92914L21.5149 7.73089L21.7923 7.92914C21.8282 7.95478 21.8761 7.92 21.8628 7.8779L21.76 7.5528L22.0342 7.35023C22.0697 7.32403 22.0515 7.26766 22.0073 7.26731L21.6664 7.26466L21.5585 6.94119C21.5444 6.89929 21.4851 6.89929 21.4712 6.94119Z" fill="#F5F5F5"/>
<path d="M21.4712 9.69079L21.3633 10.0143L21.0224 10.0169C20.9783 10.0173 20.9599 10.0736 20.9954 10.0998L21.2697 10.3024L21.1669 10.6275C21.1536 10.6696 21.2015 10.7044 21.2374 10.6787L21.5149 10.4804L21.7923 10.6787C21.8282 10.7044 21.8761 10.6696 21.8628 10.6275L21.76 10.3024L22.0342 10.0998C22.0697 10.0736 22.0515 10.0173 22.0073 10.0169L21.6664 10.0143L21.5585 9.69079C21.5444 9.6489 21.4851 9.6489 21.4712 9.69079Z" fill="#F5F5F5"/>
<path d="M21.4712 12.1929L21.3633 12.5164L21.0224 12.519C20.9783 12.5194 20.9599 12.5757 20.9954 12.6019L21.2697 12.8045L21.1669 13.1296C21.1536 13.1717 21.2015 13.2065 21.2374 13.1808L21.5149 12.9826L21.7923 13.1808C21.8282 13.2065 21.8761 13.1717 21.8628 13.1296L21.76 12.8045L22.0342 12.6019C22.0697 12.5757 22.0515 12.5194 22.0073 12.519L21.6664 12.5164L21.5585 12.1929C21.5444 12.151 21.4851 12.151 21.4712 12.1929Z" fill="#F5F5F5"/>
<path d="M20.1577 2.52794L20.0498 2.85142L19.7089 2.85406C19.6647 2.85441 19.6464 2.91073 19.6819 2.93693L19.9562 3.1395L19.8534 3.4646C19.8401 3.5067 19.888 3.54154 19.9239 3.51584L20.2013 3.31754L20.4787 3.51584C20.5147 3.54154 20.5626 3.5067 20.5493 3.4646L20.4465 3.1395L20.7208 2.93693C20.7563 2.91073 20.738 2.85436 20.6938 2.85406L20.3529 2.85142L20.245 2.52794C20.2308 2.48605 20.1716 2.48605 20.1577 2.52794Z" fill="#F5F5F5"/>
<path d="M20.1577 5.52063L20.0498 5.84411L19.7089 5.84675C19.6647 5.84711 19.6464 5.90342 19.6819 5.92968L19.9562 6.13224L19.8534 6.45734C19.8401 6.49944 19.888 6.53428 19.9239 6.50858L20.2013 6.31028L20.4787 6.50858C20.5147 6.53428 20.5626 6.49944 20.5493 6.45734L20.4465 6.13224L20.7208 5.92968C20.7563 5.90347 20.738 5.84711 20.6938 5.84675L20.3529 5.84411L20.245 5.52063C20.2308 5.47874 20.1716 5.47874 20.1577 5.52063Z" fill="#F5F5F5"/>
<path d="M20.1577 8.36393L20.0498 8.6874L19.7089 8.69004C19.6647 8.6904 19.6464 8.74671 19.6819 8.77297L19.9562 8.97553L19.8534 9.30064C19.8401 9.34273 19.888 9.37752 19.9239 9.35188L20.2013 9.15357L20.4787 9.35188C20.5147 9.37757 20.5626 9.34273 20.5493 9.30064L20.4465 8.97553L20.7208 8.77297C20.7563 8.74677 20.738 8.6904 20.6938 8.69004L20.3529 8.6874L20.245 8.36393C20.2308 8.32208 20.1716 8.32208 20.1577 8.36393Z" fill="#F5F5F5"/>
<path d="M20.1577 10.9173L20.0498 11.2408L19.7089 11.2434C19.6647 11.2438 19.6464 11.3001 19.6819 11.3264L19.9562 11.5289L19.8534 11.854C19.8401 11.8961 19.888 11.931 19.9239 11.9053L20.2013 11.707L20.4787 11.9053C20.5147 11.931 20.5626 11.8961 20.5493 11.854L20.4465 11.5289L20.7208 11.3264C20.7563 11.3001 20.738 11.2438 20.6938 11.2434L20.3529 11.2408L20.245 10.9173C20.2308 10.8754 20.1716 10.8754 20.1577 10.9173Z" fill="#F5F5F5"/>
<path d="M18.8445 1.25013L18.7366 1.57361L18.3957 1.57625C18.3515 1.57661 18.3332 1.63292 18.3688 1.65913L18.643 1.86169L18.5402 2.18679C18.5269 2.22889 18.5748 2.26368 18.6107 2.23803L18.8881 2.03973L19.1656 2.23803C19.2015 2.26373 19.2494 2.22889 19.2361 2.18679L19.1333 1.86169L19.4075 1.65913C19.443 1.63292 19.4248 1.57655 19.3806 1.57625L19.0396 1.57361L18.9318 1.25013C18.9177 1.20829 18.8584 1.20829 18.8445 1.25013Z" fill="#F5F5F5"/>
<path d="M18.8443 3.9485L18.7364 4.27197L18.3955 4.27461C18.3514 4.27497 18.333 4.33129 18.3686 4.35754L18.6428 4.56011L18.54 4.88516C18.5266 4.92725 18.5745 4.96204 18.6105 4.93639L18.8879 4.73809L19.1653 4.93639C19.2012 4.96209 19.2492 4.92725 19.2359 4.88516L19.133 4.56005L19.4073 4.35749C19.4428 4.33129 19.4245 4.27492 19.3803 4.27456L19.0394 4.27192L18.9315 3.94844C18.9175 3.9066 18.8582 3.9066 18.8443 3.9485Z" fill="#F5F5F5"/>
<path d="M18.8445 6.94119L18.7366 7.26466L18.3957 7.26731C18.3515 7.26766 18.3332 7.32398 18.3688 7.35023L18.643 7.5528L18.5402 7.8779C18.5269 7.92 18.5748 7.95478 18.6107 7.92914L18.8881 7.73089L19.1656 7.92914C19.2015 7.95478 19.2494 7.92 19.2361 7.8779L19.1333 7.5528L19.4075 7.35023C19.443 7.32403 19.4248 7.26766 19.3806 7.26731L19.0396 7.26466L18.9318 6.94119C18.9177 6.89929 18.8584 6.89929 18.8445 6.94119Z" fill="#F5F5F5"/>
<path d="M18.8445 9.69079L18.7366 10.0143L18.3957 10.0169C18.3515 10.0173 18.3332 10.0736 18.3688 10.0998L18.643 10.3024L18.5402 10.6275C18.5269 10.6696 18.5748 10.7044 18.6107 10.6787L18.8881 10.4804L19.1656 10.6787C19.2015 10.7044 19.2494 10.6696 19.2361 10.6275L19.1333 10.3024L19.4075 10.0998C19.443 10.0736 19.4248 10.0173 19.3806 10.0169L19.0396 10.0143L18.9318 9.69079C18.9177 9.6489 18.8584 9.6489 18.8445 9.69079Z" fill="#F5F5F5"/>
<path d="M18.8445 12.1929L18.7366 12.5164L18.3957 12.519C18.3515 12.5194 18.3332 12.5757 18.3688 12.6019L18.643 12.8045L18.5402 13.1296C18.5269 13.1717 18.5748 13.2065 18.6107 13.1808L18.8881 12.9826L19.1656 13.1808C19.2015 13.2065 19.2494 13.1717 19.2361 13.1296L19.1333 12.8045L19.4075 12.6019C19.443 12.5757 19.4248 12.5194 19.3806 12.519L19.0396 12.5164L18.9318 12.1929C18.9177 12.151 18.8584 12.151 18.8445 12.1929Z" fill="#F5F5F5"/>
<path d="M17.5312 2.52794L17.4233 2.85142L17.0824 2.85406C17.0383 2.85441 17.0199 2.91073 17.0555 2.93693L17.3298 3.1395L17.227 3.4646C17.2137 3.5067 17.2616 3.54154 17.2975 3.51584L17.5749 3.31754L17.8523 3.51584C17.8882 3.54154 17.9362 3.5067 17.9229 3.4646L17.82 3.1395L18.0943 2.93693C18.1298 2.91073 18.1115 2.85436 18.0674 2.85406L17.7264 2.85142L17.6186 2.52794C17.6044 2.48605 17.5452 2.48605 17.5312 2.52794Z" fill="#F5F5F5"/>
<path d="M17.5312 5.52063L17.4233 5.84411L17.0824 5.84675C17.0383 5.84711 17.0199 5.90342 17.0555 5.92968L17.3298 6.13224L17.227 6.45734C17.2137 6.49944 17.2616 6.53428 17.2975 6.50858L17.5749 6.31028L17.8523 6.50858C17.8882 6.53428 17.9362 6.49944 17.9229 6.45734L17.82 6.13224L18.0943 5.92968C18.1298 5.90347 18.1115 5.84711 18.0674 5.84675L17.7264 5.84411L17.6186 5.52063C17.6044 5.47874 17.5452 5.47874 17.5312 5.52063Z" fill="#F5F5F5"/>
<path d="M17.5312 8.36393L17.4233 8.6874L17.0824 8.69004C17.0383 8.6904 17.0199 8.74671 17.0555 8.77297L17.3298 8.97553L17.227 9.30064C17.2137 9.34273 17.2616 9.37752 17.2975 9.35188L17.5749 9.15357L17.8523 9.35188C17.8882 9.37757 17.9362 9.34273 17.9229 9.30064L17.82 8.97553L18.0943 8.77297C18.1298 8.74677 18.1115 8.6904 18.0674 8.69004L17.7264 8.6874L17.6186 8.36393C17.6044 8.32208 17.5452 8.32208 17.5312 8.36393Z" fill="#F5F5F5"/>
<path d="M17.5312 10.9173L17.4233 11.2408L17.0824 11.2434C17.0383 11.2438 17.0199 11.3001 17.0555 11.3264L17.3298 11.5289L17.227 11.854C17.2137 11.8961 17.2616 11.931 17.2975 11.9053L17.5749 11.707L17.8523 11.9053C17.8882 11.931 17.9362 11.8961 17.9229 11.854L17.82 11.5289L18.0943 11.3264C18.1298 11.3001 18.1115 11.2438 18.0674 11.2434L17.7264 11.2408L17.6186 10.9173C17.6044 10.8754 17.5452 10.8754 17.5312 10.9173Z" fill="#F5F5F5"/>
<path d="M16.2177 1.25013L16.1098 1.57361L15.7689 1.57625C15.7247 1.57661 15.7064 1.63292 15.7419 1.65913L16.0163 1.86169L15.9134 2.18679C15.9001 2.22889 15.9481 2.26368 15.984 2.23803L16.2614 2.03973L16.5388 2.23803C16.5747 2.26373 16.6226 2.22889 16.6093 2.18679L16.5065 1.86169L16.7808 1.65913C16.8163 1.63292 16.798 1.57655 16.7539 1.57625L16.4129 1.57361L16.3051 1.25013C16.2908 1.20829 16.2316 1.20829 16.2177 1.25013Z" fill="#F5F5F5"/>
<path d="M16.2177 3.9485L16.1098 4.27197L15.7689 4.27461C15.7247 4.27497 15.7064 4.33129 15.7419 4.35754L16.0163 4.56011L15.9134 4.88521C15.9001 4.92731 15.9481 4.96209 15.984 4.93645L16.2614 4.73815L16.5388 4.93645C16.5747 4.96214 16.6226 4.92731 16.6093 4.88521L16.5065 4.56011L16.7808 4.35754C16.8163 4.33134 16.798 4.27497 16.7539 4.27461L16.4129 4.27197L16.3051 3.9485C16.2908 3.9066 16.2316 3.9066 16.2177 3.9485Z" fill="#F5F5F5"/>
<path d="M16.2177 6.94119L16.1098 7.26466L15.7689 7.26731C15.7247 7.26766 15.7064 7.32398 15.7419 7.35023L16.0163 7.5528L15.9134 7.8779C15.9001 7.92 15.9481 7.95478 15.984 7.92914L16.2614 7.73089L16.5388 7.92914C16.5747 7.95478 16.6226 7.92 16.6093 7.8779L16.5065 7.5528L16.7808 7.35023C16.8163 7.32403 16.798 7.26766 16.7539 7.26731L16.4129 7.26466L16.3051 6.94119C16.2908 6.89929 16.2316 6.89929 16.2177 6.94119Z" fill="#F5F5F5"/>
<path d="M16.2177 9.69079L16.1098 10.0143L15.7689 10.0169C15.7247 10.0173 15.7064 10.0736 15.7419 10.0998L16.0163 10.3024L15.9134 10.6275C15.9001 10.6696 15.9481 10.7044 15.984 10.6787L16.2614 10.4804L16.5388 10.6787C16.5747 10.7044 16.6226 10.6696 16.6093 10.6275L16.5065 10.3024L16.7808 10.0998C16.8163 10.0736 16.798 10.0173 16.7539 10.0169L16.4129 10.0143L16.3051 9.69079C16.2908 9.6489 16.2316 9.6489 16.2177 9.69079Z" fill="#F5F5F5"/>
<path d="M16.2177 12.1929L16.1098 12.5164L15.7689 12.519C15.7247 12.5194 15.7064 12.5757 15.7419 12.6019L16.0163 12.8045L15.9134 13.1296C15.9001 13.1717 15.9481 13.2065 15.984 13.1808L16.2614 12.9826L16.5388 13.1808C16.5747 13.2065 16.6226 13.1717 16.6093 13.1296L16.5065 12.8045L16.7808 12.6019C16.8163 12.5757 16.798 12.5194 16.7539 12.519L16.4129 12.5164L16.3051 12.1929C16.2908 12.151 16.2316 12.151 16.2177 12.1929Z" fill="#F5F5F5"/>
<path d="M14.9045 2.52794L14.7966 2.85142L14.4556 2.85406C14.4115 2.85441 14.3932 2.91073 14.4287 2.93693L14.703 3.1395L14.6002 3.4646C14.5869 3.5067 14.6348 3.54154 14.6707 3.51584L14.9482 3.31754L15.2256 3.51584C15.2615 3.54154 15.3094 3.5067 15.2961 3.4646L15.1933 3.1395L15.4676 2.93693C15.5031 2.91073 15.4848 2.85436 15.4407 2.85406L15.0997 2.85142L14.9918 2.52794C14.9777 2.48605 14.9184 2.48605 14.9045 2.52794Z" fill="#F5F5F5"/>
<path d="M14.9045 5.52063L14.7966 5.84411L14.4556 5.84675C14.4115 5.84711 14.3932 5.90342 14.4287 5.92968L14.703 6.13224L14.6002 6.45734C14.5869 6.49944 14.6348 6.53428 14.6707 6.50858L14.9482 6.31028L15.2256 6.50858C15.2615 6.53428 15.3094 6.49944 15.2961 6.45734L15.1933 6.13224L15.4676 5.92968C15.5031 5.90347 15.4848 5.84711 15.4407 5.84675L15.0997 5.84411L14.9918 5.52063C14.9777 5.47874 14.9184 5.47874 14.9045 5.52063Z" fill="#F5F5F5"/>
<path d="M14.9045 8.36393L14.7966 8.6874L14.4556 8.69004C14.4115 8.6904 14.3932 8.74671 14.4287 8.77297L14.703 8.97553L14.6002 9.30064C14.5869 9.34273 14.6348 9.37752 14.6707 9.35188L14.9482 9.15357L15.2256 9.35188C15.2615 9.37757 15.3094 9.34273 15.2961 9.30064L15.1933 8.97553L15.4676 8.77297C15.5031 8.74677 15.4848 8.6904 15.4407 8.69004L15.0997 8.6874L14.9918 8.36393C14.9777 8.32208 14.9184 8.32208 14.9045 8.36393Z" fill="#F5F5F5"/>
<path d="M14.9045 10.9173L14.7966 11.2408L14.4556 11.2434C14.4115 11.2438 14.3932 11.3001 14.4287 11.3264L14.703 11.5289L14.6002 11.854C14.5869 11.8961 14.6348 11.931 14.6707 11.9053L14.9482 11.707L15.2256 11.9053C15.2615 11.931 15.3094 11.8961 15.2961 11.854L15.1933 11.5289L15.4676 11.3264C15.5031 11.3001 15.4848 11.2438 15.4407 11.2434L15.0997 11.2408L14.9918 10.9173C14.9777 10.8754 14.9184 10.8754 14.9045 10.9173Z" fill="#F5F5F5"/>
<path d="M13.591 1.25013L13.4831 1.57361L13.1422 1.57625C13.0981 1.57661 13.0797 1.63292 13.1152 1.65913L13.3896 1.86169L13.2867 2.18679C13.2734 2.22889 13.3214 2.26368 13.3573 2.23803L13.6347 2.03973L13.9121 2.23803C13.948 2.26373 13.9959 2.22889 13.9826 2.18679L13.8798 1.86169L14.1541 1.65913C14.1896 1.63292 14.1713 1.57655 14.1272 1.57625L13.7863 1.57361L13.6784 1.25013C13.6642 1.20829 13.605 1.20829 13.591 1.25013Z" fill="#F5F5F5"/>
<path d="M13.591 3.9485L13.4831 4.27197L13.1422 4.27461C13.0981 4.27497 13.0797 4.33129 13.1152 4.35754L13.3896 4.56011L13.2867 4.88521C13.2734 4.92731 13.3214 4.96209 13.3573 4.93645L13.6347 4.73815L13.9121 4.93645C13.948 4.96214 13.9959 4.92731 13.9826 4.88521L13.8798 4.56011L14.1541 4.35754C14.1896 4.33134 14.1713 4.27497 14.1272 4.27461L13.7863 4.27197L13.6784 3.9485C13.6642 3.9066 13.605 3.9066 13.591 3.9485Z" fill="#F5F5F5"/>
<path d="M13.591 6.94119L13.4831 7.26466L13.1422 7.26731C13.0981 7.26766 13.0797 7.32398 13.1152 7.35023L13.3896 7.5528L13.2867 7.8779C13.2734 7.92 13.3214 7.95478 13.3573 7.92914L13.6347 7.73089L13.9121 7.92914C13.948 7.95478 13.9959 7.92 13.9826 7.8779L13.8798 7.5528L14.1541 7.35023C14.1896 7.32403 14.1713 7.26766 14.1272 7.26731L13.7863 7.26466L13.6784 6.94119C13.6642 6.89929 13.605 6.89929 13.591 6.94119Z" fill="#F5F5F5"/>
<path d="M13.591 9.69079L13.4831 10.0143L13.1422 10.0169C13.0981 10.0173 13.0797 10.0736 13.1152 10.0998L13.3896 10.3024L13.2867 10.6275C13.2734 10.6696 13.3214 10.7044 13.3573 10.6787L13.6347 10.4804L13.9121 10.6787C13.948 10.7044 13.9959 10.6696 13.9826 10.6275L13.8798 10.3024L14.1541 10.0998C14.1896 10.0736 14.1713 10.0173 14.1272 10.0169L13.7863 10.0143L13.6784 9.69079C13.6642 9.6489 13.605 9.6489 13.591 9.69079Z" fill="#F5F5F5"/>
<path d="M13.591 12.1929L13.4831 12.5164L13.1422 12.519C13.0981 12.5194 13.0797 12.5757 13.1152 12.6019L13.3896 12.8045L13.2867 13.1296C13.2734 13.1717 13.3214 13.2065 13.3573 13.1808L13.6347 12.9826L13.9121 13.1808C13.948 13.2065 13.9959 13.1717 13.9826 13.1296L13.8798 12.8045L14.1541 12.6019C14.1896 12.5757 14.1713 12.5194 14.1272 12.519L13.7863 12.5164L13.6784 12.1929C13.6642 12.151 13.605 12.151 13.591 12.1929Z" fill="#F5F5F5"/>
</svg>
