<svg width="45" height="45" viewBox="0 0 45 45" fill="none" xmlns="http://www.w3.org/2000/svg">
<circle cx="22.5" cy="22.5" r="22.5" fill="#5467FF"/>
<path d="M15.3779 19.8313L12.2089 20.9923L13.4082 24.2659L11.7577 24.8706L8.82289 16.86L14.0386 14.9492L14.5284 16.2861L10.9632 17.5922L11.7211 19.6609L14.8901 18.4999L15.3779 19.8313ZM19.3935 17.0123C19.1663 17.0622 18.9702 17.1174 18.8052 17.1779C18.2036 17.3983 17.8839 17.7463 17.846 18.222L19.2731 22.1172L17.6831 22.6997L15.5021 16.7468L17.0041 16.1966L17.3082 16.8902C17.427 16.2268 17.7689 15.7916 18.3338 15.5846C18.5098 15.5201 18.6836 15.4835 18.8551 15.4748L19.3935 17.0123ZM24.4685 20.3386C23.5956 20.6584 22.7859 20.6514 22.0396 20.3174C21.2969 19.9821 20.7623 19.3689 20.4357 18.4776L20.3793 18.3235C20.1603 17.7257 20.0803 17.1497 20.1394 16.5955C20.1971 16.0377 20.3905 15.555 20.7196 15.1474C21.051 14.7348 21.4881 14.429 22.0309 14.2301C22.8452 13.9318 23.5793 13.9541 24.2333 14.2969C24.8909 14.6384 25.3923 15.2805 25.7377 16.2231L25.9755 16.8723L22.1848 18.2611C22.3786 18.6311 22.6469 18.8864 22.9896 19.0271C23.336 19.1664 23.7073 19.1635 24.1034 19.0184C24.716 18.794 25.1133 18.3967 25.2955 17.8266L26.3972 18.4152C26.2825 18.84 26.0564 19.2223 25.7192 19.5622C25.3806 19.8984 24.9637 20.1572 24.4685 20.3386ZM22.4971 15.5196C22.1817 15.6351 21.9639 15.8356 21.8438 16.1208C21.7273 16.4048 21.7141 16.7549 21.8042 17.1712L24.016 16.3609L23.9696 16.2344C23.8333 15.885 23.6385 15.6485 23.3852 15.5249C23.1306 15.3977 22.8345 15.3959 22.4971 15.5196ZM30.5645 18.1053C29.6916 18.4251 28.8819 18.418 28.1355 18.0841C27.3928 17.7488 26.8582 17.1355 26.5317 16.2442L26.4753 16.0902C26.2562 15.4923 26.1762 14.9163 26.2353 14.3622C26.293 13.8044 26.4865 13.3217 26.8155 12.9141C27.1469 12.5014 27.5841 12.1957 28.1269 11.9968C28.9412 11.6985 29.6753 11.7208 30.3292 12.0636C30.9868 12.4051 31.4883 13.0472 31.8337 13.9898L32.0715 14.639L28.2808 16.0278C28.4746 16.3978 28.7428 16.6531 29.0856 16.7938C29.432 16.9331 29.8033 16.9302 30.1994 16.7851C30.8119 16.5607 31.2093 16.1634 31.3915 15.5933L32.4932 16.1818C32.3784 16.6066 32.1524 16.989 31.8151 17.3289C31.4765 17.6651 31.0597 17.9239 30.5645 18.1053ZM28.5931 13.2862C28.2776 13.4018 28.0599 13.6022 27.9397 13.8875C27.8233 14.1715 27.8101 14.5216 27.9002 14.9379L30.1119 14.1276L30.0656 14.0011C29.9292 13.6516 29.7344 13.4151 29.4811 13.2916C29.2265 13.1644 28.9305 13.1626 28.5931 13.2862ZM18.5186 25.4742L16.0648 26.3732L18.5097 33.0469L16.8592 33.6516L14.4142 26.9779L11.9935 27.8648L11.5037 26.5279L18.0288 24.1373L18.5186 25.4742ZM23.1526 26.2851C22.9254 26.335 22.7293 26.3902 22.5643 26.4507C21.9627 26.6711 21.643 27.0191 21.6051 27.4948L23.0322 31.39L21.4422 31.9725L19.2613 26.0196L20.7633 25.4693L21.0673 26.163C21.1862 25.4995 21.528 25.0644 22.0929 24.8574C22.2689 24.7929 22.4427 24.7563 22.6142 24.7475L23.1526 26.2851ZM27.2356 29.8501L25.64 30.4346L23.4591 24.4817L25.0546 23.8972L27.2356 29.8501ZM22.8012 22.9755C22.7139 22.737 22.7208 22.5119 22.8221 22.3001C22.9271 22.0869 23.1171 21.9299 23.3922 21.8292C23.6636 21.7297 23.9082 21.7275 24.126 21.8224C24.3439 21.9173 24.4964 22.084 24.5838 22.3224C24.6725 22.5645 24.6625 22.7928 24.5539 23.0073C24.4489 23.2205 24.2626 23.3761 23.9948 23.4742C23.7271 23.5723 23.4825 23.5745 23.261 23.481C23.0432 23.386 22.8899 23.2175 22.8012 22.9755ZM32.0001 28.1045C31.8743 27.9884 31.756 27.8299 31.645 27.6293C31.4171 28.1995 30.9951 28.5975 30.3789 28.8233C29.7957 29.0369 29.2497 29.0456 28.741 28.8492C28.2359 28.6516 27.8893 28.296 27.7011 27.7825C27.47 27.1516 27.5256 26.5821 27.8677 26.074C28.2136 25.5646 28.8278 25.1461 29.7104 24.8186L30.4422 24.5505L30.3172 24.2094C30.2164 23.9343 30.0643 23.7404 29.8608 23.6278C29.6609 23.5138 29.4088 23.5126 29.1043 23.6241C28.8366 23.7222 28.6492 23.8636 28.5422 24.0485C28.4388 24.2319 28.4281 24.4355 28.5101 24.6593L26.9201 25.2418C26.7938 24.897 26.7833 24.5389 26.8885 24.1676C26.9937 23.7962 27.2105 23.4568 27.5388 23.1493C27.8658 22.8381 28.2714 22.5939 28.7555 22.4165C29.4891 22.1477 30.1383 22.12 30.7032 22.3332C31.2703 22.5414 31.6762 22.9793 31.9208 23.6469L32.8661 26.2272C33.0767 26.7907 33.3121 27.1891 33.5723 27.4224L33.6066 27.516L32.0001 28.1045ZM30.28 27.4804C30.5148 27.3944 30.7124 27.2638 30.8728 27.0885C31.0319 26.9096 31.1269 26.7146 31.1577 26.5036L30.7828 25.4803L30.1886 25.698C29.3927 25.9896 29.0699 26.4199 29.2201 26.9889L29.2488 27.0844C29.3214 27.2825 29.4509 27.4202 29.6373 27.4975C29.8237 27.5748 30.0379 27.5691 30.28 27.4804ZM36.2695 26.5404L34.6739 27.1249L31.5779 18.6742L33.1734 18.0897L36.2695 26.5404Z" fill="white"/>
</svg>
