<svg width="20" height="14" viewBox="0 0 20 14" fill="none" xmlns="http://www.w3.org/2000/svg">
<path d="M2.05023 9.05023C2.81266 8.28784 3.72014 7.72343 4.71026 7.38177C3.64982 6.65139 2.95312 5.42905 2.95312 4.04688C2.95312 1.81543 4.76856 0 7 0C9.23144 0 11.0469 1.81543 11.0469 4.04688C11.0469 5.42905 10.3502 6.65139 9.28971 7.38177C10.2798 7.72343 11.1873 8.28784 11.9497 9.05023C13.2719 10.3724 14 12.1302 14 14H12.9062C12.9062 10.7433 10.2567 8.09375 7 8.09375C3.74328 8.09375 1.09375 10.7433 1.09375 14H0C0 12.1302 0.728137 10.3724 2.05023 9.05023ZM7 7C8.62835 7 9.95312 5.67525 9.95312 4.04688C9.95312 2.4185 8.62835 1.09375 7 1.09375C5.37165 1.09375 4.04688 2.4185 4.04688 4.04688C4.04688 5.67525 5.37165 7 7 7Z" fill="white"/>
<path d="M11.4645 10.4645C12.009 9.91988 12.6572 9.51674 13.3645 9.2727C12.607 8.751 12.1094 7.87789 12.1094 6.89062C12.1094 5.29674 13.4061 4 15 4C16.5939 4 17.8906 5.29674 17.8906 6.89062C17.8906 7.87789 17.393 8.751 16.6355 9.2727C17.3427 9.51674 17.9909 9.91988 18.5355 10.4645C19.4799 11.4088 20 12.6645 20 14H19.2188C19.2188 11.6738 17.3262 9.78125 15 9.78125C12.6738 9.78125 10.7812 11.6738 10.7812 14H10C10 12.6645 10.5201 11.4088 11.4645 10.4645ZM15 9C16.1631 9 17.1094 8.05375 17.1094 6.89062C17.1094 5.7275 16.1631 4.78125 15 4.78125C13.8369 4.78125 12.8906 5.7275 12.8906 6.89062C12.8906 8.05375 13.8369 9 15 9Z" fill="white"/>
</svg>
