<svg width="16" height="16" viewBox="0 0 16 16" fill="none" xmlns="http://www.w3.org/2000/svg">
<path d="M4.26628 1.06667H4.79957V1.6H4.26628V1.06667Z" fill="white"/>
<path d="M5.33285 1.06667H7.46599V1.6H5.33285V1.06667Z" fill="white"/>
<path d="M10.399 11.4667C10.3986 11.8202 10.258 12.1591 10.0081 12.409C9.75816 12.659 9.4193 12.7996 9.06584 12.8H4.19482L5.11154 11.2123C5.08254 11.294 5.06723 11.38 5.06621 11.4667C5.06621 11.6788 5.15049 11.8823 5.3005 12.0324C5.45052 12.1824 5.65398 12.2667 5.86614 12.2667H6.9327C7.14486 12.2667 7.34832 12.1824 7.49834 12.0324C7.64835 11.8823 7.73263 11.6788 7.73263 11.4667C7.73263 11.2545 7.64835 11.051 7.49834 10.901C7.34832 10.751 7.14486 10.6667 6.9327 10.6667H5.86614C5.73917 10.6669 5.6141 10.6974 5.50132 10.7557C5.38853 10.814 5.29128 10.8984 5.21766 11.0019C5.32355 10.7524 5.33026 10.4719 5.2364 10.2176C5.14255 9.96338 4.95522 9.75453 4.71263 9.63371C4.47005 9.51288 4.19051 9.48919 3.93106 9.56747C3.6716 9.64575 3.4518 9.8201 3.3165 10.0549L2.40992 11.6261C2.40334 11.5732 2.39996 11.52 2.39979 11.4667V1.86667C2.40021 1.51317 2.54081 1.17428 2.79075 0.924325C3.04068 0.674369 3.37954 0.533757 3.733 0.533333H9.06584C9.29975 0.533877 9.52944 0.595715 9.73201 0.712686C9.93459 0.829656 10.103 0.997675 10.2204 1.2L10.682 0.933333C10.5176 0.650117 10.2819 0.414916 9.99833 0.251159C9.71478 0.087403 9.39327 0.000807692 9.06584 0H3.733C3.23815 0.00056463 2.76373 0.197412 2.41381 0.547358C2.0639 0.897303 1.86707 1.37177 1.86651 1.86667V7.01333C1.69682 7.09231 1.5602 7.22828 1.48041 7.3976L0.270121 10.0235C0.0909551 10.4086 -0.00126168 10.8285 1.30373e-05 11.2533V16H0.533297V11.2533C0.532107 10.906 0.607489 10.5626 0.754076 10.2477L1.86651 7.83387V11.4667C1.86632 11.7852 1.94795 12.0984 2.10355 12.3763C2.12363 12.4212 2.15576 12.4598 2.19638 12.4876C2.23701 12.5154 2.28454 12.5314 2.33371 12.5339C2.38289 12.5363 2.43178 12.5251 2.47498 12.5015C2.51817 12.4779 2.55398 12.4427 2.57844 12.4L3.77833 10.3216C3.84955 10.2001 3.96593 10.1117 4.10208 10.0757C4.23822 10.0397 4.38308 10.059 4.50503 10.1295C4.62699 10.1999 4.71614 10.3157 4.75304 10.4516C4.78993 10.5875 4.77158 10.7325 4.70198 10.8549L3.50209 12.9333C3.47825 12.9746 3.4659 13.0215 3.46632 13.0691C3.46674 13.1168 3.47992 13.1634 3.50449 13.2043L4.07563 14.1536C4.20022 14.3613 4.26611 14.5989 4.26628 14.8411V15.9973H4.79957V14.8411C4.79953 14.5021 4.70736 14.1695 4.53293 13.8789L4.20469 13.3333H9.06584C9.56069 13.3328 10.0351 13.1359 10.385 12.786C10.7349 12.436 10.9318 11.9616 10.9323 11.4667V10.1333H10.399V11.4667ZM5.86614 11.2H6.9327C7.00342 11.2 7.07124 11.2281 7.12125 11.2781C7.17125 11.3281 7.19935 11.3959 7.19935 11.4667C7.19935 11.5374 7.17125 11.6052 7.12125 11.6552C7.07124 11.7052 7.00342 11.7333 6.9327 11.7333H5.86614C5.79542 11.7333 5.7276 11.7052 5.67759 11.6552C5.62759 11.6052 5.59949 11.5374 5.59949 11.4667C5.59949 11.3959 5.62759 11.3281 5.67759 11.2781C5.7276 11.2281 5.79542 11.2 5.86614 11.2Z" fill="white"/>
<path d="M15.2279 3.152C14.6283 2.29357 13.7339 1.68566 12.715 1.44403C11.6962 1.2024 10.6241 1.34392 9.70287 1.84165C8.78162 2.33937 8.07556 3.15854 7.71913 4.14318C7.36271 5.12782 7.38079 6.20917 7.76996 7.18133L6.86871 8.70933C6.84271 8.75332 6.8299 8.80384 6.83179 8.8549C6.83368 8.90596 6.8502 8.9554 6.87937 8.99733C6.90931 9.03919 6.95051 9.07169 6.99818 9.09104C7.04586 9.1104 7.09805 9.11582 7.14868 9.10667L8.88985 8.78133C9.48109 9.31139 10.209 9.6652 10.991 9.80267C11.2367 9.84492 11.4856 9.86633 11.7349 9.86667C12.5154 9.86645 13.2808 9.65213 13.9479 9.24704C14.615 8.84195 15.1582 8.26161 15.5184 7.5692C15.8786 6.87678 16.042 6.09881 15.9908 5.31997C15.9396 4.54113 15.6757 3.79127 15.2279 3.152ZM15.4093 6.248C15.292 6.91323 14.9964 7.53417 14.5541 8.04467C14.1118 8.55515 13.5393 8.93606 12.8975 9.14679C12.2558 9.35753 11.569 9.39019 10.9101 9.2413C10.2513 9.09241 9.64526 8.76755 9.1565 8.30133C9.10649 8.25491 9.04074 8.22918 8.97251 8.22933C8.95647 8.22889 8.94042 8.22978 8.92452 8.232L7.62597 8.47467L8.29791 7.33867C8.3188 7.30208 8.33109 7.26122 8.33386 7.21918C8.33664 7.17714 8.32981 7.13502 8.31391 7.096C8.01651 6.42294 7.92646 5.67649 8.05527 4.952C8.22711 3.97671 8.77931 3.10964 9.59039 2.54153C9.992 2.26023 10.4451 2.06079 10.9238 1.95461C11.4024 1.84842 11.8973 1.83757 12.3802 1.92267C12.8631 2.00776 13.3244 2.18714 13.738 2.45057C14.1516 2.71399 14.5092 3.05629 14.7904 3.45794C15.0717 3.85958 15.2711 4.3127 15.3773 4.79142C15.4835 5.27014 15.4943 5.76509 15.4093 6.248Z" fill="white"/>
<path d="M13.5988 4H12.7988V3.73333C12.7988 3.45044 12.6865 3.17913 12.4864 2.97909C12.2864 2.77905 12.0151 2.66667 11.7323 2.66667C11.4494 2.66667 11.1781 2.77905 10.9781 2.97909C10.7781 3.17913 10.6657 3.45044 10.6657 3.73333V4H9.86576C9.79505 4 9.72722 4.0281 9.67722 4.0781C9.62721 4.12811 9.59912 4.19594 9.59912 4.26667V7.46667C9.59976 7.67865 9.68424 7.88176 9.83411 8.03165C9.98399 8.18155 10.1871 8.26603 10.399 8.26667H13.0655C13.2774 8.26603 13.4805 8.18155 13.6304 8.03165C13.7803 7.88176 13.8648 7.67865 13.8654 7.46667V4.26667C13.8654 4.19594 13.8373 4.12811 13.7873 4.0781C13.7373 4.0281 13.6695 4 13.5988 4ZM11.199 3.73333C11.199 3.59188 11.2552 3.45623 11.3552 3.35621C11.4552 3.25619 11.5908 3.2 11.7323 3.2C11.8737 3.2 12.0093 3.25619 12.1093 3.35621C12.2094 3.45623 12.2655 3.59188 12.2655 3.73333V4H11.199V3.73333ZM13.3321 7.46667C13.3321 7.53739 13.304 7.60522 13.254 7.65523C13.204 7.70524 13.1362 7.73333 13.0655 7.73333H10.399C10.3283 7.73333 10.2605 7.70524 10.2105 7.65523C10.1605 7.60522 10.1324 7.53739 10.1324 7.46667V7.2H13.3321V7.46667ZM13.3321 6.66667H10.1324V4.53333H10.6657V5.06667H11.199V4.53333H12.2655V5.06667H12.7988V4.53333H13.3321V6.66667Z" fill="white"/>
<path d="M5.41098 3.5448L5.00035 3.95547C4.72395 3.77251 4.38946 3.69873 4.06176 3.74844C3.73405 3.79816 3.43648 3.96782 3.22677 4.22452C3.01706 4.48122 2.91015 4.80666 2.92677 5.13773C2.9434 5.4688 3.08237 5.78189 3.31675 6.01629C3.55112 6.25069 3.86419 6.38968 4.19523 6.4063C4.52626 6.42293 4.85168 6.31601 5.10836 6.10628C5.36503 5.89654 5.53468 5.59895 5.58438 5.27121C5.63409 4.94348 5.56032 4.60896 5.37738 4.33253L5.78801 3.92187L5.41098 3.5448ZM5.06621 5.06667C5.06621 5.22489 5.01929 5.37956 4.9314 5.51112C4.8435 5.64268 4.71857 5.74522 4.5724 5.80577C4.42623 5.86632 4.2654 5.88216 4.11023 5.8513C3.95506 5.82043 3.81252 5.74423 3.70065 5.63235C3.58878 5.52047 3.51259 5.37792 3.48173 5.22274C3.45086 5.06755 3.4667 4.9067 3.52725 4.76052C3.58779 4.61434 3.69032 4.4894 3.82187 4.40149C3.95342 4.31359 4.10807 4.26667 4.26628 4.26667C4.38507 4.26713 4.50221 4.29448 4.60892 4.34667L3.81113 5.14453L4.18816 5.5216L4.98622 4.724C5.0384 4.83072 5.06575 4.94787 5.06621 5.06667Z" fill="white"/>
<path d="M6.13278 4.26667H7.19935V4.8H6.13278V4.26667Z" fill="white"/>
<path d="M6.13278 5.33333H7.19935V5.86667H6.13278V5.33333Z" fill="white"/>
</svg>
