<svg width="16" height="12" viewBox="0 0 16 12" fill="none" xmlns="http://www.w3.org/2000/svg">
<path d="M0 2.00107V9.99893C0 11.101 0.910463 12 2.02651 12H8.57271C9.68876 12 10.5992 11.101 10.5992 9.99893V8.70354C10.5992 8.48442 10.4197 8.3072 10.1978 8.3072C9.97593 8.3072 9.79645 8.48442 9.79645 8.70354V9.99893C9.79645 10.6659 9.24495 11.2105 8.56945 11.2105H2.02651C1.35101 11.2105 0.79951 10.6659 0.79951 9.99893V2.00107C0.79951 1.33405 1.35101 0.789474 2.02651 0.789474H8.57271C9.24822 0.789474 9.79971 1.33405 9.79971 2.00107V3.29646C9.79971 3.51557 9.9792 3.6928 10.2011 3.6928C10.423 3.6928 10.6025 3.51557 10.6025 3.29646V2.00107C10.6025 0.899033 9.69202 0 8.57597 0H2.02651C0.910463 0 0 0.895811 0 2.00107Z" fill="white"/>
<path d="M12.5768 8.98067C12.6551 9.058 12.7563 9.09667 12.8607 9.09667C12.9651 9.09667 13.0663 9.058 13.1446 8.98067L15.8825 6.27712C16.0392 6.12245 16.0392 5.87433 15.8825 5.71966L13.1446 3.01611C12.988 2.86144 12.7367 2.86144 12.5801 3.01611C12.4234 3.17078 12.4234 3.4189 12.5801 3.57358L14.6359 5.60365H7.13359C6.91169 5.60365 6.7322 5.78088 6.7322 6C6.7322 6.21912 6.91169 6.39635 7.13359 6.39635H14.6327L12.5768 8.42642C12.4202 8.57787 12.4202 8.82922 12.5768 8.98067Z" fill="white"/>
</svg>
