<svg width="14" height="14" viewBox="0 0 14 14" fill="none" xmlns="http://www.w3.org/2000/svg">
<path d="M11.2656 3.71875C11.2656 3.86967 11.3881 3.99219 11.5391 3.99219C11.69 3.99219 11.8125 3.86967 11.8125 3.71875C11.8125 3.56783 11.69 3.44531 11.5391 3.44531C11.3881 3.44531 11.2656 3.56783 11.2656 3.71875Z" fill="white"/>
<path d="M12.3594 7C12.3594 7.35023 12.3242 7.69983 12.255 8.03906C12.2248 8.187 12.3203 8.33141 12.4682 8.36163C12.4867 8.36548 12.5051 8.36729 12.5232 8.36729C12.6504 8.36729 12.7644 8.27789 12.7909 8.14844C12.8675 7.77321 12.9063 7.38687 12.9063 7C12.9063 6.13899 12.7195 5.31046 12.3512 4.53735C12.2862 4.40106 12.1231 4.34317 11.9867 4.40811C11.8503 4.47305 11.7925 4.63626 11.8575 4.77266C12.1905 5.47163 12.3594 6.22102 12.3594 7Z" fill="white"/>
<path d="M8.36719 9.46094H8.09375V5.90625C8.09375 5.75522 7.97135 5.63281 7.82032 5.63281H5.63282C5.48179 5.63281 5.35938 5.75522 5.35938 5.90625V7C5.35938 7.15103 5.48179 7.27344 5.63282 7.27344H5.90626V9.46094H5.63282C5.48179 9.46094 5.35938 9.58334 5.35938 9.73438V10.8281C5.35938 10.9792 5.48179 11.1016 5.63282 11.1016H8.36719C8.51822 11.1016 8.64063 10.9792 8.64063 10.8281V9.73438C8.64063 9.58334 8.51822 9.46094 8.36719 9.46094ZM8.09375 10.5547H5.90626V10.0078H6.17969C6.33073 10.0078 6.45313 9.88541 6.45313 9.73438V7C6.45313 6.84897 6.33073 6.72656 6.17969 6.72656H5.90626V6.17969H7.54688V9.73438C7.54688 9.88541 7.66939 10.0078 7.82032 10.0078H8.09375V10.5547Z" fill="white"/>
<path d="M7.00001 5.08594C7.60306 5.08594 8.09375 4.59525 8.09375 3.99219C8.09375 3.38913 7.60306 2.89844 7.00001 2.89844C6.39695 2.89844 5.90626 3.38913 5.90626 3.99219C5.90626 4.59525 6.39695 5.08594 7.00001 5.08594ZM7.00001 3.44531C7.30153 3.44531 7.54688 3.69066 7.54688 3.99219C7.54688 4.29372 7.30153 4.53906 7.00001 4.53906C6.69848 4.53906 6.45313 4.29372 6.45313 3.99219C6.45313 3.69066 6.69848 3.44531 7.00001 3.44531Z" fill="white"/>
<path d="M7.00001 0C3.22721 0 1.19244e-05 3.22112 1.19244e-05 7C1.19244e-05 8.29082 0.3699 9.66356 0.993572 10.7019L0.0140042 13.6402C-0.0186801 13.7383 0.00684786 13.8467 0.0801205 13.9199C0.153714 13.9935 0.262234 14.0186 0.359966 13.9859L3.29824 13.0064C4.33645 13.6302 5.70919 14 7.00001 14C10.7738 14 14 10.7785 14 7C14 3.22624 10.7786 0 7.00001 0ZM7.00001 13.4531C5.76174 13.4531 4.44561 13.0877 3.47929 12.4757C3.41082 12.4323 3.32548 12.4209 3.24644 12.4473L0.705822 13.2942L1.55273 10.7536C1.57879 10.6756 1.56832 10.5901 1.52432 10.5207C0.912288 9.5545 0.546887 8.23827 0.546887 7C0.546887 3.50203 3.50204 0.546875 7.00001 0.546875C10.498 0.546875 13.4531 3.50203 13.4531 7C13.4531 10.498 10.498 13.4531 7.00001 13.4531Z" fill="white"/>
</svg>
