<svg width="14" height="16" viewBox="0 0 14 16" fill="none" xmlns="http://www.w3.org/2000/svg">
<path d="M3.66667 7.3V4.5C3.66667 3.57174 4.01786 2.6815 4.64298 2.02513C5.2681 1.36875 6.11595 1 7 1C7.88406 1 8.7319 1.36875 9.35702 2.02513C9.98214 2.6815 10.3333 3.57174 10.3333 4.5V7.3M2.33333 7.3H11.6667C12.403 7.3 13 7.9268 13 8.7V13.6C13 14.3732 12.403 15 11.6667 15H2.33333C1.59695 15 1 14.3732 1 13.6V8.7C1 7.9268 1.59695 7.3 2.33333 7.3Z" stroke="white" stroke-linecap="round" stroke-linejoin="round"/>
</svg>
