<svg width="12" height="14" viewBox="0 0 12 14" fill="none" xmlns="http://www.w3.org/2000/svg">
<path d="M11.6816 2.53038L6.19055 0.0469432C6.05156 -0.01592 5.89286 -0.0156465 5.75408 0.0477635L0.31658 2.5312C0.123964 2.61919 0 2.81421 0 3.02924V7.34112C0 8.9707 0.632061 10.6365 1.73413 11.9114C2.28847 12.5527 2.92751 13.0601 3.63356 13.4196C4.38983 13.8047 5.186 14 6 14C7.13978 14 8.2491 13.6241 9.2081 12.9131C9.44734 12.7357 9.50012 12.3943 9.326 12.1506C9.1519 11.9068 8.81683 11.8531 8.57762 12.0304C7.80303 12.6048 6.91171 12.9084 6.00003 12.9084C3.4206 12.9084 1.07148 10.2548 1.07148 7.34115V3.38271L5.97432 1.14348L10.9286 3.38413V7.34112C10.9286 8.3462 10.6452 9.36335 10.109 10.2825C9.95787 10.5417 10.0415 10.8766 10.2959 11.0306C10.5503 11.1846 10.879 11.0994 11.0301 10.8402C11.6646 9.75237 12 8.54241 12 7.34115V3.02924C12 2.81347 11.8752 2.61794 11.6816 2.53038Z" fill="white"/>
<path d="M8.3769 4.62034L5.73634 8.37824C5.66423 8.46344 5.57389 8.48185 5.52545 8.4851C5.47567 8.48849 5.38023 8.48204 5.29604 8.40168L3.58947 6.70489C3.37772 6.49434 3.03854 6.49855 2.83191 6.71432C2.62529 6.93006 2.62942 7.27561 2.84117 7.48615L4.55067 9.18584C4.55225 9.18742 4.55386 9.18898 4.55547 9.19054C4.81178 9.43912 5.15385 9.57737 5.50583 9.57737C5.53605 9.5774 5.56643 9.57639 5.59673 9.57431C5.98014 9.54828 6.33808 9.3583 6.57876 9.05311C6.58499 9.04524 6.591 9.03717 6.59677 9.02894L9.24806 5.25578C9.42028 5.01067 9.36486 4.66972 9.12431 4.49426C8.88376 4.31877 8.5491 4.37521 8.3769 4.62034Z" fill="white"/>
</svg>
