<svg width="24" height="20" viewBox="0 0 24 20" fill="none" xmlns="http://www.w3.org/2000/svg">
<path d="M18.364 4.7L23.9216 10.02L18.364 15.3V11.76H10.0479V8.24H18.364V4.7ZM15.0215 14.94L17.1559 17.08C15.0617 19.0267 12.7931 20 10.3499 20C7.4369 20 4.98366 19.0433 2.9902 17.13C0.996732 15.2167 0 12.8267 0 9.96C0 8.16 0.456416 6.49333 1.36925 4.96C2.28208 3.42667 3.51373 2.21667 5.0642 1.33C6.61468 0.443333 8.29603 0 10.1083 0C12.5783 0 14.9208 0.986667 17.1357 2.96L15.0215 5.08C13.4911 3.69333 11.8601 3 10.1284 3C8.12823 3 6.44016 3.69333 5.0642 5.08C3.68824 6.46667 3.00026 8.16 3.00026 10.16C3.00026 12.0267 3.70838 13.6333 5.12461 14.98C6.54084 16.3267 8.20206 17 10.1083 17C11.8668 17 13.5045 16.3133 15.0215 14.94Z" fill="#2F3E4D"/>
</svg>
