<svg width="19" height="18" viewBox="0 0 19 18" fill="none" xmlns="http://www.w3.org/2000/svg">
<path d="M16.3878 0H2.61215C1.17184 0 0 1.20644 0 2.6898V11.3708C0 12.8509 1.16674 14.0554 2.60287 14.0606V18L8.10074 14.0606H16.3878C17.8282 14.0606 19 12.854 19 11.3708V2.6898C19 1.20644 17.8282 0 16.3878 0ZM17.8867 11.3708C17.8867 12.2218 17.2143 12.9143 16.3878 12.9143H7.75145L3.71616 15.8058V12.9143H2.61215C1.78566 12.9143 1.11328 12.2218 1.11328 11.3708V2.6898C1.11328 1.83862 1.78566 1.14638 2.61215 1.14638H16.3878C17.2143 1.14638 17.8867 1.83862 17.8867 2.6898V11.3708Z" fill="white"/>
<path d="M5.08526 4.05065H13.9147V5.19702H5.08526V4.05065Z" fill="white"/>
<path d="M5.08526 6.49625H13.9147V7.64262H5.08526V6.49625Z" fill="white"/>
<path d="M5.08526 8.94185H13.9147V10.0882H5.08526V8.94185Z" fill="white"/>
</svg>
