<svg width="12" height="12" viewBox="0 0 12 12" fill="none" xmlns="http://www.w3.org/2000/svg">
<path d="M10.7623 7.6125L9.74979 6.6V4.875C9.74859 3.94379 9.40336 3.04586 8.78041 2.35369C8.15746 1.66153 7.30073 1.22395 6.37479 1.125V0.375H5.62479V1.125C4.70141 1.23026 3.84845 1.66972 3.22675 2.36051C2.60504 3.0513 2.25755 3.94567 2.24979 4.875V6.6L1.23729 7.6125C1.20069 7.64553 1.17168 7.6861 1.15226 7.73142C1.13284 7.77673 1.12347 7.82572 1.12479 7.875V9C1.12148 9.0501 1.12891 9.10034 1.14658 9.14734C1.16425 9.19434 1.19176 9.23702 1.22727 9.27252C1.26277 9.30803 1.30546 9.33554 1.35246 9.35321C1.39946 9.37089 1.44969 9.37831 1.49979 9.375H4.12479C4.12479 9.87228 4.32234 10.3492 4.67397 10.7008C5.0256 11.0525 5.50251 11.25 5.99979 11.25C6.49707 11.25 6.97399 11.0525 7.32562 10.7008C7.67725 10.3492 7.87479 9.87228 7.87479 9.375H10.4998C10.5499 9.37831 10.6001 9.37089 10.6471 9.35321C10.6941 9.33554 10.7368 9.30803 10.7723 9.27252C10.8078 9.23702 10.8353 9.19434 10.853 9.14734C10.8707 9.10034 10.8781 9.0501 10.8748 9V7.875C10.8761 7.82572 10.8667 7.77673 10.8473 7.73142C10.8279 7.6861 10.7989 7.64553 10.7623 7.6125V7.6125ZM5.99979 10.5C5.70142 10.5 5.41528 10.3815 5.2043 10.1705C4.99332 9.95952 4.87479 9.67337 4.87479 9.375H7.12479C7.12479 9.67337 7.00627 9.95952 6.79529 10.1705C6.58431 10.3815 6.29816 10.5 5.99979 10.5V10.5ZM10.1248 8.625H1.87479V8.025L2.88729 7.0125C2.92389 6.97947 2.9529 6.9389 2.97232 6.89358C2.99174 6.84827 3.00112 6.79928 2.99979 6.75V4.875C2.99979 4.07935 3.31586 3.31629 3.87847 2.75368C4.44108 2.19107 5.20414 1.875 5.99979 1.875C6.79544 1.875 7.5585 2.19107 8.12111 2.75368C8.68372 3.31629 8.99979 4.07935 8.99979 4.875V6.75C8.99847 6.79928 9.00784 6.84827 9.02726 6.89358C9.04668 6.9389 9.07569 6.97947 9.11229 7.0125L10.1248 8.025V8.625Z" fill="black"/>
</svg>
