<svg width="26" height="30" viewBox="0 0 26 30" fill="none" xmlns="http://www.w3.org/2000/svg">
<path d="M20.8267 2.39437C19.4748 0.80625 17.1145 0 13.8164 0H5.54898C4.50162 0 3.6251 0.766875 3.46168 1.82438L0.0187629 24.3244C-0.053661 24.81 0.0856159 25.3013 0.40131 25.6725C0.711433 26.04 1.16455 26.25 1.63994 26.25H7.53971L8.90462 17.3212C8.93247 17.1956 9.03461 17.1056 9.14975 17.1056H11.575C17.4692 17.1056 21.0031 14.2369 22.0709 8.58187L22.1656 8.04C22.5185 5.59688 22.1192 3.90937 20.8267 2.39437ZM20.3309 7.7475L20.2473 8.22563C19.3578 12.9375 16.5221 15.2287 11.5769 15.2287H9.1516C8.19524 15.2287 7.38 15.8719 7.12373 16.7906L7.10888 16.7869L7.06988 17.0438C7.06802 17.0456 7.06802 17.0475 7.06802 17.0513L5.94824 24.375H1.89064L5.29642 2.11125C5.31685 1.97438 5.4227 1.875 5.54898 1.875H13.8146C16.5481 1.875 18.4349 2.46 19.4209 3.61687C20.3495 4.70625 20.602 5.87063 20.3309 7.7475Z" fill="#3D4C59"/>
<path d="M10.8164 20.5477L10.7791 20.8094L12.6172 21.0766L12.6545 20.8149L10.8164 20.5477Z" fill="#3D4C59"/>
<path d="M24.5426 6.13312C23.8109 5.28562 22.7784 4.65375 21.4729 4.25812L20.94 6.05438C21.9038 6.34688 22.6447 6.7875 23.1387 7.36125C24.0579 8.44125 24.3179 9.64125 24.0431 11.4881C24.0431 11.4881 23.9929 11.79 23.9521 11.9756C23.0718 16.6856 20.238 18.975 15.2835 18.975H12.8694C11.8294 18.975 10.9511 19.74 10.7821 20.8013L9.66043 28.125H5.59726L6.00581 25.455L4.17107 25.17L3.72167 28.1025C3.66224 28.59 3.8108 29.0775 4.12836 29.4412C4.44033 29.7975 4.88416 30 5.34842 30H11.2519L12.615 21.0938C12.6354 20.9719 12.7282 20.85 12.8694 20.85H15.2835C21.1907 20.85 24.7209 17.9813 25.7682 12.3581C25.811 12.1725 25.8741 11.7994 25.876 11.7825C26.2344 9.38062 25.824 7.64062 24.5426 6.13312Z" fill="#3D4C59"/>
</svg>
