<svg width="24" height="26" viewBox="0 0 24 26" fill="none" xmlns="http://www.w3.org/2000/svg">
<path d="M24 10.0687C24 8.41334 23.3568 6.85709 22.1888 5.68669L18.3253 1.81502C17.1573 0.644566 15.6043 0 13.9525 0H6.98294C6.77299 0 6.60288 0.170523 6.60288 0.380859C6.60288 0.591195 6.77299 0.761719 6.98294 0.761719H13.0977C14.6851 0.761719 15.9766 2.05593 15.9766 3.6467V5.63443C15.9766 6.96104 17.0536 8.0403 18.3774 8.0403H20.361C21.9452 8.0403 23.2344 9.32923 23.2397 10.9155V23.594C23.2397 24.5006 22.5039 25.2383 21.5994 25.2383H4.99831C4.24964 25.2383 3.60349 24.7385 3.41285 24.0178L3.39658 21.6685H15.7231C17.3963 21.6685 18.7575 20.3044 18.7575 18.6277V17.8044C18.7575 17.594 18.5874 17.4235 18.3774 17.4235C18.1675 17.4235 17.9974 17.594 17.9974 17.8044V18.6277C17.9974 19.8844 16.9771 20.9068 15.7231 20.9068H2.0989C1.36072 20.9068 0.760122 20.3049 0.760122 19.5652V11.3218C1.12371 11.6244 1.59043 11.8066 2.0989 11.8066H15.723C16.9771 11.8066 17.9973 12.829 17.9973 14.0857V16.2809C17.9973 16.4912 18.1674 16.6617 18.3774 16.6617C18.5873 16.6617 18.7574 16.4912 18.7574 16.2809V14.0857C18.7574 12.409 17.3962 11.0449 15.723 11.0449H3.35787V2.40602C3.35787 1.49937 4.09371 0.761719 4.99821 0.761719H5.46295C5.67289 0.761719 5.84301 0.591195 5.84301 0.380859C5.84301 0.170523 5.67284 0 5.46295 0H4.99826C3.67463 0 2.59779 1.07936 2.59779 2.40602V7.59997H2.0989C0.941538 7.59997 0 8.54354 0 9.70328V19.5652C0 20.725 0.941538 21.6685 2.0989 21.6685H2.63636L2.65298 24.0689C2.65318 24.0978 2.65668 24.1266 2.66337 24.1548C2.92242 25.2412 3.88255 26 4.99826 26H21.5993C22.923 26 23.9998 24.9206 23.9998 23.594L24 10.0687ZM2.0989 8.36169H2.59779V11.0449H2.0989C1.36072 11.0449 0.760122 10.443 0.760122 9.70328C0.760122 8.96355 1.36067 8.36169 2.0989 8.36169ZM20.3609 7.27858H18.3774C17.4727 7.27858 16.7367 6.54103 16.7367 5.63443V3.6467C16.7367 2.61747 16.3091 1.6866 15.6225 1.02289C16.4303 1.2837 17.1704 1.73489 17.7878 2.35361L21.6513 6.22527C22.2688 6.84399 22.719 7.5856 22.9793 8.39511C22.3169 7.70707 21.388 7.27858 20.3609 7.27858Z" fill="white"/>
<path d="M15.3067 14.3088C15.5167 14.3088 15.6868 14.1383 15.6868 13.9279C15.6868 13.7176 15.5167 13.5471 15.3067 13.5471H13.3473C13.1373 13.5471 12.9672 13.7176 12.9672 13.9279V18.7727C12.9672 18.983 13.1373 19.1536 13.3473 19.1536C13.5572 19.1536 13.7274 18.983 13.7274 18.7727V16.6853H15.1511C15.3611 16.6853 15.5312 16.5148 15.5312 16.3044C15.5312 16.0941 15.3611 15.9236 15.1511 15.9236H13.7274V14.3088H15.3067Z" fill="white"/>
<path d="M8.36388 13.5471C8.26299 13.5471 8.1662 13.5873 8.09485 13.6589C8.0236 13.7305 7.98362 13.8275 7.98382 13.9287V18.694C7.98382 18.7237 7.98752 18.7524 7.99395 18.7801C7.99588 18.8789 8.03586 18.9733 8.10589 19.043C8.17709 19.1139 8.27337 19.1536 8.37366 19.1536H8.37508C8.41638 19.1534 9.39126 19.1497 9.77984 19.1429C10.4543 19.1311 11.0548 18.8249 11.4709 18.2807C11.8543 17.7792 12.0655 17.0937 12.0655 16.3503C12.0655 14.6736 11.1282 13.5471 9.73311 13.5471L8.36388 13.5471ZM11.3054 16.3503C11.3054 17.5302 10.6726 18.3654 9.76656 18.3812C9.53543 18.3853 9.07996 18.3883 8.7524 18.3901C8.75053 17.8344 8.74739 16.8171 8.74739 16.345C8.74739 15.9499 8.74561 14.8845 8.74455 14.3088H9.73306C10.4932 14.3088 11.3054 14.8451 11.3054 16.3503Z" fill="white"/>
<path d="M4.22557 13.5114C4.12458 13.5114 4.02774 13.5516 3.95639 13.6233C3.88554 13.6945 3.84581 13.7909 3.84556 13.8914C3.84556 13.8917 3.84546 13.892 3.84546 13.8922V18.7727C3.84546 18.983 4.01557 19.1536 4.22552 19.1536C4.43547 19.1536 4.60558 18.983 4.60558 18.7727V17.0315C4.92098 17.0298 5.35846 17.0276 5.58163 17.0276C6.56386 17.0276 7.36295 16.2389 7.36295 15.2695C7.36295 14.3 6.56381 13.5113 5.58163 13.5113H4.22557V13.5114ZM6.60288 15.2695C6.60288 15.8096 6.1352 16.2659 5.58168 16.2659C5.35972 16.2659 4.92833 16.2681 4.61293 16.2698C4.61121 15.9453 4.60903 15.4965 4.60903 15.2695C4.60903 15.0781 4.60781 14.6106 4.6068 14.2731H5.58168C6.1352 14.2731 6.60288 14.7294 6.60288 15.2695Z" fill="white"/>
</svg>
