<svg width="48" height="48" viewBox="0 0 48 48" fill="none" xmlns="http://www.w3.org/2000/svg">
<path d="M20.2646 18.7578L16.1426 28H14.8164L18.9248 19.0859H13.5381V18.0469H20.2646V18.7578ZM22.2812 23.0098L22.7871 18.0469H27.8867V19.2158H23.8604L23.5596 21.9297C24.0472 21.6426 24.6009 21.499 25.2207 21.499C26.1276 21.499 26.8477 21.7998 27.3809 22.4014C27.9141 22.9984 28.1807 23.8073 28.1807 24.8281C28.1807 25.8535 27.9027 26.6624 27.3467 27.2549C26.7952 27.8428 26.0228 28.1367 25.0293 28.1367C24.1497 28.1367 23.432 27.8929 22.876 27.4053C22.32 26.9176 22.0033 26.2432 21.9258 25.3818H23.1221C23.1995 25.9515 23.4023 26.3822 23.7305 26.6738C24.0586 26.9609 24.4915 27.1045 25.0293 27.1045C25.6172 27.1045 26.0775 26.904 26.4102 26.5029C26.7474 26.1019 26.916 25.5482 26.916 24.8418C26.916 24.1764 26.7337 23.6432 26.3691 23.2422C26.0091 22.8366 25.5283 22.6338 24.9268 22.6338C24.3753 22.6338 23.9424 22.7546 23.6279 22.9961L23.293 23.2695L22.2812 23.0098ZM29.4521 19.9609C29.4521 19.3639 29.6413 18.8717 30.0195 18.4844C30.4023 18.097 30.8923 17.9033 31.4893 17.9033C32.0954 17.9033 32.5853 18.0993 32.959 18.4912C33.3372 18.8786 33.5264 19.3822 33.5264 20.002V20.4873C33.5264 21.0889 33.335 21.5811 32.9521 21.9639C32.5739 22.3421 32.0908 22.5312 31.5029 22.5312C30.9105 22.5312 30.4206 22.3421 30.0332 21.9639C29.6458 21.5811 29.4521 21.0729 29.4521 20.4395V19.9609ZM30.3955 20.4873C30.3955 20.8428 30.4958 21.1367 30.6963 21.3691C30.8968 21.597 31.1657 21.7109 31.5029 21.7109C31.8265 21.7109 32.0863 21.5993 32.2822 21.376C32.4827 21.1527 32.583 20.8473 32.583 20.46V19.9609C32.583 19.6055 32.485 19.3115 32.2891 19.0791C32.0931 18.8467 31.8265 18.7305 31.4893 18.7305C31.152 18.7305 30.8854 18.8467 30.6895 19.0791C30.4935 19.3115 30.3955 19.6146 30.3955 19.9883V20.4873ZM34.2988 25.5596C34.2988 24.9626 34.488 24.4727 34.8662 24.0898C35.249 23.7025 35.7389 23.5088 36.3359 23.5088C36.9329 23.5088 37.4229 23.7002 37.8057 24.083C38.1885 24.4658 38.3799 24.974 38.3799 25.6074V26.0928C38.3799 26.6898 38.1885 27.182 37.8057 27.5693C37.4274 27.9521 36.9421 28.1436 36.3496 28.1436C35.7572 28.1436 35.2673 27.9544 34.8799 27.5762C34.4925 27.1934 34.2988 26.6852 34.2988 26.0518V25.5596ZM35.2422 26.0928C35.2422 26.4528 35.3424 26.749 35.543 26.9814C35.7435 27.2093 36.0124 27.3232 36.3496 27.3232C36.6777 27.3232 36.9398 27.2116 37.1357 26.9883C37.3317 26.7604 37.4297 26.4528 37.4297 26.0654V25.5596C37.4297 25.1995 37.3294 24.9056 37.1289 24.6777C36.9329 24.4499 36.6686 24.3359 36.3359 24.3359C36.0124 24.3359 35.748 24.4499 35.543 24.6777C35.3424 24.901 35.2422 25.2041 35.2422 25.5869V26.0928ZM31.79 27.248L31.0723 26.7969L35.9326 19.0176L36.6504 19.4688L31.79 27.248Z" fill="#3D4C59"/>
<path d="M48 24C48 29.3129 46.2371 34.4757 42.9875 38.679C39.738 42.8823 35.1856 45.8886 30.0439 47.2265C24.9022 48.5645 19.4619 48.1585 14.5757 46.0722C9.68952 43.9859 5.63372 40.3373 3.04406 35.6982C0.454397 31.0592 -0.522737 25.6919 0.265825 20.4378C1.05439 15.1838 3.56407 10.3398 7.40147 6.66539C11.2389 2.99094 16.1871 0.693667 21.4704 0.133683C26.7537 -0.426301 32.0736 0.782657 36.596 3.57105L35.8968 4.70504C31.6254 2.07143 26.6009 0.929579 21.6108 1.45848C16.6207 1.98738 11.9472 4.15713 8.32284 7.62762C4.69845 11.0981 2.32808 15.6731 1.58329 20.6356C0.838496 25.598 1.76139 30.6673 4.2073 35.0489C6.65322 39.4304 10.4839 42.8765 15.0988 44.847C19.7138 46.8175 24.8521 47.2009 29.7084 45.9372C34.5647 44.6736 38.8644 41.8342 41.9336 37.8642C45.0027 33.8942 46.6678 29.018 46.6678 24H48Z" fill="url(#paint0_linear)"/>
<defs>
<linearGradient id="paint0_linear" x1="5.33333" y1="40.8889" x2="41.7778" y2="11.5556" gradientUnits="userSpaceOnUse">
<stop stop-color="#3ED7A0"/>
<stop offset="1" stop-color="#57E4B1"/>
</linearGradient>
</defs>
</svg>
