<svg width="16" height="12" viewBox="0 0 16 12" fill="none" xmlns="http://www.w3.org/2000/svg">
<path d="M0.146248 5.147L5.14617 0.146001C5.28917 0.00300077 5.50216 -0.0389993 5.69116 0.0380007C5.87816 0.115001 6.00016 0.298001 6.00016 0.500001V3H7.50013C12.1871 3 16 6.813 16 11.5C16 11.723 15.852 11.919 15.638 11.98C15.592 11.994 15.546 12 15.5 12C15.331 12 15.169 11.914 15.076 11.765L14.926 11.525C13.569 9.351 11.1341 8 8.57012 8H6.00016V10.5C6.00016 10.702 5.87816 10.885 5.69116 10.962C5.50316 11.038 5.28917 10.996 5.14617 10.854L0.146248 5.854C-0.0487499 5.659 -0.0487499 5.342 0.146248 5.147ZM5.00017 9.293V7.5C5.00017 7.224 5.22417 7 5.50016 7H8.57012C10.9291 7 13.193 8.009 14.783 9.707C13.978 6.435 11.0181 4 7.50013 4H5.50016C5.22417 4 5.00017 3.776 5.00017 3.5V1.707L1.20723 5.5L5.00017 9.293Z" fill="#657E93"/>
</svg>
