<svg width="26" height="26" viewBox="0 0 26 26" fill="none" xmlns="http://www.w3.org/2000/svg">
<circle cx="13" cy="13" r="13" fill="white"/>
<path d="M16.12 6.5H9.88C9.44996 6.5 9.1 6.88039 9.1 7.34783V19.2174C9.1 19.3234 9.15434 19.4203 9.24092 19.4686C9.3275 19.517 9.43176 19.5088 9.51106 19.4474L13 16.7386L16.4889 19.4474C16.5339 19.4822 16.5867 19.5 16.64 19.5C16.6806 19.5 16.7214 19.4895 16.7591 19.4686C16.8457 19.4203 16.9 19.3234 16.9 19.2174V7.34783C16.9 6.88039 16.55 6.5 16.12 6.5ZM16.38 18.6683L13.1511 16.1613C13.1058 16.1262 13.053 16.1087 13 16.1087C12.947 16.1087 12.8942 16.1262 12.8489 16.1613L9.62 18.6683V9.32609H16.38V18.6683ZM16.38 8.76087H9.62V7.34783C9.62 7.19211 9.73674 7.06522 9.88 7.06522H16.12C16.2635 7.06522 16.38 7.19211 16.38 7.34783V8.76087Z" fill="#3D4C59"/>
</svg>
