<svg width="9" height="8" viewBox="0 0 9 8" fill="none" xmlns="http://www.w3.org/2000/svg">
<path d="M8.98707 3.03781C8.95607 2.94885 8.87357 2.88402 8.77426 2.87059L5.98422 2.49279L4.73644 0.136951C4.69204 0.0530865 4.60037 0 4.50001 0C4.39964 0 4.30799 0.0530865 4.26357 0.136951L3.01574 2.49279L0.225753 2.87059C0.126454 2.88402 0.0439252 2.94885 0.0129175 3.03779C-0.0181077 3.12675 0.00776717 3.22439 0.0796438 3.28966L2.09845 5.12343L1.62194 7.71278C1.60496 7.80497 1.64564 7.8981 1.72683 7.95309C1.77276 7.98418 1.82717 8 1.88183 8C1.92381 8 1.96593 7.99068 2.00449 7.97178L4.5 6.74923L6.99539 7.97176C7.08425 8.01528 7.19188 8.00804 7.27307 7.95307C7.35427 7.8981 7.39496 7.80493 7.378 7.71275L6.90133 5.12343L8.92037 3.28965C8.99222 3.22439 9.01812 3.12675 8.98707 3.03781Z" fill="#CDCDCD"/>
</svg>
