<svg width="14" height="16" viewBox="0 0 14 16" fill="none" xmlns="http://www.w3.org/2000/svg">
<path d="M7.00522 10.1333H6.58442C6.57695 10.1333 6.57086 10.1274 6.57086 10.1202V9.49986C6.57086 9.37051 6.46275 9.26564 6.3294 9.26564C6.19604 9.26564 6.08793 9.37051 6.08793 9.49986V10.1202C6.08793 10.3857 6.31066 10.6017 6.58442 10.6017H7.00522C7.32666 10.6017 7.58818 10.8554 7.58818 11.1672V13.2956C7.58818 13.3578 7.56806 13.4171 7.52997 13.4671L6.59176 14.6995C6.56108 14.7398 6.54453 14.7885 6.54453 14.8386V15.7657C6.54453 15.8951 6.65264 16 6.786 16C6.91935 16 7.02746 15.8951 7.02746 15.7657V14.9157L7.91844 13.7454C8.01832 13.6142 8.07108 13.4587 8.07108 13.2956V11.1672C8.07112 10.5971 7.59295 10.1333 7.00522 10.1333Z" fill="white"/>
<path d="M6.08793 8.50168C6.08793 8.63103 6.19604 8.7359 6.3294 8.7359C6.46275 8.7359 6.57087 8.63103 6.57087 8.50168V6.24185C6.57087 5.70567 6.12116 5.26946 5.56842 5.26946C5.01569 5.26946 4.56598 5.70567 4.56598 6.24185V8.35627C4.44624 8.29715 4.31096 8.26358 4.16766 8.26358H3.92522C3.6401 8.26358 3.3863 8.39572 3.22513 8.60008C3.07008 8.46851 2.8674 8.3885 2.64571 8.3885H2.40327C2.09136 8.3885 1.81696 8.54665 1.66033 8.78449C1.51158 8.67338 1.32556 8.60711 1.12376 8.60711H0.881323C0.395394 8.60711 6.43982e-05 8.99057 6.43982e-05 9.46189V11.48C6.43982e-05 11.6093 0.108177 11.7142 0.241531 11.7142C0.374886 11.7142 0.482998 11.6093 0.482998 11.48V9.46189C0.482998 9.24887 0.661684 9.07555 0.881323 9.07555H1.12376C1.34339 9.07555 1.52208 9.24887 1.52208 9.46189V9.52291C1.52208 9.65226 1.63019 9.75713 1.76355 9.75713C1.8969 9.75713 2.00501 9.65226 2.00501 9.52291V9.24328C2.00501 9.03027 2.1837 8.85694 2.40331 8.85694H2.64574C2.86538 8.85694 3.04406 9.03027 3.04406 9.24328V9.52291C3.04406 9.65226 3.15217 9.75713 3.28553 9.75713C3.41888 9.75713 3.527 9.65226 3.527 9.52291V9.24328C3.527 9.21549 3.52552 9.18804 3.52281 9.1609C3.52542 9.1471 3.527 9.13292 3.527 9.11837C3.527 8.90535 3.70568 8.73203 3.92529 8.73203H4.16772C4.38733 8.73203 4.56601 8.90535 4.56601 9.11837V9.52291C4.56601 9.65226 4.67413 9.75713 4.80748 9.75713C4.94083 9.75713 5.04895 9.65226 5.04895 9.52291V6.24185C5.04895 5.96397 5.28201 5.7379 5.56845 5.7379C5.8549 5.7379 6.08796 5.96397 6.08796 6.24185V8.50168H6.08793Z" fill="white"/>
<path d="M0.626462 13.794C0.5339 13.6795 0.482934 13.5364 0.482934 13.391V12.4782C0.482934 12.3488 0.374821 12.2439 0.241467 12.2439C0.108113 12.2439 0 12.3488 0 12.4782V13.391C0 13.6408 0.0875398 13.8866 0.246457 14.0831L0.603442 14.5246V15.7658C0.603442 15.8951 0.711555 16 0.844909 16C0.978263 16 1.08638 15.8951 1.08638 15.7658V14.4437C1.08638 14.3913 1.06825 14.3404 1.0349 14.2991L0.626462 13.794Z" fill="white"/>
<path d="M11.3995 2.73915L10.1422 2.32617L9.38338 1.59006C9.28908 1.49859 9.13618 1.49856 9.04191 1.59006C8.94758 1.68153 8.94758 1.82981 9.04188 1.92128L9.66985 2.53044L8.3507 3.81001C8.2564 3.90148 8.2564 4.04979 8.3507 4.14123C8.39787 4.18695 8.45968 4.20984 8.52147 4.20984C8.58325 4.20984 8.64507 4.18698 8.69223 4.14123L10.076 2.79895L11.2447 3.1828C11.3228 3.20847 11.3458 3.27164 11.3521 3.2976C11.3583 3.32355 11.3666 3.39007 11.3082 3.44669L7.42743 7.21109C7.38577 7.2515 7.33834 7.25837 7.30544 7.25712C7.17302 7.25131 7.05966 7.35203 7.05402 7.48129C7.04839 7.61051 7.15187 7.71972 7.28512 7.72516C7.29459 7.72556 7.30402 7.72575 7.31342 7.72575C7.48557 7.72575 7.64639 7.66123 7.76893 7.54237L8.89249 6.45249C9.09999 6.63106 9.36412 6.72884 9.64387 6.72884C9.94677 6.72884 10.2315 6.61442 10.4457 6.40671L10.4788 6.37457C10.9045 5.96163 10.9201 5.29941 10.5261 4.86794L11.6497 3.77806C11.809 3.62348 11.8735 3.40406 11.8223 3.1912C11.771 2.97824 11.613 2.80929 11.3995 2.73915ZM10.1374 6.04323L10.1042 6.07536C9.98128 6.19466 9.81779 6.26034 9.64387 6.26034C9.49635 6.26034 9.3563 6.21306 9.24217 6.12593L10.1894 5.20709C10.3898 5.45474 10.3725 5.81522 10.1374 6.04323Z" fill="white"/>
<path d="M4.42078 1.72794C3.91402 2.7206 4.0854 3.95888 4.93636 4.78431L4.9436 4.79136C4.99077 4.83721 5.05265 4.86016 5.11453 4.86016C5.17625 4.86016 5.23793 4.83736 5.28507 4.79174C5.37947 4.70036 5.37966 4.55208 5.28546 4.46052L5.27802 4.45331C4.39934 3.60099 4.39934 2.21421 5.27802 1.3619C5.67969 0.972248 6.21327 0.745616 6.78043 0.723693C7.34427 0.701894 7.89172 0.883462 8.32153 1.23492C8.4235 1.3183 8.57581 1.30575 8.66178 1.20678C8.74774 1.10788 8.73476 0.960131 8.6328 0.876748C8.11056 0.449748 7.44552 0.229174 6.76121 0.255625C6.37212 0.270646 5.99614 0.365084 5.65464 0.529601L5.36395 0.24763C5.02354 -0.082559 4.46968 -0.0825278 4.12928 0.24763C3.96437 0.407588 3.87358 0.62026 3.87358 0.846456C3.87358 1.07265 3.96437 1.28532 4.12928 1.44525L4.42078 1.72794ZM4.47081 0.57885C4.6229 0.431322 4.87042 0.431322 5.02251 0.57885L5.23211 0.782154C5.12834 0.857605 5.0295 0.940456 4.93655 1.03062C4.84289 1.12146 4.75793 1.21759 4.68069 1.31755L4.47081 1.11394C4.39711 1.04248 4.35655 0.947452 4.35655 0.846393C4.35655 0.745335 4.39711 0.650334 4.47081 0.57885Z" fill="white"/>
<path d="M7.63499 4.5043L7.49291 4.64212C7.39861 4.73359 7.39861 4.8819 7.49291 4.97334C7.54008 5.01906 7.6019 5.04195 7.66368 5.04195C7.72546 5.04195 7.78728 5.01909 7.83445 4.97334L7.97653 4.83552C8.07083 4.74405 8.07083 4.59574 7.97653 4.5043C7.88219 4.41283 7.72933 4.41283 7.63499 4.5043Z" fill="white"/>
<path d="M2.41915 4.96416C2.48215 4.96416 2.54513 4.94036 2.59245 4.89302C2.68531 4.80017 2.68302 4.65189 2.58727 4.56183C2.31303 4.30375 2.16203 3.95854 2.16203 3.58981C2.16203 3.22108 2.31306 2.87584 2.5873 2.61776C2.68302 2.52769 2.68531 2.37942 2.59245 2.28657C2.4996 2.1937 2.34674 2.19151 2.25102 2.28158C1.88222 2.62863 1.6791 3.09323 1.6791 3.58981C1.6791 4.08639 1.88222 4.55099 2.25102 4.89804C2.29793 4.94217 2.35855 4.96416 2.41915 4.96416Z" fill="white"/>
<path d="M2.97355 4.27058C3.01872 4.30715 3.07362 4.32501 3.12822 4.32501C3.19731 4.32501 3.26592 4.29638 3.3137 4.24094C3.39918 4.14163 3.3855 3.99395 3.28315 3.91104C3.1845 3.83112 3.12793 3.71404 3.12793 3.58981C3.12793 3.46558 3.1845 3.34847 3.28315 3.26855C3.3855 3.18564 3.39918 3.03792 3.3137 2.93864C3.22819 2.83933 3.0759 2.82609 2.97359 2.90901C2.76477 3.07818 2.645 3.32633 2.645 3.58978C2.64497 3.85329 2.76473 4.10141 2.97355 4.27058Z" fill="white"/>
<path d="M13.428 2.28154C13.3323 2.19145 13.1794 2.19373 13.0866 2.28654C12.9937 2.37939 12.996 2.52766 13.0918 2.61773C13.366 2.87584 13.517 3.22105 13.517 3.58978C13.517 3.95854 13.366 4.30372 13.0918 4.5618C12.996 4.65186 12.9937 4.80014 13.0866 4.89298C13.134 4.94033 13.1969 4.96409 13.26 4.96409C13.3205 4.96409 13.3812 4.94211 13.4281 4.89798C13.7969 4.5509 14 4.0863 14 3.58975C14 3.0932 13.7969 2.62866 13.428 2.28154Z" fill="white"/>
<path d="M12.7055 2.90901C12.6032 2.82612 12.4509 2.83933 12.3654 2.93864C12.28 3.03792 12.2936 3.18564 12.396 3.26855C12.4946 3.34847 12.5512 3.46558 12.5512 3.58981C12.5512 3.71404 12.4946 3.83112 12.396 3.91101C12.2936 3.99392 12.2799 4.14163 12.3654 4.24091C12.4131 4.29641 12.4817 4.32501 12.5508 4.32501C12.6054 4.32501 12.6603 4.30718 12.7055 4.27058C12.9143 4.10141 13.0341 3.85329 13.0341 3.58978C13.0341 3.32633 12.9143 3.07818 12.7055 2.90901Z" fill="white"/>
</svg>
