<svg width="20" height="17" viewBox="0 0 20 17" fill="none" xmlns="http://www.w3.org/2000/svg">
<path d="M20 2.01254C19.2563 2.35385 18.4637 2.58008 17.6375 2.68992C18.4875 2.159 19.1363 1.32469 19.4412 0.319077C18.6488 0.813385 17.7738 1.16254 16.8412 1.35738C16.0887 0.519154 15.0162 0 13.8462 0C11.5763 0 9.74875 1.92754 9.74875 4.29054C9.74875 4.63054 9.77625 4.95746 9.84375 5.26869C6.435 5.09477 3.41875 3.38562 1.3925 0.782C1.03875 1.42408 0.83125 2.159 0.83125 2.95015C0.83125 4.43569 1.5625 5.75254 2.6525 6.51492C1.99375 6.50185 1.3475 6.30177 0.8 5.98662C0.8 5.99969 0.8 6.01669 0.8 6.03369C0.8 8.11815 2.22125 9.84954 4.085 10.2484C3.75125 10.3438 3.3875 10.3896 3.01 10.3896C2.7475 10.3896 2.4825 10.3739 2.23375 10.3164C2.765 12.0151 4.2725 13.2639 6.065 13.3045C4.67 14.4461 2.89875 15.1339 0.98125 15.1339C0.645 15.1339 0.3225 15.1182 0 15.0751C1.81625 16.3004 3.96875 17 6.29 17C13.835 17 17.96 10.4615 17.96 4.794C17.96 4.60438 17.9538 4.42131 17.945 4.23954C18.7588 3.63538 19.4425 2.88085 20 2.01254Z" fill="white"/>
</svg>
