<svg width="1128" height="222" viewBox="0 0 1128 222" fill="none" xmlns="http://www.w3.org/2000/svg">
<path d="M136.45 117.585C135.155 135.485 128.528 149.577 116.569 159.86C104.687 170.144 88.9951 175.285 69.4951 175.285C48.167 175.285 31.3711 168.125 19.1074 153.805C6.91992 139.408 0.826172 119.68 0.826172 94.6191V84.4502C0.826172 68.4541 3.64453 54.3623 9.28125 42.1748C14.918 29.9873 22.9541 20.6563 33.3896 14.1816C43.9014 7.63086 56.0889 4.35547 69.9521 4.35547C89.1475 4.35547 104.61 9.49707 116.341 19.7803C128.071 30.0635 134.851 44.498 136.679 63.084H102.401C101.563 52.3438 98.5547 44.5742 93.375 39.7754C88.2715 34.9004 80.4639 32.4629 69.9521 32.4629C58.5264 32.4629 49.957 36.5762 44.2441 44.8027C38.6074 52.9531 35.7129 65.6357 35.5605 82.8506V95.4189C35.5605 113.396 38.2646 126.535 43.6729 134.838C49.1572 143.141 57.7646 147.292 69.4951 147.292C80.083 147.292 87.9668 144.893 93.1465 140.094C98.4023 135.219 101.411 127.716 102.173 117.585H136.45ZM228.428 173C226.904 170.029 225.8 166.335 225.114 161.917C217.116 170.829 206.719 175.285 193.922 175.285C181.811 175.285 171.756 171.781 163.758 164.773C155.836 157.766 151.875 148.93 151.875 138.266C151.875 125.164 156.712 115.109 166.386 108.102C176.136 101.094 190.189 97.5518 208.547 97.4756H223.743V90.3916C223.743 84.6787 222.258 80.1084 219.287 76.6807C216.393 73.2529 211.784 71.5391 205.462 71.5391C199.901 71.5391 195.521 72.8721 192.322 75.5381C189.199 78.2041 187.638 81.8604 187.638 86.5068H154.617C154.617 79.3467 156.826 72.7197 161.244 66.626C165.662 60.5322 171.908 55.7715 179.982 52.3438C188.057 48.8398 197.121 47.0879 207.176 47.0879C222.41 47.0879 234.483 50.9346 243.396 58.6279C252.384 66.2451 256.878 76.9854 256.878 90.8486V144.436C256.954 156.166 258.592 165.04 261.791 171.058V173H228.428ZM201.12 150.034C205.995 150.034 210.489 148.968 214.603 146.835C218.716 144.626 221.763 141.693 223.743 138.037V116.785H211.403C194.874 116.785 186.076 122.498 185.01 133.924L184.896 135.866C184.896 139.979 186.343 143.369 189.237 146.035C192.132 148.701 196.093 150.034 201.12 150.034ZM321.776 18.9805V49.373H342.914V73.5957H321.776V135.295C321.776 139.865 322.652 143.141 324.404 145.121C326.156 147.102 329.508 148.092 334.459 148.092C338.115 148.092 341.353 147.825 344.171 147.292V172.314C337.696 174.295 331.031 175.285 324.176 175.285C301.02 175.285 289.213 163.593 288.756 140.208V73.5957H270.703V49.373H288.756V18.9805H321.776ZM418.21 175.285C400.081 175.285 385.304 169.725 373.878 158.604C362.528 147.482 356.854 132.667 356.854 114.157V110.958C356.854 98.542 359.253 87.459 364.052 77.709C368.851 67.8828 375.63 60.3418 384.39 55.0859C393.226 49.7539 403.28 47.0879 414.554 47.0879C431.464 47.0879 444.756 52.4199 454.43 63.084C464.18 73.748 469.055 88.8682 469.055 108.444V121.927H390.331C391.397 130.001 394.597 136.476 399.929 141.351C405.337 146.226 412.154 148.663 420.381 148.663C433.102 148.663 443.042 144.055 450.202 134.838L466.427 153.005C461.476 160.013 454.772 165.497 446.317 169.458C437.862 173.343 428.493 175.285 418.21 175.285ZM414.439 73.8242C407.889 73.8242 402.557 76.0332 398.443 80.4512C394.406 84.8691 391.816 91.1914 390.674 99.418H436.605V96.79C436.453 89.4775 434.473 83.8408 430.664 79.8799C426.855 75.8428 421.447 73.8242 414.439 73.8242ZM483.108 110.272C483.108 91.3057 487.603 76.0332 496.591 64.4551C505.655 52.877 517.843 47.0879 533.153 47.0879C546.712 47.0879 557.262 51.7344 564.803 61.0273L566.174 49.373H596.109V168.887C596.109 179.703 593.634 189.11 588.683 197.108C583.808 205.106 576.914 211.2 568.002 215.39C559.09 219.579 548.654 221.674 536.695 221.674C527.631 221.674 518.795 219.846 510.188 216.189C501.58 212.609 495.067 207.963 490.649 202.25L505.274 182.141C513.501 191.357 523.479 195.966 535.21 195.966C543.97 195.966 550.787 193.604 555.662 188.882C560.537 184.235 562.975 177.608 562.975 169.001V162.374C555.357 170.981 545.341 175.285 532.925 175.285C518.071 175.285 506.036 169.496 496.819 157.918C487.679 146.264 483.108 130.839 483.108 111.644V110.272ZM516.129 112.672C516.129 123.869 518.376 132.667 522.87 139.065C527.364 145.388 533.534 148.549 541.38 148.549C551.435 148.549 558.633 144.778 562.975 137.237V85.25C558.557 77.709 551.435 73.9385 541.608 73.9385C533.687 73.9385 527.44 77.1758 522.87 83.6504C518.376 90.125 516.129 99.7988 516.129 112.672ZM616.447 110.044C616.447 97.7803 618.809 86.8496 623.531 77.252C628.254 67.6543 635.033 60.2275 643.869 54.9717C652.781 49.7158 663.103 47.0879 674.833 47.0879C691.515 47.0879 705.111 52.1914 715.623 62.3984C726.211 72.6055 732.114 86.4688 733.333 103.988L733.562 112.443C733.562 131.41 728.268 146.645 717.68 158.146C707.092 169.572 692.886 175.285 675.062 175.285C657.237 175.285 642.993 169.572 632.329 158.146C621.741 146.721 616.447 131.182 616.447 111.529V110.044ZM649.468 112.443C649.468 124.174 651.677 133.162 656.095 139.408C660.513 145.578 666.835 148.663 675.062 148.663C683.06 148.663 689.306 145.616 693.8 139.522C698.294 133.353 700.541 123.526 700.541 110.044C700.541 98.542 698.294 89.6299 693.8 83.3076C689.306 76.9854 682.983 73.8242 674.833 73.8242C666.759 73.8242 660.513 76.9854 656.095 83.3076C651.677 89.5537 649.468 99.2656 649.468 112.443ZM823.368 80.3369C818.874 79.7275 814.913 79.4229 811.485 79.4229C798.993 79.4229 790.805 83.6504 786.92 92.1055V173H753.899V49.373H785.092L786.006 64.1123C792.633 52.7627 801.812 47.0879 813.542 47.0879C817.198 47.0879 820.626 47.583 823.825 48.5732L823.368 80.3369ZM874.213 173H841.078V49.373H874.213V173ZM839.136 17.3809C839.136 12.4297 840.773 8.35449 844.049 5.15527C847.4 1.95605 851.933 0.356445 857.646 0.356445C863.282 0.356445 867.776 1.95605 871.128 5.15527C874.479 8.35449 876.155 12.4297 876.155 17.3809C876.155 22.4082 874.441 26.5215 871.014 29.7207C867.662 32.9199 863.206 34.5195 857.646 34.5195C852.085 34.5195 847.591 32.9199 844.163 29.7207C840.812 26.5215 839.136 22.4082 839.136 17.3809ZM958.421 175.285C940.292 175.285 925.515 169.725 914.089 158.604C902.739 147.482 897.064 132.667 897.064 114.157V110.958C897.064 98.542 899.464 87.459 904.263 77.709C909.062 67.8828 915.841 60.3418 924.601 55.0859C933.437 49.7539 943.491 47.0879 954.765 47.0879C971.675 47.0879 984.967 52.4199 994.641 63.084C1004.39 73.748 1009.27 88.8682 1009.27 108.444V121.927H930.542C931.608 130.001 934.808 136.476 940.14 141.351C945.548 146.226 952.365 148.663 960.592 148.663C973.312 148.663 983.253 144.055 990.413 134.838L1006.64 153.005C1001.69 160.013 994.983 165.497 986.528 169.458C978.073 173.343 968.704 175.285 958.421 175.285ZM954.65 73.8242C948.1 73.8242 942.768 76.0332 938.654 80.4512C934.617 84.8691 932.027 91.1914 930.885 99.418H976.816V96.79C976.664 89.4775 974.684 83.8408 970.875 79.8799C967.066 75.8428 961.658 73.8242 954.65 73.8242ZM1095.07 138.837C1095.07 134.8 1093.05 131.639 1089.02 129.354C1085.06 126.992 1078.66 124.897 1069.82 123.069C1040.42 116.899 1025.72 104.407 1025.72 85.5928C1025.72 74.624 1030.25 65.4834 1039.32 58.1709C1048.46 50.7822 1060.38 47.0879 1075.08 47.0879C1090.77 47.0879 1103.3 50.7822 1112.67 58.1709C1122.11 65.5596 1126.84 75.1572 1126.84 86.9639H1093.82C1093.82 82.2412 1092.29 78.3564 1089.25 75.3096C1086.2 72.1865 1081.44 70.625 1074.96 70.625C1069.4 70.625 1065.1 71.8818 1062.05 74.3955C1059.01 76.9092 1057.48 80.1084 1057.48 83.9932C1057.48 87.6494 1059.2 90.6201 1062.62 92.9053C1066.13 95.1143 1071.99 97.0566 1080.22 98.7324C1088.45 100.332 1095.38 102.16 1101.01 104.217C1118.46 110.615 1127.18 121.698 1127.18 137.466C1127.18 148.739 1122.34 157.88 1112.67 164.888C1103 171.819 1090.5 175.285 1075.19 175.285C1064.83 175.285 1055.62 173.457 1047.54 169.801C1039.54 166.068 1033.26 161.003 1028.69 154.604C1024.12 148.13 1021.83 141.16 1021.83 133.695H1053.14C1053.45 139.561 1055.62 144.055 1059.65 147.178C1063.69 150.301 1069.1 151.862 1075.88 151.862C1082.2 151.862 1086.96 150.682 1090.16 148.32C1093.44 145.883 1095.07 142.722 1095.07 138.837Z" fill="#EFF0F8" fill-opacity="0.55"/>
</svg>
