<svg width="33" height="65" viewBox="0 0 33 65" fill="none" xmlns="http://www.w3.org/2000/svg">
<path fill-rule="evenodd" clip-rule="evenodd" d="M5.69366 2.4939C5.69366 3.87109 4.57715 4.98755 3.19986 4.98755C1.82257 4.98755 0.706055 3.87109 0.706055 2.4939C0.706055 1.11646 1.82257 0 3.19986 0C4.57715 0 5.69366 1.11646 5.69366 2.4939ZM18.9939 2.4939C18.9939 3.87109 17.8774 4.98755 16.5001 4.98755C15.1228 4.98755 14.0063 3.87109 14.0063 2.4939C14.0063 1.11646 15.1228 0 16.5001 0C17.8774 0 18.9939 1.11646 18.9939 2.4939ZM29.8004 4.98755C31.1777 4.98755 32.2942 3.87109 32.2942 2.4939C32.2942 1.11646 31.1777 0 29.8004 0C28.4231 0 27.3066 1.11646 27.3066 2.4939C27.3066 3.87109 28.4231 4.98755 29.8004 4.98755ZM16.5001 16.6252C17.8774 16.6252 18.9939 15.5088 18.9939 14.1316C18.9939 12.7542 17.8774 11.6377 16.5001 11.6377C15.1228 11.6377 14.0063 12.7542 14.0063 14.1316C14.0063 15.5088 15.1228 16.6252 16.5001 16.6252ZM3.19986 16.6255C4.57715 16.6255 5.69366 15.5088 5.69366 14.1316C5.69366 12.7544 4.57715 11.6379 3.19986 11.6379C1.82257 11.6379 0.706055 12.7544 0.706055 14.1316C0.706055 15.5088 1.82257 16.6255 3.19986 16.6255ZM32.2942 14.1316C32.2942 15.5088 31.1777 16.6252 29.8004 16.6252C28.4231 16.6252 27.3066 15.5088 27.3066 14.1316C27.3066 12.7542 28.4231 11.6377 29.8004 11.6377C31.1777 11.6377 32.2942 12.7542 32.2942 14.1316ZM3.19986 28.2629C4.57715 28.2629 5.69366 27.1465 5.69366 25.7693C5.69366 24.3918 4.57715 23.2754 3.19986 23.2754C1.82257 23.2754 0.706055 24.3918 0.706055 25.7693C0.706055 27.1465 1.82257 28.2629 3.19986 28.2629ZM16.5001 28.2629C17.8774 28.2629 18.9939 27.1465 18.9939 25.7693C18.9939 24.3918 17.8774 23.2754 16.5001 23.2754C15.1228 23.2754 14.0063 24.3918 14.0063 25.7693C14.0063 27.1465 15.1228 28.2629 16.5001 28.2629ZM32.2942 25.7693C32.2942 27.1465 31.1777 28.2629 29.8004 28.2629C28.4231 28.2629 27.3066 27.1465 27.3066 25.7693C27.3066 24.3918 28.4231 23.2754 29.8004 23.2754C31.1777 23.2754 32.2942 24.3918 32.2942 25.7693ZM5.69366 38.4939C5.69366 39.8711 4.57715 40.9875 3.19986 40.9875C1.82257 40.9875 0.706055 39.8711 0.706055 38.4939C0.706055 37.1165 1.82257 36 3.19986 36C4.57715 36 5.69366 37.1165 5.69366 38.4939ZM18.9939 38.4939C18.9939 39.8711 17.8774 40.9875 16.5001 40.9875C15.1228 40.9875 14.0063 39.8711 14.0063 38.4939C14.0063 37.1165 15.1228 36 16.5001 36C17.8774 36 18.9939 37.1165 18.9939 38.4939ZM29.8004 40.9875C31.1777 40.9875 32.2942 39.8711 32.2942 38.4939C32.2942 37.1165 31.1777 36 29.8004 36C28.4231 36 27.3066 37.1165 27.3066 38.4939C27.3066 39.8711 28.4231 40.9875 29.8004 40.9875ZM16.5001 52.6252C17.8774 52.6252 18.9939 51.5088 18.9939 50.1316C18.9939 48.7542 17.8774 47.6377 16.5001 47.6377C15.1228 47.6377 14.0063 48.7542 14.0063 50.1316C14.0063 51.5088 15.1228 52.6252 16.5001 52.6252ZM3.19986 52.6255C4.57715 52.6255 5.69366 51.5088 5.69366 50.1316C5.69366 48.7544 4.57715 47.6379 3.19986 47.6379C1.82257 47.6379 0.706055 48.7544 0.706055 50.1316C0.706055 51.5088 1.82257 52.6255 3.19986 52.6255ZM32.2942 50.1316C32.2942 51.5088 31.1777 52.6252 29.8004 52.6252C28.4231 52.6252 27.3066 51.5088 27.3066 50.1316C27.3066 48.7542 28.4231 47.6377 29.8004 47.6377C31.1777 47.6377 32.2942 48.7542 32.2942 50.1316ZM3.19986 64.2629C4.57715 64.2629 5.69366 63.1465 5.69366 61.7693C5.69366 60.3918 4.57715 59.2754 3.19986 59.2754C1.82257 59.2754 0.706055 60.3918 0.706055 61.7693C0.706055 63.1465 1.82257 64.2629 3.19986 64.2629ZM16.5001 64.2629C17.8774 64.2629 18.9939 63.1465 18.9939 61.7693C18.9939 60.3918 17.8774 59.2754 16.5001 59.2754C15.1228 59.2754 14.0063 60.3918 14.0063 61.7693C14.0063 63.1465 15.1228 64.2629 16.5001 64.2629ZM32.2942 61.7693C32.2942 63.1465 31.1777 64.2629 29.8004 64.2629C28.4231 64.2629 27.3066 63.1465 27.3066 61.7693C27.3066 60.3918 28.4231 59.2754 29.8004 59.2754C31.1777 59.2754 32.2942 60.3918 32.2942 61.7693Z" fill="#797BB8"/>
</svg>
