<svg width="134" height="125" viewBox="0 0 134 125" fill="none" xmlns="http://www.w3.org/2000/svg">
<path fill-rule="evenodd" clip-rule="evenodd" d="M25.7643 50.244C23.5176 50.244 21.6963 48.4227 21.6963 46.176C21.6963 43.9293 23.5176 42.108 25.7643 42.108C28.011 42.108 29.8323 43.9293 29.8323 46.176C29.8323 48.4227 28.011 50.244 25.7643 50.244ZM47.4602 50.244C45.2135 50.244 43.3922 48.4227 43.3922 46.176C43.3922 43.9293 45.2135 42.108 47.4602 42.108C49.7069 42.108 51.5282 43.9293 51.5282 46.176C51.5282 48.4227 49.7069 50.244 47.4602 50.244ZM3.8147e-06 46.176C3.8147e-06 48.4227 1.82132 50.244 4.06803 50.244C6.31474 50.244 8.13606 48.4227 8.13606 46.176C8.13606 43.9293 6.31474 42.108 4.06803 42.108C1.82132 42.108 3.8147e-06 43.9293 3.8147e-06 46.176ZM43.3923 65.1602C43.3923 67.4069 45.2136 69.2282 47.4603 69.2282C49.707 69.2282 51.5283 67.4069 51.5283 65.1602C51.5283 62.9134 49.707 61.0921 47.4603 61.0921C45.2136 61.0921 43.3923 62.9134 43.3923 65.1602ZM21.6964 65.1602C21.6964 67.4069 23.5177 69.2282 25.7644 69.2282C28.0111 69.2282 29.8324 67.4069 29.8324 65.1602C29.8324 62.9135 28.0111 61.0922 25.7644 61.0922C23.5177 61.0922 21.6964 62.9135 21.6964 65.1602ZM4.06812 69.2282C1.82141 69.2282 9.15527e-05 67.4069 9.15527e-05 65.1602C9.15527e-05 62.9135 1.82141 61.0922 4.06812 61.0922C6.31483 61.0922 8.13615 62.9135 8.13615 65.1602C8.13615 67.4069 6.31483 69.2282 4.06812 69.2282ZM21.6964 84.1442C21.6964 86.391 23.5177 88.2123 25.7644 88.2123C28.0111 88.2123 29.8324 86.391 29.8324 84.1442C29.8324 81.8975 28.0111 80.0762 25.7644 80.0762C23.5177 80.0762 21.6964 81.8975 21.6964 84.1442ZM43.3923 84.1443C43.3923 86.391 45.2136 88.2124 47.4603 88.2124C49.707 88.2124 51.5283 86.391 51.5283 84.1443C51.5283 81.8976 49.707 80.0763 47.4603 80.0763C45.2136 80.0763 43.3923 81.8976 43.3923 84.1443ZM4.06812 88.2123C1.82141 88.2123 9.15527e-05 86.391 9.15527e-05 84.1442C9.15527e-05 81.8975 1.82141 80.0762 4.06812 80.0762C6.31483 80.0762 8.13615 81.8975 8.13615 84.1442C8.13615 86.391 6.31483 88.2123 4.06812 88.2123Z" fill="#FFAC60"/>
<path d="M133.152 63.6494L62.1548 124.753L29.1917 0L133.152 63.6494Z" fill="#3ED7A0"/>
</svg>
