<?xml version="1.0" encoding="UTF-8" standalone="no"?>
<svg
   xmlns:dc="http://purl.org/dc/elements/1.1/"
   xmlns:cc="http://creativecommons.org/ns#"
   xmlns:rdf="http://www.w3.org/1999/02/22-rdf-syntax-ns#"
   xmlns:svg="http://www.w3.org/2000/svg"
   xmlns="http://www.w3.org/2000/svg"
   xmlns:sodipodi="http://sodipodi.sourceforge.net/DTD/sodipodi-0.dtd"
   xmlns:inkscape="http://www.inkscape.org/namespaces/inkscape"
   width="1219"
   height="193"
   overflow="hidden"
   id="svg2"
   version="1.1"
   inkscape:version="0.91 r13725"
   sodipodi:docname="Subjects.svg">
  <metadata
     id="metadata15">
    <rdf:RDF>
      <cc:Work
         rdf:about="">
        <dc:format>image/svg+xml</dc:format>
        <dc:type
           rdf:resource="http://purl.org/dc/dcmitype/StillImage" />
      </cc:Work>
    </rdf:RDF>
  </metadata>
  <sodipodi:namedview
     pagecolor="#ffffff"
     bordercolor="#666666"
     borderopacity="1"
     objecttolerance="10"
     gridtolerance="10"
     guidetolerance="10"
     inkscape:pageopacity="0"
     inkscape:pageshadow="2"
     inkscape:window-width="1366"
     inkscape:window-height="722"
     id="namedview13"
     showgrid="false"
     inkscape:zoom="0.67924528"
     inkscape:cx="282.16667"
     inkscape:cy="158.55566"
     inkscape:window-x="0"
     inkscape:window-y="0"
     inkscape:window-maximized="1"
     inkscape:current-layer="svg2" />
  <defs
     id="defs4">
    <clipPath
       id="clip0">
      <path
         d="M32 295 1251 295 1251 488 32 488Z"
         fill-rule="evenodd"
         clip-rule="evenodd"
         id="path7" />
    </clipPath>
  </defs>
  <g
     clip-path="url(#clip0)"
     transform="translate(-32 -295)"
     id="g9"
     style="fill:#eff0f8;fill-opacity:0.54901963">
    <path
       d="M425.006 404.012 425.006 452.95 447.644 452.95C457.303 452.95 464.871 450.706 470.347 446.218 475.823 441.73 478.561 435.602 478.561 427.833 478.561 420.411 475.866 414.585 470.476 410.355 465.086 406.126 457.562 404.012 447.903 404.012ZM425.006 328.92 425.006 372.939 443.376 372.939C452 372.939 458.791 370.846 463.75 366.66 468.709 362.474 471.188 356.713 471.188 349.376 471.188 335.739 461.012 328.92 440.659 328.92ZM959.86 298.107 1107.33 298.107 1107.33 332.157 1054.42 332.157 1054.42 483.763 1012.51 483.763 1012.51 332.157 959.86 332.157ZM671.146 298.107 778.127 298.107 778.127 332.157 712.93 332.157 712.93 373.457 773.6 373.457 773.6 407.378 712.93 407.378 712.93 449.843 782.396 449.843 782.396 483.763 671.146 483.763ZM588.881 298.107 630.535 298.107 630.535 410.096C630.535 434.954 624.779 453.986 613.266 467.191 601.753 480.397 585.087 487 563.268 487 553.523 487 544.511 485.317 536.232 481.951L536.232 442.722C543.39 448.16 551.41 450.879 560.293 450.879 579.352 450.879 588.881 436.724 588.881 408.413ZM383.223 298.107 450.749 298.107C471.447 298.107 487.358 301.905 498.483 309.5 509.608 317.096 515.17 327.798 515.17 341.608 515.17 351.62 511.786 360.381 505.016 367.89 498.246 375.399 489.6 380.621 479.079 383.556L479.079 384.073C492.274 385.713 502.817 390.59 510.708 398.703 518.598 406.817 522.544 416.699 522.544 428.351 522.544 445.355 516.464 458.841 504.304 468.81 492.144 478.779 475.543 483.763 454.501 483.763L383.223 483.763ZM189.075 298.107 230.988 298.107 230.988 405.824C230.988 435.86 242.716 450.879 266.174 450.879 289.2 450.879 300.713 436.378 300.713 407.378L300.713 298.107 342.496 298.107 342.496 403.364C342.496 459.121 316.538 487 264.621 487 214.257 487 189.075 459.769 189.075 405.306ZM1195.54 295C1205.2 295 1213.76 295.583 1221.22 296.748 1228.68 297.913 1235.55 299.704 1241.85 302.121L1241.85 340.831C1238.75 338.674 1235.36 336.775 1231.7 335.135 1228.03 333.495 1224.26 332.136 1220.38 331.057 1216.5 329.978 1212.64 329.179 1208.8 328.662 1204.96 328.144 1201.32 327.885 1197.87 327.885 1193.12 327.885 1188.81 328.338 1184.93 329.244 1181.05 330.15 1177.77 331.424 1175.1 333.063 1172.43 334.703 1170.36 336.667 1168.89 338.954 1167.43 341.241 1166.69 343.809 1166.69 346.658 1166.69 349.765 1167.51 352.548 1169.15 355.008 1170.79 357.468 1173.12 359.798 1176.14 361.999 1179.15 364.2 1182.82 366.358 1187.13 368.473 1191.44 370.587 1196.32 372.767 1201.75 375.011 1209.17 378.118 1215.83 381.419 1221.73 384.915 1227.64 388.411 1232.71 392.359 1236.93 396.761 1241.16 401.163 1244.39 406.191 1246.64 411.844 1248.88 417.498 1250 424.079 1250 431.588 1250 441.945 1248.04 450.641 1244.11 457.676 1240.19 464.71 1234.86 470.407 1228.14 474.765 1221.41 479.124 1213.59 482.253 1204.66 484.152 1195.73 486.051 1186.31 487 1176.39 487 1166.22 487 1156.54 486.137 1147.35 484.411 1138.17 482.684 1130.21 480.095 1123.49 476.643L1123.49 435.213C1130.99 441.514 1139.14 446.239 1147.93 449.39 1156.73 452.54 1165.61 454.115 1174.58 454.115 1179.84 454.115 1184.44 453.641 1188.36 452.691 1192.28 451.742 1195.56 450.426 1198.19 448.742 1200.82 447.059 1202.78 445.074 1204.08 442.787 1205.37 440.5 1206.02 438.018 1206.02 435.343 1206.02 431.717 1204.98 428.481 1202.91 425.632 1200.84 422.784 1198.02 420.152 1194.44 417.735 1190.86 415.318 1186.61 412.988 1181.7 410.744 1176.78 408.5 1171.48 406.212 1165.79 403.882 1151.3 397.84 1140.5 390.461 1133.38 381.743 1126.27 373.026 1122.71 362.496 1122.71 350.153 1122.71 340.486 1124.65 332.179 1128.53 325.231 1132.41 318.283 1137.69 312.564 1144.38 308.076 1151.06 303.588 1158.8 300.287 1167.6 298.172 1176.39 296.057 1185.71 295 1195.54 295ZM899.298 295C917.408 295 932.672 297.287 945.091 301.862L945.091 342.126C932.672 334.703 918.529 330.992 902.661 330.992 885.24 330.992 871.183 336.473 860.49 347.434 849.796 358.396 844.449 373.241 844.449 391.971 844.449 409.924 849.494 424.23 859.584 434.889 869.674 445.549 883.257 450.879 900.332 450.879 916.632 450.879 931.551 446.908 945.091 438.968L945.091 477.16C931.551 483.72 913.872 487 892.053 487 863.594 487 841.215 478.628 824.916 461.883 808.616 445.139 800.466 422.827 800.466 394.949 800.466 365.258 809.629 341.177 827.956 322.706 846.281 304.235 870.062 295 899.298 295ZM105.83 295C115.489 295 124.048 295.583 131.508 296.748 138.967 297.913 145.845 299.704 152.141 302.121L152.141 340.831C149.036 338.674 145.651 336.775 141.986 335.135 138.321 333.495 134.548 332.136 130.667 331.057 126.786 329.978 122.927 329.179 119.089 328.662 115.251 328.144 111.608 327.885 108.158 327.885 103.415 327.885 99.103 328.338 95.2222 329.244 91.3414 330.15 88.0643 331.424 85.3908 333.063 82.7174 334.703 80.6476 336.667 79.1815 338.954 77.7154 341.241 76.9824 343.809 76.9824 346.658 76.9824 349.765 77.8017 352.548 79.4402 355.008 81.0788 357.468 83.4073 359.798 86.4257 361.999 89.4441 364.2 93.1093 366.358 97.4213 368.473 101.733 370.587 106.606 372.767 112.039 375.011 119.456 378.118 126.118 381.419 132.025 384.915 137.933 388.411 142.999 392.359 147.225 396.761 151.451 401.163 154.685 406.191 156.927 411.844 159.169 417.498 160.29 424.079 160.29 431.588 160.29 441.945 158.328 450.641 154.404 457.676 150.481 464.71 145.155 470.407 138.428 474.765 131.702 479.124 123.875 482.253 114.95 484.152 106.024 486.051 96.6021 487 86.6844 487 76.5081 487 66.8276 486.137 57.6431 484.411 48.4586 482.684 40.5029 480.095 33.7762 476.643L33.7762 435.213C41.2791 441.514 49.4287 446.239 58.2252 449.39 67.0217 452.54 75.9044 454.115 84.8733 454.115 90.134 454.115 94.7263 453.641 98.6502 452.691 102.574 451.742 105.851 450.426 108.482 448.742 111.112 447.059 113.074 445.074 114.368 442.787 115.661 440.5 116.308 438.018 116.308 435.343 116.308 431.717 115.273 428.481 113.203 425.632 111.134 422.784 108.309 420.152 104.73 417.735 101.151 415.318 96.9038 412.988 91.9882 410.744 87.0725 408.5 81.7687 406.212 76.0769 403.882 61.5886 397.84 50.787 390.461 43.6722 381.743 36.5574 373.026 33 362.496 33 350.153 33 340.486 34.9404 332.179 38.8212 325.231 42.702 318.283 47.9841 312.564 54.6678 308.076 61.3514 303.588 69.0915 300.287 77.8879 298.172 86.6844 296.057 95.9983 295 105.83 295Z"
       fill="#F6F7FB"
       fill-rule="evenodd"
       id="path11"
       style="fill:#eff0f8;fill-opacity:1" />
  </g>
</svg>
