<svg width="335" height="369" viewBox="0 0 335 369" fill="none" xmlns="http://www.w3.org/2000/svg">
<ellipse cx="124.5" cy="156" rx="66.5" ry="67" fill="url(#paint0_linear)"/>
<path fill-rule="evenodd" clip-rule="evenodd" d="M130.237 98.7059C135.092 96.0737 141.162 97.8758 143.794 102.731L161.234 134.898C163.866 139.753 162.064 145.823 157.208 148.455L120.705 168.246L112.799 180.6L106.103 175.619C101.948 176.402 97.5867 174.472 95.4632 170.555L78.024 138.388C75.3917 133.533 77.1938 127.463 82.0491 124.831L130.237 98.7059Z" fill="white"/>
<circle cx="198.5" cy="242.5" r="83.5" fill="url(#paint1_linear)"/>
<ellipse cx="231" cy="312.5" rx="32" ry="31.5" fill="url(#paint2_linear)"/>
<path fill-rule="evenodd" clip-rule="evenodd" d="M189.677 199.242C184.286 198.039 178.941 201.433 177.738 206.824L169.242 244.887C168.039 250.277 171.433 255.622 176.824 256.825L219.491 266.349L230.943 276.482L236.152 269.688C240.516 269.454 244.37 266.354 245.369 261.879L253.865 223.816C255.068 218.425 251.674 213.081 246.284 211.877L189.677 199.242Z" fill="white"/>
<path d="M247 317.779L216.165 312C214.59 325.355 224.694 329.55 229.942 329.978C242.539 330.491 246.563 322.059 247 317.779Z" fill="white"/>
<circle cx="313.5" cy="216.5" r="13.5" fill="url(#paint3_linear)"/>
<circle cx="177.5" cy="73.5" r="13.5" fill="#8AD3FA"/>
<circle cx="13.5" cy="118.5" r="13.5" fill="url(#paint4_linear)"/>
<circle cx="315" cy="54" r="20" fill="url(#paint5_linear)"/>
<circle cx="85" cy="236" r="11" fill="url(#paint6_linear)"/>
<circle cx="109.295" cy="214.249" r="31.6892" fill="url(#paint7_linear)"/>
<path d="M125.368 211.659L96.6696 223.244C102.657 235.389 113.316 233.541 117.898 231.099C128.613 224.803 127.342 215.516 125.368 211.659Z" fill="white"/>
<ellipse cx="119.5" cy="315" rx="3.5" ry="3" fill="#60ABFB"/>
<circle cx="181.5" cy="355.5" r="13.5" fill="#60ABFB"/>
<circle cx="262" cy="138" r="10" fill="url(#paint8_linear)"/>
<circle cx="130" cy="10" r="10" fill="url(#paint9_linear)"/>
<defs>
<linearGradient id="paint0_linear" x1="81" y1="209" x2="183" y2="112" gradientUnits="userSpaceOnUse">
<stop stop-color="#FF485E"/>
<stop offset="1" stop-color="#FF9D97"/>
</linearGradient>
<linearGradient id="paint1_linear" x1="160.843" y1="167.186" x2="229.608" y2="330.912" gradientUnits="userSpaceOnUse">
<stop stop-color="#5E75FF"/>
<stop offset="1" stop-color="#A1ACFB"/>
</linearGradient>
<linearGradient id="paint2_linear" x1="209" y1="334.5" x2="257.5" y2="291.5" gradientUnits="userSpaceOnUse">
<stop stop-color="#7B74C8"/>
<stop offset="1" stop-color="#9C95E7"/>
</linearGradient>
<linearGradient id="paint3_linear" x1="303" y1="226" x2="323.5" y2="209.5" gradientUnits="userSpaceOnUse">
<stop stop-color="#3ED7A0"/>
<stop offset="1" stop-color="#57E4B1"/>
</linearGradient>
<linearGradient id="paint4_linear" x1="7.41177" y1="106.324" x2="18.5294" y2="132.794" gradientUnits="userSpaceOnUse">
<stop stop-color="#ADB9FE"/>
<stop offset="1" stop-color="#A1ACFB"/>
</linearGradient>
<linearGradient id="paint5_linear" x1="315" y1="34" x2="315" y2="74" gradientUnits="userSpaceOnUse">
<stop stop-color="#FD858F"/>
<stop offset="1" stop-color="#FF9D97"/>
</linearGradient>
<linearGradient id="paint6_linear" x1="85" y1="225" x2="85" y2="247" gradientUnits="userSpaceOnUse">
<stop stop-color="#FD858F"/>
<stop offset="1" stop-color="#FF9D97"/>
</linearGradient>
<linearGradient id="paint7_linear" x1="90.5" y1="236.5" x2="129.5" y2="193.5" gradientUnits="userSpaceOnUse">
<stop stop-color="#F8D7A5"/>
<stop offset="1" stop-color="#F9DEB7"/>
</linearGradient>
<linearGradient id="paint8_linear" x1="262" y1="128" x2="262" y2="148" gradientUnits="userSpaceOnUse">
<stop stop-color="#FD858F"/>
<stop offset="1" stop-color="#FF9D97"/>
</linearGradient>
<linearGradient id="paint9_linear" x1="123" y1="16.5" x2="138.5" y2="6" gradientUnits="userSpaceOnUse">
<stop stop-color="#3ED7A0"/>
<stop offset="1" stop-color="#5BE2B2"/>
</linearGradient>
</defs>
</svg>
