<svg width="32" height="23" viewBox="0 0 32 23" fill="none" xmlns="http://www.w3.org/2000/svg">
<path fill-rule="evenodd" clip-rule="evenodd" d="M0.796323 14.9332C0.7746 15.1582 0.763486 15.3864 0.763486 15.6172C0.763486 19.501 3.91193 22.6494 7.79574 22.6494C11.6796 22.6494 14.828 19.501 14.828 15.6172C14.828 11.7333 11.6796 8.5849 7.79574 8.5849C7.62627 8.5849 7.45819 8.59089 7.29172 8.60268C7.02509 7.25567 6.99171 3.97542 8.75469 6.67572e-05C6.27361 2.4507 1.20186 8.89542 0.763486 15.0692C0.772775 15.0258 0.783701 14.9805 0.796323 14.9332Z" fill="#3ED7A0"/>
<path fill-rule="evenodd" clip-rule="evenodd" d="M17.2049 14.9332C17.1832 15.1582 17.1721 15.3864 17.1721 15.6172C17.1721 19.501 20.3205 22.6494 24.2043 22.6494C28.0881 22.6494 31.2366 19.501 31.2366 15.6172C31.2366 11.7333 28.0881 8.5849 24.2043 8.5849C24.0348 8.5849 23.8668 8.59089 23.7003 8.60268C23.4337 7.25567 23.4003 3.97542 25.1633 6.67572e-05C22.6822 2.4507 17.6104 8.89542 17.1721 15.0692C17.1813 15.0258 17.1923 14.9805 17.2049 14.9332Z" fill="#3ED7A0"/>
</svg>
