<svg width="55" height="49" viewBox="0 0 55 49" fill="none" xmlns="http://www.w3.org/2000/svg">
<path fill-rule="evenodd" clip-rule="evenodd" d="M4.29568 8.59136C6.66812 8.59136 8.59136 6.66812 8.59136 4.29568C8.59136 1.92324 6.66812 0 4.29568 0C1.92324 0 0 1.92324 0 4.29568C0 6.66812 1.92324 8.59136 4.29568 8.59136ZM27.206 8.59145C29.5784 8.59145 31.5017 6.66821 31.5017 4.29577C31.5017 1.92333 29.5784 9.0003e-05 27.206 9.0003e-05C24.8335 9.0003e-05 22.9103 1.92333 22.9103 4.29577C22.9103 6.66821 24.8335 8.59145 27.206 8.59145ZM54.412 4.29577C54.412 6.66821 52.4887 8.59145 50.1163 8.59145C47.7438 8.59145 45.8206 6.66821 45.8206 4.29577C45.8206 1.92333 47.7438 9.0003e-05 50.1163 9.0003e-05C52.4887 9.0003e-05 54.412 1.92333 54.412 4.29577ZM31.5017 24.3422C31.5017 26.7146 29.5784 28.6379 27.206 28.6379C24.8335 28.6379 22.9103 26.7146 22.9103 24.3422C22.9103 21.9698 24.8335 20.0465 27.206 20.0465C29.5784 20.0465 31.5017 21.9698 31.5017 24.3422ZM8.59136 24.3422C8.59136 26.7146 6.66812 28.6379 4.29568 28.6379C1.92324 28.6379 0 26.7146 0 24.3422C0 21.9698 1.92324 20.0465 4.29568 20.0465C6.66812 20.0465 8.59136 21.9698 8.59136 24.3422ZM50.1163 28.6379C52.4887 28.6379 54.412 26.7146 54.412 24.3422C54.412 21.9698 52.4887 20.0465 50.1163 20.0465C47.7438 20.0465 45.8206 21.9698 45.8206 24.3422C45.8206 26.7146 47.7438 28.6379 50.1163 28.6379ZM31.5017 44.3884C31.5017 46.7608 29.5784 48.6841 27.206 48.6841C24.8335 48.6841 22.9103 46.7608 22.9103 44.3884C22.9103 42.0159 24.8335 40.0927 27.206 40.0927C29.5784 40.0927 31.5017 42.0159 31.5017 44.3884ZM8.59136 44.3885C8.59136 46.7609 6.66812 48.6842 4.29568 48.6842C1.92324 48.6842 0 46.7609 0 44.3885C0 42.0161 1.92324 40.0928 4.29568 40.0928C6.66812 40.0928 8.59136 42.0161 8.59136 44.3885ZM50.1163 48.6841C52.4887 48.6841 54.412 46.7608 54.412 44.3884C54.412 42.0159 52.4887 40.0927 50.1163 40.0927C47.7438 40.0927 45.8206 42.0159 45.8206 44.3884C45.8206 46.7608 47.7438 48.6841 50.1163 48.6841Z" fill="#797BB8"/>
</svg>
