<svg width="105" height="105" xmlns="http://www.w3.org/2000/svg" xmlns:xlink="http://www.w3.org/1999/xlink" overflow="hidden"><defs><clipPath id="clip0"><path d="M106 106 211 106 211 211 106 211Z" fill-rule="evenodd" clip-rule="evenodd"/></clipPath><linearGradient x1="158.5" y1="107" x2="158.5" y2="210" gradientUnits="userSpaceOnUse" spreadMethod="reflect" id="fill1"><stop offset="0" stop-color="#5F768B"/><stop offset="0.0666667" stop-color="#60778C"/><stop offset="0.133333" stop-color="#62798E"/><stop offset="0.2" stop-color="#637B90"/><stop offset="0.266667" stop-color="#657C92"/><stop offset="0.333333" stop-color="#667D93"/><stop offset="0.4" stop-color="#677F94"/><stop offset="0.466667" stop-color="#688096"/><stop offset="0.533333" stop-color="#698197"/><stop offset="0.6" stop-color="#6A8298"/><stop offset="0.666667" stop-color="#6B8398"/><stop offset="0.733333" stop-color="#6B8399"/><stop offset="0.8" stop-color="#6C849A"/><stop offset="0.866667" stop-color="#6C849A"/><stop offset="0.933333" stop-color="#6C849A"/><stop offset="1" stop-color="#6D859B"/></linearGradient></defs><g clip-path="url(#clip0)" transform="translate(-106 -106)"><path d="M107 158.5C107 130.057 130.057 107 158.5 107 186.943 107 210 130.057 210 158.5 210 186.943 186.943 210 158.5 210 130.057 210 107 186.943 107 158.5Z" fill="url(#fill1)" fill-rule="evenodd"/><path d="M171.99 162.205C171.099 163.268 169.597 164.98 168.243 165.831 166.541 166.894 164.219 167.534 161.742 167.534 154.817 167.534 152.727 163.004 152.727 158.595 152.727 153.974 154.778 149.11 160.892 149.11 161.897 149.11 164.334 149.14 166.464 150.903 168.437 152.453 168.708 154.248 168.901 155.372L171.99 155.362 171.99 147.69 168.873 147.69 168.243 148.988C166.927 148.288 164.489 146.982 159.962 146.982 151.373 146.982 144.989 152.242 144.989 158.899 144.989 164.767 149.864 168.173 155.011 169.389 156.751 169.814 158.648 170.046 160.505 169.966 166.846 169.691 169.625 167.973 171.99 166.008" fill="#FFFFFF" fill-rule="evenodd"/><path d="M172.989 147.982 172.989 155.481 175.198 155.438C175.309 154.398 175.448 152.014 176.232 151.153 177.238 150.082 178.43 150.082 179.698 150.082L182.829 150.082 182.829 164.525C182.829 165.299 182.792 166.368 181.338 166.754 180.816 166.873 180.555 166.873 178.729 166.873L178.729 168.982 194.312 168.982 194.312 166.873C192.709 166.873 192.411 166.873 191.926 166.784 190.137 166.456 190.137 165.21 190.137 164.436L190.137 150.082 193.305 150.082C194.274 150.082 195.431 150.082 196.288 150.617 197.519 151.42 197.629 154.131 197.778 155.438L199.989 155.481 199.989 147.982" fill="#FFFFFF" fill-rule="evenodd"/><path d="M120.693 164.075C119.228 166.574 118.418 166.752 115.991 166.871L115.991 168.982 126.862 168.982 126.862 166.871C125.282 166.871 124.973 166.871 124.549 166.752 123.893 166.604 123.662 166.246 123.662 165.77 123.662 165.443 123.778 165.146 123.971 164.849L130.543 152.497 136.076 164.789C136.23 165.146 136.346 165.474 136.346 165.829 136.346 166.841 135.111 166.871 134.34 166.871L133.146 166.871 133.146 168.982 148.991 168.982 148.991 166.871C146.215 166.871 145.251 166.454 143.786 163.956L135.651 147.982 129.791 147.982" fill="#FFFFFF" fill-rule="evenodd"/><path d="M137.814 159.407C137.959 159.35 138.276 159.456 138.378 159.525 138.426 159.651 138.19 159.634 138.084 159.714 138.108 159.833 138.07 159.779 138.113 159.792 138.335 159.768 139.152 159.967 139.617 160.222 139.636 160.376 139.737 160.333 139.802 160.353 139.758 160.34 139.644 160.365 139.615 160.394L139.709 160.514C139.785 160.352 139.918 160.611 139.99 160.596 139.352 160.921 138.813 160.942 138.1 160.909 137.984 160.91 137.727 161.045 137.529 160.938 137.185 161.055 137.042 160.991 136.686 161.031 134.006 161.361 131.542 161.96 128.83 162.831 127.791 163.163 126.722 163.891 125.657 163.982 125.41 163.977 124.973 163.679 124.991 163.241 125.021 162.463 125.383 161.861 126.886 160.859 127.653 160.406 128.539 160.028 129.43 159.707 131.497 159.189 133.517 158.794 135.646 159.076 136.303 158.906 136.732 159.028 137.34 159.253 137.804 159.255 137.601 159.333 137.814 159.407" fill="#FE5E5E" fill-rule="evenodd"/></g></svg>