<svg width="105" height="104" xmlns="http://www.w3.org/2000/svg" xmlns:xlink="http://www.w3.org/1999/xlink" overflow="hidden"><defs><clipPath id="clip0"><path d="M106-1 211-1 211 103 106 103Z" fill-rule="evenodd" clip-rule="evenodd"/></clipPath><linearGradient x1="158.5" y1="-1.22221e-14" x2="158.5" y2="103" gradientUnits="userSpaceOnUse" spreadMethod="reflect" id="fill1"><stop offset="0" stop-color="#FD8593"/><stop offset="0.0434783" stop-color="#FD8693"/><stop offset="0.0869565" stop-color="#FD8893"/><stop offset="0.130435" stop-color="#FD8A93"/><stop offset="0.173913" stop-color="#FD8C94"/><stop offset="0.217391" stop-color="#FD8D94"/><stop offset="0.26087" stop-color="#FD8F94"/><stop offset="0.304348" stop-color="#FD9094"/><stop offset="0.347826" stop-color="#FE9295"/><stop offset="0.391304" stop-color="#FE9395"/><stop offset="0.434783" stop-color="#FE9495"/><stop offset="0.478261" stop-color="#FE9595"/><stop offset="0.521739" stop-color="#FE9695"/><stop offset="0.565217" stop-color="#FE9796"/><stop offset="0.608696" stop-color="#FE9896"/><stop offset="0.652174" stop-color="#FE9996"/><stop offset="0.695652" stop-color="#FE9A96"/><stop offset="0.73913" stop-color="#FE9B96"/><stop offset="0.782609" stop-color="#FE9B96"/><stop offset="0.826087" stop-color="#FE9C96"/><stop offset="0.869565" stop-color="#FE9C96"/><stop offset="0.913043" stop-color="#FE9C96"/><stop offset="0.956522" stop-color="#FE9C96"/><stop offset="1" stop-color="#FF9D97"/></linearGradient></defs><g clip-path="url(#clip0)" transform="translate(-106 1)"><path d="M107 51.5C107 23.0573 130.057-6.55664e-15 158.5-1.31133e-14 186.943-2.62265e-14 210 23.0573 210 51.5 210 79.9427 186.943 103 158.5 103 130.057 103 107 79.9427 107 51.5Z" fill="url(#fill1)" fill-rule="evenodd"/><path d="M189.586 21.0534C189.278 21.2318 184.051 21.2673 158.008 21.2683 132.903 21.2693 129.109 21.2468 127.707 21.0883 127.348 21.0477 126.894 21.351 127.022 21.5466 127.157 21.7538 127.176 23.8079 127.213 42.7821 127.253 63.9546 127.24 63.0313 127.535 64.6768 127.575 64.9001 127.632 65.6158 127.661 66.2673 127.707 67.2903 127.738 67.5163 127.89 67.9254 127.987 68.186 128.067 68.5033 128.068 68.6305 128.07 69.0452 128.221 69.7376 128.377 70.0531 128.461 70.223 128.549 70.5491 128.571 70.7778 128.612 71.1912 128.706 71.4875 128.859 71.6817 128.902 71.7375 128.975 71.9355 129.02 72.1216 129.065 72.3078 129.192 72.634 129.303 72.8465 129.414 73.059 129.504 73.2775 129.504 73.3319 129.504 73.3864 129.582 73.523 129.678 73.6355 129.774 73.7478 129.901 73.982 129.96 74.1558 130.02 74.3294 130.232 74.7109 130.431 75.0036 130.63 75.2962 130.813 75.605 130.839 75.6899 130.864 75.7747 130.974 75.9354 131.084 76.0471 131.391 76.3596 131.72 76.7613 131.938 77.0884 132.291 77.6185 132.335 77.6721 132.785 78.1264 133.466 78.8141 133.878 79.2012 134.172 79.4311 134.267 79.5056 134.52 79.7035 134.735 79.8711 134.95 80.0386 135.314 80.3394 135.544 80.5397 135.775 80.7401 136.077 80.9748 136.214 81.0616 136.352 81.1482 136.485 81.2514 136.51 81.2908 136.534 81.3303 136.698 81.4367 136.874 81.5272 137.05 81.6177 137.267 81.7695 137.355 81.8644 137.444 81.9592 137.559 82.0368 137.611 82.0368 137.663 82.0368 137.785 82.1248 137.882 82.2323 137.978 82.3399 138.147 82.4455 138.256 82.4671 138.365 82.4886 138.515 82.5666 138.59 82.6402 138.75 82.7989 139.096 82.9844 139.232 82.9844 139.285 82.9844 139.402 83.0563 139.492 83.1441 139.581 83.2321 139.756 83.3554 139.881 83.4184 140.005 83.4813 140.122 83.5745 140.142 83.6256 140.162 83.6766 140.306 83.769 140.463 83.8307 140.62 83.8927 140.841 84.0121 140.954 84.0965 141.066 84.1808 141.272 84.2864 141.409 84.3312 141.547 84.3759 141.693 84.452 141.734 84.5003 141.774 84.5483 141.938 84.6439 142.098 84.7122 142.258 84.7808 142.451 84.8889 142.526 84.9523 142.601 85.016 142.832 85.1383 143.038 85.2239 143.245 85.3097 143.43 85.4016 143.449 85.4282 143.468 85.4546 143.621 85.5292 143.79 85.594 143.96 85.6586 144.192 85.7985 144.306 85.9046 144.421 86.0109 144.591 86.0977 144.684 86.0977 144.778 86.0977 145.022 86.2053 145.228 86.3369 145.433 86.4684 145.679 86.5951 145.772 86.6183 145.866 86.6415 146.036 86.7286 146.148 86.8117 146.261 86.8948 146.449 86.9828 146.566 87.0073 146.683 87.0317 146.937 87.153 147.131 87.2765 147.325 87.4002 147.621 87.5535 147.79 87.6173 147.958 87.6811 148.097 87.7581 148.097 87.7885 148.097 87.819 148.249 87.88 148.435 87.9242 148.621 87.9685 148.813 88.0525 148.862 88.111 148.911 88.1694 149.089 88.281 149.259 88.3589 149.428 88.4367 149.66 88.5668 149.775 88.6481 149.89 88.7294 150.075 88.8179 150.185 88.845 150.378 88.892 151.295 89.3174 151.651 89.5249 151.745 89.5797 151.929 89.6716 152.061 89.7289 152.193 89.7864 152.393 89.902 152.505 89.9858 152.618 90.0695 152.833 90.1775 152.984 90.2257 153.134 90.2741 153.342 90.383 153.445 90.4682 153.548 90.5533 153.702 90.6426 153.787 90.6668 154.03 90.7362 154.376 90.9008 154.417 90.9671 154.438 91.0005 154.601 91.0812 154.779 91.1466 154.957 91.2121 155.182 91.3197 155.28 91.3857 155.377 91.4519 155.631 91.5705 155.844 91.6492 156.056 91.728 156.231 91.8184 156.231 91.8499 156.231 91.8813 156.377 91.9615 156.555 92.0282 156.734 92.0948 157 92.2343 157.147 92.3383 157.293 92.4422 157.467 92.5273 157.532 92.5273 157.597 92.5273 157.807 92.6339 157.998 92.7642 158.427 93.0559 158.728 93.0756 159.022 92.8311 159.134 92.7375 159.344 92.6126 159.488 92.5536 159.633 92.4947 159.843 92.3778 159.956 92.294 160.069 92.2102 160.284 92.1023 160.434 92.0541 160.585 92.0057 160.791 91.8974 160.894 91.813 160.996 91.7287 161.234 91.6089 161.423 91.5468 161.612 91.4847 161.79 91.3952 161.818 91.3482 161.847 91.301 162.024 91.2064 162.212 91.1377 162.4 91.0692 162.628 90.957 162.719 90.8884 162.81 90.8199 163.015 90.7313 163.174 90.6913 163.334 90.6516 163.521 90.5671 163.59 90.5035 163.659 90.4401 163.808 90.3401 163.92 90.2812 164.033 90.2225 164.4 90.0331 164.735 89.8606 165.071 89.6878 165.382 89.5162 165.427 89.4793 165.472 89.4423 165.675 89.3634 165.877 89.3044 166.079 89.2452 166.268 89.1567 166.296 89.1078 166.325 89.0587 166.5 88.9685 166.686 88.9073 166.872 88.846 167.126 88.7289 167.25 88.647 167.374 88.5653 167.613 88.4387 167.782 88.3658 167.952 88.2929 168.105 88.2173 168.124 88.1976 168.203 88.1152 168.597 87.9251 168.689 87.9251 168.744 87.9251 168.905 87.8471 169.047 87.7516 169.189 87.6562 169.431 87.5291 169.586 87.4691 169.741 87.4092 169.938 87.3063 170.025 87.2403 170.112 87.1745 170.297 87.0846 170.435 87.0406 170.574 86.9968 170.78 86.8931 170.892 86.8102 171.005 86.7275 171.211 86.6229 171.35 86.5779 171.488 86.5329 171.678 86.4362 171.772 86.3632 171.866 86.2899 172.074 86.1845 172.233 86.1288 172.393 86.073 172.624 85.9518 172.746 85.8594 172.868 85.7671 173.014 85.6916 173.07 85.6916 173.126 85.6916 173.264 85.6151 173.376 85.5215 173.488 85.428 173.703 85.3087 173.853 85.2562 174.003 85.2038 174.244 85.0842 174.389 84.9904 174.533 84.8967 174.737 84.7994 174.841 84.7744 174.946 84.7491 175.115 84.6402 175.217 84.5319 175.33 84.4131 175.503 84.3194 175.655 84.295 175.804 84.271 175.983 84.1755 176.095 84.0595 176.199 83.952 176.321 83.8642 176.366 83.8642 176.411 83.8642 176.604 83.7576 176.796 83.6273 176.987 83.4971 177.173 83.3904 177.208 83.3904 177.244 83.3904 177.372 83.3084 177.492 83.2079 177.613 83.1076 177.861 82.9566 178.044 82.8727 178.227 82.7886 178.377 82.6917 178.377 82.6573 178.377 82.6228 178.477 82.5558 178.599 82.5082 178.722 82.4605 178.914 82.3399 179.027 82.2399 179.139 82.1399 179.339 82.0167 179.471 81.9661 179.602 81.9155 179.791 81.7964 179.89 81.7017 180.073 81.5255 180.316 81.3446 180.966 80.9007 181.168 80.7624 181.449 80.5504 181.59 80.4294 181.73 80.3085 181.864 80.2095 181.887 80.2095 181.91 80.2095 182.142 80.0039 182.404 79.7526 182.665 79.5014 182.919 79.2579 182.969 79.2115 183.019 79.1651 183.121 79.0677 183.196 78.9949 183.271 78.9222 183.587 78.6276 183.897 78.3405 184.207 78.0533 184.461 77.7799 184.461 77.7329 184.461 77.6858 184.544 77.5823 184.646 77.5027 184.749 77.4231 184.964 77.2 185.125 77.0072 185.287 76.8141 185.491 76.5801 185.579 76.487 185.667 76.394 185.776 76.2229 185.822 76.1068 185.868 75.9906 186.011 75.7943 186.14 75.6705 186.269 75.5466 186.375 75.4195 186.375 75.3879 186.375 75.3564 186.449 75.2512 186.54 75.1541 186.631 75.0571 186.724 74.8791 186.746 74.7586 186.769 74.638 186.86 74.4675 186.947 74.3796 187.146 74.1796 187.263 73.9629 187.263 73.7935 187.263 73.7218 187.355 73.5482 187.468 73.4076 187.591 73.2551 187.673 73.0722 187.673 72.9539 187.673 72.7318 187.771 72.515 187.946 72.3484 188.01 72.2869 188.101 72.0438 188.148 71.8078 188.195 71.5719 188.307 71.254 188.398 71.1013 188.488 70.9487 188.562 70.7186 188.562 70.5902 188.562 70.2968 188.733 69.6344 188.9 69.2791 188.982 69.1061 189.045 68.764 189.075 68.3315 189.101 67.9593 189.169 67.5481 189.225 67.4178 189.433 66.9354 189.46 66.7441 189.521 65.3197 189.555 64.5194 189.613 63.6357 189.65 63.356 189.834 61.953 189.862 59.4864 189.897 42.0376 189.917 32.0429 189.956 23.3172 189.984 22.6471 190.043 21.2245 189.948 20.8441 189.586 21.0534M131.042 22.1047C134.533 22.1646 141.188 22.208 146.844 22.2075L151.982 22.2072 152.062 22.4466C152.191 22.8327 152.17 45.7348 152.041 46.0411L151.946 46.2677 150.209 46.2568C148.58 46.2465 146.766 46.2463 145.431 46.2563 145.111 46.2587 144.727 46.2507 144.576 46.2385 144.327 46.2184 139.692 46.2247 138.8 46.2463 138.293 46.2587 138.446 46.2585 134.118 46.2468 132.013 46.2413 129.913 46.2374 129.452 46.2382 128.494 46.2402 128.274 46.1741 128.199 45.8616 128.172 45.7499 128.133 40.6789 128.11 34.5928 128.088 28.5066 128.05 23.2461 128.025 22.9028 127.972 22.1652 128.086 21.9766 128.547 22.0353 128.679 22.0521 129.802 22.0833 131.042 22.1047M189.007 22.1399C189.125 22.2695 189.127 22.3879 189.042 24.7963 188.953 27.3364 188.92 30.803 188.912 38.146 188.903 46.3632 188.922 45.9885 188.509 46.1858 188.195 46.3352 165.277 46.2864 165.125 46.1358 165.013 46.0248 164.909 23.554 165.017 22.7684 165.1 22.1605 164.06 22.2245 174.618 22.1769 184.018 22.1346 188.499 22.0886 188.555 22.0338 188.633 21.9566 188.895 22.0182 189.007 22.1399M174.242 23.9163C174.091 24.0744 173.915 24.3544 173.849 24.5383 173.679 25.0171 173.636 25.0391 173.337 24.8019 172.639 24.2461 172.463 24.3018 172.388 25.1038 172.334 25.6856 172.301 25.7183 171.722 25.7719 171.144 25.8254 171.04 25.9291 171.041 26.455 171.041 26.8413 171.166 27.3509 171.26 27.3509 171.287 27.3509 171.397 27.488 171.504 27.6555 171.734 28.0159 171.784 28.027 171.938 27.7519 172.184 27.3117 172.198 27.3044 172.319 27.5377 172.39 27.6721 172.43 27.9178 172.43 28.2049 172.43 28.8873 172.558 29.4952 172.815 30.0348 173.113 30.6597 173.124 30.938 172.851 30.938 172.396 30.938 172.02 31.7844 172.02 32.8102 172.02 33.7066 171.918 33.9388 171.498 34.0063 171.307 34.0369 171.182 34.1143 171.043 34.2868 170.596 34.8445 169.522 34.3386 169.178 33.4083 169.109 33.2222 169.015 33.0395 168.969 33.0023 168.749 32.8231 168.715 32.3424 168.71 29.3424L168.705 26.3594 168.527 26.1276C168.429 26 168.325 25.8205 168.295 25.7285 168.241 25.5564 167.689 24.9821 167.579 24.9821 167.463 24.9821 167.407 25.1513 167.356 25.6589 167.328 25.9381 167.286 26.3538 167.263 26.5827 167.21 27.0976 167.314 27.4367 167.601 27.6908 167.796 27.8626 167.814 27.9156 167.814 28.2907 167.814 28.9636 167.591 29.0634 167.31 28.5157 167.152 28.2059 166.962 28.0954 166.59 28.0954 166.249 28.0954 166.164 28.2418 166.34 28.5245 166.419 28.6509 166.484 28.8152 166.484 28.8895 166.484 28.9639 166.544 29.1006 166.618 29.1934 166.691 29.2862 166.814 29.5269 166.89 29.728 166.967 29.9331 167.134 30.1927 167.269 30.3184 167.562 30.592 167.562 30.6136 167.295 31.1273 167.096 31.5077 167.089 31.547 167.192 31.6491 167.253 31.7099 167.324 31.8412 167.349 31.941 167.374 32.0408 167.529 32.2747 167.693 32.4608 168.058 32.8737 168.099 33.0161 167.987 33.4777 167.88 33.9175 167.93 34.199 168.157 34.4411 168.252 34.5423 168.33 34.656 168.331 34.6936 168.338 34.935 168.985 35.4049 169.312 35.4049 169.785 35.4049 169.775 35.7543 169.299 35.881 168.855 35.9993 168.819 36.0496 169.029 36.2673 169.127 36.37 169.229 36.5453 169.253 36.657 169.278 36.7687 169.313 36.9127 169.331 36.977 169.388 37.1873 169.893 37.2717 170.028 37.0935 170.09 37.0121 170.195 36.8957 170.262 36.8352 170.329 36.7744 170.467 36.6426 170.57 36.5424 170.68 36.435 170.893 36.3298 171.092 36.2858 171.786 36.1321 171.917 35.9656 171.976 35.1626 171.995 34.8992 172.055 34.5794 172.109 34.452L172.208 34.2205 172.256 34.4236C172.283 34.5352 172.331 34.7027 172.363 34.7958 172.396 34.8889 172.443 35.0711 172.469 35.2009 172.495 35.3306 172.613 35.6181 172.73 35.8394 173.015 36.3773 172.993 38.0445 172.702 38.0445 172.671 38.0445 172.58 38.2174 172.5 38.4287 172.362 38.7952 172.241 38.9717 171.732 39.5536 171.53 39.7847 171.439 39.8801 171.176 40.1383 171.133 40.1808 170.93 40.3818 170.725 40.585 170.52 40.7884 170.32 40.9552 170.281 40.9559 170.241 40.9566 170.135 41.0344 170.044 41.1288 169.815 41.3688 169.637 41.2194 169.755 40.8852 169.853 40.6078 169.834 40.584 169.442 40.4837 169.262 40.4378 168.953 40.3383 168.754 40.2627 168.271 40.0784 167.902 40.1268 167.618 40.4121L167.406 40.6241 167.577 40.7569C167.671 40.83 167.825 40.9547 167.919 41.0341 168.169 41.2452 168.507 41.3677 168.795 41.3515 169.362 41.319 169.503 41.5935 169.008 41.764 168.841 41.8214 168.595 41.9522 168.459 42.0545 168.324 42.1569 168.172 42.2406 168.121 42.2406 167.663 42.2406 167.104 43.6014 167.42 43.9471 167.607 44.1523 168.53 43.7834 168.753 43.4146 168.934 43.1132 169.396 42.6467 169.513 42.6467 169.57 42.6467 169.681 42.5675 169.758 42.4708 169.993 42.1752 170.137 42.3931 170.079 42.9545 170.035 43.3872 170.199 43.9327 170.375 43.9327 170.442 43.9327 170.825 43.4213 171.033 43.0557 171.106 42.9269 171.239 42.752 171.329 42.6669 171.475 42.529 171.497 42.4341 171.534 41.7913 171.578 41.0349 171.717 40.738 171.889 41.0359 172.013 41.2523 172.16 41.3556 172.279 41.3107 172.43 41.2539 172.909 40.7481 172.909 40.6454 172.909 40.6023 172.975 40.4832 173.057 40.381 173.186 40.2184 173.194 40.1679 173.125 39.9779 173.031 39.7204 173.02 39.2862 173.107 39.2333 173.14 39.2128 173.187 39.2727 173.211 39.3664 173.281 39.6426 173.493 39.8042 173.786 39.8042 174.037 39.8042 174.618 39.027 174.618 38.6912 174.618 38.5052 174.854 38.3101 175.199 38.2108 175.695 38.0678 175.801 37.5868 175.424 37.1853 175.271 37.0226 175.295 36.6223 175.469 36.4201 175.517 36.3643 175.611 36.1663 175.679 35.9802 175.847 35.5195 175.872 35.5022 176.142 35.667 176.467 35.8663 176.74 35.8476 177.235 35.5919 177.647 35.3792 177.689 35.3721 178.651 35.3481 179.751 35.3208 179.879 35.275 179.884 34.9037 179.886 34.7885 179.926 34.6048 179.973 34.4953L180.059 34.2963 180.153 34.5291C180.205 34.6572 180.348 34.8745 180.471 35.0119 180.593 35.1494 180.726 35.3799 180.765 35.5239 180.804 35.668 180.909 35.8536 180.998 35.9362 181.087 36.0188 181.201 36.2105 181.251 36.3619 181.302 36.5135 181.384 36.6533 181.435 36.6724 181.485 36.6915 181.575 36.8025 181.634 36.9189 181.694 37.0355 181.814 37.2069 181.903 37.3 182.693 38.134 183.18 38.5859 183.288 38.5859 183.359 38.5859 183.495 38.6468 183.591 38.7214 183.687 38.7959 183.983 38.9297 184.248 39.0189 184.937 39.2493 185.362 39.5681 185.438 39.9085 185.552 40.426 185.425 41.2082 185.189 41.4417 185.139 41.4919 185.015 41.6618 184.915 41.8192 184.71 42.14 184.69 42.1483 184.474 41.9984 183.96 41.642 183.353 41.7151 182.957 42.1811 182.574 42.63 182.64 42.7144 183.372 42.7144L183.907 42.7144 184.023 42.4743C184.171 42.1647 184.363 42.1806 184.348 42.5014 184.342 42.6234 184.291 42.7747 184.234 42.8373 184.177 42.9 184.08 43.134 184.018 43.3574 183.957 43.5807 183.844 43.8778 183.769 44.0176 183.566 44.3929 183.64 44.5418 184.03 44.5418 184.349 44.5418 184.871 44.4184 184.871 44.3431 184.871 44.3201 184.961 44.2037 185.071 44.0848 185.18 43.9657 185.32 43.7 185.38 43.4943 185.523 43.0083 185.649 43.0104 185.805 43.501 185.929 43.8897 186.056 44.018 186.393 44.0954 186.767 44.1814 186.893 42.6376 186.545 42.2283 186.244 41.8737 186.301 41.5209 186.686 41.352 186.858 41.2771 187.013 41.1762 187.032 41.128 187.092 40.9723 186.772 40.1283 186.576 39.9246 186.293 39.6321 186.403 39.3304 186.791 39.3304 187.104 39.3304 187.159 39.0827 186.945 38.647 186.672 38.0917 186.623 38.0572 186.118 38.0602 185.668 38.0629 185.047 37.7893 184.946 37.5441 184.931 37.5079 184.818 37.3847 184.695 37.2707 184.555 37.1413 184.441 36.9484 184.392 36.7585 184.35 36.591 184.24 36.266 184.148 36.0364 184.057 35.8066 183.982 35.5088 183.982 35.3745 183.982 35.1975 183.926 35.0704 183.778 34.9124 183.666 34.7924 183.463 34.565 183.326 34.4071 183.161 34.2151 182.985 34.0933 182.796 34.0393 182.301 33.8982 182.22 33.8112 182.468 33.6845 182.799 33.5146 183.279 33.5457 183.587 33.7571 183.731 33.8559 183.994 33.9611 184.172 33.9911 184.349 34.0208 184.677 34.0764 184.9 34.1144 185.123 34.1523 185.336 34.2146 185.375 34.2528 185.671 34.5461 186.877 34.0564 187.15 33.5318 187.394 33.061 187.262 31.5987 186.947 31.284 186.858 31.1952 186.785 31.0984 186.785 31.0688 186.785 30.9559 186.082 30.3637 185.975 30.3856 185.913 30.3981 185.798 30.467 185.72 30.5385 185.579 30.6674 185.577 30.6671 185.487 30.4999 185.437 30.407 185.341 30.314 185.274 30.2928 185.207 30.2719 185.048 30.1115 184.921 29.9365 184.794 29.7614 184.572 29.5573 184.428 29.4829 184.283 29.4084 184.089 29.279 183.995 29.1952 183.801 29.0208 183.748 29.0138 183.429 29.1206 183.126 29.222 183.117 29.2321 183.251 29.3313 183.412 29.4507 183.432 29.7416 183.282 29.7727 183.188 29.792 183.162 29.7517 183.162 29.5893 183.162 29.4133 183.136 29.3813 182.993 29.3813 182.869 29.3813 182.754 29.2869 182.554 29.0189 182.386 28.7937 182.172 28.6024 181.988 28.513 181.825 28.434 181.533 28.279 181.337 28.1687L180.982 27.968 180.747 28.2084 180.511 28.4489 180.317 28.1198C180.211 27.9389 180.069 27.7318 180.002 27.6597 179.811 27.453 179.827 26.4469 180.024 26.2843 180.103 26.2195 180.193 26.0999 180.226 26.0183 180.258 25.9369 180.446 25.7437 180.644 25.5892L181.003 25.3082 181.592 25.3312C182.11 25.3515 182.211 25.3769 182.428 25.5405 182.563 25.6428 182.7 25.7266 182.73 25.7268 182.761 25.7268 182.967 25.8486 183.188 25.9975 183.41 26.1462 183.628 26.268 183.674 26.268 183.719 26.268 183.853 26.3594 183.971 26.4711 184.107 26.5995 184.258 26.6741 184.381 26.6741 184.488 26.6741 184.755 26.735 184.973 26.8095 185.483 26.9833 185.569 26.98 185.896 26.7756 186.045 26.6826 186.194 26.6064 186.228 26.6064 186.262 26.6064 186.323 26.5662 186.365 26.5168 186.503 26.3518 186.305 26.268 185.776 26.268 185.288 26.268 184.871 26.1437 184.871 25.998 184.871 25.8538 185.168 25.7797 185.547 25.8295 186.923 26.0103 187.203 25.8978 187.203 25.1655 187.203 24.677 187.129 24.472 186.928 24.4087 186.856 24.3862 186.747 24.2918 186.685 24.199 186.536 23.9733 186.443 24.0481 186.443 24.394 186.442 25.0904 186.206 25.3836 185.841 25.1412 185.74 25.0735 185.449 24.9824 185.194 24.9386 184.897 24.8877 184.613 24.7841 184.402 24.65 184.221 24.5349 183.996 24.4407 183.903 24.4407 183.809 24.4407 183.581 24.3417 183.397 24.2207L183.061 24.0007 182.162 24.0039C181.295 24.0072 181.252 24.0143 180.975 24.1953 180.818 24.2987 180.549 24.4246 180.38 24.4754 180.21 24.5259 180.026 24.6303 179.972 24.7073 179.917 24.7845 179.789 24.8902 179.688 24.9422 179.556 25.0093 179.479 25.1253 179.421 25.3398 179.376 25.5065 179.253 25.7437 179.149 25.8669 178.882 26.1811 178.853 27.6824 179.109 27.9543 179.192 28.0425 179.325 28.2528 179.406 28.4215 179.607 28.8465 180.711 29.8038 181.111 29.9013 181.205 29.9243 181.405 30.0262 181.556 30.1277 181.706 30.2294 181.975 30.3505 182.154 30.3972 182.332 30.4438 182.478 30.5075 182.478 30.539 182.478 30.6284 182.825 30.7818 183.147 30.8348 183.308 30.8614 183.524 30.9517 183.626 31.0356 183.728 31.1197 183.945 31.209 184.108 31.2341 184.271 31.2593 184.579 31.3679 184.792 31.4754 185.004 31.5828 185.286 31.6926 185.417 31.7195 186.154 31.8698 186.583 32.6525 186.235 33.2105 186.024 33.5486 185.318 33.6171 184.997 33.3307 184.935 33.2752 184.659 33.1989 184.383 33.1611 184.108 33.1234 183.759 33.0473 183.608 32.9921 182.731 32.6718 181.677 32.5879 179.499 32.6649 178.186 32.7112 178.095 32.7231 177.925 32.8679 177.826 32.9523 177.629 33.0398 177.488 33.0621 177.347 33.0845 177.075 33.2095 176.883 33.3401 176.692 33.4708 176.494 33.5775 176.443 33.5775 176.393 33.5775 176.267 33.6659 176.162 33.7738 176.028 33.9126 175.879 33.9831 175.654 34.0144 175.086 34.0933 174.902 34.1814 174.738 34.4528 174.239 35.2794 174.005 35.3696 173.759 34.8296 173.708 34.7179 173.588 34.5548 173.493 34.4672 173.397 34.3796 173.319 34.266 173.319 34.2149 173.319 34.1638 173.246 34.0746 173.156 34.0166 172.869 33.8298 172.744 33.3804 172.883 33.0269 173.112 32.4422 173.192 32.4686 173.421 33.2051 173.738 34.2239 174.294 34.1977 174.725 33.1439 174.9 32.7148 175.019 32.7092 175.217 33.1207 175.302 33.2975 175.416 33.4422 175.47 33.4422 175.609 33.4422 175.916 33.0199 175.917 32.8266 175.92 32.2958 176.255 32.1048 176.613 32.429 176.964 32.7463 177.213 32.3136 176.95 31.8446 176.717 31.4314 176.425 31.2087 176.114 31.2087 175.731 31.2087 175.654 31.0932 175.87 30.8436 176.059 30.6265 176.362 29.6541 176.464 28.9414 176.507 28.6436 176.576 28.2934 176.618 28.1631 176.66 28.0328 176.688 27.7739 176.679 27.5878 176.656 27.1249 176.809 26.8992 176.938 27.2056 176.986 27.3211 177.013 27.5208 176.998 27.6496 176.97 27.8864 177.223 28.1206 177.355 27.9802 177.601 27.7184 177.846 26.5137 177.686 26.355 177.644 26.3134 177.574 26.2083 177.531 26.1215 177.488 26.0345 177.299 25.8855 177.112 25.7899 176.778 25.6198 176.77 25.6093 176.73 25.2469 176.69 24.8823 176.576 24.584 176.443 24.4984 176.377 24.4554 175.686 24.9689 175.528 25.1794 175.399 25.351 175.301 25.189 175.229 24.6819 175.153 24.1535 175.08 23.9926 174.891 23.933 174.816 23.9094 174.722 23.8312 174.684 23.7593 174.586 23.5779 174.552 23.5898 174.242 23.9163M137.293 24.0122C137.008 24.3946 137.01 24.3909 136.82 24.8119 136.651 25.187 136.686 25.1963 136.322 24.6836 135.964 24.1806 135.531 24.4094 135.461 25.1386 135.401 25.7559 135.436 25.7156 134.896 25.7972 134.085 25.9198 134.152 25.8576 134.152 26.49 134.152 26.977 134.172 27.0692 134.309 27.2162 134.395 27.309 134.508 27.4914 134.559 27.6216 134.76 28.126 134.852 28.122 135.007 27.6014 135.268 26.7215 135.445 26.9213 135.513 28.1721 135.557 28.9847 135.585 29.1262 135.78 29.5619 135.9 29.8287 135.998 30.1047 135.998 30.1751 135.998 30.2455 136.043 30.362 136.098 30.4344 136.327 30.7339 136.235 31.0632 135.916 31.0864 135.295 31.1314 134.876 32.9718 135.28 33.8821 135.33 33.9938 135.422 34.3581 135.484 34.6917 135.546 35.0254 135.688 35.4848 135.8 35.7127 136.119 36.3684 136.098 37.7561 135.763 38.2137 135.681 38.3253 135.57 38.5233 135.517 38.6536 135.464 38.7839 135.351 38.9549 135.265 39.0336 135.179 39.1123 135.109 39.2101 135.109 39.2507 135.109 39.3463 133.519 40.9547 133.425 40.9547 133.386 40.9547 133.264 41.0309 133.155 41.1239 132.926 41.319 132.897 41.3253 132.795 41.2029 132.716 41.1092 132.83 40.7534 132.939 40.7522 132.967 40.7518 132.99 40.7216 132.99 40.6849 132.99 40.5889 132.533 40.4133 132.281 40.4129 132.164 40.4126 131.979 40.3666 131.871 40.3107 131.477 40.1077 131.17 40.107 130.876 40.3087 130.506 40.5629 130.491 40.6503 130.789 40.8268 130.928 40.909 131.125 41.0513 131.226 41.1432 131.372 41.2762 131.515 41.3205 131.929 41.3606 132.215 41.3884 132.467 41.4288 132.489 41.4507 132.579 41.5397 132.442 41.6782 132.191 41.7527 132.045 41.7962 131.824 41.9202 131.702 42.0285 131.58 42.1366 131.397 42.2427 131.295 42.2644 131.194 42.2858 130.963 42.4454 130.783 42.6188L130.456 42.9344 130.476 43.4434C130.49 43.8149 130.524 43.9702 130.602 44.0186 130.756 44.1146 131.61 43.729 131.79 43.4819 131.867 43.3762 132.015 43.2185 132.119 43.1313 132.222 43.0444 132.307 42.9322 132.307 42.8821 132.307 42.8322 132.365 42.773 132.436 42.7506 132.507 42.7283 132.649 42.633 132.752 42.5389 133.061 42.2551 133.193 42.4625 133.195 43.2357 133.197 44.0347 133.723 44.047 134.051 43.2559 134.121 43.0883 134.246 42.8752 134.329 42.7821 134.589 42.4936 134.699 42.128 134.699 41.5596 134.699 40.9816 134.768 40.8574 134.943 41.1217 135.165 41.4571 135.708 41.3061 135.933 40.8466 136.011 40.6869 136.13 40.486 136.198 40.4001 136.266 40.3143 136.344 40.1679 136.372 40.0749 136.4 39.9818 136.465 39.8378 136.518 39.7547L136.614 39.6038 136.836 39.7377C137.135 39.9185 137.133 39.9196 137.337 39.5212 137.436 39.3285 137.558 39.1292 137.61 39.0783 137.661 39.0275 137.735 38.8578 137.775 38.7013 137.885 38.2653 137.933 38.2137 138.234 38.2137 138.759 38.2137 138.914 37.7367 138.556 37.2252 138.393 36.992 138.387 36.9601 138.479 36.7815 138.533 36.6758 138.631 36.4218 138.698 36.2171 138.846 35.7606 138.891 35.7017 139.127 35.655 139.29 35.6227 139.313 35.587 139.313 35.3608 139.313 35.1621 139.343 35.0977 139.443 35.078 139.56 35.0552 139.569 35.0831 139.531 35.3569 139.466 35.8254 139.739 35.9179 140.329 35.6272 140.697 35.4462 141.329 35.3127 141.74 35.3293 142.92 35.377 143.246 35.1421 142.976 34.4398 142.926 34.3085 142.933 34.2452 143.005 34.1862 143.158 34.0601 143.243 34.1716 143.243 34.4987 143.243 34.7724 143.263 34.8097 143.439 34.8702 143.637 34.9388 143.699 35.0256 143.893 35.5056 143.953 35.654 144.058 35.8367 144.127 35.9117 144.196 35.9866 144.276 36.124 144.305 36.2171 144.333 36.3102 144.444 36.4922 144.552 36.6216 144.659 36.7511 144.747 36.8844 144.747 36.9181 144.747 37.0139 145.377 37.703 146.08 38.3758 146.193 38.4837 146.4 38.6116 146.541 38.6602 146.682 38.7087 146.798 38.7691 146.798 38.7944 146.798 38.8582 147.111 38.9754 147.51 39.0608 148.332 39.2372 148.906 40.1693 148.585 40.8052 148.515 40.9432 148.438 41.1369 148.414 41.2354 148.39 41.3339 148.271 41.5383 148.148 41.6894 148.026 41.8407 147.871 42.0341 147.805 42.1193 147.687 42.2699 147.681 42.2706 147.6 42.1451 147.257 41.618 146.57 41.6259 146.071 42.1627 145.779 42.4767 145.779 42.4779 145.92 42.596 146.186 42.8195 146.887 42.7615 147.095 42.4987 147.235 42.3212 147.283 42.2977 147.366 42.3657 147.477 42.4571 147.395 42.8687 147.232 43.0359 147.187 43.0824 147.115 43.2956 147.072 43.5097 147.03 43.7237 146.966 43.9924 146.931 44.1066 146.843 44.3883 146.84 44.3792 147.07 44.4736 147.647 44.71 148.329 44.2711 148.414 43.6097 148.504 42.9041 148.723 42.8613 148.92 43.511 148.98 43.709 149.099 43.8733 149.3 44.0367L149.594 44.2746 149.681 44.1207C149.848 43.8259 149.801 42.3708 149.618 42.1765 149.263 41.7984 149.369 41.3608 149.816 41.3608 150.334 41.3608 150.236 40.4099 149.665 39.8828 149.477 39.7092 149.573 39.5086 149.902 39.391 150.569 39.1522 150.048 37.9979 149.317 38.0949 149.114 38.122 148.998 38.0979 148.861 37.9994 148.76 37.927 148.57 37.8274 148.438 37.7781 148.077 37.6428 147.568 37.0678 147.511 36.7308 147.485 36.5785 147.392 36.2983 147.304 36.108 147.216 35.9178 147.123 35.6284 147.098 35.465 147.006 34.8716 146.442 34.2151 145.859 34.0234 145.443 33.8865 145.36 33.796 145.536 33.6687 145.762 33.5053 146.447 33.5538 146.798 33.7582 146.967 33.8567 147.275 33.9589 147.481 33.9853 147.688 34.0119 148.011 34.1053 148.199 34.1931 149.437 34.7716 150.853 33.4789 150.391 32.1923 150.337 32.0422 150.274 31.8084 150.252 31.6727 150.19 31.2904 149.204 30.2771 149.01 30.3967 148.935 30.4433 148.845 30.5426 148.81 30.6174 148.715 30.8187 148.623 30.7962 148.494 30.5407 148.431 30.4153 148.284 30.2209 148.168 30.1087 148.053 29.9966 147.94 29.8341 147.918 29.7477 147.891 29.6406 147.784 29.5549 147.582 29.4786 147.419 29.4171 147.217 29.2939 147.133 29.2049 146.837 28.8929 146.409 29.0692 146.476 29.4759 146.53 29.807 146.359 29.9495 146.236 29.6764 146.121 29.423 145.282 28.5952 145.078 28.5343 144.99 28.5081 144.826 28.4022 144.713 28.2991 144.408 28.0203 144.062 27.9809 143.805 28.1952 143.538 28.4174 143.544 28.4194 143.376 28.0447 143.297 27.8678 143.173 27.5993 143.101 27.448 142.936 27.102 142.931 26.6237 143.089 26.4015 143.155 26.3095 143.255 26.145 143.311 26.0362 143.368 25.9273 143.476 25.8054 143.551 25.7655 143.626 25.7254 143.788 25.609 143.912 25.5066 144.226 25.2466 144.98 25.2367 145.397 25.4872 145.547 25.5775 145.777 25.7004 145.908 25.7599 146.039 25.8196 146.209 25.9264 146.285 25.9973 146.361 26.0682 146.546 26.1767 146.695 26.2383 146.844 26.2999 147.016 26.408 147.078 26.4784 147.139 26.5487 147.224 26.6064 147.266 26.6064 147.309 26.6064 147.634 26.6988 147.99 26.8117L148.637 27.0169 149.005 26.8117C149.207 26.6988 149.423 26.6064 149.486 26.6064 149.638 26.6064 149.639 26.2973 149.488 26.2398 149.426 26.2163 149.111 26.2146 148.787 26.2362 148.26 26.2713 148.181 26.2608 148.028 26.1354 147.779 25.9312 147.993 25.7682 148.438 25.8234 150.142 26.0342 150.509 25.8538 150.292 24.9129 150.171 24.3879 149.68 24.1193 149.615 24.5422 149.526 25.1139 149.215 25.3364 148.797 25.1278 148.656 25.0574 148.35 24.9525 148.116 24.8946 147.882 24.8366 147.587 24.7109 147.46 24.6149 147.33 24.517 147.139 24.4407 147.024 24.4407 146.901 24.4407 146.697 24.3535 146.518 24.2244L146.217 24.0082 145.318 24.0078C144.453 24.0075 144.409 24.0144 144.137 24.1923 143.982 24.2938 143.759 24.396 143.642 24.4192 143.344 24.4782 142.523 25.256 142.418 25.5791 142.373 25.7161 142.264 25.9527 142.175 26.1048 141.92 26.5398 141.964 27.5423 142.253 27.8924 142.299 27.9482 142.356 28.076 142.38 28.1763 142.432 28.3934 142.839 28.8734 143.293 29.2517 143.472 29.4016 143.685 29.5839 143.766 29.6566 143.847 29.7292 144.047 29.8353 144.21 29.8922 144.373 29.9492 144.583 30.0671 144.678 30.1544 144.78 30.2488 144.977 30.3311 145.164 30.3575 145.383 30.3883 145.535 30.4607 145.666 30.5955 145.789 30.7226 145.952 30.8036 146.14 30.8317 146.297 30.8551 146.524 30.9331 146.644 31.0052 146.763 31.0771 147.054 31.1854 147.291 31.2458 147.527 31.306 147.814 31.4121 147.928 31.4815 148.042 31.5508 148.275 31.6386 148.446 31.6767 149.224 31.8491 149.705 32.6617 149.343 33.1901L149.147 33.476 148.654 33.4623C148.316 33.453 148.129 33.416 148.056 33.3441 147.942 33.231 147.896 33.2185 147.174 33.1028 146.911 33.0605 146.511 32.9445 146.285 32.8449L145.875 32.664 143.676 32.6704 141.476 32.677 141.112 32.8501C140.912 32.9454 140.65 33.0434 140.53 33.0681 140.41 33.0928 140.18 33.2158 140.02 33.3415 139.86 33.4672 139.65 33.5892 139.555 33.6126 139.46 33.6357 139.305 33.7259 139.211 33.8126 139.109 33.9068 138.875 34.0034 138.632 34.0525 138.225 34.1346 138.119 34.2093 137.67 34.7344 137.593 34.824 137.432 34.9809 137.312 35.0829L137.094 35.2685 136.995 35.1168C136.941 35.0333 136.856 34.8736 136.806 34.762 136.757 34.6503 136.647 34.5034 136.562 34.4356 136.477 34.3677 136.408 34.2779 136.408 34.2357 136.408 34.1936 136.31 34.0589 136.19 33.9364 136.003 33.7457 135.972 33.6642 135.972 33.3733 135.972 32.7332 136.218 32.708 136.579 33.3111 137.093 34.1709 137.07 34.1586 137.463 33.7686 137.7 33.5342 137.772 33.407 137.81 33.1552 137.89 32.6309 138.021 32.6045 138.323 33.0525 138.416 33.1919 138.539 33.3065 138.595 33.3073 138.652 33.308 138.763 33.3259 138.843 33.3473 139.02 33.3943 139.142 33.1111 139.142 32.6523 139.142 32.2346 139.417 32.0911 139.654 32.3852 139.965 32.7715 140.192 32.4322 140.067 31.7688 140.012 31.4813 139.603 31.2087 139.226 31.2087 138.868 31.2087 138.759 31.0911 138.967 30.9294 139.072 30.8476 139.142 30.7018 139.172 30.5025 139.197 30.3361 139.295 30.0563 139.389 29.8807 139.555 29.5727 139.677 28.5996 139.687 27.5161 139.688 27.3651 139.733 27.1824 139.787 27.11 139.933 26.9157 140.094 27.1506 140.097 27.5604 140.101 28.1474 140.307 28.1937 140.617 27.6773 141.129 26.8249 140.988 26.143 140.228 25.7906 139.886 25.632 139.882 25.6264 139.922 25.377 139.97 25.0784 139.804 24.6951 139.572 24.5698 139.415 24.4853 139.194 24.6268 138.659 25.1523L138.484 25.3246 138.407 25.1703C138.365 25.0853 138.311 24.8109 138.287 24.5603 138.244 24.1133 138.237 24.1009 137.937 23.9004 137.55 23.6417 137.571 23.638 137.293 24.0122M130.54 25.0975C130.497 25.2033 130.455 25.7647 130.445 26.3714L130.427 27.456 130.639 27.6624C130.893 27.9093 130.986 28.2866 130.858 28.5482 130.722 28.823 130.629 28.8076 130.396 28.4719 130.129 28.0875 129.69 27.9487 129.462 28.1766 129.354 28.2852 129.507 28.8096 129.755 29.1771 129.843 29.3067 129.914 29.479 129.914 29.5599 129.914 29.7243 130.32 30.2416 130.569 30.3943 130.806 30.5394 130.818 30.6394 130.625 30.8661 130.288 31.2629 130.294 31.8596 130.639 32.2239 131.231 32.8493 131.347 33.1594 131.108 33.472 130.97 33.6539 130.983 33.8911 131.141 34.0476 131.214 34.1198 131.295 34.295 131.32 34.4367 131.385 34.7982 131.94 35.3048 132.425 35.4455 132.882 35.578 132.914 35.6372 132.593 35.7641 132.091 35.9629 132.06 36.4831 132.522 36.9507 132.872 37.3054 132.943 37.2934 133.427 36.7974 133.666 36.5526 133.901 36.3525 133.95 36.3525 134.642 36.3525 135.031 35.9619 135.032 35.2657 135.033 34.9887 135.06 34.5411 135.092 34.2713 135.172 33.6085 134.759 33.6447 134.088 34.3592 133.462 35.0261 132.171 33.7586 131.833 32.1446 131.748 31.741 131.776 28.157 131.867 27.6692 131.951 27.2225 131.766 26.2127 131.556 25.9699 131.456 25.8547 131.335 25.6615 131.286 25.5405 131.237 25.4195 131.158 25.3205 131.11 25.3205 131.063 25.3205 130.933 25.2278 130.821 25.1144L130.617 24.9082 130.54 25.0975M146.769 25.1253C146.789 25.1582 146.681 25.1851 146.528 25.1851 146.279 25.1851 146.19 25.1322 146.285 25.039 146.336 24.9879 146.726 25.0574 146.769 25.1253M183.572 25.1175C183.572 25.1547 183.48 25.1851 183.367 25.1851 183.254 25.1851 183.162 25.1547 183.162 25.1175 183.162 25.0802 183.254 25.0498 183.367 25.0498 183.48 25.0498 183.572 25.0802 183.572 25.1175M184.71 25.5445C184.777 25.611 184.584 25.7232 184.379 25.7369 184.022 25.7608 183.847 25.6053 184.049 25.4433 184.185 25.3347 184.555 25.3916 184.71 25.5445M147.581 25.4794C147.754 25.6048 147.657 25.7266 147.383 25.7266 147.118 25.7266 146.962 25.5907 147.087 25.4677 147.194 25.3614 147.426 25.367 147.581 25.4794M162.639 25.9801C162.652 26.0202 162.604 26.109 162.533 26.1773 162.145 26.5474 162.076 26.9613 162.276 27.7205 162.335 27.9423 162.382 28.177 162.382 28.2419 162.382 28.3069 162.457 28.469 162.548 28.6024 162.64 28.7355 162.736 28.9424 162.762 29.0621 162.809 29.2759 163.026 29.583 163.374 29.9277 163.661 30.212 163.551 30.3289 162.999 30.3289 162.457 30.3289 162.421 30.3581 162.275 30.913 162.119 31.506 161.836 31.4864 161.836 30.8827 161.836 30.4659 161.671 30.2916 161.301 30.3164 160.743 30.3536 160.659 30.2155 160.993 29.8135 161.455 29.258 161.78 28.4951 161.84 27.8247 161.868 27.5083 161.913 27.1951 161.94 27.1286 162.001 26.9777 161.854 26.4279 161.69 26.1932 161.564 26.0125 161.707 25.6862 161.987 25.5144 162.071 25.4631 162.589 25.8339 162.639 25.9801M155.308 25.7542 155.485 25.9848 155.338 26.2946C155.049 26.9037 155.276 28.6245 155.734 29.3062 155.819 29.4324 155.889 29.5854 155.889 29.6465 155.889 29.7074 155.988 29.8433 156.109 29.9485 156.381 30.1845 156.256 30.3289 155.782 30.3289 155.448 30.3289 155.372 30.3993 155.305 30.7688 155.195 31.3756 155.103 31.4189 154.93 30.9475 154.754 30.4698 154.544 30.3289 154.009 30.3289 153.54 30.3289 153.473 30.1436 153.855 29.9028 153.959 29.8377 154.043 29.7539 154.043 29.7169 154.043 29.6798 154.114 29.5358 154.199 29.3969 154.285 29.258 154.41 28.9343 154.477 28.6776 154.544 28.4208 154.667 28.1162 154.751 28.0008 155.148 27.4526 155.117 26.6778 154.683 26.3066 154.378 26.0449 154.417 25.851 154.816 25.6511 155.119 25.4994 155.11 25.4973 155.308 25.7542M136.479 26.3824C136.599 26.4824 136.825 26.6315 136.98 26.7136 137.473 26.9739 137.397 27.6355 136.86 27.7555 136.589 27.8157 136.607 27.8289 136.246 27.2966 135.904 26.7934 135.831 26.5012 136.002 26.3315 136.175 26.1606 136.219 26.1653 136.479 26.3824M139.066 26.3609C139.231 26.5572 139.186 27.0609 138.986 27.268 138.884 27.3734 138.8 27.4922 138.8 27.5316 138.8 27.6751 138.522 27.954 138.419 27.9145 138.362 27.8929 138.209 27.6677 138.08 27.4139 137.813 26.8883 137.83 26.835 138.31 26.6778 138.465 26.6276 138.659 26.5147 138.742 26.4272 138.916 26.2428 138.96 26.234 139.066 26.3609M173.492 26.4542C173.616 26.5565 173.794 26.6926 173.887 26.7563 174.161 26.9447 174.165 27.3555 173.896 27.6555 173.618 27.965 173.577 27.9573 173.264 27.537 172.589 26.631 172.755 25.8454 173.492 26.4542M176.057 26.4105C176.14 26.5646 176.09 26.9888 175.984 27.0245 175.948 27.0365 175.833 27.2139 175.727 27.4186 175.412 28.0306 174.796 27.8743 174.837 27.1927L174.857 26.858 175.335 26.5658C175.886 26.2301 175.952 26.2158 176.057 26.4105M132.378 28.5648C132.13 29.023 132.361 30.5857 132.623 30.2248 132.676 30.1517 132.8 30.0069 132.898 29.9028 133.274 29.504 133.206 28.71 132.782 28.5419 132.444 28.4081 132.463 28.4071 132.378 28.5648M169.33 28.5861C169.092 28.9622 169.164 30.2274 169.423 30.2274 169.624 30.2274 170.105 29.2638 170.025 29.0198 169.888 28.5964 169.483 28.344 169.33 28.5861M136.923 28.759C137.107 28.9915 137.848 28.9808 138.321 28.7391 138.773 28.5073 138.969 29.6187 138.571 30.1583 138.458 30.3114 138.254 30.1382 138.254 29.889 138.254 29.6463 138.077 29.5167 137.746 29.5167 137.279 29.5167 136.883 29.6935 137.08 29.8142 137.111 29.8331 137.175 30.0253 137.223 30.2411 137.375 30.9373 137.591 31.0725 137.851 30.6353 138.048 30.3049 138.151 30.3632 138.151 30.8052L138.151 31.1688 137.883 31.2239C137.329 31.3378 136.955 31.0661 136.955 30.5507 136.955 30.3367 136.915 30.2251 136.801 30.1226 136.716 30.0465 136.593 29.9346 136.528 29.8739 136.434 29.7879 136.408 29.6524 136.408 29.2565 136.408 28.5343 136.598 28.3506 136.923 28.759M173.875 28.7445C174.227 28.9863 174.631 28.9859 175.099 28.7436 175.579 28.4951 175.679 28.5805 175.673 29.2316 175.666 29.9456 175.372 30.2502 175.133 29.7917 174.888 29.3228 173.974 29.4216 173.906 29.9243 173.881 30.1096 173.849 30.2612 173.835 30.2612 173.821 30.2612 173.76 30.2796 173.7 30.3023 173.395 30.4184 173.142 28.8133 173.439 28.6423 173.6 28.5494 173.586 28.546 173.875 28.7445M175.167 30.3328C175.366 30.7006 174.943 31.2436 174.459 31.241 173.986 31.2387 173.934 31.1937 173.934 30.7822 173.934 30.3253 173.982 30.2783 174.168 30.5516 174.364 30.8405 174.612 30.8465 174.756 30.5657 174.974 30.1387 175.041 30.1005 175.167 30.3328M158.864 31.8869C159.17 32.1381 159.022 32.6671 158.632 32.7158 158.203 32.7696 157.981 32.3148 158.219 31.8733 158.301 31.7229 158.674 31.7309 158.864 31.8869M158.694 34.1347C158.92 34.3175 159.033 34.5625 159.033 34.8657 159.033 35.1195 159.071 35.2142 159.238 35.3839 159.458 35.6069 159.648 35.9917 159.648 36.2149 159.648 36.2905 159.679 36.3525 159.717 36.3525 159.754 36.3525 159.785 36.3981 159.785 36.454 159.785 36.5098 159.754 36.5555 159.717 36.5555 159.679 36.5555 159.648 36.5284 159.648 36.4951 159.648 36.2007 159.031 36.4321 158.892 36.7787 158.742 37.1514 158.283 37.4543 158.28 37.1815 158.275 36.634 157.771 36.155 157.558 36.4959 157.471 36.6359 157.393 36.536 157.393 36.2848 157.393 36.1359 157.418 36.014 157.448 36.014 157.479 36.014 157.558 35.9029 157.623 35.767 157.688 35.6311 157.813 35.465 157.899 35.3976 158.021 35.3027 158.066 35.1809 158.101 34.8525 158.125 34.6198 158.176 34.3992 158.213 34.3623 158.251 34.3252 158.281 34.23 158.281 34.1506 158.281 33.8926 158.391 33.8884 158.694 34.1347M142.97 36.3243C142.801 36.378 142.509 36.557 142.321 36.7218L141.979 37.0216 141.979 37.7191C141.979 38.3274 141.998 38.4433 142.128 38.6236 142.21 38.7373 142.335 38.981 142.407 39.1651 142.478 39.349 142.619 39.618 142.719 39.7629 142.946 40.0906 142.993 41.2021 142.791 41.4872 142.344 42.1192 141.708 42.4225 140.304 42.6742 139.67 42.788 139.383 42.8726 139.191 43.0029 139.049 43.0994 138.911 43.1882 138.884 43.2002 138.729 43.2687 138.386 43.813 138.423 43.9294 138.538 44.2868 139.877 44.2043 140.349 43.8107 140.536 43.6545 140.736 43.5266 140.794 43.5266 140.851 43.5266 140.954 43.4657 141.022 43.3912 141.377 43.0031 141.543 43.3178 141.278 43.8745 141.103 44.2406 141.085 44.3293 141.143 44.554 141.212 44.8223 141.305 44.8861 141.373 44.711 141.395 44.6552 141.458 44.6095 141.514 44.6095 141.57 44.6095 141.747 44.48 141.908 44.3218 142.07 44.1636 142.343 43.9037 142.514 43.7442 142.799 43.4806 142.831 43.4174 142.873 43.0516 142.94 42.4667 143.023 42.3782 143.345 42.5476L143.598 42.6806 143.711 42.5271C143.773 42.4427 143.908 42.2752 144.011 42.1549 144.207 41.9256 144.272 41.4418 144.135 41.2277 144.05 41.0942 144.173 40.9547 144.377 40.9547 144.676 40.9547 145.194 40.2987 145.063 40.0876 145.041 40.0532 144.908 40.0058 144.766 39.9823 144.285 39.9026 143.991 39.2389 144.132 38.5521 144.276 37.8526 144.248 37.2759 144.055 36.9869 143.959 36.8426 143.826 36.6105 143.759 36.4709 143.621 36.1824 143.492 36.1584 142.97 36.3243M179.76 36.3135C179.382 36.4497 178.947 36.9286 178.905 37.2551 178.833 37.8209 178.955 38.6934 179.145 38.9722 179.241 39.1133 179.36 39.3507 179.409 39.4996 179.459 39.6485 179.542 39.8216 179.594 39.8844 179.746 40.0674 179.875 40.4906 179.878 40.8212 179.886 41.6825 178.424 42.6098 176.853 42.7393 176.52 42.7667 176.327 42.8215 176.176 42.9322 175.882 43.1455 175.301 43.742 175.302 43.8281 175.308 44.2064 176.72 44.2206 177.139 43.8464 177.794 43.2609 178.616 43.0547 178.282 43.5594 178.05 43.9098 177.976 44.2892 178.086 44.5631L178.185 44.8093 178.423 44.6296C178.554 44.5308 178.769 44.3511 178.9 44.2301 179.581 43.6043 179.732 43.4046 179.812 43.021 179.913 42.5405 180.018 42.4027 180.206 42.5028 180.676 42.7515 181.198 41.9258 180.947 41.3317 180.795 40.9725 180.908 40.7385 181.183 40.8414 181.453 40.9424 181.662 40.8167 181.814 40.4617 181.945 40.1552 181.872 40.0072 181.589 40.0072 181.434 40.0072 181.242 39.774 181.009 39.3031L180.811 38.9037 180.97 38.491C181.219 37.8413 181.229 37.458 181.004 37.1308 180.902 36.9819 180.789 36.7535 180.752 36.6232 180.636 36.2017 180.334 36.1073 179.76 36.3135M155.311 38.1414C155.443 38.3411 155.388 38.8529 155.211 39.069 154.996 39.3329 154.385 38.4977 154.576 38.2001 154.729 37.9621 155.169 37.927 155.311 38.1414M162.396 38.172 162.617 38.3673 162.377 38.8319 162.137 39.2966 162.216 39.8042C162.259 40.0833 162.348 40.4488 162.413 40.6163 162.478 40.7838 162.598 41.1182 162.679 41.3591 162.795 41.7041 162.905 41.8733 163.195 42.1537L163.564 42.51 163.317 42.6122C163.181 42.6684 162.93 42.7144 162.759 42.7144 162.416 42.7144 162.314 42.8405 162.314 43.2637 162.314 43.4863 162.142 43.865 162.041 43.865 161.924 43.865 161.836 43.6073 161.836 43.2652 161.836 42.8637 161.717 42.7144 161.397 42.7144 160.876 42.7144 160.653 42.5518 160.879 42.3371 160.955 42.2654 161.071 42.1557 161.136 42.0933 161.201 42.0309 161.31 41.8253 161.377 41.6364 161.444 41.4476 161.527 41.2931 161.56 41.2931 161.662 41.2931 161.769 40.8656 161.844 40.1671 161.944 39.2243 161.943 39.2086 161.783 38.7304L161.64 38.2996 161.803 38.1382C162.015 37.9282 162.128 37.9347 162.396 38.172M155.243 39.9495C155.297 40.1486 155.341 40.4336 155.341 40.5825 155.343 40.9104 155.453 41.3246 155.569 41.4432 155.617 41.4909 155.72 41.6671 155.799 41.8346 155.878 42.0021 156.041 42.2104 156.16 42.2973 156.451 42.5088 156.302 42.7144 155.857 42.7144 155.493 42.7144 155.366 42.8185 155.323 43.1544 155.225 43.9016 155.068 43.9372 154.86 43.2594L154.718 42.7961 154.398 42.7516C153.678 42.6516 153.533 42.5547 153.776 42.3369 154.086 42.0586 154.36 41.5892 154.438 41.2023 154.481 40.9848 154.61 40.6674 154.725 40.497 154.839 40.3265 154.932 40.1359 154.932 40.0734 154.932 39.9238 155.076 39.518 155.115 39.5568 155.132 39.5735 155.189 39.7502 155.243 39.9495M139.125 41.3996C138.92 41.5095 138.884 41.6155 139.031 41.6715 139.083 41.6911 139.181 41.8099 139.249 41.9356 139.394 42.2023 139.497 42.2384 140.111 42.2398 140.817 42.2412 140.941 42.1407 140.612 41.8346 140.518 41.7471 140.441 41.6408 140.441 41.5984 140.441 41.3473 139.49 41.2036 139.125 41.3996M175.915 41.4156 175.763 41.5381 176.103 41.8894 176.443 42.2406 176.923 42.2406C177.531 42.2406 177.639 42.1488 177.447 41.7946 177.189 41.3161 176.311 41.0989 175.915 41.4156M162.909 46.7978C163.052 46.8874 163.227 47.0257 163.299 47.1049 163.419 47.2383 163.498 47.2492 164.358 47.2512 165.022 47.2527 165.322 47.279 165.407 47.3433 165.559 47.4578 165.596 57.1023 165.445 57.2522 165.391 57.3057 165.103 57.3334 164.604 57.3334 163.604 57.3334 163.681 57.1821 163.681 59.1429 163.681 61.279 163.773 61.1236 162.513 61.1236 161.256 61.1236 161.35 61.2831 161.348 59.1369 161.347 57.9036 161.325 57.4586 161.262 57.4072 161.114 57.2859 155.98 57.3015 155.857 57.4234 155.774 57.5053 155.757 57.8138 155.76 59.1968 155.764 61.2569 155.869 61.0823 154.605 61.1112L153.667 61.1329 153.544 60.9251C153.476 60.8107 153.442 60.6828 153.468 60.6408 153.494 60.5989 153.514 59.8811 153.512 59.0456 153.508 57.1598 153.565 57.2657 152.559 57.2657 151.456 57.2657 151.583 57.9123 151.583 52.2794 151.583 46.6176 151.455 47.2544 152.586 47.2512 153.485 47.2487 153.649 47.1989 153.967 46.8313 154.324 46.4176 155.111 46.5269 155.704 47.0729 155.887 47.2412 155.931 47.249 156.672 47.249L157.449 47.249 157.623 47.0438C157.85 46.7766 158.316 46.5705 158.586 46.6172 158.988 46.6868 159.368 46.8599 159.542 47.0534 159.82 47.362 161.19 47.3485 161.306 47.0358 161.47 46.5961 162.375 46.4617 162.909 46.7978M154.468 47.3876C154.13 47.5219 153.952 48.3483 154.086 49.1561 154.148 49.528 154.595 49.6765 155.068 49.4827L155.274 49.3984 155.274 48.6588C155.274 47.5925 155.008 47.1729 154.468 47.3876M158.269 47.3869C158.038 47.5206 157.916 49.2972 158.128 49.4561 158.277 49.5688 158.842 49.5774 158.951 49.4689 159.106 49.3153 159.062 47.472 158.901 47.3867 158.736 47.2995 158.421 47.2995 158.269 47.3869M161.955 47.3898C161.803 47.4776 161.772 49.3476 161.921 49.4662 162.092 49.6024 162.515 49.5997 162.64 49.4617 162.816 49.2688 162.793 47.5338 162.613 47.4035 162.47 47.3003 162.123 47.293 161.955 47.3898M140.615 47.6763 140.823 47.9597 140.67 48.183C140.483 48.4586 140.401 49.0485 140.497 49.4324 140.537 49.5903 140.59 49.9173 140.615 50.1593 140.645 50.4474 140.717 50.6862 140.824 50.8515 140.914 50.9904 140.988 51.1334 140.988 51.1694 140.988 51.2055 141.14 51.4346 141.327 51.6782L141.665 52.1215 141.471 52.2208C141.326 52.2953 141.22 52.3039 141.049 52.2553 140.747 52.1697 140.651 52.2696 140.586 52.7381 140.558 52.9389 140.495 53.1756 140.447 53.264L140.359 53.4244 140.23 53.2301C140.158 53.1232 140.1 52.9283 140.1 52.797 140.099 52.3809 139.952 52.2574 139.459 52.2574 138.997 52.2574 138.646 52.1102 138.887 52.0178 139.054 51.9533 139.589 51.243 139.649 51.0038 139.677 50.8953 139.772 50.6534 139.86 50.466 139.949 50.2787 140.041 50.0341 140.064 49.9224 140.088 49.8107 140.14 49.5911 140.179 49.4342 140.297 48.9749 140.196 48.4262 139.957 48.2148 139.697 47.9851 139.703 47.9428 140.048 47.6429 140.402 47.335 140.363 47.3326 140.615 47.6763M184.871 47.9622C184.871 48.0125 184.777 48.1082 184.663 48.175 184.235 48.4255 184.247 49.5236 184.688 50.3643 184.785 50.55 184.884 50.8055 184.908 50.9322 184.932 51.0591 185.005 51.2195 185.071 51.2889 185.136 51.3581 185.248 51.5055 185.32 51.6161 185.392 51.727 185.522 51.8738 185.608 51.9428 185.839 52.128 185.695 52.2572 185.255 52.2584 184.693 52.2599 184.543 52.3728 184.401 52.9004 184.237 53.512 184.242 53.502 184.188 53.402 184.16 53.3494 184.118 53.1816 184.095 53.0291 184.001 52.4198 183.881 52.2577 183.52 52.255 183.342 52.2537 183.124 52.213 183.036 52.1647L182.876 52.0768 183.08 51.9068C183.192 51.8132 183.357 51.6027 183.447 51.4388 183.536 51.2748 183.67 51.0515 183.743 50.9425 184.037 50.508 184.169 48.8014 183.953 48.2473L183.827 47.9258 184.013 47.6595 184.2 47.3933 184.535 47.6321C184.72 47.7634 184.871 47.912 184.871 47.9622M148.148 47.7431C148.347 47.9228 148.34 47.9864 148.095 48.2248 147.888 48.4256 147.853 48.5717 147.882 49.1102 147.908 49.5772 148.111 50.3892 148.244 50.5586 148.314 50.6479 148.39 50.8361 148.413 50.9765 148.438 51.1319 148.531 51.3051 148.651 51.4188 148.76 51.5217 148.848 51.6437 148.848 51.6899 148.848 51.7361 148.931 51.8378 149.031 51.9159 149.273 52.1044 149.191 52.1709 148.618 52.2515 148.058 52.3298 148.125 52.2716 147.989 52.8024 147.802 53.5289 147.62 53.5464 147.527 52.8469 147.459 52.3423 147.389 52.2574 147.038 52.2574 146.872 52.2574 146.658 52.2224 146.563 52.1794L146.39 52.1016 146.636 51.8327C146.771 51.6846 146.956 51.4076 147.048 51.2168 147.14 51.0261 147.263 50.7826 147.322 50.6757 147.603 50.1625 147.667 48.5817 147.423 48.1855L147.27 47.9377 147.484 47.6959C147.718 47.4321 147.81 47.4387 148.148 47.7431M177.166 47.7813C177.264 47.9412 177.261 47.9751 177.128 48.2277 176.863 48.7309 177.012 50.4454 177.359 50.8908 177.425 50.9765 177.53 51.1941 177.59 51.3743 177.672 51.618 177.77 51.7501 177.975 51.8907L178.25 52.0795 178.023 52.1975C177.864 52.2802 177.71 52.3041 177.507 52.2774 177.187 52.2354 177.078 52.3692 177.078 52.8066 177.078 52.9178 177.028 53.1046 176.967 53.2218L176.856 53.435 176.733 53.2844C176.665 53.2015 176.589 52.9679 176.563 52.7653 176.506 52.3124 176.468 52.2807 175.933 52.244 175.463 52.2119 175.25 52.0936 175.456 51.9787 175.611 51.8919 176.121 51.2085 176.121 51.0873 176.121 51.0362 176.201 50.8446 176.299 50.6615 176.729 49.8541 176.797 48.5304 176.427 48.1734 176.182 47.9373 176.184 47.9329 176.621 47.6084 176.847 47.4402 176.983 47.4832 177.166 47.7813M133.074 47.6382C133.261 47.8487 133.276 48.0275 133.123 48.2197 132.888 48.5156 132.446 48.4475 132.251 48.0854 132.063 47.7356 132.804 47.3333 133.074 47.6382M169.663 47.792C169.81 48.2504 169.521 48.5813 169.147 48.3844 168.753 48.1773 168.676 48.0444 168.81 47.8069 168.989 47.4896 169.562 47.4796 169.663 47.792M169.63 50.2608C169.715 50.7569 169.81 51.0087 170.017 51.2825 170.104 51.3977 170.175 51.5313 170.175 51.5797 170.175 51.6281 170.289 51.7652 170.428 51.8843L170.681 52.101 170.509 52.212C170.382 52.2946 170.285 52.3081 170.133 52.2648 169.851 52.1848 169.704 52.3068 169.601 52.7088 169.487 53.1506 169.327 53.1765 169.156 52.7811 169.007 52.4359 168.707 52.2574 168.276 52.2574 167.854 52.2574 167.784 52.1081 168.084 51.8472 168.219 51.7302 168.33 51.5993 168.33 51.5567 168.331 51.5139 168.4 51.4144 168.484 51.3354 168.586 51.2393 168.678 51.0085 168.761 50.638 168.86 50.1982 168.927 50.0479 169.086 49.9075 169.196 49.8104 169.286 49.6964 169.286 49.6541 169.286 49.6118 169.325 49.5392 169.372 49.4926 169.466 49.3992 169.501 49.504 169.63 50.2608M133.191 50.5461C133.195 50.7655 133.387 51.2422 133.471 51.2422 133.496 51.2422 133.57 51.3606 133.636 51.5053 133.702 51.6499 133.848 51.8356 133.96 51.9176 134.216 52.1049 134.098 52.2181 133.588 52.2733 133.163 52.3193 133.059 52.4137 133.058 52.7564 133.056 53.153 132.985 53.2388 132.798 53.067 132.716 52.991 132.649 52.8597 132.649 52.7751 132.649 52.5398 132.278 52.3056 131.85 52.2704 131.405 52.2339 131.278 52.1168 131.516 51.9621 131.609 51.9019 131.75 51.723 131.829 51.5643 131.909 51.4058 132.049 51.1401 132.14 50.974 132.232 50.808 132.308 50.5643 132.309 50.4326 132.312 50.109 132.448 49.8884 132.725 49.7559L132.956 49.6457 133.072 49.987C133.135 50.1748 133.189 50.4265 133.191 50.5461M153.326 50.0806C153.101 50.1305 152.985 50.6672 153.155 50.8701 153.339 51.0896 153.751 51.2283 153.857 51.1063 153.911 51.044 154.025 50.9445 154.11 50.8853 154.576 50.5623 153.968 49.9383 153.326 50.0806M163.054 50.1618C162.778 50.3214 162.766 50.9715 163.039 50.9715 163.081 50.9715 163.197 51.0346 163.296 51.1117 163.395 51.1889 163.476 51.2249 163.476 51.1919 163.476 51.1588 163.598 51.0638 163.747 50.9808 164.098 50.7857 164.11 50.761 163.988 50.4735 163.839 50.1185 163.389 49.9684 163.054 50.1618M157.825 51.4393C157.45 51.4696 157.297 51.5143 157.175 51.6279 157.087 51.7099 156.883 51.7977 156.723 51.8232 156.526 51.8543 156.369 51.9345 156.245 52.0679 156.143 52.177 155.975 52.3109 155.872 52.3652 155.425 52.6 155.777 53.3208 156.56 53.7723 156.632 53.8139 156.769 53.9027 156.864 53.9697 157.204 54.2086 159.361 54.2802 159.922 54.0714 160.167 53.9799 160.735 53.5961 161.021 53.3289 161.409 52.9665 161.423 52.3251 161.044 52.3251 160.996 52.3251 160.9 52.2537 160.831 52.1665 160.762 52.0792 160.536 51.9525 160.33 51.885 160.124 51.8173 159.879 51.7063 159.785 51.6383 159.467 51.4078 158.909 51.3511 157.825 51.4393M136.813 51.962C136.985 52.1789 136.999 52.5709 136.842 52.7931 136.647 53.0685 136.854 55.0683 137.107 55.3541 137.165 55.4191 137.265 55.5788 137.331 55.7091 137.396 55.8394 137.508 56.0098 137.58 56.0878 137.77 56.2937 137.681 56.4534 137.375 56.4546 136.977 56.4563 136.926 56.5402 136.784 57.4223 136.723 57.7982 136.543 57.7334 136.443 57.2996 136.323 56.7783 136.248 56.6862 135.851 56.5771 135.284 56.4208 135.264 56.1703 135.772 55.5856 135.859 55.4861 135.949 55.2979 135.973 55.1676 135.997 55.0374 136.087 54.8089 136.173 54.6601 136.398 54.2724 136.664 53.0108 136.541 52.9139 136.524 52.9008 136.395 52.8213 136.254 52.7374 135.883 52.5161 135.935 52.0731 136.355 51.8917 136.658 51.7604 136.653 51.7596 136.813 51.962M144.354 51.9307C144.626 52.0609 144.617 52.4273 144.335 52.7389 144.055 53.047 144.174 54.1885 144.574 55.0394 144.669 55.2402 144.746 55.4577 144.747 55.5228 144.747 55.5878 144.858 55.7627 144.994 55.9115 145.353 56.3054 145.291 56.5213 144.817 56.5213 144.415 56.5213 144.361 56.5889 144.295 57.174 144.202 58.0018 143.79 57.9681 143.79 57.1328 143.79 56.5355 143.703 56.4148 143.344 56.5132 143.06 56.5908 143.01 56.5703 142.942 56.3456 142.912 56.2461 142.95 56.1531 143.071 56.0338 143.165 55.9402 143.287 55.7387 143.342 55.5859 143.396 55.4331 143.508 55.2172 143.591 55.106 143.706 54.9523 143.754 54.7621 143.793 54.3083 143.822 53.9807 143.863 53.6288 143.886 53.5264 143.908 53.424 143.942 53.2663 143.961 53.176 143.98 53.0856 143.957 52.9714 143.909 52.9222 143.557 52.5565 143.711 51.6454 144.097 51.8114 144.135 51.8276 144.251 51.8813 144.354 51.9307M173.429 52.2389C173.461 52.4093 173.432 52.5606 173.32 52.7971 173.158 53.1398 173.158 53.1586 173.315 54.1863 173.433 54.9655 173.518 55.2424 173.703 55.4597 173.792 55.5653 173.866 55.6905 173.866 55.7375 173.866 55.7847 173.943 55.912 174.037 56.0201 174.228 56.2402 174.236 56.2746 174.14 56.4524 174.081 56.5609 174.044 56.5673 173.865 56.5001 173.533 56.3761 173.433 56.4879 173.353 57.0697 173.243 57.8774 173.051 57.9534 172.91 57.2446 172.793 56.6558 172.746 56.5889 172.443 56.5889 171.884 56.5889 171.758 56.316 172.122 55.8949 172.253 55.7434 172.379 55.5101 172.403 55.3766 172.426 55.2431 172.484 55.0729 172.53 54.9984 173.006 54.2343 173.161 53.0827 172.829 52.7729 172.499 52.4648 172.528 52.1124 172.9 51.9227 173.202 51.7679 173.357 51.8606 173.429 52.2389M180.813 51.9246C181.139 52.1242 181.14 52.4762 180.815 52.788 180.597 52.9971 180.589 53.021 180.644 53.3259 180.676 53.5014 180.729 53.8276 180.762 54.0509 180.794 54.2743 180.883 54.5636 180.959 54.6939 181.035 54.8242 181.149 55.1135 181.212 55.3368 181.293 55.6258 181.394 55.8061 181.563 55.962 181.917 56.2889 181.747 56.5859 181.203 56.5879 180.878 56.5891 180.77 56.767 180.77 57.2993 180.77 58.0752 180.338 57.8492 180.267 57.0361 180.218 56.4784 180.23 56.4939 179.827 56.4903 179.452 56.4869 179.3 56.1428 179.603 55.9822 179.68 55.9414 179.801 55.7947 179.871 55.6563 179.942 55.5177 180.048 55.3132 180.106 55.2015 180.164 55.0898 180.249 54.6786 180.293 54.2878 180.338 53.8969 180.389 53.4494 180.408 53.2934 180.431 53.0986 180.407 52.9611 180.332 52.8553 180.184 52.647 180.187 52.0702 180.336 51.9073 180.479 51.7503 180.531 51.7522 180.813 51.9246M159.21 51.9599C159.457 52.0618 159.465 52.0741 159.344 52.1621 159.046 52.3775 157.695 52.3831 157.48 52.1699 157.201 51.8934 158.63 51.72 159.21 51.9599M157.23 52.3091C157.271 52.3366 157.327 52.4263 157.353 52.5085 157.599 53.2887 159.282 53.2653 159.586 52.4773 159.685 52.221 160.292 52.255 160.433 52.5247 160.616 52.8756 160.572 53.1298 160.308 53.2388 160.183 53.2907 160.034 53.4017 159.978 53.4855 159.727 53.8595 157.472 53.8267 156.949 53.4413 156.836 53.358 156.651 53.2607 156.538 53.2252 156.167 53.1081 156.26 52.4474 156.663 52.3318 156.937 52.2533 157.132 52.2455 157.23 52.3091M153.494 54.625C153.133 54.689 153.086 54.7409 153.086 55.0746 153.086 55.6044 153.56 56.015 153.839 55.727 153.903 55.6614 154.039 55.5368 154.142 55.4504 154.542 55.114 154.077 54.5216 153.494 54.625M163.119 54.6746C162.732 54.7326 162.713 55.3597 163.091 55.5519 163.209 55.6115 163.326 55.6925 163.352 55.7318 163.413 55.8264 163.869 55.5891 164 55.394 164.202 55.0947 163.824 54.6008 163.42 54.6364 163.357 54.6419 163.221 54.659 163.119 54.6746M154.013 58.3637C153.842 58.6046 153.868 59.3647 154.053 59.5613 154.213 59.732 154.667 59.7204 154.85 59.5407 154.998 59.3958 154.971 58.4263 154.816 58.3102 154.61 58.1559 154.138 58.1874 154.013 58.3637M161.918 58.2945C161.807 58.4045 161.809 59.3701 161.921 59.521 162.047 59.6911 162.605 59.7014 162.788 59.5371 163.038 59.3134 162.995 58.4535 162.728 58.3165 162.487 58.1933 162.032 58.1808 161.918 58.2945M132.854 58.8258C134.865 58.8297 138.433 58.8349 140.783 58.8371 143.132 58.8393 145.178 58.8424 145.328 58.8437 145.479 58.8451 147.027 58.8337 148.77 58.8183L151.938 58.7903 152.039 58.9813C152.195 59.2767 152.195 88.1144 152.038 88.3355 151.904 88.5247 151.698 88.48 151.227 88.1592 151.038 88.0305 150.83 87.9251 150.765 87.9251 150.7 87.9251 150.558 87.8493 150.449 87.7567 150.34 87.6641 150.115 87.5423 149.948 87.4862 149.782 87.4301 149.597 87.3434 149.538 87.2934 149.478 87.2437 149.322 87.1628 149.19 87.1141 149.059 87.0652 148.813 86.9415 148.643 86.8393 148.474 86.7373 148.259 86.6308 148.166 86.6029 148.072 86.575 147.888 86.4814 147.756 86.395 147.624 86.3083 147.408 86.2011 147.276 86.1564 147.145 86.1117 146.942 86.0041 146.825 85.9171 146.709 85.8302 146.478 85.7183 146.313 85.6684 146.147 85.6185 145.892 85.4967 145.746 85.3977 145.6 85.2989 145.446 85.2177 145.404 85.2175 145.362 85.2173 145.19 85.1261 145.021 85.0148 144.851 84.9035 144.647 84.8123 144.567 84.8121 144.487 84.8119 144.333 84.7243 144.225 84.6173 144.115 84.5082 143.919 84.4031 143.777 84.3781 143.638 84.3534 143.396 84.2277 143.24 84.0987 143.085 83.9698 142.885 83.8642 142.798 83.8642 142.71 83.8642 142.548 83.7888 142.437 83.6964 142.326 83.604 142.101 83.471 141.936 83.4006 141.772 83.3302 141.578 83.2077 141.507 83.1285 141.435 83.0492 141.325 82.9844 141.261 82.9844 141.197 82.9844 141.025 82.8993 140.878 82.795 140.732 82.691 140.504 82.5637 140.373 82.5123 140.241 82.4609 140.021 82.3328 139.884 82.2279 139.747 82.1228 139.592 82.0368 139.539 82.0368 139.486 82.0368 139.34 81.9323 139.215 81.8045 139.09 81.6768 138.899 81.536 138.791 81.4917 138.684 81.4475 138.595 81.3869 138.595 81.3573 138.595 81.3277 138.442 81.2345 138.253 81.1504 138.065 81.0661 137.866 80.9289 137.811 80.8455 137.756 80.7619 137.644 80.6726 137.563 80.6472 137.427 80.6046 136.7 80.092 136.489 79.8897 136.439 79.8421 136.373 79.8034 136.343 79.8034 136.313 79.8034 136.164 79.6892 136.012 79.5496 135.429 79.0124 134.788 78.4444 134.46 78.1752 134.115 77.8923 133.773 77.5444 133.332 77.0308 133.201 76.8775 132.993 76.6571 132.871 76.541 132.749 76.4249 132.649 76.2924 132.649 76.2466 132.649 76.2006 132.604 76.1461 132.549 76.1253 132.494 76.1045 132.373 75.9678 132.28 75.8216 132.187 75.6752 132.032 75.4715 131.935 75.3684 131.839 75.2656 131.76 75.1314 131.76 75.0701 131.76 75.0091 131.669 74.8537 131.558 74.7248 131.446 74.5959 131.354 74.4576 131.353 74.4177 131.351 74.3776 131.274 74.274 131.181 74.1874 131.088 74.101 130.96 73.8901 130.896 73.7189 130.832 73.5477 130.724 73.3448 130.655 73.268 130.586 73.1912 130.484 72.9746 130.427 72.7866 130.371 72.5986 130.268 72.3721 130.199 72.2832 130.044 72.0843 129.914 71.7206 129.914 71.4843 129.914 71.3868 129.835 71.1912 129.738 71.0496 129.623 70.8826 129.538 70.6338 129.497 70.3427 129.461 70.0956 129.375 69.7973 129.305 69.6799 129.175 69.4618 129.065 68.9053 128.985 68.0608 128.96 67.8002 128.878 67.4348 128.802 67.2486 128.703 67.0045 128.638 66.5801 128.57 65.7258 128.415 63.7993 128.354 63.2034 128.282 62.9171 128.16 62.4335 128.153 59.2031 128.274 59.0593 128.426 58.8777 128.759 58.7513 128.992 58.787 129.104 58.8043 130.842 58.8217 132.854 58.8258M170.302 58.8151C171.454 58.8126 173.381 58.8182 174.584 58.8275 177.461 58.85 177.273 58.8501 178.172 58.8253 179.093 58.7999 186.512 58.7958 187.703 58.82 188.782 58.8419 188.982 59.0023 188.876 59.7609 188.852 59.9334 188.804 60.7445 188.769 61.5635 188.602 65.5696 188.565 66.0768 188.397 66.7072 188.307 67.0422 188.214 67.5295 188.189 67.7901 188.138 68.3407 188.037 68.8171 187.933 69.0054 187.833 69.1865 187.679 69.8413 187.676 70.0987 187.674 70.2144 187.596 70.4215 187.502 70.5586 187.407 70.6985 187.284 71.0354 187.223 71.3257 187.164 71.6105 187.056 71.9179 186.984 72.0088 186.912 72.0996 186.809 72.3215 186.755 72.5016 186.7 72.6817 186.597 72.8925 186.524 72.97 186.451 73.0475 186.373 73.2208 186.351 73.3549 186.329 73.4901 186.222 73.6923 186.112 73.8079 186.002 73.9228 185.877 74.1265 185.834 74.2605 185.791 74.3947 185.679 74.5751 185.586 74.6615 185.494 74.748 185.418 74.8486 185.418 74.8852 185.418 74.9613 184.913 75.6466 184.721 75.8316 184.651 75.8992 184.52 76.0667 184.431 76.2038 184.342 76.341 184.114 76.6178 183.924 76.8188 183.734 77.02 183.563 77.2244 183.544 77.273 183.526 77.3217 183.409 77.4278 183.285 77.5088 183.161 77.5899 182.922 77.8197 182.755 78.0191 182.587 78.2188 182.423 78.3821 182.389 78.3821 182.355 78.3821 182.138 78.5653 181.907 78.7894 181.675 79.0136 181.405 79.2496 181.305 79.3139 181.206 79.3784 180.894 79.6063 180.613 79.8203 180.332 80.0343 180.07 80.2095 180.032 80.2095 179.993 80.2095 179.888 80.2932 179.799 80.3956 179.709 80.498 179.53 80.6411 179.4 80.7137 179.27 80.7861 179.087 80.9155 178.993 81.0013 178.899 81.0869 178.789 81.157 178.747 81.157 178.706 81.157 178.613 81.2211 178.542 81.2996 178.47 81.378 178.288 81.5042 178.138 81.58 177.988 81.656 177.769 81.7896 177.653 81.8775 177.537 81.9651 177.412 82.0368 177.375 82.0368 177.339 82.0368 177.221 82.1275 177.114 82.2384 177.007 82.3492 176.809 82.4752 176.674 82.5187 176.539 82.5622 176.328 82.6847 176.205 82.791 176.081 82.8974 175.923 82.9844 175.854 82.9844 175.785 82.9844 175.686 83.035 175.634 83.0969 175.583 83.1586 175.385 83.2778 175.194 83.3614 175.003 83.4449 174.73 83.5923 174.586 83.6887 174.443 83.7852 174.269 83.8642 174.2 83.8642 174.132 83.8642 173.971 83.9556 173.842 84.0673 173.714 84.1789 173.573 84.2703 173.529 84.2703 173.435 84.2703 173.027 84.4706 172.977 84.541 172.923 84.619 172.515 84.8117 172.405 84.8117 172.35 84.8117 172.217 84.8835 172.111 84.971 172.005 85.0586 171.749 85.1848 171.542 85.2517 171.335 85.3185 171.082 85.4422 170.98 85.5266 170.877 85.6111 170.702 85.6999 170.592 85.7239 170.481 85.7481 170.318 85.8373 170.231 85.9222 170.144 86.0071 169.934 86.1227 169.765 86.1789 169.595 86.2352 169.337 86.3618 169.191 86.4603 169.045 86.5586 168.87 86.6391 168.803 86.6391 168.736 86.6391 168.593 86.7132 168.484 86.8039 168.375 86.8946 168.15 87.0212 167.983 87.0852 167.816 87.1491 167.634 87.2384 167.577 87.2833 167.521 87.3283 167.321 87.4208 167.133 87.4888 166.945 87.5571 166.696 87.6831 166.58 87.7689 166.463 87.8548 166.345 87.9251 166.317 87.9251 166.231 87.9251 165.78 88.1479 165.532 88.3132L165.299 88.469 165.149 88.3291 164.998 88.1892 165.006 73.6581C165.012 62.0674 165.032 59.0967 165.101 58.977 165.197 58.8097 165.703 58.7716 167.397 58.8041 167.843 58.8128 169.15 58.8177 170.302 58.8151M154.057 60.1631C153.866 60.4523 154.325 60.6312 154.758 60.4359 154.963 60.343 154.972 60.2997 154.812 60.1604 154.596 59.9718 154.183 59.9733 154.057 60.1631M161.937 60.177C161.816 60.3093 161.816 60.3166 161.944 60.4119 162.162 60.5752 162.861 60.4931 162.861 60.3043 162.861 60.054 162.14 59.9547 161.937 60.177M137.056 60.2278C137.018 60.2552 136.947 60.4298 136.898 60.6159 136.673 61.4805 136.275 61.7609 135.9 61.3193 135.526 60.8797 135.109 61.1657 135.109 61.8619 135.109 62.255 134.968 62.4095 134.608 62.4095 133.88 62.4095 133.823 63.4968 134.517 64.1511L134.815 64.4328 134.95 64.2502C135.024 64.1499 135.104 64.0144 135.129 63.9492 135.153 63.8841 135.201 63.8307 135.235 63.8307 135.393 63.8307 135.454 64.0751 135.492 64.8529 135.538 65.7944 135.815 66.5943 136.215 66.9441 136.499 67.192 136.394 67.5532 136.039 67.5532 135.726 67.5532 135.545 67.8902 135.497 68.5618 135.444 69.2955 135.395 69.3806 135.028 69.3806 134.813 69.3806 134.724 69.4213 134.587 69.5824 134.207 70.0296 133.476 69.9139 133.188 69.3611 133.145 69.2787 133.055 69.1505 132.987 69.076 132.92 69.0016 132.811 68.8036 132.746 68.6361 132.681 68.4686 132.558 68.2381 132.473 68.1237 132.388 68.0095 132.283 67.783 132.238 67.6204 132.194 67.4576 132.085 67.1855 131.996 67.0158 131.725 66.4996 131.758 65.1255 132.057 64.5076 132.327 63.9467 132.304 63.1387 132.003 62.6822 131.869 62.4787 131.744 62.2643 131.726 62.2061 131.632 61.9141 131.075 61.7794 130.957 62.0203 130.745 62.4528 130.85 64.0223 131.102 64.2052 131.484 64.4817 131.128 64.627 130.604 64.4088 129.97 64.1441 129.807 64.2866 129.99 64.9475 130.077 65.2615 130.353 65.7333 130.598 65.9881 130.692 66.0857 130.833 66.2931 130.911 66.4492L131.053 66.7327 130.865 66.9231 130.677 67.1133 130.856 67.6454C131.007 68.0972 131.094 68.2368 131.429 68.5684L131.824 68.9591 131.783 69.3029C131.718 69.8471 132.155 70.5193 132.649 70.6323 133.021 70.7179 133.159 70.8985 133.195 71.3521 133.229 71.7663 133.236 71.7797 133.558 72.0078L133.886 72.2406 134.04 72.0964C134.126 72.0172 134.226 71.9524 134.264 71.9524 134.301 71.9524 134.419 71.8622 134.526 71.7521 134.655 71.6184 134.815 71.5374 135.006 71.5091 135.356 71.4572 135.375 71.4438 135.593 71.1064L135.768 70.8357 135.615 70.6132C135.475 70.4105 135.469 70.3653 135.545 70.1056 135.657 69.7222 135.801 69.7383 135.932 70.1488 135.998 70.355 136.096 70.5085 136.197 70.5618 136.285 70.6086 136.395 70.7359 136.441 70.8447 136.488 70.9535 136.641 71.133 136.782 71.2437 136.923 71.3543 137.153 71.559 137.293 71.6986 137.434 71.8382 137.583 71.9524 137.623 71.9524 137.664 71.9524 137.763 72.0438 137.843 72.1555 137.924 72.2672 138.029 72.3585 138.078 72.3585 138.239 72.3585 138.732 73.0893 138.73 73.3257 138.726 73.9074 138.489 74.3172 137.89 74.7778 137.144 75.3515 136.644 75.3297 136.817 74.731 136.905 74.4263 136.853 74.3752 136.23 74.1563 135.806 74.0069 135.696 73.99 135.609 74.0607 135.552 74.108 135.442 74.1785 135.365 74.217 135.134 74.3333 135.053 74.5191 135.198 74.6006 135.265 74.6385 135.416 74.774 135.533 74.9014 135.719 75.1038 135.788 75.1334 136.073 75.1334 136.463 75.1334 136.75 75.2297 136.75 75.3605 136.75 75.4571 136.59 75.5327 136.1 75.6671 135.593 75.8063 135.064 76.5596 135.144 77.0283 135.196 77.3383 135.227 77.3459 135.782 77.1924 136.58 76.9722 136.735 76.8833 136.853 76.5774 137.002 76.1914 137.088 76.1309 137.357 76.2238 137.506 76.2752 137.555 76.3229 137.512 76.376 137.39 76.5251 137.352 77.03 137.435 77.3748L137.518 77.7173 137.766 77.6718C138.048 77.62 138.254 77.4652 138.254 77.3049 138.254 77.2452 138.332 77.1126 138.428 77.0104 138.654 76.7688 138.8 76.349 138.8 75.9415 138.8 75.4043 138.887 75.2603 139.201 75.2788 139.575 75.3006 139.939 74.9046 140.061 74.3446 140.097 74.1788 140.197 74.0754 140.507 73.883 141.011 73.57 141.16 73.1494 140.828 72.9737 140.741 72.9274 140.616 72.7996 140.55 72.6898 140.485 72.58 140.352 72.4123 140.256 72.3171 140.063 72.1254 140.057 71.6562 140.244 71.2514L140.333 71.0582 140.484 71.2462C140.721 71.5399 141.762 71.5665 142.101 71.2876 142.244 71.1702 142.715 71.1728 142.902 71.292 143.199 71.4812 143.665 71.4753 143.765 71.2811 143.956 70.9078 144.204 70.9905 144.335 71.4709 144.373 71.6124 144.464 71.7809 144.536 71.8458 144.609 71.9107 144.706 72.121 144.752 72.3133 144.799 72.5057 144.907 72.7697 144.994 72.9 145.08 73.0303 145.184 73.2857 145.225 73.4676 145.265 73.6495 145.357 73.8722 145.429 73.9626 145.501 74.0527 145.595 74.239 145.639 74.3763 145.711 74.6037 145.904 74.8153 146.589 75.4211 146.705 75.5234 146.834 75.6072 146.875 75.6072 146.916 75.6072 147.061 75.6931 147.198 75.7982 147.335 75.9031 147.546 76.0283 147.667 76.0762 147.788 76.1241 147.903 76.2141 147.923 76.2764 147.943 76.3386 148.069 76.5563 148.203 76.7598L148.448 77.13 148.421 78.179C148.397 79.1249 148.376 79.278 148.204 79.7357 148.099 80.0149 147.984 80.4071 147.95 80.6074 147.848 81.1951 147.55 81.4594 147.55 80.9617 147.55 80.8145 147.467 80.6348 147.303 80.4216 147.292 80.4081 147.204 80.4589 147.107 80.5345 147.01 80.6101 146.806 80.6929 146.654 80.7183 146.136 80.8049 145.746 81.2859 145.715 81.8747 145.685 82.4543 145.775 82.5331 146.17 82.2742 146.31 82.1825 146.522 82.0881 146.642 82.0644 146.904 82.0125 147.027 81.8834 147.136 81.5462 147.228 81.2644 147.393 81.2094 147.442 81.4446 147.459 81.5284 147.487 82.091 147.503 82.695 147.534 83.9036 147.571 84.0253 147.981 84.2744L148.199 84.4073 148.319 84.2635C148.384 84.1845 148.438 84.0827 148.438 84.0371 148.438 83.9916 148.531 83.8728 148.643 83.7733L148.848 83.5925 148.848 82.7605C148.848 82.2634 148.819 81.8996 148.776 81.8567 148.725 81.8059 148.766 81.7722 148.917 81.7423 149.099 81.7064 149.158 81.7311 149.304 81.9022 149.675 82.3385 149.837 82.1201 149.794 81.2421 149.773 80.8054 149.738 80.6717 149.582 80.4475 149.334 80.0902 149.346 79.9438 149.642 79.7101L149.888 79.5154 149.841 78.9995C149.806 78.6152 149.743 78.3933 149.595 78.1293 149.341 77.6792 149.343 77.6669 149.661 77.506 150.011 77.3293 150.173 76.9204 150.039 76.5547 149.992 76.4244 149.95 76.2043 149.947 76.0655 149.941 75.775 149.793 75.65 149.368 75.576 149.075 75.5249 148.58 75.1547 148.369 74.8289 148.297 74.7172 148.186 74.5566 148.124 74.472 148.061 74.3876 147.969 74.1592 147.92 73.9644 147.87 73.7698 147.771 73.4431 147.7 73.2384 147.628 73.0336 147.547 72.7139 147.521 72.5277 147.464 72.1318 147.339 71.7494 147.266 71.7494 147.237 71.7494 147.162 71.6352 147.098 71.4956 147.034 71.356 146.872 71.1465 146.738 71.0301 146.269 70.624 146.873 70.4361 147.49 70.7956 147.974 71.0768 148.975 71.1448 149.323 70.9202 149.453 70.8364 149.699 70.6919 149.87 70.5988 150.107 70.4699 150.201 70.369 150.265 70.1751 150.311 70.0352 150.419 69.8269 150.504 69.7125 150.715 69.4308 150.715 68.6806 150.506 68.3885 150.43 68.2828 150.321 68.0848 150.264 67.9488 150.068 67.4838 149.661 67.0202 149.344 66.9001L149.048 66.7884 148.853 66.9733 148.658 67.1583 148.531 66.9744C148.237 66.549 147.679 66.14 147.235 66.0256 146.761 65.9033 146.694 65.9231 146.546 66.2314 146.388 66.5591 146.309 66.5309 145.614 65.9003 145.116 65.448 144.2 65.4152 144.2 65.8495 144.2 66.0685 143.916 65.9053 143.252 65.3055 142.339 64.4808 142.306 63.2825 143.174 62.511 143.417 62.2948 144.949 62.3078 145.156 62.5279 145.235 62.6115 145.419 62.7406 145.565 62.8145 145.712 62.8885 145.851 62.9805 145.875 63.0189 145.899 63.0573 146.063 63.1611 146.239 63.2494 146.415 63.3377 146.617 63.4742 146.689 63.5528 146.76 63.6313 146.854 63.6954 146.896 63.6954 146.939 63.6954 147.138 63.8003 147.339 63.9286 147.761 64.1978 148.262 64.2891 148.691 64.1747 149.324 64.0059 149.2 63.6954 148.499 63.6954 148.162 63.6954 148.087 63.6716 147.972 63.5262 147.898 63.4331 147.811 63.3568 147.779 63.3566 147.528 63.355 147.197 63.191 147.093 63.016 147.027 62.9057 146.925 62.8156 146.865 62.8156 146.721 62.8156 146.593 62.6819 146.593 62.5313 146.593 62.3259 147.022 62.3707 147.291 62.6044 147.415 62.7117 147.577 62.811 147.651 62.8252 147.726 62.8392 147.849 62.9457 147.925 63.0614 148.067 63.2797 148.401 63.3616 149.224 63.3807 149.651 63.3905 150.124 63.1326 150.172 62.8636 150.283 62.2501 150.282 62.2196 150.158 62.067L150.032 61.9132 149.606 62.3304C149.186 62.7428 149.038 62.8196 148.946 62.6726 148.92 62.6313 148.728 62.5223 148.519 62.4306 148.309 62.3389 148.046 62.175 147.933 62.066 147.821 61.9572 147.702 61.868 147.67 61.868 147.638 61.868 147.544 61.7961 147.461 61.7083 147.378 61.6205 147.179 61.5124 147.017 61.4679 146.856 61.4235 146.647 61.3015 146.553 61.1968 146.418 61.0474 146.303 60.9985 146.017 60.9692 145.817 60.9488 145.595 60.9002 145.525 60.8613 145.034 60.5907 144.985 60.5819 144.723 60.7208 144.586 60.7934 144.4 60.8528 144.31 60.8528 144.03 60.8528 143.259 61.1191 143.059 61.2853 142.953 61.3723 142.799 61.4646 142.715 61.4905 142.545 61.5432 141.945 62.3839 141.945 62.569 141.945 62.6342 141.876 62.8306 141.792 63.0054 141.583 63.4384 141.581 64.089 141.787 64.5468 141.869 64.7301 141.954 64.9893 141.976 65.1229 142.028 65.4444 142.95 66.392 143.346 66.5307 143.493 66.5825 143.654 66.6637 143.701 66.7111 143.749 66.7585 143.95 66.8493 144.148 66.9129 144.346 66.9767 144.662 67.0962 144.85 67.1786 145.038 67.261 145.422 67.3654 145.704 67.4104 145.986 67.4554 146.324 67.5545 146.454 67.6307 146.615 67.7248 146.896 67.7884 147.327 67.8288 147.826 67.8755 148.046 67.9322 148.354 68.0928 148.57 68.2053 148.803 68.2975 148.872 68.2975 149.094 68.2979 149.371 68.5105 149.458 68.7476 149.758 69.5689 148.782 70.2576 147.776 69.9339 147.558 69.8635 147.04 69.7537 146.627 69.6897 146.213 69.6259 145.798 69.5335 145.704 69.4843 145.228 69.2349 142.712 68.9706 142.03 69.0982 141.814 69.1386 141.416 69.1921 141.145 69.2168 140.808 69.2477 140.611 69.3015 140.517 69.388 140.442 69.4574 140.248 69.5811 140.086 69.6628 139.688 69.8636 139.342 70.1657 139.174 70.4577 139.006 70.7521 138.66 70.765 138.238 70.4926 137.931 70.2946 137.664 70.285 137.433 70.4635 136.92 70.8609 136.142 70.057 136.521 69.5212 136.618 69.3848 136.646 69.3758 136.709 69.4611 136.936 69.7648 137.225 69.666 137.391 69.2283 137.458 69.0515 137.533 68.9068 137.559 68.9068 137.683 68.9071 138.037 69.2961 138.219 69.6337 138.332 69.8425 138.459 70.0244 138.501 70.0381 138.667 70.0917 139.005 69.7085 139.111 69.3466 139.257 68.8498 139.366 68.7718 139.596 68.9995 140.064 69.4628 140.379 68.7948 139.928 68.2977 139.843 68.2046 139.736 68.0067 139.69 67.8578 139.587 67.527 139.457 67.4178 139.168 67.4178 138.749 67.4178 138.64 67.1918 138.929 66.9182 139.095 66.7601 139.133 66.6588 139.173 66.2574 139.255 65.4248 139.46 64.6851 139.748 64.1781 139.826 64.0409 139.877 64.0228 140.103 64.0528 140.365 64.0876 140.367 64.0859 140.472 63.7731 140.73 63.003 140.559 62.4095 140.079 62.4095 139.702 62.4095 139.583 62.2839 139.532 61.831 139.447 61.0735 139.102 60.821 138.698 61.2208 138.28 61.6347 137.843 61.5946 137.843 61.1423 137.843 60.9516 137.667 60.5144 137.591 60.5144 137.56 60.5143 137.447 60.4381 137.337 60.3452 137.228 60.2521 137.136 60.1765 137.132 60.177 137.129 60.1775 137.094 60.2004 137.056 60.2278M173.131 60.44C173.029 60.5085 172.635 61.2753 172.635 61.4063 172.635 61.5778 172.19 61.5723 171.922 61.3975 171.673 61.235 171.605 61.3056 171.419 61.9161 171.268 62.41 171.023 62.5694 170.589 62.4548 169.708 62.2222 169.665 63.712 170.534 64.3492L170.86 64.5878 171.09 64.4534 171.32 64.3191 171.402 64.5922C171.448 64.7424 171.497 65.0969 171.512 65.3801 171.541 65.9202 171.63 66.2175 171.824 66.426 172.158 66.7852 172.177 67.292 171.86 67.3911 171.644 67.4588 171.473 67.6825 171.473 67.8994 171.473 68.0041 171.408 68.2506 171.328 68.4474 171.248 68.6469 171.176 68.9938 171.166 69.2308 171.154 69.5202 171.11 69.6978 171.03 69.7858 170.945 69.8787 170.921 69.988 170.945 70.1724 170.964 70.3139 171.014 70.697 171.056 71.0235 171.128 71.5711 171.181 71.7648 171.442 72.4262 171.616 72.8655 171.549 74.012 171.337 74.2375 171.272 74.3069 171.163 74.4793 171.095 74.6209 171.027 74.7625 170.846 74.9637 170.693 75.0681 170.54 75.1723 170.35 75.3209 170.271 75.3979 170.192 75.475 170.004 75.5811 169.854 75.6337 169.703 75.6862 169.454 75.7932 169.3 75.8711 169.107 75.9683 168.916 76.0077 168.691 75.9962 168.398 75.9811 168.361 75.9953 168.342 76.131 168.315 76.3139 168.11 76.4666 167.768 76.5581 167.131 76.7287 166.657 77.5447 167.013 77.8566 167.204 78.0237 167.957 77.8826 168.23 77.6286 168.345 77.5219 168.469 77.4346 168.508 77.4346 168.546 77.4346 168.665 77.3437 168.772 77.2327 168.922 77.0782 168.989 77.0484 169.059 77.1056 169.185 77.2095 169.173 77.2759 168.997 77.4505 168.701 77.743 168.802 78.8032 169.1 78.5378 169.184 78.4631 169.304 78.3843 169.367 78.3621 169.513 78.3114 169.942 77.6513 170.095 77.2408 170.212 76.928 170.214 76.9269 170.565 76.9066L170.918 76.8864 171.188 76.3256C171.466 75.7497 171.541 75.6833 172.04 75.5678 172.287 75.5104 172.43 75.2304 172.43 74.8031 172.43 74.3126 172.562 74.1934 172.935 74.3475 173.308 74.5016 173.39 74.282 173.37 73.1898 173.349 72.0795 173.559 71.6267 173.883 72.0846 174.11 72.4057 174.616 72.4374 175.035 72.1566 175.2 72.0457 175.368 71.9543 175.408 71.9536 175.448 71.9529 175.565 71.8655 175.668 71.7592 175.771 71.6528 175.984 71.525 176.142 71.4751 176.3 71.4252 176.503 71.3142 176.592 71.2284 176.811 71.0195 177.625 71.0674 177.625 71.2892 177.625 71.4666 178.187 71.3194 178.261 71.1228 178.409 70.7239 178.781 70.8537 178.924 71.354 179.014 71.6728 179.57 72.3274 179.842 72.4357 179.957 72.4817 180.144 72.5871 180.257 72.6698 180.37 72.7526 180.616 72.8404 180.804 72.8651 181.344 72.9357 181.501 73.0203 181.614 73.3016 181.738 73.6081 181.668 74.023 181.465 74.1825 181.391 74.2402 181.281 74.3864 181.219 74.5074 181.158 74.6283 181.08 74.7273 181.047 74.7273 181.014 74.7273 180.899 74.8187 180.793 74.9304 180.592 75.1407 180.375 75.196 180.329 75.0488 180.314 75.0023 180.282 74.8461 180.258 74.7018L180.213 74.4395 179.925 74.4786C179.195 74.5776 178.488 75.2613 178.839 75.5285 178.98 75.6358 179.76 75.5928 179.8 75.4757 179.881 75.2348 180.195 75.1189 180.267 75.3035 180.318 75.4363 180.173 75.6072 180.009 75.6072 179.925 75.6072 179.881 75.6554 179.881 75.749 179.881 75.8982 179.679 76.284 179.601 76.284 179.576 76.284 179.569 76.4896 179.587 76.7408 179.633 77.3843 180.008 77.7669 180.244 77.4102 180.303 77.3224 180.392 77.2082 180.443 77.1564 180.646 76.951 180.77 76.7187 180.77 76.5429 180.77 76.3046 180.904 76.0133 181.014 76.0133 181.099 76.0133 181.385 76.5251 181.385 76.6776 181.385 76.807 181.443 76.7743 181.757 76.4674 182.12 76.1134 182.281 75.6507 182.228 75.1195 182.178 74.6214 182.275 74.4075 182.575 74.3517 182.897 74.2918 182.973 74.182 182.983 73.7629 182.991 73.4255 183.003 73.4035 183.238 73.2935 183.485 73.1783 183.69 72.7484 183.58 72.5759 183.524 72.4873 182.862 72.1385 182.475 71.9934 182.293 71.925 182.066 71.7646 181.928 71.6064 181.798 71.4577 181.577 71.2228 181.436 71.0844 181.295 70.946 181.18 70.8019 181.18 70.7641 181.18 70.7266 181.087 70.6418 180.975 70.5758 180.741 70.4388 180.711 70.296 180.898 70.1973 181.049 70.1173 181.356 70.1911 181.678 70.3844 181.923 70.5318 182.797 70.667 183.498 70.6656 184.817 70.6633 185.418 70.076 185.418 68.7865 185.418 67.5466 185.092 66.9953 184.309 66.9122 183.702 66.8478 183.679 66.837 183.551 66.5478 183.441 66.3013 182.96 65.8395 182.637 65.6691 182.377 65.5324 181.92 65.573 181.693 65.7529L181.489 65.9146 181.266 65.7356C181.144 65.6371 180.939 65.4729 180.812 65.3705 180.523 65.1385 180.346 65.1368 179.919 65.362L179.582 65.5397 179.455 65.379C179.386 65.2906 179.247 65.1181 179.146 64.9956 178.557 64.2763 178.598 63.3384 179.248 62.6802L179.548 62.3756 180.291 62.3756C181.011 62.3756 181.04 62.3816 181.233 62.5643 181.342 62.668 181.544 62.7838 181.682 62.8215 181.82 62.8591 181.986 62.9452 182.052 63.0127 182.206 63.1717 182.388 63.2597 182.676 63.3139 182.803 63.3377 182.979 63.4335 183.066 63.5264 183.229 63.7015 183.607 63.7489 184.461 63.7013 184.91 63.6763 185.142 63.357 184.711 63.357 184.431 63.357 183.826 63.1697 183.767 63.065 183.734 63.0081 183.556 62.9115 183.37 62.8502 183.139 62.7745 183.017 62.6922 182.985 62.5912 182.931 62.4188 182.834 62.3443 182.664 62.3428 182.418 62.3408 182.028 62.1377 182.138 62.0689 182.364 61.9272 182.927 62.0166 182.975 62.202 183 62.2931 183.108 62.3308 183.443 62.3643 183.804 62.4005 183.908 62.4404 184.045 62.5949 184.203 62.7738 184.241 62.7827 184.941 62.8044L185.672 62.8271 185.817 62.6352C185.896 62.5296 186.01 62.3934 186.07 62.3323 186.472 61.919 185.966 61.3379 185.544 61.7278 185.227 62.0198 184.295 62.0083 183.897 61.7073 183.755 61.6002 183.537 61.5215 183.298 61.4916 182.882 61.4394 182.478 61.2985 182.478 61.2054 182.478 60.8992 180.279 60.9471 179.709 61.2657 179.515 61.3736 179.305 61.4619 179.241 61.4619 179.023 61.4619 178.047 62.5117 177.999 62.7975 177.976 62.9377 177.928 63.1407 177.893 63.2487 177.738 63.7318 177.907 64.9937 178.17 65.3163 178.247 65.4113 178.379 65.5871 178.463 65.707 178.548 65.827 178.697 65.9586 178.796 65.9996 178.895 66.0405 179.04 66.1465 179.117 66.2348 179.195 66.3231 179.379 66.4277 179.527 66.4669 179.674 66.5063 179.868 66.5945 179.957 66.663 180.047 66.7316 180.274 66.8439 180.462 66.9128 180.65 66.9816 180.901 67.1096 181.019 67.197 181.138 67.2847 181.39 67.3804 181.579 67.41 181.768 67.4397 182.003 67.5161 182.101 67.5803 182.2 67.6442 182.47 67.7564 182.701 67.8295 182.933 67.9028 183.139 67.9862 183.159 68.0153 183.204 68.0789 183.669 68.2977 183.76 68.2977 184.095 68.2977 184.556 69.3679 184.307 69.5681 183.841 69.943 183.18 70.0481 182.669 69.8283 182.529 69.7682 182.304 69.719 182.17 69.719 181.919 69.719 181.521 69.5576 181.521 69.4559 181.521 69.4249 181.375 69.3789 181.197 69.3538 181.018 69.3286 180.703 69.2809 180.496 69.2477 180.289 69.2146 179.902 69.1851 179.635 69.1824 179.368 69.1797 179.053 69.1442 178.934 69.1033 178.475 68.9449 176.284 69.2444 175.939 69.5126 175.848 69.5838 175.687 69.6608 175.58 69.6838 175.471 69.7076 175.192 69.919 174.935 70.1721L174.482 70.6185 173.998 70.5784C173.426 70.531 173.226 70.5932 172.934 70.9085 172.412 71.4726 171.615 70.3486 172.104 69.7379 172.153 69.6767 172.23 69.7186 172.404 69.901L172.638 70.1465 172.808 69.9887C172.901 69.9017 172.977 69.7919 172.977 69.7444 172.977 69.6968 173.016 69.6337 173.063 69.6039 173.11 69.5742 173.235 69.4356 173.34 69.296 173.56 69.0029 173.633 68.9824 173.698 69.1945 173.724 69.2782 173.805 69.4459 173.88 69.567L174.014 69.7875 174.22 69.6686C174.333 69.6032 174.484 69.4376 174.555 69.3004 174.768 68.8892 174.939 68.8102 175.181 69.0114 175.613 69.3716 175.873 68.7794 175.467 68.3596 175.369 68.2593 175.26 68.0456 175.224 67.8848 175.135 67.4935 175.058 67.4178 174.751 67.4178 174.278 67.4178 174.162 67.1816 174.507 66.9209 174.634 66.825 174.759 66.6613 174.785 66.5576 174.81 66.4537 174.893 66.2407 174.968 66.0842 175.06 65.8928 175.134 65.5136 175.192 64.9279 175.303 63.8179 175.446 63.5776 175.643 64.1702 175.76 64.5204 176.121 64.7311 176.121 64.4489 176.121 64.4245 176.206 64.3143 176.309 64.204 176.465 64.0375 176.504 63.9225 176.537 63.5279 176.587 62.9155 176.6 62.9394 176.055 62.6137 175.484 62.2719 175.403 62.1851 175.302 61.8003 175.258 61.6328 175.177 61.4259 175.121 61.3405L175.021 61.1851 174.814 61.3574C174.7 61.4521 174.576 61.5296 174.537 61.5296 174.498 61.5296 174.375 61.6059 174.263 61.6993 173.996 61.9215 173.96 61.8868 173.918 61.3679 173.857 60.6115 173.501 60.1921 173.131 60.44M158.908 61.5063C159.163 61.7344 158.977 62.2149 158.585 62.343 158.451 62.387 158.332 62.4124 158.322 62.3993 158.269 62.3316 158.076 61.7844 158.076 61.7022 158.076 61.4183 158.657 61.2814 158.908 61.5063M145.49 61.6205C145.599 61.7506 145.517 61.8003 145.191 61.8003 145.035 61.8003 144.886 61.7804 144.862 61.7558 144.773 61.6675 144.974 61.5296 145.191 61.5296 145.314 61.5296 145.448 61.5706 145.49 61.6205M167.032 61.8579C166.893 62.3523 166.968 63.3514 167.154 63.491 167.263 63.5722 167.372 63.8426 167.372 64.0291 167.372 64.1523 167.425 64.2654 167.508 64.3237 167.81 64.5328 167.334 64.5287 166.913 64.3186 166.663 64.1935 166.301 64.2709 166.328 64.4433 166.468 65.3241 166.714 65.8769 167.068 66.1067 167.374 66.3048 167.401 66.675 167.128 66.937 166.99 67.0703 166.903 67.2095 166.925 67.2649 166.945 67.3178 166.962 67.4002 166.962 67.448 166.962 67.4955 167.057 67.6525 167.172 67.7967 167.42 68.1045 167.408 68.3249 167.127 68.655 166.911 68.9099 166.941 69.3119 167.206 69.6985 167.298 69.8318 167.372 69.9635 167.372 69.9909 167.372 70.0185 167.463 70.0784 167.575 70.1242 167.978 70.2892 167.975 70.5465 167.57 70.6802 167.434 70.7252 167.38 71.256 167.495 71.4262 167.878 71.9961 168.116 72.065 168.729 71.7826 169.036 71.6413 169.197 71.614 169.727 71.614 170.495 71.614 170.553 71.5694 170.65 70.8998 170.8 69.8746 170.638 69.5597 170.163 69.9552 169.706 70.3361 168.815 69.9623 168.614 69.3053 168.564 69.142 168.472 68.9516 168.409 68.8824 168.306 68.7691 168.294 68.4642 168.288 65.8368 168.281 62.3575 168.29 62.5739 168.141 62.4252 168.075 62.3594 167.924 62.1824 167.804 62.0318 167.467 61.608 167.124 61.5306 167.032 61.8579M146.433 62.0389C146.572 62.1761 146.499 62.3435 146.304 62.335 145.803 62.3134 145.618 62.0702 146.046 61.9954 146.177 61.9724 146.295 61.9496 146.307 61.9447 146.319 61.9398 146.376 61.9822 146.433 62.0389M136.306 63.0196C136.33 63.0573 136.478 63.1528 136.635 63.2316 136.998 63.4142 137.033 63.4683 136.991 63.7912 136.955 64.0602 136.793 64.3045 136.65 64.3045 136.525 64.3045 135.93 63.5841 135.93 63.4337 135.93 63.0849 136.177 62.8128 136.306 63.0196M172.635 63.1805C173.053 63.4804 173.096 64.3045 172.694 64.3045 172.571 64.3045 172.023 63.6988 171.986 63.5215 171.967 63.4309 171.937 63.2834 171.918 63.1934 171.853 62.8832 172.212 62.8768 172.635 63.1805M174.799 62.9917C174.934 63.0277 174.938 63.0443 174.85 63.2108 174.798 63.3098 174.755 63.4424 174.755 63.5054 174.755 63.5685 174.698 63.6599 174.629 63.7084 174.559 63.7572 174.421 63.9264 174.32 64.0846 174.108 64.4184 174.078 64.4269 173.874 64.2113 173.596 63.9189 173.688 63.4384 174.055 63.2557 174.216 63.1758 174.383 63.0746 174.428 63.0306 174.518 62.9418 174.584 62.9348 174.799 62.9917M139.005 63.0863C139.005 63.1235 138.959 63.154 138.903 63.154 138.834 63.154 138.8 63.222 138.8 63.3597 138.8 63.816 138.324 64.3301 138.011 64.2113 137.817 64.1372 137.701 63.5783 137.836 63.3666 137.943 63.1998 139.005 62.945 139.005 63.0863M158.947 64.1419C158.989 64.25 159.042 64.477 159.065 64.6465 159.099 64.9023 159.175 65.0282 159.513 65.3891 159.979 65.8864 159.965 65.9854 159.42 66.0463 159.114 66.0805 158.829 66.261 158.827 66.4222 158.825 66.5082 158.407 67.0117 158.337 67.0117 158.315 67.0117 158.275 66.8671 158.249 66.6903 158.18 66.2194 158.057 66.0647 157.75 66.062 157.286 66.0581 157.17 65.8925 157.436 65.6116 157.756 65.2732 158.07 64.7 158.111 64.3785 158.151 64.0665 158.278 63.5024 158.33 63.4081 158.37 63.3333 158.859 63.9142 158.947 64.1419M168.813 64.8967C168.685 65.3759 168.7 65.8517 168.846 65.9576 169.199 66.2133 169.488 65.1272 169.165 64.7614 169.001 64.5766 168.887 64.6204 168.813 64.8967M132.377 64.9781C132.261 65.0517 132.216 66.1458 132.32 66.3519 132.426 66.5618 132.578 66.4788 132.752 66.115 132.846 65.9195 132.985 65.6635 133.061 65.5463L133.2 65.3329 133.044 65.1622C132.871 64.9725 132.532 64.8793 132.377 64.9781M174.33 65.1918C174.461 65.2411 174.487 65.2869 174.452 65.4055 174.429 65.4886 174.374 65.7241 174.332 65.9289 174.255 66.308 174.116 66.538 173.966 66.538 173.92 66.538 173.844 66.6307 173.796 66.7441 173.743 66.8713 173.615 66.993 173.463 67.062 173.328 67.1234 173.198 67.1842 173.175 67.1968 173.152 67.2095 173.094 67.127 173.046 67.0135 172.998 66.8979 172.892 66.7903 172.807 66.7688 172.626 66.7239 172.546 66.5862 172.368 66.0077 172.296 65.772 172.187 65.525 172.126 65.4592 171.84 65.1455 173.63 64.9284 174.33 65.1918M137.044 65.2456C137.445 65.4258 137.513 65.4321 137.707 65.306 138.581 64.7379 139.042 65.3791 138.453 66.3441 138.008 67.073 137.892 67.1065 137.814 66.5278 137.788 66.3344 137.737 66.1206 137.7 66.0526 137.568 65.8072 137.039 65.9693 136.977 66.274 136.887 66.7199 136.478 66.5351 136.351 65.9915 136.168 65.2048 136.399 64.9558 137.044 65.2456M173.052 65.6844C172.967 65.7852 172.924 66.5075 172.998 66.5809 173.022 66.6053 173.205 66.5977 173.403 66.5642L173.763 66.5033 173.748 66.1402C173.726 65.6309 173.32 65.3649 173.052 65.6844M182.068 66.2377C182.068 66.3845 181.926 66.426 181.811 66.3124 181.723 66.2246 181.719 66.1881 181.793 66.1006 181.891 65.9833 182.068 66.0715 182.068 66.2377M137.203 66.6395C137.279 66.8353 137.172 66.985 137.046 66.8598 136.933 66.7481 136.963 66.538 137.092 66.538 137.132 66.538 137.182 66.5837 137.203 66.6395M137.729 67.1067C137.774 67.2221 137.72 67.2828 137.576 67.2814 137.412 67.2799 137.273 67.1718 137.326 67.0871 137.393 66.9796 137.685 66.9938 137.729 67.1067M155.405 67.9501C155.473 68.0752 155.369 68.5356 155.205 68.8388 155.064 69.1012 154.371 68.3381 154.484 68.0449 154.603 67.7378 155.255 67.6708 155.405 67.9501M162.401 67.8601C162.68 68.0478 162.704 68.1055 162.561 68.2464 162.367 68.4385 162.177 68.908 162.179 69.1917 162.181 69.5364 162.407 70.5665 162.507 70.6851 162.545 70.731 162.64 70.9288 162.718 71.125 162.796 71.3212 162.983 71.636 163.134 71.8247 163.512 72.2978 163.439 72.4262 162.793 72.4262 162.451 72.4262 162.315 72.566 162.311 72.9218 162.31 73.0773 162.254 73.3064 162.187 73.4307L162.065 73.6571 161.95 73.4839C161.887 73.3888 161.836 73.1795 161.836 73.0189 161.836 72.6077 161.689 72.4262 161.358 72.4262 160.747 72.4262 160.635 72.2849 160.973 71.9403 161.683 71.2173 162.079 69.621 161.809 68.5769 161.664 68.0182 161.67 67.9195 161.851 67.794 162.053 67.6535 162.102 67.6593 162.401 67.8601M136.34 69.0141C136.34 69.1995 136.16 69.278 136.076 69.1291 135.97 68.9412 136.129 68.5797 136.248 68.7402 136.298 68.8088 136.34 68.932 136.34 69.0141M155.304 70.0372C155.406 70.8961 155.812 71.8978 156.095 71.9864 156.427 72.091 156.237 72.4262 155.845 72.4262 155.463 72.4262 155.342 72.5255 155.342 72.838 155.342 73.0835 155.187 73.5091 155.098 73.5091 155.034 73.5091 154.798 72.9384 154.797 72.78 154.795 72.6032 154.672 72.5436 154.082 72.4352 153.531 72.3336 153.503 72.2529 153.892 71.8849 154.276 71.5218 154.353 71.3953 154.417 71.0201 154.443 70.8638 154.543 70.6223 154.638 70.4836 154.733 70.3447 154.875 69.9633 154.954 69.6361 155.128 68.9093 155.176 68.9638 155.304 70.0372M176.626 72.0313C176.36 72.101 176.302 72.1743 176.191 72.5824 176.123 72.8301 176.029 72.9673 175.797 73.1576 175.63 73.295 175.387 73.5066 175.258 73.6275 175.129 73.7485 174.997 73.8475 174.964 73.8475 174.931 73.8475 174.873 73.9312 174.834 74.0336 174.796 74.136 174.701 74.3867 174.623 74.591 174.44 75.069 174.446 75.3233 174.654 75.9432 174.747 76.2211 174.823 76.4882 174.823 76.537 174.823 76.5855 174.906 76.7495 175.007 76.9013 175.477 77.6036 174.556 79.101 173.241 79.7743 173.118 79.8376 172.959 79.9614 172.889 80.0494 172.819 80.1374 172.7 80.2095 172.624 80.2095 172.548 80.2095 172.399 80.3008 172.294 80.4125 172.141 80.5743 172.045 80.6156 171.822 80.6156 171.398 80.6156 171.503 80.2929 171.962 80.1853 172.259 80.1154 172.255 79.9567 171.952 79.8036 171.476 79.5628 170.719 79.6602 170.368 80.0076 170.014 80.3578 170.109 81.0294 170.534 81.1785 170.753 81.2556 170.658 81.426 170.321 81.5616 170.194 81.6123 169.934 81.7856 169.744 81.9468 169.553 82.1081 169.375 82.2399 169.349 82.2399 169.252 82.2399 169.199 83.1845 169.289 83.2923 169.454 83.4888 170.476 83.3857 170.733 83.1468 170.969 82.9267 171.132 82.5999 171.132 82.3451 171.132 82.2387 171.195 82.134 171.303 82.0644 171.397 82.0035 171.473 81.9162 171.473 81.8704 171.473 81.8245 171.536 81.7311 171.612 81.6627 171.846 81.4536 171.98 81.6585 171.983 82.2291 171.987 82.7666 172.088 82.9602 172.299 82.8297 172.371 82.7852 172.43 82.7104 172.43 82.6636 172.43 82.6167 172.463 82.5783 172.502 82.5783 172.751 82.5783 173.319 81.816 173.326 81.4726 173.34 80.7702 173.513 80.5494 173.854 80.7995L174.053 80.9453 174.277 80.6958C174.4 80.5585 174.577 80.3245 174.672 80.1756 174.886 79.8381 174.935 79.8058 175.239 79.8044 175.529 79.8032 175.677 79.6641 175.743 79.3296 175.837 78.8565 175.837 78.8559 176.155 78.8559 176.764 78.8559 177.139 78.3951 176.887 77.9577 176.823 77.8467 176.726 77.676 176.671 77.5784 176.411 77.1197 176.527 75.8549 176.875 75.3351 176.986 75.1684 177.078 74.983 177.078 74.9233 177.078 74.8637 177.159 74.7284 177.258 74.6226 177.357 74.5169 177.48 74.3314 177.531 74.2103 177.582 74.0893 177.701 73.9138 177.795 73.8204 177.89 73.727 177.967 73.6076 177.967 73.5551 177.967 73.5026 178.031 73.3796 178.108 73.2817 178.465 72.8329 178.411 72.5343 177.961 72.459 177.811 72.434 177.605 72.3436 177.503 72.2583 177.259 72.0553 176.894 71.9607 176.626 72.0313M143.237 72.7649C142.818 73.1886 142.76 73.7534 143.074 74.3605 143.168 74.5436 143.294 74.875 143.353 75.0969 143.412 75.3189 143.521 75.586 143.597 75.6908 143.77 75.9315 143.885 76.7132 143.836 77.3134 143.799 77.7664 143.318 78.4498 143.037 78.4498 142.993 78.4498 142.875 78.5065 142.776 78.5758 142.517 78.7554 142.139 78.8112 141.977 78.6939 141.852 78.6029 141.857 78.5919 142.094 78.4533 142.604 78.1554 142.469 77.9892 141.636 77.8892 141.04 77.8176 140.685 77.8671 140.422 78.0586 140.194 78.2251 140.726 78.6971 141.187 78.7377 141.8 78.7919 141.881 79.0862 141.344 79.3085 141.22 79.3596 141.099 79.454 141.076 79.518 141.053 79.5819 140.951 79.7408 140.85 79.8711 140.394 80.4614 140.581 81.2149 141.096 80.858 141.172 80.8052 141.346 80.7413 141.482 80.7159 141.775 80.6616 141.912 80.5267 141.976 80.2311 142.096 79.6719 142.396 79.7724 142.455 80.3912 142.538 81.2595 142.901 81.4516 143.328 80.8524 143.434 80.7035 143.57 80.5135 143.629 80.4299 143.688 80.3465 143.762 80.0558 143.793 79.7839 143.873 79.0784 143.972 78.8801 144.161 79.0477 144.546 79.3904 144.747 79.2452 144.747 78.6235 144.747 78.0868 144.865 77.9083 145.219 77.9083 145.733 77.9083 145.904 77.3787 145.536 76.9269 145.218 76.5373 145.157 76.3975 145.157 76.0605 145.157 75.6483 144.97 74.6194 144.855 74.3989 144.803 74.2994 144.738 74.0725 144.711 73.8949 144.685 73.7174 144.591 73.4671 144.503 73.3389 144.415 73.2106 144.308 72.9758 144.265 72.8167 144.119 72.281 143.734 72.2616 143.237 72.7649M158.978 74.3299C159.172 74.5522 158.911 74.9823 158.546 75.0409 158.328 75.076 158.306 75.0615 158.169 74.7813L158.023 74.4844 158.161 74.2969C158.325 74.0744 158.772 74.0923 158.978 74.3299M167.543 74.8109C167.199 74.8986 167.215 74.8761 167.336 75.1064 167.393 75.2143 167.44 75.3373 167.44 75.3798 167.441 75.4542 167.851 75.6725 168.182 75.7742 168.868 75.9852 169.512 75.3942 168.879 75.1344 168.764 75.0876 168.671 75.0211 168.671 74.9864 168.671 74.7864 168.031 74.6867 167.543 74.8109M158.668 76.3783C158.822 76.4266 159.032 76.8478 159.035 77.1144 159.037 77.3897 159.519 78.2457 159.768 78.4185 160.067 78.6259 159.976 78.7283 159.409 78.8212 159.055 78.879 158.844 79.0173 158.816 79.2088 158.766 79.5546 158.281 79.6027 158.281 79.2618 158.281 79.0301 158.068 78.8559 157.784 78.8559 157.577 78.8559 157.188 78.6851 157.188 78.5948 157.188 78.5647 157.311 78.4422 157.461 78.3225 157.611 78.2029 157.734 78.0731 157.734 78.0342 157.734 77.9953 157.794 77.8884 157.867 77.7965 157.94 77.7046 158.034 77.456 158.076 77.2444 158.231 76.4635 158.358 76.1114 158.443 76.2266 158.486 76.2845 158.587 76.3529 158.668 76.3783M162.646 80.8372C162.66 80.8707 162.573 80.9985 162.453 81.1213 162.1 81.4817 162.133 82.9952 162.502 83.4072 162.561 83.4724 162.66 83.6769 162.723 83.8619 162.857 84.2515 163.006 84.4766 163.338 84.7877 163.64 85.0701 163.583 85.1268 162.931 85.1968 162.359 85.2581 162.416 85.1931 162.235 85.9912 162.1 86.5819 161.836 86.462 161.836 85.8102 161.836 85.3666 161.651 85.1493 161.289 85.1649 160.758 85.1877 160.686 85.0664 161.005 84.6854 161.502 84.0908 161.761 83.4718 161.838 82.6949 161.876 82.3143 161.912 81.9573 161.919 81.9015 161.943 81.6974 161.82 81.2583 161.688 81.0748L161.553 80.8865 161.805 80.5816 162.058 80.2766 162.34 80.5266C162.495 80.6639 162.633 80.8039 162.646 80.8372M155.367 80.6438 155.546 80.8753 155.376 81.1683C155.276 81.3429 155.206 81.5712 155.205 81.7323 155.202 82.218 155.093 82.2216 154.996 81.7391 154.947 81.4934 154.876 81.2924 154.838 81.2924 154.733 81.2924 154.453 81.0098 154.453 80.9035 154.453 80.7903 154.559 80.6883 154.832 80.5372 155.122 80.3765 155.169 80.3858 155.367 80.6438M171.473 80.805C171.473 81.0034 171.352 81.0666 171.051 81.026 170.695 80.9781 170.639 80.8457 170.939 80.7602 171.309 80.6545 171.473 80.6684 171.473 80.805M155.262 82.6612C155.303 82.8203 155.356 83.118 155.379 83.3228 155.407 83.5733 155.497 83.8201 155.655 84.0774 155.784 84.2877 155.889 84.4911 155.889 84.5294 155.889 84.5676 155.959 84.6544 156.046 84.7222 156.392 84.9942 156.286 85.2402 155.853 85.1706 155.531 85.1189 155.361 85.2767 155.302 85.6824 155.206 86.34 155.028 86.3699 154.869 85.7554 154.768 85.3638 154.629 85.2711 154.009 85.1811 153.55 85.1143 153.526 85.0403 153.861 84.7153 154.189 84.3975 154.325 84.1426 154.495 83.5258 154.562 83.2839 154.682 82.9945 154.761 82.8829 154.84 82.7712 154.946 82.5971 154.997 82.4961 155.113 82.2642 155.167 82.2979 155.262 82.6612" fill="#FFFFFF" fill-rule="evenodd"/></g></svg>