<svg width="105" height="104" xmlns="http://www.w3.org/2000/svg" xmlns:xlink="http://www.w3.org/1999/xlink" overflow="hidden"><defs><clipPath id="clip0"><path d="M106 214 211 214 211 318 106 318Z" fill-rule="evenodd" clip-rule="evenodd"/></clipPath><linearGradient x1="107" y1="317" x2="210" y2="214" gradientUnits="userSpaceOnUse" spreadMethod="reflect" id="fill1"><stop offset="0" stop-color="#42D9A3"/><stop offset="0.05" stop-color="#43DAA4"/><stop offset="0.1" stop-color="#45DAA5"/><stop offset="0.15" stop-color="#47DBA6"/><stop offset="0.2" stop-color="#49DCA7"/><stop offset="0.25" stop-color="#4ADDA8"/><stop offset="0.3" stop-color="#4CDEA9"/><stop offset="0.35" stop-color="#4DDFAA"/><stop offset="0.4" stop-color="#4EDFAB"/><stop offset="0.45" stop-color="#50E0AC"/><stop offset="0.5" stop-color="#51E1AD"/><stop offset="0.55" stop-color="#52E1AD"/><stop offset="0.6" stop-color="#53E2AE"/><stop offset="0.65" stop-color="#54E2AF"/><stop offset="0.7" stop-color="#54E2AF"/><stop offset="0.75" stop-color="#55E3AF"/><stop offset="0.8" stop-color="#55E3B0"/><stop offset="0.85" stop-color="#56E3B0"/><stop offset="0.9" stop-color="#56E3B0"/><stop offset="0.95" stop-color="#56E3B0"/><stop offset="1" stop-color="#57E4B1"/></linearGradient><linearGradient x1="124.932" y1="264.056" x2="189.068" y2="263.944" gradientUnits="userSpaceOnUse" spreadMethod="reflect" id="fill2"><stop offset="0" stop-color="#F9F9F9"/><stop offset="1" stop-color="#F9F9F9"/></linearGradient></defs><g clip-path="url(#clip0)" transform="translate(-106 -214)"><path d="M107 265.5C107 237.057 130.057 214 158.5 214 186.943 214 210 237.057 210 265.5 210 293.943 186.943 317 158.5 317 130.057 317 107 293.943 107 265.5Z" fill="url(#fill1)" fill-rule="evenodd"/><path d="M157.315 242.396C156.256 242.396 155.14 242.451 154.136 242.506 153.69 242.506 153.299 242.561 152.853 242.616 152.686 242.616 152.463 242.671 152.295 242.671 152.017 242.671 151.682 242.726 151.403 242.781L151.291 242.781 151.236 242.781C151.18 242.781 151.18 242.781 151.124 242.781 145.156 243.605 136.008 245.253 136.008 252.34 136.008 259.592 145.993 258.164 145.993 258.164 145.993 258.164 151.57 257.504 157.817 257.504L158.989 257.504C159.379 257.504 159.77 257.504 160.216 257.504L160.327 257.504 161.387 257.504 161.555 257.504 162.614 257.559C163.172 257.559 163.73 257.614 164.288 257.669 165.124 257.779 166.017 257.944 166.853 258.109 170.591 259.043 171.595 259.922 171.762 260.526 171.762 260.636 171.762 260.691 171.762 260.801 171.65 261.35 171.093 261.405 170.646 261.35 170.033 261.295 169.363 261.075 168.75 260.966 167.746 260.801 166.742 260.691 165.682 260.581 164.901 260.526 164.176 260.471 163.395 260.471 162.112 260.416 160.774 260.471 159.435 260.471 157.706 260.526 156.869 260.636 155.14 260.746 154.527 260.801 150.176 261.46 146.829 263.712 145.1 264.811 143.817 266.459 143.204 268.437 141.475 274.81 141.865 283.875 150.845 294.972 151.013 295.192 152.853 297.115 153.634 297.829 154.638 298.873 155.977 299.477 157.371 299.587 159.045 299.587 164.065 295.522 164.065 295.522 165.124 294.643 166.128 293.709 167.077 292.72 172.989 286.017 174.941 281.787 176.503 278.106 179.348 271.459 178.176 268.602 177.786 266.514 177.228 263.328 180.965 257.834 180.965 257.834 181.133 257.614 181.411 257.065 181.523 256.845 185.149 248.934 177.563 245.363 169.698 243.715 168.025 243.33 166.407 243.001 164.734 242.836 162.447 242.561 160.104 242.396 157.817 242.396ZM160.997 229.211C160.718 229.211 160.495 229.321 160.272 229.486 159.825 229.761 159.435 230.09 159.045 230.475 157.817 231.684 156.869 233.112 156.256 234.705 155.977 235.309 155.809 235.969 155.754 236.683 155.698 236.848 155.754 237.397 155.977 237.507 156.2 237.617 156.646 237.177 156.813 237.068 157.371 236.628 157.873 236.134 158.319 235.584 159.268 234.43 160.049 233.057 160.551 231.629 160.606 231.409 161.443 229.321 160.997 229.211ZM163.061 225.036C163.339 225.201 163.507 225.531 163.563 225.86 163.73 226.41 163.841 227.014 163.897 227.618 164.065 229.266 163.953 230.914 163.563 232.508 163.228 233.936 162.559 235.255 161.666 236.408 161.276 237.013 160.718 237.507 160.327 238.111 160.16 238.331 159.937 238.771 160.327 238.771 161.499 238.826 168.583 239.54 171.26 239.979 173.156 240.309 174.997 240.693 176.838 241.188 178.065 241.517 179.292 241.902 180.463 242.396 184.758 244.155 187.826 247.176 188.774 251.461 189.722 255.746 187.38 260.251 187.38 260.251 186.376 262.559 185.037 264.646 183.308 266.459 183.141 266.734 183.029 267.119 183.029 267.448 181.969 281.787 172.933 291.236 167.3 296.181 167.3 296.181 162.001 300.686 160.662 301.565 159.602 302.279 158.487 302.993 157.037 302.993 156.088 303.048 155.196 302.773 154.471 302.224 154.471 302.224 152.128 300.686 150.845 299.587 149.953 298.763 147.61 296.895 147.61 296.895 143.259 293.489 136.176 286.017 132.829 275.964 131.881 273.217 131.267 270.36 131.044 267.448 131.044 267.119 130.933 266.789 130.765 266.514 129.036 264.701 127.642 262.614 126.638 260.306 125.968 259.043 125.522 257.669 125.243 256.241 125.187 256.076 125.132 255.911 125.132 255.691 125.132 255.472 125.076 255.307 125.076 255.087 125.076 254.758 125.02 254.483 125.02 254.153 124.964 253.274 125.02 252.34 125.243 251.461 125.355 251.077 125.466 250.747 125.578 250.363 125.634 250.253 125.634 250.143 125.689 250.033 125.745 249.868 125.857 249.648 125.913 249.484 126.024 249.209 126.136 248.879 126.303 248.604 126.359 248.55 126.359 248.495 126.415 248.44 126.749 247.725 127.251 247.066 127.753 246.462 127.865 246.297 128.088 246.187 128.144 246.077 128.199 245.967 128.311 245.913 128.423 245.803 128.701 245.528 128.98 245.253 129.259 245.034 129.65 244.649 130.096 244.319 130.542 244.045 130.542 243.99 130.598 243.935 130.654 243.935 131.1 243.66 131.546 243.385 131.992 243.166 132.048 243.111 132.104 243.056 132.16 243.056 133.164 242.506 134.223 242.067 135.283 241.737 138.184 240.803 141.14 240.089 144.096 239.65 145.435 239.43 149.451 238.99 150.12 238.935 150.511 238.935 150.789 238.771 151.013 238.441 151.124 238.221 151.18 237.947 151.18 237.672 151.18 237.232 151.18 236.848 151.236 236.463 151.403 235.09 151.849 233.771 152.574 232.618 154.303 229.651 157.371 227.398 160.551 225.75 161.053 225.476 161.61 225.256 162.168 225.091 162.447 224.981 162.782 224.981 163.061 225.036Z" fill="url(#fill2)" fill-rule="evenodd"/></g></svg>