<svg width="105" height="105" xmlns="http://www.w3.org/2000/svg" xmlns:xlink="http://www.w3.org/1999/xlink" overflow="hidden"><defs><clipPath id="clip0"><path d="M106 106 211 106 211 211 106 211Z" fill-rule="evenodd" clip-rule="evenodd"/></clipPath><linearGradient x1="158.5" y1="107" x2="158.5" y2="210" gradientUnits="userSpaceOnUse" spreadMethod="reflect" id="fill1"><stop offset="0" stop-color="#6E92F6"/><stop offset="0.0434783" stop-color="#6F93F6"/><stop offset="0.0869565" stop-color="#7195F6"/><stop offset="0.130435" stop-color="#7397F6"/><stop offset="0.173913" stop-color="#7499F7"/><stop offset="0.217391" stop-color="#769AF7"/><stop offset="0.26087" stop-color="#779CF7"/><stop offset="0.304348" stop-color="#789DF7"/><stop offset="0.347826" stop-color="#7A9FF8"/><stop offset="0.391304" stop-color="#7BA0F8"/><stop offset="0.434783" stop-color="#7CA1F8"/><stop offset="0.478261" stop-color="#7DA2F8"/><stop offset="0.521739" stop-color="#7EA3F8"/><stop offset="0.565217" stop-color="#7FA4F9"/><stop offset="0.608696" stop-color="#80A5F9"/><stop offset="0.652174" stop-color="#80A6F9"/><stop offset="0.695652" stop-color="#81A7F9"/><stop offset="0.73913" stop-color="#82A8F9"/><stop offset="0.782609" stop-color="#82A8F9"/><stop offset="0.826087" stop-color="#83A9F9"/><stop offset="0.869565" stop-color="#83A9F9"/><stop offset="0.913043" stop-color="#83A9F9"/><stop offset="0.956522" stop-color="#83A9F9"/><stop offset="1" stop-color="#84AAFA"/></linearGradient></defs><g clip-path="url(#clip0)" transform="translate(-106 -106)"><path d="M210 158.47C210 186.933 186.602 210 157.736 210 133.198 210 112.622 193.332 107 170.853 117.228 170.737 126.928 168.482 135.685 164.546L135.685 144.491C135.685 142.902 135.125 141.74 134.006 141.005 132.89 140.274 130.904 139.905 128.047 139.905L128.047 138.047C131.834 137.922 135.306 137.702 138.462 137.389 141.621 137.076 144.344 136.604 146.632 135.977L146.68 165.104C146.68 166.756 146.68 168.558 146.68 170.514 146.68 172.412 146.652 174.278 146.588 176.111 146.524 177.947 146.43 179.658 146.308 181.247 146.182 182.838 146.028 184.182 145.84 185.281 148.946 187.059 152.392 188.525 156.181 189.688 159.97 190.85 163.508 191.429 166.799 191.429 169.593 191.429 172.296 191.016 174.903 190.19 177.512 189.364 179.826 188.157 181.842 186.561 183.86 184.97 185.492 183.014 186.736 180.684 187.976 178.356 188.596 175.72 188.596 172.78 188.596 170.087 188.13 167.606 187.198 165.339 186.266 163.072 184.959 161.115 183.278 159.459 181.599 157.803 179.613 156.505 177.311 155.555 175.008 154.603 172.491 154.128 169.755 154.128 167.702 154.128 165.606 154.485 163.461 155.191 161.312 155.903 159.371 156.782 157.631 157.828L157.631 149.158C167.043 139.46 173.667 127.112 176.219 113.357 164.569 108.48 151.068 107.845 138.298 112.624 124.113 117.932 113.738 128.829 108.77 141.808 113.556 127.834 124.405 116.007 139.476 110.362 152.062 105.655 165.209 106.069 176.693 110.491 176.694 110.48 176.698 110.467 176.7 110.458 196.184 117.943 210 136.612 210 158.47ZM159.219 184.859C160.645 187.279 163.065 188.485 166.48 188.485 169.887 188.485 172.311 187.279 173.739 184.859 175.166 182.444 175.879 178.636 175.879 173.432 175.879 168.234 175.166 164.425 173.739 162.008 172.311 159.591 169.887 158.386 166.48 158.386 163.064 158.386 160.644 159.591 159.219 162.008 157.792 164.425 157.078 168.234 157.078 173.432 157.078 178.636 157.792 182.444 159.219 184.859ZM145.601 130.187C147.051 128.793 147.773 127.049 147.773 124.952 147.773 122.857 147.051 121.113 145.601 119.717 144.157 118.319 142.401 117.621 140.343 117.621 138.283 117.621 136.527 118.319 135.081 119.717 133.633 121.112 132.911 122.857 132.911 124.952 132.911 127.049 133.633 128.793 135.081 130.187 136.527 131.583 138.283 132.282 140.343 132.282 142.401 132.282 144.157 131.583 145.601 130.187Z" fill="url(#fill1)" fill-rule="evenodd"/></g></svg>