<svg width="104" height="104" xmlns="http://www.w3.org/2000/svg" xmlns:xlink="http://www.w3.org/1999/xlink" overflow="hidden"><defs><clipPath id="clip0"><path d="M-1 162 103 162 103 266-1 266Z" fill-rule="evenodd" clip-rule="evenodd"/></clipPath><linearGradient x1="5.10884" y1="158.713" x2="97.8912" y2="269.287" gradientUnits="userSpaceOnUse" spreadMethod="reflect" id="fill1"><stop offset="0" stop-color="#FFBE82"/><stop offset="0.0277778" stop-color="#FFBE83"/><stop offset="0.0555556" stop-color="#FFBF85"/><stop offset="0.0833333" stop-color="#FFC087"/><stop offset="0.111111" stop-color="#FFC189"/><stop offset="0.138889" stop-color="#FFC28B"/><stop offset="0.166667" stop-color="#FFC38C"/><stop offset="0.194444" stop-color="#FFC48E"/><stop offset="0.222222" stop-color="#FFC58F"/><stop offset="0.25" stop-color="#FFC591"/><stop offset="0.277778" stop-color="#FFC692"/><stop offset="0.305556" stop-color="#FFC794"/><stop offset="0.333333" stop-color="#FFC895"/><stop offset="0.361111" stop-color="#FFC897"/><stop offset="0.388889" stop-color="#FFC998"/><stop offset="0.416667" stop-color="#FFCA99"/><stop offset="0.444444" stop-color="#FFCA9A"/><stop offset="0.472222" stop-color="#FFCB9B"/><stop offset="0.5" stop-color="#FFCB9C"/><stop offset="0.527778" stop-color="#FFCC9D"/><stop offset="0.555556" stop-color="#FFCC9E"/><stop offset="0.583333" stop-color="#FFCD9F"/><stop offset="0.611111" stop-color="#FFCDA0"/><stop offset="0.638889" stop-color="#FFCEA1"/><stop offset="0.666667" stop-color="#FFCEA2"/><stop offset="0.694444" stop-color="#FFCEA2"/><stop offset="0.722222" stop-color="#FFCFA3"/><stop offset="0.75" stop-color="#FFCFA4"/><stop offset="0.777778" stop-color="#FFCFA4"/><stop offset="0.805556" stop-color="#FFD0A5"/><stop offset="0.833333" stop-color="#FFD0A5"/><stop offset="0.861111" stop-color="#FFD0A6"/><stop offset="0.888889" stop-color="#FFD0A6"/><stop offset="0.916667" stop-color="#FFD0A6"/><stop offset="0.944444" stop-color="#FFD0A6"/><stop offset="0.972222" stop-color="#FFD0A6"/><stop offset="1" stop-color="#FFD1A7"/></linearGradient></defs><g clip-path="url(#clip0)" transform="translate(1 -162)"><path d="M0 214C-6.55664e-15 185.833 23.0573 163 51.5 163 79.9427 163 103 185.833 103 214 103 242.167 79.9427 265 51.5 265 23.0573 265-3.27832e-14 242.167 0 214Z" fill="url(#fill1)" fill-rule="evenodd"/><path d="M51.1718 207.289C50.9291 207.28 50.8442 207.42 50.8442 207.828 50.8442 207.959 50.7905 208.169 50.7253 208.296 50.66 208.422 50.5791 208.7 50.5452 208.915 50.5113 209.128 50.4365 209.355 50.3789 209.419 50.3192 209.485 50.2557 209.694 50.2306 209.905 50.2043 210.129 50.1365 210.344 50.06 210.448 49.9899 210.543 49.9324 210.697 49.932 210.79 49.9306 211.108 49.8562 211.417 49.7807 211.417 49.7002 211.417 49.6305 211.731 49.6294 212.099 49.629 212.248 49.5864 212.365 49.5037 212.442 49.4154 212.524 49.3685 212.665 49.3447 212.916 49.3254 213.12 49.2489 213.387 49.1661 213.539 49.0867 213.686 48.9951 213.97 48.9627 214.171 48.9302 214.373 48.8653 214.581 48.8183 214.635 48.7713 214.69 48.7137 214.91 48.6904 215.127 48.667 215.342 48.6163 215.575 48.5773 215.644 48.317 216.105 48.2959 216.101 51.1324 216.102L53.6388 216.103 53.6388 215.761C53.6388 215.531 53.6008 215.355 53.5236 215.228 53.4605 215.124 53.3887 214.86 53.3642 214.644 53.335 214.385 53.2699 214.175 53.1755 214.036 53.0916 213.912 53.031 213.734 53.031 213.609 53.0307 213.337 52.9287 212.966 52.8266 212.864 52.7831 212.82 52.7303 212.58 52.7095 212.33 52.6826 212.007 52.6418 211.854 52.5695 211.801 52.4962 211.747 52.4551 211.583 52.4212 211.212 52.3847 210.812 52.3461 210.67 52.2473 210.571 52.155 210.478 52.12 210.366 52.12 210.165 52.12 209.98 52.0701 209.801 51.972 209.632 51.8802 209.474 51.8083 209.229 51.7825 208.982 51.7595 208.765 51.6928 208.504 51.6341 208.404 51.5755 208.304 51.5087 208.071 51.4861 207.887 51.4635 207.703 51.4307 207.495 51.4136 207.425 51.3903 207.329 51.3315 207.296 51.1718 207.289ZM75.2795 201.627C80.9919 201.626 86.7038 201.635 86.8079 201.656L87 201.695 86.9825 205.906 86.965 210.118 86.7696 210.314C86.5994 210.484 86.5159 210.516 86.1262 210.56 85.8721 210.588 85.6049 210.658 85.509 210.721 85.2812 210.871 83.8153 210.868 83.5134 210.717 83.4085 210.664 83.1307 210.594 82.896 210.562 82.6611 210.529 82.4416 210.466 82.4081 210.423 82.3746 210.38 82.302 210.327 82.2467 210.306 82.1012 210.252 82.0628 209.666 82.0855 207.846 82.0957 207.004 82.0837 206.294 82.0585 206.269 82.0108 206.221 78.4425 206.209 78.3948 206.257 78.3368 206.315 78.3642 222.88 78.4221 222.938 78.456 222.972 78.9029 222.995 79.4723 222.991L80.4639 222.985 80.6331 223.192C80.8508 223.457 80.9495 224.407 80.8963 225.72 80.8431 227.036 80.8158 227.181 80.6065 227.254 80.5114 227.287 80.4334 227.339 80.4334 227.369 80.4334 227.401 78.3404 227.424 75.373 227.424 69.301 227.424 69.7611 227.496 69.7465 226.541 69.7433 226.341 69.71 225.971 69.6725 225.72 69.5606 224.97 69.7301 223.49 69.962 223.196L70.1348 222.976 71.1154 222.986C71.6545 222.992 72.1263 222.978 72.1635 222.955 72.2451 222.904 72.2597 206.444 72.178 206.315 72.1157 206.217 68.6667 206.166 68.5398 206.262 68.4818 206.306 68.464 206.777 68.464 208.251 68.464 210.554 68.4888 210.468 67.8104 210.535 67.5851 210.557 67.2154 210.629 66.989 210.695 66.3967 210.867 65.5137 210.866 65.0332 210.694 64.8338 210.623 64.5742 210.563 64.4561 210.56 64.1805 210.555 64.0941 210.516 63.8258 210.278L63.6056 210.083 63.5702 206.84C63.5261 202.776 63.5634 201.696 63.7478 201.66 63.8541 201.639 69.5671 201.628 75.2795 201.627ZM51.2908 201.31C53.0445 201.307 54.8207 201.329 54.9591 201.378 55.1294 201.437 55.1462 201.47 55.1856 201.819 55.2125 202.059 55.2675 202.233 55.3365 202.297 55.4058 202.362 55.4604 202.536 55.4881 202.784 55.5122 202.996 55.5702 203.213 55.6175 203.266 55.665 203.318 55.7306 203.504 55.7637 203.679 55.7969 203.854 55.8928 204.114 55.977 204.258 56.0719 204.42 56.1301 204.613 56.1301 204.764 56.1301 204.907 56.1925 205.126 56.2817 205.294 56.3656 205.452 56.4337 205.644 56.4337 205.722 56.4337 205.985 56.5093 206.244 56.5862 206.244 56.6806 206.244 56.7357 206.437 56.7368 206.774 56.7374 206.946 56.7754 207.066 56.8534 207.139 56.9201 207.201 56.9876 207.377 57.0127 207.552 57.0364 207.719 57.1049 207.938 57.1648 208.039 57.2249 208.139 57.3036 208.386 57.3404 208.587 57.3769 208.788 57.4567 209.02 57.518 209.104 57.5792 209.188 57.6463 209.407 57.6678 209.591 57.6951 209.83 57.7414 209.95 57.8293 210.009 57.9208 210.071 57.9529 210.159 57.9529 210.351 57.9529 210.723 58.0166 210.991 58.1053 210.991 58.1997 210.991 58.2547 211.184 58.2558 211.52 58.2562 211.705 58.2897 211.798 58.3768 211.86 58.464 211.921 58.5135 212.059 58.5563 212.362 58.5898 212.6 58.6663 212.848 58.7345 212.941 58.8001 213.029 58.873 213.237 58.8967 213.401 58.9201 213.565 58.9879 213.781 59.0473 213.882 59.1067 213.982 59.1741 214.208 59.1975 214.383 59.2208 214.558 59.2893 214.764 59.3499 214.841 59.4104 214.918 59.4796 215.144 59.5036 215.345 59.53 215.562 59.5901 215.748 59.6532 215.809 59.7112 215.864 59.7775 216.053 59.8005 216.228 59.8238 216.404 59.8923 216.646 59.9532 216.767 60.0137 216.887 60.0819 217.114 60.1048 217.271 60.1275 217.427 60.2015 217.626 60.2692 217.712 60.3432 217.806 60.4154 218.032 60.45 218.278 60.4843 218.518 60.5438 218.707 60.5952 218.736 60.6429 218.763 60.6954 218.873 60.7118 218.981 60.7286 219.089 60.7581 219.28 60.7778 219.405 60.7985 219.536 60.8482 219.633 60.8944 219.633 60.9746 219.633 61.0494 219.932 61.0509 220.26 61.0512 220.353 61.104 220.504 61.1686 220.594 61.2331 220.685 61.3169 220.924 61.3553 221.125 61.3936 221.326 61.4774 221.564 61.5419 221.655 61.6064 221.746 61.6589 221.899 61.6589 221.996 61.6589 222.093 61.7285 222.302 61.8135 222.462 61.898 222.622 61.9531 222.768 61.9353 222.785 61.7996 222.921 62.088 222.981 62.8779 222.981 64.0325 222.981 64.0453 222.992 64.1773 224.128 64.2877 225.077 64.2931 225.393 64.2119 226.055 64.179 226.322 64.1361 226.699 64.1163 226.891L64.0807 227.24 63.7661 227.332C63.21 227.493 53.9111 227.438 53.6869 227.272 53.4317 227.083 53.3832 226.864 53.3508 225.746 53.3169 224.594 53.3989 223.718 53.5484 223.634 53.598 223.606 53.6388 223.543 53.6388 223.494 53.6388 223.338 53.9429 223.279 54.6843 223.289 55.1251 223.295 55.4327 223.274 55.4816 223.233 55.5942 223.139 55.49 222.283 55.335 222.03 55.2709 221.926 55.2184 221.762 55.218 221.665 55.2165 221.341 55.1426 221.033 55.066 221.033 54.976 221.033 54.9173 220.844 54.9147 220.546 54.9111 220.122 55.195 220.151 51.0337 220.151 48.9634 220.151 47.2489 220.171 47.2237 220.196 47.1986 220.222 47.157 220.399 47.1308 220.59 47.1049 220.782 47.0429 220.969 46.9926 221.005 46.9427 221.042 46.8833 221.221 46.8603 221.403 46.8373 221.584 46.7699 221.815 46.7098 221.916 46.65 222.016 46.5694 222.274 46.5307 222.488 46.4924 222.701 46.421 222.937 46.3726 223.011 46.2278 223.233 46.3642 223.277 47.2307 223.289 48.2831 223.304 48.3298 223.314 48.4089 223.541 48.4447 223.644 48.5219 223.763 48.5807 223.806 48.7691 223.944 48.7388 226.701 48.5449 227.013 48.2788 227.443 48.6357 227.414 43.5502 227.421 37.94 227.429 38.2489 227.469 38.1858 226.739 38.1647 226.497 38.1067 226.106 38.0564 225.872 37.951 225.379 37.9397 225.045 38.0199 224.781 38.0513 224.678 38.1074 224.361 38.1446 224.076 38.2685 223.126 38.2536 223.171 38.4818 223.075 38.6258 223.015 38.99 222.982 39.6483 222.969L40.6056 222.951 40.6495 222.601C40.6731 222.409 40.7464 222.176 40.812 222.084 40.878 221.991 40.964 221.752 41.0038 221.552 41.0435 221.352 41.1142 221.161 41.1609 221.126 41.2075 221.092 41.2721 220.902 41.3038 220.706 41.3359 220.508 41.4037 220.301 41.4547 220.244 41.5057 220.188 41.5652 219.971 41.587 219.763 41.6148 219.498 41.6596 219.361 41.7372 219.306 41.8134 219.253 41.8605 219.116 41.8875 218.868 41.9094 218.67 41.9604 218.48 42.0008 218.446 42.1299 218.341 42.2079 218.143 42.2516 217.812 42.275 217.636 42.3413 217.447 42.3985 217.391 42.4631 217.329 42.5167 217.153 42.5385 216.933 42.5618 216.693 42.6118 216.54 42.6902 216.467 42.7678 216.394 42.8211 216.234 42.8488 215.988 42.874 215.766 42.9253 215.6 42.9782 215.57 43.0266 215.543 43.0959 215.357 43.1328 215.158 43.1692 214.958 43.2385 214.75 43.287 214.696 43.3355 214.642 43.4029 214.423 43.4372 214.21 43.4715 213.996 43.5491 213.766 43.6092 213.699 43.6693 213.632 43.7522 213.401 43.7933 213.185 43.8341 212.968 43.9059 212.763 43.9526 212.728 43.9997 212.693 44.0613 212.49 44.0901 212.276 44.1225 212.037 44.1779 211.868 44.2348 211.837 44.2916 211.805 44.342 211.65 44.3668 211.431 44.3934 211.195 44.4455 211.043 44.5217 210.977 44.5961 210.914 44.6519 210.756 44.6803 210.53 44.7057 210.323 44.7824 210.094 44.8673 209.969 44.9533 209.842 45.0113 209.668 45.0113 209.536 45.0113 209.414 45.067 209.21 45.1356 209.083 45.2042 208.954 45.2887 208.696 45.3234 208.508 45.358 208.32 45.4265 208.137 45.4757 208.101 45.5246 208.065 45.5866 207.875 45.6132 207.68 45.6427 207.461 45.6977 207.303 45.7557 207.27 45.8122 207.239 45.8676 207.088 45.8928 206.898 45.9161 206.722 45.9857 206.495 46.0477 206.393 46.1097 206.291 46.1786 206.085 46.2012 205.937 46.2234 205.787 46.2894 205.569 46.3474 205.452 46.4837 205.177 46.5909 204.837 46.5909 204.681 46.5909 204.613 46.6427 204.498 46.7057 204.425 46.7714 204.349 46.8388 204.146 46.8636 203.947 46.8884 203.747 46.9464 203.572 47.0006 203.532 47.0557 203.492 47.1162 203.303 47.1472 203.076 47.1807 202.831 47.2442 202.642 47.3207 202.56 47.3871 202.49 47.4414 202.351 47.4414 202.252 47.4414 202.153 47.4961 201.97 47.5632 201.845 47.6298 201.72 47.6846 201.582 47.6846 201.539 47.6846 201.495 47.7174 201.427 47.7575 201.387 47.8059 201.338 49.5372 201.312 51.2908 201.31ZM24.2579 201C25.0691 200.998 25.8719 201.028 25.966 201.094 26.0327 201.141 26.3721 201.224 26.7202 201.28 27.2047 201.357 27.3731 201.409 27.4366 201.499 27.484 201.567 27.5897 201.618 27.6841 201.618 27.7749 201.618 27.9495 201.687 28.0724 201.77 28.1956 201.854 28.3374 201.922 28.3884 201.922 28.4391 201.922 28.5088 201.975 28.5434 202.04 28.5781 202.105 28.6677 202.177 28.7427 202.201 28.8183 202.225 28.9645 202.308 29.0677 202.387 29.1711 202.466 29.2966 202.531 29.3465 202.531 29.3964 202.531 29.4686 202.6 29.5065 202.683 29.6622 203.025 30.1955 202.846 30.0628 202.496 29.9768 202.27 29.9907 201.984 30.0891 201.947 30.1357 201.929 30.1868 201.865 30.2024 201.806 30.2309 201.696 30.4759 201.618 30.7868 201.618 30.8751 201.618 31.0563 201.558 31.1893 201.483 31.5444 201.287 32.9854 201.289 33.4182 201.487 33.5749 201.559 33.7973 201.618 33.9118 201.618 34.2424 201.618 34.4998 201.687 34.4998 201.776 34.4998 201.82 34.5545 201.886 34.6216 201.922 34.7411 201.986 34.743 202.05 34.743 206.081L34.743 210.175 34.5152 210.258C34.3897 210.303 34.2574 210.381 34.2206 210.431 34.1761 210.492 33.9857 210.537 33.6434 210.566 33.3627 210.59 33.0583 210.64 32.9672 210.677 32.7929 210.747 31.8433 210.743 31.7296 210.672 31.6928 210.649 31.3672 210.602 31.0059 210.568 30.3326 210.503 30.2222 210.473 30.3599 210.387 30.4113 210.356 30.3537 210.325 30.1945 210.299 29.8835 210.25 29.8652 210.215 29.8758 209.698 29.8867 209.167 29.7894 208.609 29.6353 208.321 29.5707 208.2 29.5179 208.044 29.5179 207.973 29.5179 207.902 29.4493 207.77 29.3658 207.68 29.2823 207.589 29.2138 207.462 29.2138 207.395 29.2138 207.323 29.1533 207.252 29.0622 207.217 28.9786 207.185 28.9102 207.118 28.9102 207.067 28.9102 207.016 28.8846 206.974 28.8529 206.974 28.8215 206.974 28.6695 206.864 28.5154 206.73 28.3608 206.596 28.1857 206.487 28.126 206.487 28.0662 206.487 27.9706 206.435 27.9131 206.371 27.8555 206.308 27.7148 206.238 27.5999 206.216 27.4852 206.195 27.391 206.141 27.391 206.096 27.391 205.995 27.2022 205.941 26.8434 205.94 26.6733 205.939 26.4771 205.888 26.3269 205.803 25.9602 205.596 23.9657 205.598 23.5961 205.805 23.4637 205.878 23.2807 205.939 23.1892 205.939 23.0959 205.939 22.9508 206.006 22.859 206.091 22.7689 206.175 22.634 206.244 22.5589 206.244 22.4769 206.244 22.4112 206.289 22.3931 206.359 22.3752 206.427 22.2855 206.491 22.1729 206.516 22.0682 206.539 21.9516 206.617 21.9137 206.69 21.8757 206.762 21.77 206.917 21.6792 207.035 21.588 207.152 21.4929 207.316 21.4678 207.4 21.4422 207.484 21.3705 207.601 21.3077 207.661 21.1408 207.82 21.1459 208.574 21.3154 208.83 21.3818 208.931 21.436 209.05 21.4364 209.095 21.4372 209.218 21.6304 209.602 21.7536 209.726 21.8134 209.786 21.8623 209.862 21.8623 209.895 21.8623 209.929 21.9195 209.956 21.9895 209.956 22.0657 209.956 22.1294 210.005 22.1484 210.078 22.1659 210.146 22.2388 210.213 22.3099 210.227 22.7135 210.308 22.7736 210.331 22.7736 210.407 22.7736 210.5 22.956 210.563 23.2315 210.564 23.3332 210.564 23.5246 210.622 23.6569 210.691 23.7893 210.761 24.1094 210.856 24.3686 210.903 24.6274 210.95 24.9008 211.028 24.9763 211.076 25.0514 211.124 25.2493 211.182 25.4167 211.205 25.5836 211.228 25.8249 211.299 25.9529 211.363 26.0805 211.428 26.3491 211.498 26.5501 211.519 26.7505 211.54 26.9558 211.598 27.0057 211.648 27.1056 211.748 27.4803 211.836 27.8234 211.84 27.9455 211.842 28.11 211.895 28.1935 211.961 28.2758 212.026 28.4913 212.098 28.6724 212.121 28.8533 212.144 29.0432 212.199 29.0942 212.243 29.1453 212.288 29.3443 212.366 29.5364 212.416 29.7285 212.466 29.9604 212.559 30.0512 212.622 30.142 212.686 30.3257 212.755 30.4591 212.776 30.5929 212.797 30.7347 212.859 30.7749 212.914 30.8167 212.971 30.9698 213.027 31.1324 213.046 31.3373 213.069 31.4252 213.108 31.4455 213.186 31.4638 213.257 31.5565 213.309 31.7102 213.335 31.8455 213.358 32.027 213.45 32.1361 213.552 32.2403 213.65 32.377 213.73 32.4401 213.73 32.5032 213.73 32.5888 213.785 32.6304 213.851 32.6724 213.918 32.7515 213.973 32.8065 213.973 32.8611 213.973 32.9493 214.039 33.0022 214.12 33.0551 214.201 33.1787 214.285 33.2763 214.306 33.3806 214.329 33.4674 214.394 33.4856 214.463 33.5024 214.528 33.5665 214.6 33.6285 214.623 33.6901 214.646 33.8425 214.776 33.9676 214.912 34.0923 215.049 34.2443 215.215 34.3055 215.282 34.3664 215.349 34.4513 215.49 34.4935 215.596 34.5359 215.701 34.623 215.801 34.6872 215.818 34.7514 215.835 34.8038 215.899 34.8038 215.961 34.8038 216.024 34.8545 216.106 34.9168 216.145 34.9788 216.183 35.047 216.302 35.0681 216.408 35.0893 216.514 35.1607 216.669 35.2267 216.754 35.293 216.838 35.3649 217.007 35.3861 217.129 35.4071 217.251 35.4815 217.447 35.5512 217.564 35.6977 217.811 35.7487 218.234 35.8304 219.873 35.8615 220.499 35.8628 221.055 35.834 221.132 35.8052 221.207 35.763 221.543 35.74 221.878 35.7032 222.413 35.681 222.502 35.5548 222.612 35.4578 222.696 35.4111 222.802 35.4111 222.938 35.4111 223.056 35.3499 223.223 35.2625 223.342 35.1807 223.453 35.0958 223.625 35.0739 223.725 35.0521 223.825 34.9832 223.957 34.9205 224.02 34.8582 224.083 34.7897 224.204 34.7685 224.288 34.7469 224.373 34.6904 224.442 34.642 224.442 34.5939 224.442 34.5257 224.525 34.4904 224.626 34.4553 224.726 34.3744 224.837 34.3114 224.871 34.2479 224.905 34.1961 224.972 34.1961 225.021 34.1961 225.069 34.1279 225.126 34.0441 225.147 33.9606 225.168 33.8924 225.218 33.8924 225.257 33.8924 225.34 33.4309 225.781 33.3435 225.781 33.311 225.781 33.2848 225.821 33.2848 225.871 33.2848 225.92 33.2173 225.978 33.135 225.998 33.0525 226.019 32.9691 226.087 32.949 226.151 32.9278 226.217 32.8108 226.295 32.6694 226.338 32.5352 226.378 32.3919 226.46 32.3504 226.519 32.3088 226.578 32.2013 226.655 32.1113 226.689 32.0216 226.723 31.9479 226.793 31.9479 226.844 31.9479 226.908 31.8867 226.937 31.7507 226.938 31.4656 226.939 31.2797 227 31.2797 227.092 31.2797 227.178 31.205 227.208 30.8241 227.272 30.6903 227.294 30.54 227.347 30.4897 227.39 30.3599 227.501 30.0184 227.607 29.7916 227.607 29.6848 227.607 29.4361 227.663 29.2386 227.731 28.7348 227.906 26.5092 228.06 25.6915 227.977 25.3732 227.944 24.8257 227.899 24.4746 227.877 24.1097 227.853 23.762 227.797 23.6616 227.746 23.565 227.697 23.3208 227.633 23.1185 227.604 22.9121 227.575 22.6755 227.496 22.5797 227.425 22.4856 227.355 22.2844 227.275 22.1324 227.247 21.9804 227.219 21.8222 227.149 21.7809 227.093 21.7397 227.036 21.5933 226.975 21.455 226.956 21.2874 226.934 21.1951 226.888 21.1765 226.817 21.1616 226.759 21.0704 226.696 20.9742 226.675 20.8776 226.655 20.6385 226.487 20.4427 226.301 20.2466 226.115 20.0654 225.963 20.0395 225.963 20.014 225.963 19.9786 225.909 19.9611 225.841 19.9309 225.726 19.683 225.662 19.6683 225.765 19.6651 225.791 19.6523 226.097 19.6403 226.446 19.6137 227.22 19.6064 227.241 19.3577 227.242 19.248 227.242 19.0078 227.316 18.8241 227.406 18.3487 227.64 16.2113 227.666 15.8355 227.443 15.7123 227.37 15.4876 227.292 15.336 227.269 14.9671 227.214 14.9894 227.54 15.0093 222.463L15.0269 218.081 15.2708 218.021C15.4049 217.987 15.5756 217.898 15.6503 217.823 15.8027 217.669 15.8766 217.664 17.8471 217.677 18.8609 217.683 18.9149 217.689 19.1285 217.831 19.2513 217.913 19.4176 217.989 19.4981 218 19.6071 218.015 19.6495 218.064 19.664 218.192 19.6749 218.285 19.7227 218.377 19.7704 218.396 19.8722 218.435 19.8871 218.695 19.7906 218.754 19.7515 218.778 19.7376 218.887 19.757 219.017 19.7752 219.138 19.8316 219.52 19.8827 219.865 19.9465 220.296 20.014 220.542 20.0986 220.65 20.1664 220.736 20.2218 220.842 20.2218 220.886 20.2218 220.985 20.9578 221.764 21.0515 221.764 21.089 221.764 21.1371 221.832 21.158 221.916 21.1813 222.008 21.2392 222.068 21.307 222.068 21.3679 222.068 21.466 222.121 21.5247 222.186 21.5837 222.251 21.7178 222.323 21.8229 222.344 21.9279 222.366 22.0565 222.438 22.1087 222.504 22.1634 222.574 22.3081 222.638 22.4528 222.658 22.6231 222.681 22.7113 222.726 22.731 222.8 22.7533 222.885 22.8491 222.918 23.1764 222.952 23.4061 222.976 23.7168 223.053 23.8673 223.124 24.2909 223.323 27.0523 223.321 27.4217 223.121 27.5551 223.048 27.7942 222.972 27.9531 222.951 28.1439 222.925 28.262 222.875 28.3017 222.8 28.3367 222.734 28.4613 222.671 28.6017 222.647 28.7592 222.62 28.8744 222.556 28.9379 222.459 28.991 222.378 29.072 222.312 29.1176 222.312 29.1635 222.312 29.2178 222.244 29.2386 222.161 29.2591 222.078 29.3304 221.981 29.3968 221.946 29.4635 221.91 29.5179 221.831 29.5179 221.771 29.5179 221.71 29.5889 221.526 29.6757 221.363 29.8955 220.948 29.9195 220.161 29.7202 219.892 29.648 219.793 29.5744 219.621 29.5565 219.509 29.539 219.396 29.4723 219.262 29.4085 219.21 29.3447 219.159 29.2747 219.065 29.2528 219.004 29.231 218.942 29.1587 218.877 29.092 218.86 29.0253 218.842 28.971 218.789 28.971 218.742 28.971 218.695 28.9025 218.631 28.819 218.599 28.7356 218.567 28.667 218.498 28.667 218.446 28.667 218.391 28.5941 218.338 28.4902 218.317 28.3922 218.297 28.3006 218.233 28.2849 218.173 28.2664 218.101 28.1726 218.05 28.01 218.023 27.8748 218 27.6896 217.917 27.5988 217.839 27.5077 217.761 27.3098 217.678 27.1566 217.655 27.0042 217.632 26.8132 217.561 26.7323 217.498 26.6514 217.434 26.5135 217.381 26.4261 217.381 26.1053 217.379 25.8115 217.304 25.8115 217.222 25.8115 217.131 25.7035 217.102 25.1812 217.049 24.9624 217.027 24.7655 216.967 24.6719 216.893 24.5792 216.82 24.4262 216.773 24.2825 216.773 24.1523 216.773 23.8895 216.708 23.6981 216.628 23.5071 216.549 23.2144 216.464 23.0481 216.44 22.8815 216.416 22.6723 216.344 22.5826 216.28 22.4882 216.213 22.2607 216.147 22.0434 216.124 21.7926 216.098 21.6319 216.047 21.5615 215.971 21.4878 215.892 21.3318 215.846 21.0511 215.819 20.7814 215.794 20.6469 215.756 20.6469 215.703 20.6469 215.617 20.5616 215.584 20.1762 215.524 20.034 215.502 19.8973 215.45 19.8722 215.407 19.8473 215.365 19.6983 215.283 19.5411 215.223 19.3841 215.164 19.2091 215.064 19.1518 215.001 19.0949 214.938 18.9859 214.886 18.9094 214.886 18.8329 214.886 18.7348 214.836 18.691 214.774 18.6473 214.711 18.5109 214.625 18.3881 214.58 18.2652 214.536 18.1515 214.45 18.1354 214.389 18.1193 214.328 18.0538 214.278 17.9888 214.278 17.9225 214.278 17.8416 214.211 17.8023 214.125 17.7643 214.042 17.7016 213.973 17.663 213.973 17.6243 213.973 17.5307 213.912 17.4544 213.836 17.3787 213.761 17.2798 213.665 17.235 213.624 17.1901 213.582 17.0852 213.465 17.0013 213.363 16.9179 213.262 16.7881 213.12 16.7129 213.047 16.6375 212.975 16.5762 212.891 16.5762 212.86 16.5762 212.829 16.5077 212.723 16.4242 212.623 16.3407 212.524 16.2722 212.405 16.2722 212.36 16.2722 212.315 16.2051 212.198 16.1228 212.1 16.0407 212.002 15.9474 211.806 15.9156 211.665 15.884 211.524 15.8146 211.375 15.7615 211.336 15.6955 211.287 15.6489 211.102 15.6127 210.743 15.5817 210.432 15.5183 210.158 15.4563 210.062 15.3065 209.834 15.3356 207.576 15.4913 207.339 15.5464 207.256 15.6106 206.996 15.6342 206.762 15.6649 206.461 15.7086 206.316 15.7844 206.262 15.8489 206.217 15.9037 206.079 15.9222 205.914 15.9416 205.741 16.0115 205.571 16.1125 205.45 16.2004 205.346 16.2722 205.211 16.2722 205.151 16.2722 205.09 16.3134 205.007 16.3633 204.965 16.4136 204.924 16.4545 204.855 16.4545 204.812 16.4545 204.77 16.4956 204.719 16.5456 204.7 16.596 204.681 16.6367 204.63 16.6367 204.586 16.6367 204.543 16.6915 204.474 16.7585 204.432 16.8252 204.39 16.8799 204.316 16.8799 204.267 16.8799 204.218 16.9343 204.149 17.0006 204.114 17.0673 204.078 17.1383 203.982 17.1588 203.901 17.1792 203.819 17.2477 203.736 17.3112 203.716 17.3746 203.695 17.4267 203.646 17.4267 203.606 17.4267 203.566 17.577 203.413 17.761 203.267 17.9448 203.12 18.095 202.976 18.095 202.946 18.095 202.917 18.1642 202.867 18.2484 202.835 18.333 202.803 18.4179 202.735 18.4373 202.684 18.4566 202.633 18.5186 202.592 18.5747 202.592 18.6308 202.592 18.7715 202.511 18.8871 202.411 19.003 202.312 19.1482 202.23 19.2098 202.229 19.2714 202.228 19.3359 202.172 19.3534 202.105 19.3709 202.038 19.392 201.983 19.4001 201.983 19.6035 201.983 20.0901 201.83 20.1743 201.739 20.2534 201.654 20.3657 201.618 20.5506 201.618 20.746 201.618 20.8361 201.586 20.8977 201.497 20.9651 201.398 21.1105 201.358 21.6494 201.288 22.0171 201.24 22.3999 201.158 22.5002 201.106 22.6275 201.039 23.4468 201.003 24.2579 201Z" fill="#FFFFFF" fill-rule="evenodd"/></g></svg>