<svg width="58" height="63" viewBox="0 0 58 63" fill="none" xmlns="http://www.w3.org/2000/svg">
<circle cx="20" cy="56" r="7" fill="#5467FF"/>
<path d="M54.5645 15.6974C54.5533 16.707 54.4119 17.6869 54.157 18.6215L39.2347 3.88001C40.2121 3.60216 41.2407 3.44743 42.3027 3.43563L42.2647 0C33.9656 0.0920811 27.2376 6.90482 27.2668 15.1826L27.2801 27.2799L15.1867 27.2667C15.1685 27.2666 15.1515 27.2666 15.1333 27.2666C6.87596 27.2666 0.0917375 33.9839 0 42.2645L3.43563 42.3026C3.44686 41.2917 3.58716 40.311 3.84026 39.376L18.7624 54.1171C17.7855 54.3967 16.758 54.5527 15.6973 54.5644L15.7355 58C23.9955 57.9084 30.7237 51.0993 30.7337 42.8175L30.7198 30.7199L42.8215 30.7336C51.0992 30.7237 57.9083 23.9956 58 15.7356L54.5645 15.6974ZM30.7159 27.2838L30.7085 20.489L37.5948 27.2916L30.7159 27.2838ZM15.1375 30.7024C15.1511 30.7024 15.1652 30.7025 15.1788 30.7025L15.5112 30.7029L27.2972 42.346L27.2978 42.8175C27.2961 44.2467 27.0352 45.619 26.5607 46.89L10.9607 31.4791C12.2598 30.9779 13.6683 30.7024 15.1375 30.7024ZM22.0822 52.5669L5.34277 36.0307C6.03257 34.9756 6.88753 34.0384 7.86939 33.2549L24.8231 50.0028C24.0518 50.9959 23.1255 51.8626 22.0822 52.5669ZM27.2917 37.5108L20.4057 30.7083L27.284 30.716L27.2917 37.5108ZM42.4894 27.2974L30.7032 15.6541L30.7026 15.1747C30.6976 13.7437 30.9544 12.3697 31.4268 11.0975L47.0276 26.5092C45.7194 27.0163 44.3008 27.2959 42.8215 27.2977L42.4894 27.2974ZM50.1179 24.7323L33.1635 7.98346C33.9349 6.99198 34.8628 6.12672 35.9088 5.42408L52.6484 21.9608C51.957 23.0132 51.1008 23.9491 50.1179 24.7323Z" fill="#758FA4"/>
</svg>
