<svg width="50" height="48" viewBox="0 0 50 48" fill="none" xmlns="http://www.w3.org/2000/svg">
<circle cx="25" cy="7" r="7" fill="#FD8593"/>
<path d="M27.1827 47.9997C26.7763 47.9997 26.4468 47.6721 26.4468 47.268V45.3222C26.4468 45.0436 26.2188 44.8168 25.9386 44.8168H23.9632C23.683 44.8168 23.455 45.0436 23.455 45.3222V47.268C23.455 47.6721 23.1255 47.9997 22.7191 47.9997C22.3128 47.9997 21.9833 47.6721 21.9833 47.268V45.3222C21.9833 44.2366 22.8715 43.3534 23.9632 43.3534H25.9386C27.0303 43.3534 27.9185 44.2366 27.9185 45.3222V47.268C27.9185 47.6721 27.5891 47.9997 27.1827 47.9997Z" fill="#758FA4"/>
<path d="M32.0257 21.2514C31.7839 20.9266 31.3231 20.8584 30.9964 21.0987C30.6698 21.3392 30.6011 21.7974 30.8428 22.1222L34.4968 27.0298C34.9032 27.5757 34.8738 28.3979 34.4298 28.9017L30.4932 33.3693H19.4087L15.472 28.9017C15.0281 28.3979 14.9987 27.5757 15.4051 27.0298L22.6595 17.2864V22.8383C21.7399 23.5411 21.2024 24.6161 21.2024 25.7894C21.2024 27.8449 22.884 29.5172 24.9509 29.5172C27.0179 29.5172 28.6995 27.8449 28.6995 25.7894C28.6995 24.6689 28.1981 23.6225 27.3405 22.9176V17.4182L28.9563 19.5884C29.1981 19.9133 29.659 19.9815 29.9856 19.7411C30.3122 19.5006 30.3808 19.0423 30.1391 18.7175L26.9829 14.4783C26.4861 13.811 25.7454 13.4282 24.951 13.4282C24.1566 13.4282 23.416 13.811 22.9192 14.4783L14.2224 26.1591C13.4068 27.2545 13.4682 28.8483 14.3654 29.8664L17.6484 33.5921C16.8286 33.9722 16.2588 34.7991 16.2588 35.7563V39.2472C16.2588 40.316 16.9688 41.2228 17.9444 41.5261L18.1452 47.2935C18.1589 47.6889 18.4854 48 18.8801 48C18.8887 48 18.8974 47.9999 18.906 47.9996C19.3122 47.9856 19.6299 47.6469 19.6159 47.243L19.4207 41.6342H30.5795L30.3843 47.243C30.3703 47.6469 30.6881 47.9856 31.0942 47.9996C31.1028 47.9999 31.1115 48 31.1201 48C31.5147 48 31.8413 47.6889 31.855 47.2935L32.057 41.4926C32.9811 41.1604 33.6433 40.2794 33.6433 39.2472V35.7563C33.6433 34.7991 33.0735 33.9722 32.2537 33.5921L35.5367 29.8664C36.4338 28.8484 36.4953 27.2545 35.6797 26.1591L32.0257 21.2514ZM24.9509 14.8916C25.2788 14.8916 25.5804 15.054 25.8 15.349L25.8689 15.4415V23.2853C25.8689 23.5315 25.9934 23.7612 26.2002 23.8965C26.8437 24.3176 27.2279 25.0253 27.2279 25.7892C27.2279 27.0378 26.2065 28.0535 24.9509 28.0535C23.6954 28.0535 22.674 27.0378 22.674 25.7892C22.674 24.9891 23.0859 24.264 23.7758 23.8494C23.9963 23.7169 24.1311 23.4794 24.1311 23.2232V15.3135C24.348 15.0419 24.637 14.8916 24.9509 14.8916ZM32.1716 39.247C32.1716 39.7561 31.7551 40.1704 31.2431 40.1704H18.6589C18.1468 40.1704 17.7303 39.7561 17.7303 39.247V35.7561C17.7303 35.247 18.1469 34.8327 18.6589 34.8327H31.2431C31.7552 34.8327 32.1716 35.247 32.1716 35.7561V39.247Z" fill="#758FA4"/>
<path d="M10.3077 21.4759C10.4044 19.1575 11.0528 16.8877 12.2004 14.8763C12.4009 14.5247 12.277 14.0782 11.9235 13.8788C11.57 13.6792 11.121 13.8026 10.9204 14.1541C9.64853 16.3832 8.93341 18.8999 8.83491 21.4687C7.56507 21.7898 6.62301 22.9361 6.62301 24.2974C6.62301 25.9067 7.93955 27.2159 9.55778 27.2159C11.176 27.2159 12.4925 25.9067 12.4925 24.2974C12.4925 22.9459 11.5638 21.8063 10.3077 21.4759ZM9.55778 25.7524C8.75102 25.7524 8.09466 25.0997 8.09466 24.2974C8.09466 23.4952 8.75102 22.8425 9.55778 22.8425C10.3645 22.8425 11.0209 23.4952 11.0209 24.2974C11.0209 25.0997 10.3645 25.7524 9.55778 25.7524Z" fill="#758FA4"/>
<path d="M48.442 4H46.0774C45.2183 4 44.5194 4.69505 44.5194 5.54933V5.99335H27.7403V5.54933C27.7403 4.69505 27.0414 4 26.1823 4H23.8177C22.9586 4 22.2597 4.69505 22.2597 5.54933V5.99335H5.48062V5.54933C5.48062 4.69505 4.78169 4 3.92263 4H1.55799C0.698936 4 0 4.69505 0 5.54933V7.90085C0 8.75513 0.698936 9.45018 1.55799 9.45018H3.92263C4.78169 9.45018 5.48062 8.75513 5.48062 7.90085V7.45683H18.2543C16.2114 8.38994 14.3673 9.74541 12.853 11.4561C12.5845 11.7594 12.614 12.2218 12.9191 12.4888C13.0589 12.6112 13.2323 12.6714 13.4051 12.6714C13.6091 12.6714 13.8122 12.5875 13.9576 12.4232C16.1335 9.96523 19.0566 8.31286 22.2597 7.71177V7.90094C22.2597 8.75522 22.9586 9.45028 23.8177 9.45028H26.1823C27.0414 9.45028 27.7403 8.75522 27.7403 7.90094V7.71167C34.4203 8.96333 39.4112 14.6919 39.6932 21.4758C38.4367 21.8059 37.5075 22.9457 37.5075 24.2975C37.5075 25.9068 38.824 27.216 40.4422 27.216C42.0605 27.216 43.377 25.9068 43.377 24.2975C43.377 22.9364 42.435 21.7901 41.1653 21.4689C40.9301 15.3136 37.1707 9.94025 31.7461 7.45702H44.5194V7.90104C44.5194 8.75532 45.2183 9.45038 46.0774 9.45038H48.442C49.3011 9.45038 50 8.75532 50 7.90104V5.54933C50 4.69505 49.3011 4 48.442 4ZM4.00897 7.90085C4.00897 7.94817 3.97022 7.9867 3.92263 7.9867H1.55799C1.5104 7.9867 1.47165 7.94817 1.47165 7.90085V5.54933C1.47165 5.50201 1.5104 5.46348 1.55799 5.46348H3.92263C3.97022 5.46348 4.00897 5.50201 4.00897 5.54933V7.90085ZM41.9053 24.2973C41.9053 25.0996 41.249 25.7523 40.4422 25.7523C39.6355 25.7523 38.9791 25.0996 38.9791 24.2973C38.9791 23.4951 39.6355 22.8424 40.4422 22.8424C41.249 22.8424 41.9053 23.4951 41.9053 24.2973ZM26.2687 7.90085C26.2687 7.94817 26.2299 7.9867 26.1823 7.9867H23.8177C23.7701 7.9867 23.7313 7.94817 23.7313 7.90085V5.54933C23.7313 5.50201 23.7701 5.46348 23.8177 5.46348H26.1823C26.2299 5.46348 26.2687 5.50201 26.2687 5.54933V7.90085ZM48.5284 7.90085C48.5284 7.94817 48.4896 7.9867 48.442 7.9867H46.0774C46.0298 7.9867 45.991 7.94817 45.991 7.90085V5.54933C45.991 5.50201 46.0298 5.46348 46.0774 5.46348H48.442C48.4896 5.46348 48.5284 5.50201 48.5284 5.54933V7.90085Z" fill="#758FA4"/>
</svg>
