<svg width="38" height="42" viewBox="0 0 38 42" fill="none" xmlns="http://www.w3.org/2000/svg">
<circle cx="19" cy="21" r="7" fill="#FFAC60"/>
<path d="M36.5698 22.3722C36.0521 21.938 35.3932 21.6996 34.7121 21.7C34.2534 21.7024 33.8021 21.8141 33.3972 22.0255C33.0536 21.6857 32.6948 21.3458 32.3207 21.0056C33.1738 20.2367 33.9841 19.4233 34.7478 18.5689C37.6746 15.2649 38.6705 12.4005 37.554 10.5035C36.9758 9.60164 36.0478 8.9698 34.9841 8.7535C32.7904 8.1739 29.4731 8.5561 25.6704 9.7069C25.4178 8.596 25.104 7.49936 24.7302 6.4218C23.2754 2.2813 21.243 0 19.0072 0H19.0015C17.9057 0 16.3102 0.5663 14.7654 3.157C13.2991 2.88986 11.8703 3.77422 11.4852 5.187C11.1569 6.36764 11.6575 7.61968 12.7166 8.267C12.5881 8.72804 12.4672 9.2029 12.354 9.6915C11.2488 9.35235 10.1257 9.07191 8.98957 8.8515C4.61003 8.0178 1.58112 8.6023 0.464639 10.5C-0.0441652 11.4414 -0.139555 12.5457 0.200511 13.5576C0.786591 15.7101 2.78255 18.3358 5.69724 20.9895C4.8423 21.7601 4.03038 22.5753 3.26512 23.4318C0.338286 26.7344 -0.656836 29.5995 0.458928 31.4965C1.00503 32.4296 2.30212 33.5055 5.36815 33.5216C5.89373 34.9796 7.52508 35.7437 9.01196 35.2284C9.65382 35.0059 10.1934 34.5659 10.5336 33.9878C10.761 33.597 10.8879 33.1579 10.9034 32.7082C11.375 32.5864 11.8547 32.4516 12.3426 32.3036C12.595 33.4121 12.9083 34.5064 13.2813 35.5817C14.739 39.7187 16.7714 42 19.0072 42C20.0911 41.9595 21.1117 41.4887 21.8348 40.6959C23.4424 39.1216 24.7616 36.1137 25.6489 32.3092C26.7567 32.6501 27.8824 32.9319 29.0212 33.1534C30.1831 33.3857 31.3648 33.5095 32.5506 33.523C35.0312 33.523 36.7623 32.8377 37.5476 31.5042C38.1001 30.5711 38.4028 28.9317 36.8837 26.32C37.9087 25.1449 37.7682 23.3774 36.5698 22.3722ZM9.29867 33.2871C8.90417 33.9564 8.03103 34.1855 7.3484 33.7988C6.95069 33.5787 6.68763 33.182 6.64382 32.7362C6.61161 32.4414 6.67532 32.1442 6.82586 31.8871C6.88555 31.7885 6.95747 31.6975 7.04001 31.6162C7.06072 31.5952 7.08213 31.577 7.10355 31.5574C7.17145 31.4963 7.24534 31.4419 7.32413 31.395C7.3434 31.3831 7.36125 31.3705 7.38124 31.36C7.58317 31.2528 7.8084 31.1947 8.03799 31.1906C8.06298 31.1906 8.08725 31.1906 8.10938 31.1906C8.19754 31.1938 8.28525 31.2051 8.37136 31.2242C8.39992 31.2305 8.42847 31.2354 8.45631 31.2438C8.97574 31.3827 9.36577 31.8048 9.45572 32.3253C9.52719 32.6539 9.47116 32.9969 9.29867 33.2871ZM10.6193 31.3418H10.6179C10.5527 31.2137 10.4778 31.0906 10.3937 30.9736C10.3802 30.9554 10.3638 30.9393 10.3502 30.9211C10.2554 30.7962 10.1504 30.6792 10.0361 30.5711C10.0018 30.5382 9.9647 30.5067 9.93044 30.4752C9.79436 30.3563 9.64686 30.2505 9.48998 30.1595C9.32339 30.0653 9.1476 29.9877 8.9653 29.9278C8.94174 29.9201 8.91747 29.9187 8.89391 29.9117C7.85123 29.5915 6.71369 29.8917 5.97565 30.6817C5.95994 30.6985 5.94067 30.7111 5.92568 30.7279C5.79834 30.8692 5.68573 31.0225 5.58945 31.1857C5.50976 31.3224 5.44221 31.4654 5.38743 31.6134C5.36958 31.661 5.35887 31.7107 5.34388 31.759C5.31033 31.8608 5.28276 31.9643 5.26107 32.0691C5.2575 32.0859 5.25108 32.102 5.24822 32.1188C3.43359 32.0887 2.18433 31.6288 1.69819 30.7972C0.920797 29.4763 1.88522 27.1264 4.34519 24.3481C5.1067 23.4979 5.91586 22.6897 6.76875 21.9275C8.21869 23.1502 9.73805 24.2914 11.3196 25.3456C11.4561 27.2198 11.7016 29.0848 12.0549 30.9316C11.5687 31.08 11.089 31.22 10.6193 31.3418ZM11.2174 23.5753C9.99959 22.7276 8.8617 21.8645 7.8316 21.0007C8.87026 20.1285 10.0096 19.2668 11.2196 18.424C11.181 19.2759 11.1546 20.1341 11.1546 21C11.1546 21.8659 11.1804 22.7262 11.2174 23.5753ZM11.3303 16.6404C9.74064 17.6952 8.21378 18.8383 6.75732 20.0641C3.99183 17.5854 2.11366 15.1578 1.57969 13.1964C1.34572 12.5419 1.38918 11.8228 1.70033 11.2C2.21645 10.3236 3.5164 9.87 5.41241 9.87C6.52461 9.88435 7.63287 10.0015 8.72258 10.22C9.852 10.4411 10.968 10.7234 12.0656 11.0656C11.714 12.9089 11.4685 14.7701 11.3303 16.6404ZM25.1749 15.6744C24.4418 15.2159 23.6972 14.7644 22.9327 14.3318C22.1682 13.8992 21.3936 13.489 20.6234 13.0949H20.6226C21.979 12.4838 23.3118 11.9539 24.5931 11.5073C24.8437 12.8261 25.0357 14.2247 25.1749 15.6744ZM19.0029 1.4H19.0072C20.5627 1.4 22.156 3.395 23.3789 6.8719C23.7499 7.9436 24.0597 9.03473 24.3069 10.1402C22.502 10.7608 20.7343 11.4809 19.0122 12.2969C17.2889 11.4752 15.5193 10.7507 13.7118 10.1269C13.8231 9.6425 13.9388 9.1658 14.0673 8.7059C14.1022 8.7059 14.1386 8.7059 14.1729 8.7059C14.2072 8.7059 14.2279 8.7122 14.2557 8.7122C14.2986 8.7122 14.3414 8.7059 14.3849 8.7038C14.4392 8.7038 14.4934 8.6989 14.5477 8.694C14.6255 8.6856 14.7019 8.673 14.779 8.6583C14.8318 8.6485 14.8846 8.6408 14.9375 8.6275C15.0188 8.6079 15.0995 8.5813 15.1795 8.554C15.2244 8.5386 15.2694 8.5267 15.3137 8.5092C15.4365 8.46081 15.5558 8.40394 15.6706 8.3391C15.837 8.24469 15.9933 8.13426 16.1375 8.0094C16.151 7.9975 16.161 7.9828 16.1746 7.9702C16.9866 7.24675 17.2963 6.12684 16.9684 5.1002C16.9613 5.0764 16.9598 5.0526 16.952 5.0302C16.8907 4.8517 16.8115 4.67959 16.7157 4.5164C16.6344 4.38077 16.5418 4.25198 16.4387 4.1314C16.4044 4.0908 16.3673 4.0558 16.3273 4.0173C16.2562 3.93986 16.1806 3.86645 16.1011 3.7975C16.0868 3.7856 16.0761 3.7709 16.0618 3.7597C16.9984 2.2323 18.0284 1.4 19.0029 1.4ZM17.3867 13.0977C16.6186 13.4897 15.8491 13.8971 15.0809 14.3318C14.3128 14.7665 13.5718 15.2145 12.8416 15.6702C12.9843 14.2261 13.1742 12.8282 13.4241 11.5115C14.709 11.9574 16.0397 12.4915 17.3867 13.0977ZM13.5319 4.7012C13.9248 4.47318 14.4063 4.4471 14.8225 4.6312C15.5438 4.94357 15.8703 5.77019 15.5517 6.47745C15.4295 6.74896 15.2223 6.97533 14.9603 7.1239C14.6002 7.32673 14.1674 7.36409 13.7767 7.2261C13.4518 7.12162 13.1783 6.90226 13.0093 6.6108C12.617 5.94186 12.8507 5.08777 13.5319 4.7012ZM12.8387 26.327C13.5683 26.7834 14.3128 27.237 15.0809 27.6682C15.8491 28.0994 16.6157 28.5082 17.3831 28.9009C16.0375 29.5036 14.7069 30.0391 13.4191 30.4857C13.1691 29.1697 12.9779 27.7732 12.8387 26.327ZM20.8282 39.7019H20.8261C20.3666 40.2276 19.7115 40.5511 19.0072 40.6C17.4517 40.6 15.8583 38.605 14.6355 35.1281C14.2648 34.0587 13.955 32.9699 13.7075 31.8668C15.5113 31.2432 17.278 30.5208 18.9993 29.7031C20.7256 30.5245 22.4981 31.2491 24.3083 31.8731C23.4988 35.4585 22.2909 38.2676 20.8282 39.7019ZM24.5953 30.4899C23.306 30.0433 21.9754 29.5099 20.6262 28.9016C21.3979 28.5075 22.1689 28.1015 22.9334 27.6682C23.698 27.2349 24.4447 26.7841 25.1764 26.3277C25.0336 27.7858 24.8415 29.1802 24.5953 30.4899ZM25.3163 24.5728C24.3219 25.2182 23.2903 25.8496 22.2196 26.4558C21.1538 27.0585 20.078 27.6206 19.0072 28.1428C17.9364 27.622 16.8656 27.062 15.7948 26.4558C14.724 25.8496 13.6896 25.2161 12.6981 24.5721C12.6245 23.4045 12.5824 22.2124 12.5824 21C12.5824 19.7876 12.6245 18.5997 12.6995 17.43C13.6932 16.7846 14.7247 16.1525 15.7948 15.547C16.8649 14.9415 17.9414 14.378 19.0072 13.8586C20.078 14.3801 21.1488 14.9401 22.2196 15.547C23.2903 16.1539 24.3183 16.7825 25.3163 17.4328C25.3877 18.5997 25.4319 19.7911 25.4319 21.0028C25.4319 22.2145 25.3898 23.4101 25.3163 24.5728ZM33.7841 23.4444C34.0391 23.2207 34.3699 23.0979 34.7121 23.1C35.5007 23.1 36.1398 23.7268 36.1398 24.5C36.1438 24.9481 35.9244 25.3697 35.5523 25.6298C34.9149 26.0848 34.0218 25.9469 33.5578 25.3218C33.3806 25.083 33.2848 24.7953 33.2844 24.5C33.2842 24.0931 33.4671 23.7069 33.7841 23.4444ZM32.5291 9.87C33.2315 9.85959 33.9321 9.93886 34.6136 10.1059C35.3075 10.2323 35.9206 10.6264 36.3155 11.2C37.0928 12.5209 36.1284 14.8708 33.6685 17.6491C32.9086 18.4975 32.1014 19.304 31.2506 20.0648C29.7983 18.8445 28.277 17.7055 26.694 16.653C26.5573 14.7741 26.3111 12.9043 25.9566 11.053C28.0763 10.3443 30.2909 9.94578 32.5291 9.87ZM26.7968 18.4294C28.0023 19.2706 29.1442 20.1329 30.1791 21C29.1412 21.8708 28.004 22.7311 26.7961 23.5718C26.8347 22.7269 26.8597 21.8701 26.8597 21C26.8597 20.1301 26.834 19.2776 26.7968 18.4294ZM36.3147 30.8C35.5373 32.1209 32.9774 32.48 29.2961 31.78C28.1641 31.5585 27.0457 31.2756 25.9459 30.9323C26.3006 29.0897 26.5487 27.229 26.689 25.3589C28.277 24.3059 29.8024 23.1649 31.2577 21.9415C31.6332 22.2796 31.9959 22.6184 32.3385 22.9558C32.2576 23.0751 32.186 23.2004 32.1244 23.3303C32.1151 23.3499 32.1094 23.3709 32.1008 23.3905C32.0378 23.5343 31.9872 23.6829 31.9495 23.835C31.9381 23.8798 31.9274 23.9246 31.9181 23.9701C31.6038 25.4697 32.5887 26.9352 34.118 27.2434C34.3134 27.2828 34.5126 27.3018 34.7121 27.3C34.873 27.2991 35.0335 27.2849 35.1918 27.2573C35.2425 27.2489 35.2911 27.2328 35.341 27.2216C35.4487 27.1991 35.555 27.1706 35.6594 27.1362C35.6751 27.1306 35.6915 27.1285 35.7072 27.1229C36.5873 28.6797 36.8051 29.9705 36.3147 30.8Z" fill="#758FA4"/>
</svg>
