<svg width="50" height="52" viewBox="0 0 50 52" fill="none" xmlns="http://www.w3.org/2000/svg">
<circle cx="7" cy="45" r="7" fill="#3ED7A0"/>
<path d="M48.8424 38.7436C48.4169 38.074 34.7357 16.5454 34.3141 15.882V8.78906C36.7339 8.78906 38.7026 6.81768 38.7026 4.39453C38.7026 1.97139 36.734 0 34.3141 0H19.6859C17.2661 0 15.2974 1.97139 15.2974 4.39453C15.2974 6.81768 17.2661 8.78906 19.6859 8.78906V15.882L5.15772 38.7436C2.05557 43.6253 5.55103 50 11.3284 50H42.6717C48.4499 50 51.944 43.6244 48.8424 38.7436ZM22.3829 17.095C22.5322 16.86 22.6116 16.5872 22.6116 16.3086V8.78906C23.4195 8.78906 24.0744 8.1332 24.0744 7.32422C24.0744 6.51523 23.4195 5.85938 22.6116 5.85938H19.686C18.8794 5.85938 18.2232 5.20225 18.2232 4.39453C18.2232 3.58682 18.8794 2.92969 19.686 2.92969H34.3142C35.1208 2.92969 35.777 3.58682 35.777 4.39453C35.777 5.20225 35.1208 5.85938 34.3142 5.85938H31.3886C30.5807 5.85938 29.9257 6.51523 29.9257 7.32422C29.9257 8.1332 30.5807 8.78906 31.3886 8.78906V16.3086C31.3886 16.5872 31.4678 16.86 31.6172 17.095L35.5945 23.3535C32.1904 22.6242 28.5689 23.2663 25.5486 25.2827L20.9777 28.3343C18.9501 29.6879 16.5538 30.261 14.1836 29.9978L22.3829 17.095ZM42.6717 47.0703H11.3284C7.86151 47.0703 5.76489 43.245 7.62599 40.3165L12.4789 32.68C13.4175 32.8871 14.3666 32.9913 15.3116 32.9913C17.8751 32.9913 20.406 32.2368 22.6002 30.772L27.1711 27.7204C30.5314 25.4771 34.8476 25.4193 38.258 27.5452L46.3739 40.3165C48.2355 43.2454 46.1381 47.0703 42.6717 47.0703Z" fill="#758FA4"/>
<path d="M18.2231 35.3516C15.8033 35.3516 13.8346 37.3229 13.8346 39.7461C13.8346 42.1692 15.8033 44.1406 18.2231 44.1406C20.6429 44.1406 22.6115 42.1692 22.6115 39.7461C22.6115 37.3229 20.643 35.3516 18.2231 35.3516ZM18.2231 41.2109C17.4165 41.2109 16.7602 40.5538 16.7602 39.7461C16.7602 38.9384 17.4165 38.2812 18.2231 38.2812C19.0297 38.2812 19.6859 38.9384 19.6859 39.7461C19.6859 40.5538 19.0298 41.2109 18.2231 41.2109Z" fill="#758FA4"/>
<path d="M32.8513 29.4922C30.4315 29.4922 28.4628 31.4636 28.4628 33.8867C28.4628 36.3099 30.4315 38.2812 32.8513 38.2812C35.2711 38.2812 37.2397 36.3099 37.2397 33.8867C37.2397 31.4636 35.2712 29.4922 32.8513 29.4922ZM32.8513 35.3516C32.0447 35.3516 31.3885 34.6944 31.3885 33.8867C31.3885 33.079 32.0447 32.4219 32.8513 32.4219C33.6579 32.4219 34.3141 33.079 34.3141 33.8867C34.3141 34.6944 33.658 35.3516 32.8513 35.3516Z" fill="#758FA4"/>
<path d="M27 41.2109C27.8079 41.2109 28.4628 40.5551 28.4628 39.7461C28.4628 38.9371 27.8079 38.2812 27 38.2812C26.1921 38.2812 25.5372 38.9371 25.5372 39.7461C25.5372 40.5551 26.1921 41.2109 27 41.2109Z" fill="#758FA4"/>
<path d="M38.7026 41.2109C39.5105 41.2109 40.1654 40.5551 40.1654 39.7461C40.1654 38.9371 39.5105 38.2812 38.7026 38.2812C37.8947 38.2812 37.2397 38.9371 37.2397 39.7461C37.2397 40.5551 37.8947 41.2109 38.7026 41.2109Z" fill="#758FA4"/>
<path d="M32.8513 44.1406C33.6592 44.1406 34.3141 43.4848 34.3141 42.6758C34.3141 41.8668 33.6592 41.2109 32.8513 41.2109C32.0434 41.2109 31.3885 41.8668 31.3885 42.6758C31.3885 43.4848 32.0434 44.1406 32.8513 44.1406Z" fill="#758FA4"/>
</svg>
