<svg width="45" height="48" viewBox="0 0 45 48" fill="none" xmlns="http://www.w3.org/2000/svg">
<circle cx="31" cy="41" r="7" fill="#797BB8"/>
<path d="M5.86834 8.66592C6.03527 8.81409 6.24334 8.88676 6.45069 8.88676C6.69355 8.88676 6.93528 8.78676 7.1094 8.59239C7.1125 8.58873 7.12053 8.58 7.12334 8.57648C7.441 8.20916 7.40283 7.65155 7.03572 7.3338C6.66848 7.01662 6.11557 7.05437 5.79791 7.42127C5.79692 7.42268 5.79255 7.42789 5.79143 7.42887C5.47095 7.79239 5.50603 8.34451 5.86834 8.66592Z" fill="#758FA4"/>
<path d="M44.3957 17.3152C44.2952 16.892 43.8995 16.6065 43.4656 16.6431L40.6266 16.8865L39.2877 13.6555L41.4669 11.8211C41.7997 11.541 41.8773 11.0589 41.6491 10.688C39.8241 7.72324 37.2875 5.18817 34.3139 3.35676C33.9428 3.12817 33.4609 3.20563 33.1806 3.53887L31.347 5.71592L28.1148 4.37676L28.3579 1.5407C28.3953 1.10676 28.1093 0.711268 27.6854 0.610423C25.985 0.206197 24.2405 0.000704216 22.4999 0C20.7596 0.000704216 19.0152 0.206197 17.3147 0.610423C16.8909 0.711268 16.605 1.10676 16.642 1.5407L16.8854 4.37676L13.6532 5.71592L11.8194 3.53887C11.539 3.20563 11.057 3.12803 10.6861 3.35676C9.91128 3.83394 9.1689 4.35183 8.47935 4.89563C8.0983 5.1962 8.03322 5.74859 8.33397 6.13C8.63473 6.51099 9.18693 6.57606 9.56869 6.27549C10.0137 5.92408 10.4836 5.58423 10.9712 5.26042L12.7226 7.33944C12.9691 7.63296 13.3772 7.73211 13.7315 7.58563L18.1527 5.75465C18.5064 5.60817 18.7246 5.24916 18.6919 4.86732L18.4596 2.15901C19.7917 1.89296 21.1474 1.75831 22.4999 1.75789C23.8521 1.75831 25.2085 1.89296 26.5402 2.15901L26.3077 4.86732C26.2752 5.24916 26.4933 5.60817 26.8473 5.75465L31.2684 7.58563C31.6223 7.73211 32.0303 7.63296 32.2771 7.33944L34.0279 5.26127C36.2839 6.76873 38.2398 8.72366 39.7435 10.9732L37.663 12.7251C37.3699 12.9718 37.2706 13.3801 37.4171 13.7339L39.248 18.1534C39.3947 18.5072 39.7535 18.7252 40.135 18.6928L42.8467 18.4604C43.3746 21.1145 43.3739 23.8793 42.8435 26.5408L40.1359 26.3085C39.7544 26.2762 39.3949 26.4938 39.2487 26.848L37.417 31.2682C37.2702 31.622 37.3699 32.0303 37.663 32.2768L39.7423 34.0272C38.2343 36.2838 36.2797 38.2394 34.0298 39.743L32.2769 37.6618C32.0298 37.3687 31.6219 37.269 31.2677 37.4162L26.8475 39.2465C26.4934 39.3934 26.2756 39.752 26.308 40.1338L26.5407 42.8437C25.213 43.1083 23.8606 43.2423 22.5082 43.2423C22.5055 43.2423 22.5026 43.2423 22.4992 43.2423C21.1446 43.2399 19.789 43.1092 18.4589 42.8437L18.6914 40.1338C18.7239 39.752 18.506 39.3934 18.1518 39.2465L13.7315 37.4162C13.3774 37.2696 12.9695 37.3687 12.7226 37.6618L10.9698 39.743C8.71953 38.2394 6.76497 36.2838 5.25697 34.0272L7.3362 32.2768C7.62963 32.0303 7.72894 31.622 7.58229 31.2682L5.75128 26.848C5.60463 26.4938 5.24612 26.2765 4.86395 26.3085L2.15602 26.5414C1.62635 23.8793 1.62522 21.1145 2.1532 18.4604L4.86465 18.693C5.24612 18.7252 5.60478 18.5072 5.7517 18.1537L7.58244 13.7339C7.72922 13.3801 7.62963 12.9723 7.33662 12.7254L5.25584 10.9732C5.33346 10.857 5.41221 10.7417 5.4918 10.6269C5.76945 10.2289 5.67169 9.68113 5.27345 9.40338C4.87493 9.12592 4.32723 9.22366 4.04958 9.62197C3.80672 9.97014 3.57147 10.3289 3.35031 10.6886C3.12238 11.0593 3.20056 11.541 3.53316 11.8211L5.71198 13.6555L4.37358 16.8865L1.53436 16.6431C1.10049 16.6056 0.705068 16.892 0.603924 17.3152C-0.20241 20.7021 -0.201283 24.2882 0.607164 27.6859C0.707604 28.1099 1.10387 28.3959 1.53732 28.3586L4.37344 28.1146L5.71198 31.3465L3.5347 33.1793C3.20169 33.4596 3.12393 33.9421 3.35228 34.3127C5.18372 37.2863 7.71922 39.8227 10.6842 41.6479C11.055 41.8759 11.5373 41.7987 11.8172 41.4655L13.6532 39.2861L16.8853 40.6245L16.6417 43.4624C16.6047 43.8959 16.8906 44.2916 17.3138 44.3927C19.009 44.7955 20.7503 45 22.4895 45H22.5095C24.2492 45 25.9906 44.7955 27.6857 44.3927C28.1095 44.2916 28.3953 43.8959 28.3581 43.4624L28.1148 40.6245L31.3469 39.2861L33.1824 41.4655C33.4625 41.798 33.9445 41.8759 34.3153 41.6479C37.2804 39.8227 39.8162 37.2863 41.6475 34.3127C41.8756 33.9421 41.7984 33.4596 41.465 33.1793L39.2877 31.3465L40.6266 28.1146L43.4625 28.3586C43.8965 28.3956 44.2921 28.1099 44.3931 27.6859C45.2015 24.2882 45.2022 20.7021 44.3957 17.3152Z" fill="#758FA4"/>
<path d="M22.5 10.1955C15.714 10.1955 10.1934 15.7155 10.1934 22.5C10.1934 29.2846 15.714 34.8048 22.5 34.8048C29.2857 34.8048 34.8068 29.2846 34.8068 22.5C34.8068 15.7155 29.2857 10.1955 22.5 10.1955ZM15.8151 30.6527C15.8636 28.2042 17.2392 25.9951 19.389 24.8659C20.2574 25.5156 21.3344 25.9007 22.5 25.9007C23.6653 25.9007 24.7427 25.5156 25.6109 24.8659C27.7607 25.9951 29.1367 28.2042 29.1848 30.6527C27.3636 32.1485 25.0347 33.047 22.5 33.047C19.9651 33.047 17.6364 32.1485 15.8151 30.6527ZM19.0555 19.7908C19.2956 19.831 19.5386 19.8501 19.7825 19.8501C21.1188 19.8501 22.4834 19.2951 23.4629 18.7192C24.1827 19.2894 25.0771 19.5972 25.9446 19.5892V20.699C25.9446 21.6585 25.5497 22.5273 24.9144 23.1521C24.8843 23.1772 24.8557 23.2049 24.8286 23.2339C24.2148 23.798 23.397 24.1428 22.5 24.1428C21.6027 24.1428 20.7852 23.798 20.1718 23.2339C20.1446 23.2049 20.1161 23.1775 20.0854 23.1521C19.4501 22.5273 19.0555 21.6585 19.0555 20.699V19.7908ZM19.0981 17.9972C19.358 16.3537 20.7845 15.0937 22.5 15.0937C24.1548 15.0937 25.54 16.2663 25.8695 17.8241C25.3217 17.8077 24.6813 17.5589 24.2395 17.0368C23.9438 16.687 23.4289 16.623 23.0563 16.8901C22.1167 17.5639 20.3346 18.361 19.0981 17.9972ZM30.7638 29.0473C30.284 26.7579 28.8711 24.7607 26.8499 23.5472C27.3885 22.7283 27.7026 21.75 27.7026 20.699V18.5473C27.7026 18.5451 27.7026 18.5427 27.7026 18.5401V18.5373C27.7026 15.6692 25.3687 13.3359 22.5 13.3359C19.6311 13.3359 17.2975 15.6692 17.2975 18.5373V20.699C17.2975 21.75 17.6117 22.7283 18.15 23.5476C16.1285 24.7607 14.716 26.7579 14.236 29.0473C12.8064 27.2472 11.9515 24.9717 11.9515 22.5004C11.9515 16.6851 16.6834 11.9535 22.5 11.9535C28.3168 11.9535 33.0487 16.6851 33.0487 22.5004C33.0487 24.9717 32.1937 27.2472 30.7638 29.0473Z" fill="#758FA4"/>
<path d="M35.518 30.0148C36.8354 27.733 37.5319 25.1346 37.5319 22.5C37.5319 14.2131 30.7885 7.47085 22.5 7.47085C14.2113 7.47085 7.46833 14.2131 7.46833 22.5C7.46833 30.7872 14.2113 37.5294 22.5 37.5294C25.5787 37.5294 28.5433 36.6013 31.0725 34.8458C31.471 34.5689 31.5702 34.0215 31.2934 33.6227C31.0161 33.2239 30.4683 33.1251 30.0699 33.4016C27.8366 34.952 25.2188 35.7715 22.5 35.7715C15.1808 35.7715 9.22638 29.8182 9.22638 22.5C9.22638 15.1821 15.1808 9.22859 22.5 9.22859C29.8193 9.22859 35.7739 15.1821 35.7739 22.5C35.7739 24.8266 35.1588 27.1211 33.9954 29.1359C33.7525 29.5562 33.8966 30.0938 34.3171 30.3363C34.7373 30.579 35.2752 30.4352 35.518 30.0148Z" fill="#758FA4"/>
<path d="M32.6494 32.4048C32.8149 32.5472 33.0183 32.6162 33.2207 32.6162C33.4684 32.6162 33.7149 32.512 33.8885 32.3092L33.9055 32.2894C34.2222 31.922 34.1808 31.367 33.813 31.0501C33.4454 30.7332 32.8905 30.7745 32.5732 31.1427L32.5532 31.1659C32.2375 31.5346 32.2806 32.0894 32.6494 32.4048Z" fill="#758FA4"/>
</svg>
