<svg width="46" height="45" xmlns="http://www.w3.org/2000/svg" xmlns:xlink="http://www.w3.org/1999/xlink" overflow="hidden"><defs><clipPath id="clip0"><path d="M51 73 97 73 97 118 51 118Z" fill-rule="evenodd" clip-rule="evenodd"/></clipPath><clipPath id="clip1"><path d="M58 73 96 73 96 112 58 112Z" fill-rule="evenodd" clip-rule="evenodd"/></clipPath><clipPath id="clip2"><path d="M58 73 96 73 96 112 58 112Z" fill-rule="evenodd" clip-rule="evenodd"/></clipPath><clipPath id="clip3"><path d="M58 73 96 73 96 112 58 112Z" fill-rule="evenodd" clip-rule="evenodd"/></clipPath></defs><g clip-path="url(#clip0)" transform="translate(-51 -73)"><path d="M65 110C65 113.866 61.866 117 58 117 54.134 117 51 113.866 51 110 51 106.134 54.134 103 58 103 61.866 103 65 106.134 65 110Z" fill="#FD8593" fill-rule="evenodd"/><g clip-path="url(#clip1)"><g clip-path="url(#clip2)"><g clip-path="url(#clip3)"><path d="M36.8867 35.7734 24.3452 35.7734 24.3452 35.5504C24.3452 34.9355 23.8468 34.4371 23.2319 34.4371 22.6169 34.4371 22.1186 34.9355 22.1186 35.5504L22.1186 35.7734 7.62826 35.7734C8.77576 35.0408 9.92496 34.1388 11.0446 33.0829 11.4323 33.2404 11.8558 33.3276 12.2994 33.3276 14.1435 33.3276 15.6439 31.8296 15.6439 29.9878 15.6439 29.3618 15.4702 28.7757 15.1687 28.2744 16.9358 25.7637 18.4584 22.9223 19.6998 19.8129 20.4866 17.8418 21.3657 16.0156 22.3201 14.3677 22.5216 14.655 22.8544 14.8434 23.2319 14.8434 23.7549 14.8434 24.1924 14.4822 24.3118 13.996 25.6275 13.5466 26.5761 12.3003 26.5761 10.8359 26.5761 10.2253 26.4105 9.6528 26.1226 9.15962 27.2177 7.99008 28.3724 7.00235 29.5709 6.20827 30.1835 6.88551 31.0692 7.31198 32.0529 7.31198 33.897 7.31198 35.3974 5.81369 35.3974 3.97214 35.3974 3.96779 35.3971 3.96344 35.3971 3.9591 35.8937 3.89619 36.3921 3.86343 36.8867 3.86343 37.5015 3.86343 37.9999 3.36477 37.9999 2.75015 37.9999 2.13523 37.5015 1.63687 36.8867 1.63687 36.1297 1.63687 35.3669 1.69949 34.6102 1.82271 33.9962 1.09559 33.078 0.632308 32.0529 0.632308 30.2087 0.632308 28.7084 2.13059 28.7084 3.97214 28.7084 4.01911 28.7101 4.06608 28.7118 4.11276 27.2075 5.05904 25.7706 6.26712 24.4252 7.71643 24.0541 7.57468 23.6523 7.49608 23.2319 7.49608 21.6956 7.49608 20.3988 8.53603 20.0083 9.94819 19.8262 9.81831 19.6042 9.74119 19.3635 9.74119L18.0276 9.74119C17.4127 9.74119 16.9143 10.2396 16.9143 10.8545 16.9143 11.4694 17.4127 11.9678 18.0276 11.9678L19.3635 11.9678C19.6079 11.9678 19.8331 11.888 20.017 11.7544 20.1376 12.1744 20.3382 12.5606 20.602 12.8955 19.5125 14.7298 18.5152 16.7746 17.6318 18.9875 16.4785 21.8768 15.0728 24.5168 13.4477 26.8506 13.0894 26.7196 12.7027 26.648 12.2994 26.648 10.4552 26.648 8.95492 28.1462 8.95492 29.9878 8.95492 30.5717 9.10625 31.1205 9.37099 31.5986 6.95915 33.8329 4.40296 35.2846 2.22656 35.6696L2.22656 11.9437C2.73073 11.8376 3.10935 11.3903 3.10935 10.8545 3.10935 10.3187 2.73073 9.87137 2.22656 9.76524L2.22656 1.11328C2.22656 0.498366 1.7282-2.10942e-15 1.11328-2.10942e-15 0.498366-2.10942e-15 4.21884e-15 0.498366 4.21884e-15 1.11328L4.21884e-15 36.8867C4.21884e-15 37.5015 0.498366 37.9999 1.11328 37.9999L36.8867 37.9999C37.5015 37.9999 37.9999 37.5015 37.9999 36.8867 37.9999 36.2717 37.5015 35.7734 36.8867 35.7734ZM32.0529 2.85886C32.6693 2.85886 33.1708 3.35839 33.1708 3.97214 33.1708 4.58619 32.6693 5.08542 32.0529 5.08542 31.4365 5.08542 30.935 4.58619 30.935 3.97214 30.935 3.35839 31.4365 2.85886 32.0529 2.85886ZM23.2319 9.72264C23.8482 9.72264 24.3498 10.2221 24.3498 10.8359 24.3498 11.4499 23.8482 11.9492 23.2319 11.9492 22.6155 11.9492 22.114 11.4499 22.114 10.8359 22.114 10.2221 22.6155 9.72264 23.2319 9.72264ZM12.2994 28.8745C12.9157 28.8745 13.4173 29.374 13.4173 29.9878 13.4173 30.6018 12.9157 31.1011 12.2994 31.1011 11.683 31.1011 11.1815 30.6018 11.1815 29.9878 11.1815 29.374 11.683 28.8745 12.2994 28.8745Z" fill="#758FA4" transform="matrix(1 0 -0 1.02632 58 73)"/><path d="M12.2383 11.9678 13.5742 11.9678C14.1891 11.9678 14.6875 11.4694 14.6875 10.8545 14.6875 10.2396 14.1891 9.74119 13.5742 9.74119L12.2383 9.74119C11.6236 9.74119 11.125 10.2396 11.125 10.8545 11.125 11.4694 11.6236 11.9678 12.2383 11.9678Z" fill="#758FA4" transform="matrix(1 0 -0 1.02632 58 73)"/><path d="M6.44919 11.9678 7.78516 11.9678C8.40006 11.9678 8.89844 11.4694 8.89844 10.8545 8.89844 10.2396 8.40006 9.74119 7.78516 9.74119L6.44919 9.74119C5.83457 9.74119 5.33591 10.2396 5.33591 10.8545 5.33591 11.4694 5.83457 11.9678 6.44919 11.9678Z" fill="#758FA4" transform="matrix(1 0 -0 1.02632 58 73)"/><path d="M23.2319 28.6481C22.6169 28.6481 22.1186 29.1465 22.1186 29.7614L22.1186 31.0973C22.1186 31.7122 22.6169 32.2106 23.2319 32.2106 23.8468 32.2106 24.3452 31.7122 24.3452 31.0973L24.3452 29.7614C24.3452 29.1465 23.8468 28.6481 23.2319 28.6481Z" fill="#758FA4" transform="matrix(1 0 -0 1.02632 58 73)"/><path d="M24.3452 23.9723C24.3452 23.3574 23.8468 22.859 23.2319 22.859 22.6169 22.859 22.1186 23.3574 22.1186 23.9723L22.1186 25.3082C22.1186 25.9232 22.6169 26.4215 23.2319 26.4215 23.8468 26.4215 24.3452 25.9232 24.3452 25.3082Z" fill="#758FA4" transform="matrix(1 0 -0 1.02632 58 73)"/><path d="M24.3452 18.1833C24.3452 17.5684 23.8468 17.07 23.2319 17.07 22.6169 17.07 22.1186 17.5684 22.1186 18.1833L22.1186 19.5192C22.1186 20.1341 22.6169 20.6325 23.2319 20.6325 23.8468 20.6325 24.3452 20.1341 24.3452 19.5192Z" fill="#758FA4" transform="matrix(1 0 -0 1.02632 58 73)"/></g></g></g></g></svg>