<svg width="76" height="64" viewBox="0 0 76 64" fill="none" xmlns="http://www.w3.org/2000/svg">
<path fill-rule="evenodd" clip-rule="evenodd" d="M43.7291 4.66423C45.0171 4.66423 46.0612 3.62011 46.0612 2.33212C46.0612 1.04412 45.0171 0 43.7291 0C42.4411 0 41.397 1.04412 41.397 2.33212C41.397 3.62011 42.4411 4.66423 43.7291 4.66423ZM3.30575 4.66436C4.59375 4.66436 5.63787 3.62023 5.63787 2.33224C5.63787 1.04425 4.59375 0.000122961 3.30575 0.000122961C2.01776 0.000122961 0.973636 1.04425 0.973636 2.33224C0.973636 3.62023 2.01776 4.66436 3.30575 4.66436ZM25.8496 2.33212C25.8496 3.62011 24.8054 4.66423 23.5174 4.66423C22.2294 4.66423 21.1853 3.62011 21.1853 2.33212C21.1853 1.04412 22.2294 0 23.5174 0C24.8054 0 25.8496 1.04412 25.8496 2.33212ZM63.9408 4.66423C65.2288 4.66423 66.2729 3.62011 66.2729 2.33212C66.2729 1.04412 65.2288 0 63.9408 0C62.6528 0 61.6087 1.04412 61.6087 2.33212C61.6087 3.62011 62.6528 4.66423 63.9408 4.66423ZM14.9663 2.33212C14.9663 3.62011 13.9222 4.66423 12.6342 4.66423C11.3462 4.66423 10.3021 3.62011 10.3021 2.33212C10.3021 1.04412 11.3462 0 12.6342 0C13.9222 0 14.9663 1.04412 14.9663 2.33212ZM53.0576 4.66423C54.3456 4.66423 55.3897 3.62011 55.3897 2.33212C55.3897 1.04412 54.3456 0 53.0576 0C51.7696 0 50.7255 1.04412 50.7255 2.33212C50.7255 3.62011 51.7696 4.66423 53.0576 4.66423ZM35.178 2.33212C35.178 3.62011 34.1339 4.66423 32.8459 4.66423C31.5579 4.66423 30.5138 3.62011 30.5138 2.33212C30.5138 1.04412 31.5579 0 32.8459 0C34.1339 0 35.178 1.04412 35.178 2.33212ZM73.2693 4.66423C74.5573 4.66423 75.6014 3.62011 75.6014 2.33212C75.6014 1.04412 74.5573 0 73.2693 0C71.9813 0 70.9371 1.04412 70.9371 2.33212C70.9371 3.62011 71.9813 4.66423 73.2693 4.66423ZM43.7291 12.4379C45.0171 12.4379 46.0612 11.3938 46.0612 10.1058C46.0612 8.81783 45.0171 7.7737 43.7291 7.7737C42.4411 7.7737 41.397 8.81783 41.397 10.1058C41.397 11.3938 42.4411 12.4379 43.7291 12.4379ZM3.30575 12.438C4.59374 12.438 5.63787 11.3939 5.63787 10.1059C5.63787 8.81792 4.59374 7.77379 3.30575 7.77379C2.01776 7.77379 0.973633 8.81792 0.973633 10.1059C0.973633 11.3939 2.01776 12.438 3.30575 12.438ZM25.8495 10.1058C25.8495 11.3938 24.8054 12.4379 23.5174 12.4379C22.2294 12.4379 21.1853 11.3938 21.1853 10.1058C21.1853 8.81783 22.2294 7.7737 23.5174 7.7737C24.8054 7.7737 25.8495 8.81783 25.8495 10.1058ZM63.9408 12.4379C65.2288 12.4379 66.2729 11.3938 66.2729 10.1058C66.2729 8.81783 65.2288 7.7737 63.9408 7.7737C62.6528 7.7737 61.6087 8.81783 61.6087 10.1058C61.6087 11.3938 62.6528 12.4379 63.9408 12.4379ZM14.9663 10.1058C14.9663 11.3938 13.9222 12.4379 12.6342 12.4379C11.3462 12.4379 10.3021 11.3938 10.3021 10.1058C10.3021 8.81783 11.3462 7.7737 12.6342 7.7737C13.9222 7.7737 14.9663 8.81783 14.9663 10.1058ZM53.0576 12.4379C54.3456 12.4379 55.3897 11.3938 55.3897 10.1058C55.3897 8.81783 54.3456 7.7737 53.0576 7.7737C51.7696 7.7737 50.7255 8.81783 50.7255 10.1058C50.7255 11.3938 51.7696 12.4379 53.0576 12.4379ZM35.178 10.1058C35.178 11.3938 34.1339 12.4379 32.8459 12.4379C31.5579 12.4379 30.5138 11.3938 30.5138 10.1058C30.5138 8.81783 31.5579 7.7737 32.8459 7.7737C34.1339 7.7737 35.178 8.81783 35.178 10.1058ZM73.2693 12.4379C74.5573 12.4379 75.6014 11.3938 75.6014 10.1058C75.6014 8.81783 74.5573 7.7737 73.2693 7.7737C71.9813 7.7737 70.9371 8.81783 70.9371 10.1058C70.9371 11.3938 71.9813 12.4379 73.2693 12.4379ZM3.30575 21.7664C4.59374 21.7664 5.63787 20.7223 5.63787 19.4343C5.63787 18.1463 4.59374 17.1022 3.30575 17.1022C2.01776 17.1022 0.973633 18.1463 0.973633 19.4343C0.973633 20.7223 2.01776 21.7664 3.30575 21.7664ZM43.7291 21.7664C45.0171 21.7664 46.0612 20.7223 46.0612 19.4343C46.0612 18.1463 45.0171 17.1022 43.7291 17.1022C42.4411 17.1022 41.397 18.1463 41.397 19.4343C41.397 20.7223 42.4411 21.7664 43.7291 21.7664ZM25.8495 19.4343C25.8495 20.7223 24.8054 21.7664 23.5174 21.7664C22.2294 21.7664 21.1853 20.7223 21.1853 19.4343C21.1853 18.1463 22.2294 17.1022 23.5174 17.1022C24.8054 17.1022 25.8495 18.1463 25.8495 19.4343ZM63.9408 21.7664C65.2288 21.7664 66.2729 20.7223 66.2729 19.4343C66.2729 18.1463 65.2288 17.1022 63.9408 17.1022C62.6528 17.1022 61.6087 18.1463 61.6087 19.4343C61.6087 20.7223 62.6528 21.7664 63.9408 21.7664ZM14.9663 19.4343C14.9663 20.7223 13.9222 21.7664 12.6342 21.7664C11.3462 21.7664 10.3021 20.7223 10.3021 19.4343C10.3021 18.1463 11.3462 17.1022 12.6342 17.1022C13.9222 17.1022 14.9663 18.1463 14.9663 19.4343ZM53.0576 21.7664C54.3456 21.7664 55.3897 20.7223 55.3897 19.4343C55.3897 18.1463 54.3456 17.1022 53.0576 17.1022C51.7696 17.1022 50.7255 18.1463 50.7255 19.4343C50.7255 20.7223 51.7696 21.7664 53.0576 21.7664ZM35.178 19.4343C35.178 20.7223 34.1339 21.7664 32.8459 21.7664C31.5579 21.7664 30.5138 20.7223 30.5138 19.4343C30.5138 18.1463 31.5579 17.1022 32.8459 17.1022C34.1339 17.1022 35.178 18.1463 35.178 19.4343ZM73.2693 21.7664C74.5573 21.7664 75.6014 20.7223 75.6014 19.4343C75.6014 18.1463 74.5573 17.1022 73.2693 17.1022C71.9813 17.1022 70.9371 18.1463 70.9371 19.4343C70.9371 20.7223 71.9813 21.7664 73.2693 21.7664ZM43.7291 29.5402C45.0171 29.5402 46.0612 28.496 46.0612 27.208C46.0612 25.92 45.0171 24.8759 43.7291 24.8759C42.4411 24.8759 41.397 25.92 41.397 27.208C41.397 28.496 42.4411 29.5402 43.7291 29.5402ZM3.30575 29.5402C4.59374 29.5402 5.63787 28.4961 5.63787 27.2081C5.63787 25.9201 4.59374 24.876 3.30575 24.876C2.01776 24.876 0.973633 25.9201 0.973633 27.2081C0.973633 28.4961 2.01776 29.5402 3.30575 29.5402ZM25.8495 27.208C25.8495 28.496 24.8054 29.5402 23.5174 29.5402C22.2294 29.5402 21.1853 28.496 21.1853 27.208C21.1853 25.92 22.2294 24.8759 23.5174 24.8759C24.8054 24.8759 25.8495 25.92 25.8495 27.208ZM63.9408 29.5402C65.2288 29.5402 66.2729 28.496 66.2729 27.208C66.2729 25.92 65.2288 24.8759 63.9408 24.8759C62.6528 24.8759 61.6087 25.92 61.6087 27.208C61.6087 28.496 62.6528 29.5402 63.9408 29.5402ZM14.9663 27.208C14.9663 28.496 13.9222 29.5402 12.6342 29.5402C11.3462 29.5402 10.3021 28.496 10.3021 27.208C10.3021 25.92 11.3462 24.8759 12.6342 24.8759C13.9222 24.8759 14.9663 25.92 14.9663 27.208ZM53.0576 29.5402C54.3456 29.5402 55.3897 28.496 55.3897 27.208C55.3897 25.92 54.3456 24.8759 53.0576 24.8759C51.7696 24.8759 50.7255 25.92 50.7255 27.208C50.7255 28.496 51.7696 29.5402 53.0576 29.5402ZM35.178 27.208C35.178 28.496 34.1339 29.5402 32.8459 29.5402C31.5579 29.5402 30.5138 28.496 30.5138 27.208C30.5138 25.92 31.5579 24.8759 32.8459 24.8759C34.1339 24.8759 35.178 25.92 35.178 27.208ZM73.2693 29.5402C74.5573 29.5402 75.6014 28.496 75.6014 27.208C75.6014 25.92 74.5573 24.8759 73.2693 24.8759C71.9813 24.8759 70.9371 25.92 70.9371 27.208C70.9371 28.496 71.9813 29.5402 73.2693 29.5402ZM5.63787 36.5365C5.63787 37.8245 4.59374 38.8686 3.30575 38.8686C2.01776 38.8686 0.973633 37.8245 0.973633 36.5365C0.973633 35.2485 2.01776 34.2044 3.30575 34.2044C4.59374 34.2044 5.63787 35.2485 5.63787 36.5365ZM46.0612 36.5365C46.0612 37.8245 45.0171 38.8686 43.7291 38.8686C42.4411 38.8686 41.397 37.8245 41.397 36.5365C41.397 35.2485 42.4411 34.2044 43.7291 34.2044C45.0171 34.2044 46.0612 35.2485 46.0612 36.5365ZM23.5174 38.8686C24.8054 38.8686 25.8495 37.8245 25.8495 36.5365C25.8495 35.2485 24.8054 34.2044 23.5174 34.2044C22.2294 34.2044 21.1853 35.2485 21.1853 36.5365C21.1853 37.8245 22.2294 38.8686 23.5174 38.8686ZM66.2729 36.5365C66.2729 37.8245 65.2288 38.8686 63.9408 38.8686C62.6528 38.8686 61.6087 37.8245 61.6087 36.5365C61.6087 35.2485 62.6528 34.2044 63.9408 34.2044C65.2288 34.2044 66.2729 35.2485 66.2729 36.5365ZM12.6342 38.8686C13.9222 38.8686 14.9663 37.8245 14.9663 36.5365C14.9663 35.2485 13.9222 34.2044 12.6342 34.2044C11.3462 34.2044 10.3021 35.2485 10.3021 36.5365C10.3021 37.8245 11.3462 38.8686 12.6342 38.8686ZM55.3897 36.5365C55.3897 37.8245 54.3456 38.8686 53.0576 38.8686C51.7696 38.8686 50.7255 37.8245 50.7255 36.5365C50.7255 35.2485 51.7696 34.2044 53.0576 34.2044C54.3456 34.2044 55.3897 35.2485 55.3897 36.5365ZM32.8459 38.8686C34.1339 38.8686 35.178 37.8245 35.178 36.5365C35.178 35.2485 34.1339 34.2044 32.8459 34.2044C31.5579 34.2044 30.5138 35.2485 30.5138 36.5365C30.5138 37.8245 31.5579 38.8686 32.8459 38.8686ZM75.6014 36.5365C75.6014 37.8245 74.5573 38.8686 73.2693 38.8686C71.9813 38.8686 70.9371 37.8245 70.9371 36.5365C70.9371 35.2485 71.9813 34.2044 73.2693 34.2044C74.5573 34.2044 75.6014 35.2485 75.6014 36.5365ZM5.63787 44.3102C5.63787 45.5982 4.59374 46.6423 3.30575 46.6423C2.01776 46.6423 0.973633 45.5982 0.973633 44.3102C0.973633 43.0222 2.01776 41.9781 3.30575 41.9781C4.59374 41.9781 5.63787 43.0222 5.63787 44.3102ZM46.0612 44.3103C46.0612 45.5983 45.0171 46.6424 43.7291 46.6424C42.4411 46.6424 41.397 45.5983 41.397 44.3103C41.397 43.0223 42.4411 41.9782 43.7291 41.9782C45.0171 41.9782 46.0612 43.0223 46.0612 44.3103ZM23.5174 46.6424C24.8054 46.6424 25.8495 45.5983 25.8495 44.3103C25.8495 43.0223 24.8054 41.9782 23.5174 41.9782C22.2294 41.9782 21.1853 43.0223 21.1853 44.3103C21.1853 45.5983 22.2294 46.6424 23.5174 46.6424ZM66.2729 44.3103C66.2729 45.5983 65.2288 46.6424 63.9408 46.6424C62.6528 46.6424 61.6087 45.5983 61.6087 44.3103C61.6087 43.0223 62.6528 41.9782 63.9408 41.9782C65.2288 41.9782 66.2729 43.0223 66.2729 44.3103ZM12.6342 46.6424C13.9222 46.6424 14.9663 45.5983 14.9663 44.3103C14.9663 43.0223 13.9222 41.9782 12.6342 41.9782C11.3462 41.9782 10.3021 43.0223 10.3021 44.3103C10.3021 45.5983 11.3462 46.6424 12.6342 46.6424ZM55.3897 44.3103C55.3897 45.5983 54.3456 46.6424 53.0576 46.6424C51.7696 46.6424 50.7255 45.5983 50.7255 44.3103C50.7255 43.0223 51.7696 41.9782 53.0576 41.9782C54.3456 41.9782 55.3897 43.0223 55.3897 44.3103ZM32.8459 46.6424C34.1339 46.6424 35.178 45.5983 35.178 44.3103C35.178 43.0223 34.1339 41.9782 32.8459 41.9782C31.5579 41.9782 30.5138 43.0223 30.5138 44.3103C30.5138 45.5983 31.5579 46.6424 32.8459 46.6424ZM75.6014 44.3103C75.6014 45.5983 74.5573 46.6424 73.2693 46.6424C71.9813 46.6424 70.9371 45.5983 70.9371 44.3103C70.9371 43.0223 71.9813 41.9782 73.2693 41.9782C74.5573 41.9782 75.6014 43.0223 75.6014 44.3103ZM43.7291 55.9708C45.0171 55.9708 46.0612 54.9267 46.0612 53.6387C46.0612 52.3507 45.0171 51.3066 43.7291 51.3066C42.4411 51.3066 41.397 52.3507 41.397 53.6387C41.397 54.9267 42.4411 55.9708 43.7291 55.9708ZM3.30575 55.9709C4.59374 55.9709 5.63787 54.9268 5.63787 53.6388C5.63787 52.3508 4.59374 51.3067 3.30575 51.3067C2.01776 51.3067 0.973633 52.3508 0.973633 53.6388C0.973633 54.9268 2.01776 55.9709 3.30575 55.9709ZM25.8495 53.6387C25.8495 54.9267 24.8054 55.9708 23.5174 55.9708C22.2294 55.9708 21.1853 54.9267 21.1853 53.6387C21.1853 52.3507 22.2294 51.3066 23.5174 51.3066C24.8054 51.3066 25.8495 52.3507 25.8495 53.6387ZM63.9408 55.9708C65.2288 55.9708 66.2729 54.9267 66.2729 53.6387C66.2729 52.3507 65.2288 51.3066 63.9408 51.3066C62.6528 51.3066 61.6087 52.3507 61.6087 53.6387C61.6087 54.9267 62.6528 55.9708 63.9408 55.9708ZM14.9663 53.6387C14.9663 54.9267 13.9222 55.9708 12.6342 55.9708C11.3462 55.9708 10.3021 54.9267 10.3021 53.6387C10.3021 52.3507 11.3462 51.3066 12.6342 51.3066C13.9222 51.3066 14.9663 52.3507 14.9663 53.6387ZM53.0576 55.9708C54.3456 55.9708 55.3897 54.9267 55.3897 53.6387C55.3897 52.3507 54.3456 51.3066 53.0576 51.3066C51.7696 51.3066 50.7255 52.3507 50.7255 53.6387C50.7255 54.9267 51.7696 55.9708 53.0576 55.9708ZM35.178 53.6387C35.178 54.9267 34.1339 55.9708 32.8459 55.9708C31.5579 55.9708 30.5138 54.9267 30.5138 53.6387C30.5138 52.3507 31.5579 51.3066 32.8459 51.3066C34.1339 51.3066 35.178 52.3507 35.178 53.6387ZM73.2693 55.9708C74.5573 55.9708 75.6014 54.9267 75.6014 53.6387C75.6014 52.3507 74.5573 51.3066 73.2693 51.3066C71.9813 51.3066 70.9371 52.3507 70.9371 53.6387C70.9371 54.9267 71.9813 55.9708 73.2693 55.9708ZM43.7291 63.7444C45.0171 63.7444 46.0612 62.7003 46.0612 61.4123C46.0612 60.1243 45.0171 59.0802 43.7291 59.0802C42.4411 59.0802 41.397 60.1243 41.397 61.4123C41.397 62.7003 42.4411 63.7444 43.7291 63.7444ZM3.30575 63.7445C4.59374 63.7445 5.63787 62.7004 5.63787 61.4124C5.63787 60.1244 4.59374 59.0802 3.30575 59.0802C2.01776 59.0802 0.973633 60.1244 0.973633 61.4124C0.973633 62.7004 2.01776 63.7445 3.30575 63.7445ZM25.8495 61.4123C25.8495 62.7003 24.8054 63.7444 23.5174 63.7444C22.2294 63.7444 21.1853 62.7003 21.1853 61.4123C21.1853 60.1243 22.2294 59.0802 23.5174 59.0802C24.8054 59.0802 25.8495 60.1243 25.8495 61.4123ZM63.9408 63.7444C65.2288 63.7444 66.2729 62.7003 66.2729 61.4123C66.2729 60.1243 65.2288 59.0802 63.9408 59.0802C62.6528 59.0802 61.6087 60.1243 61.6087 61.4123C61.6087 62.7003 62.6528 63.7444 63.9408 63.7444ZM14.9663 61.4123C14.9663 62.7003 13.9222 63.7444 12.6342 63.7444C11.3462 63.7444 10.3021 62.7003 10.3021 61.4123C10.3021 60.1243 11.3462 59.0802 12.6342 59.0802C13.9222 59.0802 14.9663 60.1243 14.9663 61.4123ZM53.0576 63.7444C54.3456 63.7444 55.3897 62.7003 55.3897 61.4123C55.3897 60.1243 54.3456 59.0802 53.0576 59.0802C51.7696 59.0802 50.7255 60.1243 50.7255 61.4123C50.7255 62.7003 51.7696 63.7444 53.0576 63.7444ZM35.178 61.4123C35.178 62.7003 34.1339 63.7444 32.8459 63.7444C31.5579 63.7444 30.5138 62.7003 30.5138 61.4123C30.5138 60.1243 31.5579 59.0802 32.8459 59.0802C34.1339 59.0802 35.178 60.1243 35.178 61.4123ZM73.2693 63.7444C74.5573 63.7444 75.6014 62.7003 75.6014 61.4123C75.6014 60.1243 74.5573 59.0802 73.2693 59.0802C71.9813 59.0802 70.9371 60.1243 70.9371 61.4123C70.9371 62.7003 71.9813 63.7444 73.2693 63.7444Z" fill="#FF5842"/>
</svg>
