<svg width="124" height="82" viewBox="0 0 124 82" fill="none" xmlns="http://www.w3.org/2000/svg">
<path d="M5.17463 53.4928C4.47567 41.6837 8.00955 40.2407 15.7763 49.1638C23.543 58.0868 27.0769 56.6438 26.3779 44.8347C25.679 33.0257 29.2128 31.5826 36.9796 40.5057C44.7463 49.4287 48.2802 47.9857 47.5812 36.1766C46.8822 24.3676 50.4161 22.9246 58.1828 31.8476C65.9496 40.7706 69.4834 39.3276 68.7845 27.5185C68.0855 15.7095 71.6194 14.2665 79.3861 23.1895C87.1528 32.1125 90.6867 30.6695 89.9878 18.8605C89.2888 7.0514 92.8227 5.60838 100.589 14.5314C108.356 23.4545 111.89 22.0114 111.191 10.2024" stroke="#4C75F2" stroke-width="3"/>
<path d="M12.8089 71.8151C12.1099 60.006 15.6438 58.563 23.4105 67.486C31.1773 76.4091 34.7112 74.966 34.0122 63.157C33.3132 51.3479 36.8471 49.9049 44.6138 58.8279C52.3806 67.751 55.9144 66.308 55.2155 54.4989C54.5165 42.6898 58.0504 41.2468 65.8171 50.1699C73.5838 59.0929 77.1177 57.6499 76.4188 45.8408C75.7198 34.0317 79.2537 32.5887 87.0204 41.5118C94.7871 50.4348 98.321 48.9918 97.622 37.1827C96.9231 25.3737 100.457 23.9306 108.224 32.8537C115.99 41.7767 119.524 40.3337 118.825 28.5246" stroke="#4C75F2" stroke-opacity="0.4" stroke-width="3"/>
</svg>
