<svg width="96" height="39" viewBox="0 0 96 39" fill="none" xmlns="http://www.w3.org/2000/svg">
<path fill-rule="evenodd" clip-rule="evenodd" d="M24.8948 3.65771C24.8948 5.53271 23.3749 7.05273 21.5001 7.05273C19.6252 7.05273 18.1053 5.53271 18.1053 3.65771C18.1053 1.7832 19.6252 0.263184 21.5001 0.263184C23.3749 0.263184 24.8948 1.7832 24.8948 3.65771ZM6.78949 3.6582C6.78949 5.53271 5.26959 7.05273 3.39474 7.05273C1.51987 7.05273 0 5.53271 0 3.6582C0 1.7832 1.51987 0.263184 3.39474 0.263184C5.26959 0.263184 6.78949 1.7832 6.78949 3.6582ZM39.6053 7.05273C41.4802 7.05273 43 5.53271 43 3.65771C43 1.7832 41.4802 0.263184 39.6053 0.263184C37.7304 0.263184 36.2106 1.7832 36.2106 3.65771C36.2106 5.53271 37.7304 7.05273 39.6053 7.05273ZM21.5001 22.895C23.3749 22.895 24.8948 21.375 24.8948 19.5C24.8948 17.6255 23.3749 16.1055 21.5001 16.1055C19.6252 16.1055 18.1053 17.6255 18.1053 19.5C18.1053 21.375 19.6252 22.895 21.5001 22.895ZM3.39474 22.895C5.26959 22.895 6.78949 21.375 6.78949 19.5C6.78949 17.6255 5.26959 16.1055 3.39474 16.1055C1.51987 16.1055 0 17.6255 0 19.5C0 21.375 1.51987 22.895 3.39474 22.895ZM43 19.5C43 21.375 41.4802 22.895 39.6053 22.895C37.7304 22.895 36.2106 21.375 36.2106 19.5C36.2106 17.6255 37.7304 16.1055 39.6053 16.1055C41.4802 16.1055 43 17.6255 43 19.5ZM21.5001 38.7368C23.3749 38.7368 24.8948 37.2168 24.8948 35.3418C24.8948 33.4673 23.3749 31.9473 21.5001 31.9473C19.6252 31.9473 18.1053 33.4673 18.1053 35.3418C18.1053 37.2168 19.6252 38.7368 21.5001 38.7368ZM3.39474 38.7368C5.26959 38.7368 6.78949 37.2168 6.78949 35.3423C6.78949 33.4673 5.26959 31.9473 3.39474 31.9473C1.51987 31.9473 0 33.4673 0 35.3423C0 37.2168 1.51987 38.7368 3.39474 38.7368ZM43 35.3418C43 37.2168 41.4802 38.7368 39.6053 38.7368C37.7304 38.7368 36.2106 37.2168 36.2106 35.3418C36.2106 33.4673 37.7304 31.9473 39.6053 31.9473C41.4802 31.9473 43 33.4673 43 35.3418ZM77.8948 3.65771C77.8948 5.53271 76.3749 7.05273 74.5001 7.05273C72.6252 7.05273 71.1053 5.53271 71.1053 3.65771C71.1053 1.7832 72.6252 0.263184 74.5001 0.263184C76.3749 0.263184 77.8948 1.7832 77.8948 3.65771ZM59.7895 3.6582C59.7895 5.53271 58.2696 7.05273 56.3947 7.05273C54.5199 7.05273 53 5.53271 53 3.6582C53 1.7832 54.5199 0.263184 56.3947 0.263184C58.2696 0.263184 59.7895 1.7832 59.7895 3.6582ZM92.6053 7.05273C94.4802 7.05273 96 5.53271 96 3.65771C96 1.7832 94.4802 0.263184 92.6053 0.263184C90.7304 0.263184 89.2106 1.7832 89.2106 3.65771C89.2106 5.53271 90.7304 7.05273 92.6053 7.05273ZM74.5001 22.895C76.3749 22.895 77.8948 21.375 77.8948 19.5C77.8948 17.6255 76.3749 16.1055 74.5001 16.1055C72.6252 16.1055 71.1053 17.6255 71.1053 19.5C71.1053 21.375 72.6252 22.895 74.5001 22.895ZM56.3947 22.895C58.2696 22.895 59.7895 21.375 59.7895 19.5C59.7895 17.6255 58.2696 16.1055 56.3947 16.1055C54.5199 16.1055 53 17.6255 53 19.5C53 21.375 54.5199 22.895 56.3947 22.895ZM96 19.5C96 21.375 94.4802 22.895 92.6053 22.895C90.7304 22.895 89.2106 21.375 89.2106 19.5C89.2106 17.6255 90.7304 16.1055 92.6053 16.1055C94.4802 16.1055 96 17.6255 96 19.5ZM74.5001 38.7368C76.3749 38.7368 77.8948 37.2168 77.8948 35.3418C77.8948 33.4673 76.3749 31.9473 74.5001 31.9473C72.6252 31.9473 71.1053 33.4673 71.1053 35.3418C71.1053 37.2168 72.6252 38.7368 74.5001 38.7368ZM56.3947 38.7368C58.2696 38.7368 59.7895 37.2168 59.7895 35.3423C59.7895 33.4673 58.2696 31.9473 56.3947 31.9473C54.5199 31.9473 53 33.4673 53 35.3423C53 37.2168 54.5199 38.7368 56.3947 38.7368ZM96 35.3418C96 37.2168 94.4802 38.7368 92.6053 38.7368C90.7304 38.7368 89.2106 37.2168 89.2106 35.3418C89.2106 33.4673 90.7304 31.9473 92.6053 31.9473C94.4802 31.9473 96 33.4673 96 35.3418Z" fill="#FFAC60"/>
</svg>
