<svg width="133" height="126" viewBox="0 0 133 126" fill="none" xmlns="http://www.w3.org/2000/svg">
<path fill-rule="evenodd" clip-rule="evenodd" d="M85.5948 50.8818C87.8389 50.8818 89.6581 49.0626 89.6581 46.8185C89.6581 44.5744 87.8389 42.7552 85.5948 42.7552C83.3507 42.7552 81.5315 44.5744 81.5315 46.8185C81.5315 49.0626 83.3507 50.8818 85.5948 50.8818ZM107.266 50.8818C109.51 50.8818 111.329 49.0626 111.329 46.8185C111.329 44.5744 109.51 42.7552 107.266 42.7552C105.022 42.7552 103.202 44.5744 103.202 46.8185C103.202 49.0626 105.022 50.8818 107.266 50.8818ZM133 46.8185C133 49.0626 131.181 50.8818 128.937 50.8818C126.693 50.8818 124.873 49.0626 124.873 46.8185C124.873 44.5744 126.693 42.7552 128.937 42.7552C131.181 42.7552 133 44.5744 133 46.8185ZM89.6581 65.7805C89.6581 68.0246 87.8389 69.8438 85.5948 69.8438C83.3507 69.8438 81.5315 68.0246 81.5315 65.7805C81.5315 63.5364 83.3507 61.7172 85.5948 61.7172C87.8389 61.7172 89.6581 63.5364 89.6581 65.7805ZM111.329 65.7805C111.329 68.0246 109.51 69.8438 107.266 69.8438C105.022 69.8438 103.202 68.0246 103.202 65.7805C103.202 63.5364 105.022 61.7172 107.266 61.7172C109.51 61.7172 111.329 63.5364 111.329 65.7805ZM128.937 69.8438C131.181 69.8438 133 68.0246 133 65.7805C133 63.5364 131.181 61.7172 128.937 61.7172C126.693 61.7172 124.873 63.5364 124.873 65.7805C124.873 68.0246 126.693 69.8438 128.937 69.8438ZM111.329 84.7426C111.329 86.9867 109.51 88.8059 107.266 88.8059C105.022 88.8059 103.202 86.9867 103.202 84.7426C103.202 82.4985 105.022 80.6793 107.266 80.6793C109.51 80.6793 111.329 82.4985 111.329 84.7426ZM89.6581 84.7426C89.6581 86.9867 87.8389 88.8059 85.5948 88.8059C83.3507 88.8059 81.5315 86.9867 81.5315 84.7426C81.5315 82.4985 83.3507 80.6793 85.5948 80.6793C87.8389 80.6793 89.6581 82.4985 89.6581 84.7426ZM128.937 88.8059C131.181 88.8059 133 86.9867 133 84.7426C133 82.4985 131.181 80.6793 128.937 80.6793C126.693 80.6793 124.873 82.4985 124.873 84.7426C124.873 86.9867 126.693 88.8059 128.937 88.8059Z" fill="#FFAC60"/>
<path d="M0.0022583 64.2715L70.9172 125.304L103.842 0.696167L0.0022583 64.2715Z" fill="#3ED7A0"/>
</svg>
