<svg width="88" height="80" viewBox="0 0 88 80" fill="none" xmlns="http://www.w3.org/2000/svg">
<path fill-rule="evenodd" clip-rule="evenodd" d="M23.0474 4.03166C23.0474 5.76742 21.6403 7.17453 19.9046 7.17453C18.1688 7.17453 16.7617 5.76742 16.7617 4.03166C16.7617 2.2959 18.1688 0.888794 19.9046 0.888794C21.6403 0.888794 23.0474 2.2959 23.0474 4.03166ZM6.28562 4.03178C6.28562 5.76754 4.87851 7.17465 3.14275 7.17465C1.40699 7.17465 -0.00012207 5.76754 -0.00012207 4.03178C-0.00012207 2.29602 1.40699 0.88891 3.14275 0.88891C4.87851 0.88891 6.28562 2.29602 6.28562 4.03178ZM36.6663 7.17453C38.4021 7.17453 39.8092 5.76742 39.8092 4.03166C39.8092 2.2959 38.4021 0.888794 36.6663 0.888794C34.9306 0.888794 33.5235 2.2959 33.5235 4.03166C33.5235 5.76742 34.9306 7.17453 36.6663 7.17453ZM3.14263 21.8413C4.87839 21.8413 6.2855 20.4342 6.2855 18.6985C6.2855 16.9627 4.87839 15.5556 3.14263 15.5556C1.40687 15.5556 -0.000244141 16.9627 -0.000244141 18.6985C-0.000244141 20.4342 1.40687 21.8413 3.14263 21.8413ZM19.9044 21.8414C21.6402 21.8414 23.0473 20.4343 23.0473 18.6986C23.0473 16.9628 21.6402 15.5557 19.9044 15.5557C18.1687 15.5557 16.7616 16.9628 16.7616 18.6986C16.7616 20.4343 18.1687 21.8414 19.9044 21.8414ZM39.8091 18.6986C39.8091 20.4343 38.402 21.8414 36.6662 21.8414C34.9305 21.8414 33.5234 20.4343 33.5234 18.6986C33.5234 16.9628 34.9305 15.5557 36.6662 15.5557C38.402 15.5557 39.8091 16.9628 39.8091 18.6986ZM19.9044 36.5078C21.6402 36.5078 23.0473 35.1007 23.0473 33.365C23.0473 31.6292 21.6402 30.2221 19.9044 30.2221C18.1687 30.2221 16.7616 31.6292 16.7616 33.365C16.7616 35.1007 18.1687 36.5078 19.9044 36.5078ZM3.14263 36.508C4.87839 36.508 6.2855 35.1009 6.2855 33.3651C6.2855 31.6293 4.87839 30.2222 3.14263 30.2222C1.40687 30.2222 -0.000244141 31.6293 -0.000244141 33.3651C-0.000244141 35.1009 1.40687 36.508 3.14263 36.508ZM39.8091 33.365C39.8091 35.1007 38.402 36.5078 36.6662 36.5078C34.9305 36.5078 33.5234 35.1007 33.5234 33.365C33.5234 31.6292 34.9305 30.2221 36.6662 30.2221C38.402 30.2221 39.8091 31.6292 39.8091 33.365ZM23.0474 46.6349C23.0474 48.3707 21.6403 49.7778 19.9046 49.7778C18.1688 49.7778 16.7617 48.3707 16.7617 46.6349C16.7617 44.8992 18.1688 43.4921 19.9046 43.4921C21.6403 43.4921 23.0474 44.8992 23.0474 46.6349ZM6.28562 46.6351C6.28562 48.3708 4.87851 49.7779 3.14275 49.7779C1.40699 49.7779 -0.00012207 48.3708 -0.00012207 46.6351C-0.00012207 44.8993 1.40699 43.4922 3.14275 43.4922C4.87851 43.4922 6.28562 44.8993 6.28562 46.6351ZM36.6663 49.7778C38.4021 49.7778 39.8092 48.3707 39.8092 46.6349C39.8092 44.8992 38.4021 43.4921 36.6663 43.4921C34.9306 43.4921 33.5235 44.8992 33.5235 46.6349C33.5235 48.3707 34.9306 49.7778 36.6663 49.7778ZM3.14263 64.4446C4.87839 64.4446 6.2855 63.0375 6.2855 61.3017C6.2855 59.566 4.87839 58.1589 3.14263 58.1589C1.40687 58.1589 -0.000244141 59.566 -0.000244141 61.3017C-0.000244141 63.0375 1.40687 64.4446 3.14263 64.4446ZM19.9044 64.4447C21.6402 64.4447 23.0473 63.0376 23.0473 61.3018C23.0473 59.5661 21.6402 58.1589 19.9044 58.1589C18.1687 58.1589 16.7616 59.5661 16.7616 61.3018C16.7616 63.0376 18.1687 64.4447 19.9044 64.4447ZM39.8091 61.3018C39.8091 63.0376 38.402 64.4447 36.6662 64.4447C34.9305 64.4447 33.5234 63.0376 33.5234 61.3018C33.5234 59.5661 34.9305 58.1589 36.6662 58.1589C38.402 58.1589 39.8091 59.5661 39.8091 61.3018ZM19.9044 79.1111C21.6402 79.1111 23.0473 77.704 23.0473 75.9683C23.0473 74.2325 21.6402 72.8254 19.9044 72.8254C18.1687 72.8254 16.7616 74.2325 16.7616 75.9683C16.7616 77.704 18.1687 79.1111 19.9044 79.1111ZM3.14263 79.1112C4.87839 79.1112 6.2855 77.7041 6.2855 75.9684C6.2855 74.2326 4.87839 72.8255 3.14263 72.8255C1.40687 72.8255 -0.000244141 74.2326 -0.000244141 75.9684C-0.000244141 77.7041 1.40687 79.1112 3.14263 79.1112ZM39.8091 75.9683C39.8091 77.704 38.402 79.1111 36.6662 79.1111C34.9305 79.1111 33.5234 77.704 33.5234 75.9683C33.5234 74.2325 34.9305 72.8254 36.6662 72.8254C38.402 72.8254 39.8091 74.2325 39.8091 75.9683ZM68.0954 7.17453C69.8312 7.17453 71.2383 5.76742 71.2383 4.03166C71.2383 2.2959 69.8312 0.888794 68.0954 0.888794C66.3596 0.888794 64.9525 2.2959 64.9525 4.03166C64.9525 5.76742 66.3596 7.17453 68.0954 7.17453ZM51.3334 7.17465C53.0692 7.17465 54.4763 5.76754 54.4763 4.03178C54.4763 2.29602 53.0692 0.88891 51.3334 0.88891C49.5977 0.88891 48.1905 2.29602 48.1905 4.03178C48.1905 5.76754 49.5977 7.17465 51.3334 7.17465ZM88 4.03166C88 5.76742 86.5929 7.17453 84.8572 7.17453C83.1214 7.17453 81.7143 5.76742 81.7143 4.03166C81.7143 2.2959 83.1214 0.888794 84.8572 0.888794C86.5929 0.888794 88 2.2959 88 4.03166ZM54.4762 18.6985C54.4762 20.4342 53.0691 21.8413 51.3333 21.8413C49.5976 21.8413 48.1905 20.4342 48.1905 18.6985C48.1905 16.9627 49.5976 15.5556 51.3333 15.5556C53.0691 15.5556 54.4762 16.9627 54.4762 18.6985ZM71.2382 18.6986C71.2382 20.4343 69.8311 21.8414 68.0953 21.8414C66.3596 21.8414 64.9525 20.4343 64.9525 18.6986C64.9525 16.9628 66.3596 15.5557 68.0953 15.5557C69.8311 15.5557 71.2382 16.9628 71.2382 18.6986ZM84.8571 21.8414C86.5928 21.8414 88 20.4343 88 18.6986C88 16.9628 86.5928 15.5557 84.8571 15.5557C83.1213 15.5557 81.7142 16.9628 81.7142 18.6986C81.7142 20.4343 83.1213 21.8414 84.8571 21.8414ZM71.2382 33.365C71.2382 35.1007 69.8311 36.5078 68.0953 36.5078C66.3596 36.5078 64.9525 35.1007 64.9525 33.365C64.9525 31.6292 66.3596 30.2221 68.0953 30.2221C69.8311 30.2221 71.2382 31.6292 71.2382 33.365ZM54.4762 33.3651C54.4762 35.1009 53.0691 36.508 51.3333 36.508C49.5976 36.508 48.1905 35.1009 48.1905 33.3651C48.1905 31.6293 49.5976 30.2222 51.3333 30.2222C53.0691 30.2222 54.4762 31.6293 54.4762 33.3651ZM84.8571 36.5078C86.5928 36.5078 88 35.1007 88 33.365C88 31.6292 86.5928 30.2221 84.8571 30.2221C83.1213 30.2221 81.7142 31.6292 81.7142 33.365C81.7142 35.1007 83.1213 36.5078 84.8571 36.5078ZM71.2383 46.6349C71.2383 48.3707 69.8312 49.7778 68.0954 49.7778C66.3596 49.7778 64.9525 48.3707 64.9525 46.6349C64.9525 44.8992 66.3596 43.4921 68.0954 43.4921C69.8312 43.4921 71.2383 44.8992 71.2383 46.6349ZM54.4763 46.6351C54.4763 48.3708 53.0692 49.7779 51.3334 49.7779C49.5977 49.7779 48.1905 48.3708 48.1905 46.6351C48.1905 44.8993 49.5977 43.4922 51.3334 43.4922C53.0692 43.4922 54.4763 44.8993 54.4763 46.6351ZM84.8572 49.7778C86.5929 49.7778 88 48.3707 88 46.6349C88 44.8992 86.5929 43.4921 84.8572 43.4921C83.1214 43.4921 81.7143 44.8992 81.7143 46.6349C81.7143 48.3707 83.1214 49.7778 84.8572 49.7778ZM51.3333 64.4446C53.0691 64.4446 54.4762 63.0375 54.4762 61.3017C54.4762 59.566 53.0691 58.1589 51.3333 58.1589C49.5976 58.1589 48.1905 59.566 48.1905 61.3017C48.1905 63.0375 49.5976 64.4446 51.3333 64.4446ZM68.0953 64.4447C69.8311 64.4447 71.2382 63.0376 71.2382 61.3018C71.2382 59.5661 69.8311 58.1589 68.0953 58.1589C66.3596 58.1589 64.9525 59.5661 64.9525 61.3018C64.9525 63.0376 66.3596 64.4447 68.0953 64.4447ZM88 61.3018C88 63.0376 86.5928 64.4447 84.8571 64.4447C83.1213 64.4447 81.7142 63.0376 81.7142 61.3018C81.7142 59.5661 83.1213 58.1589 84.8571 58.1589C86.5928 58.1589 88 59.5661 88 61.3018ZM68.0953 79.1111C69.8311 79.1111 71.2382 77.704 71.2382 75.9683C71.2382 74.2325 69.8311 72.8254 68.0953 72.8254C66.3596 72.8254 64.9525 74.2325 64.9525 75.9683C64.9525 77.704 66.3596 79.1111 68.0953 79.1111ZM51.3333 79.1112C53.0691 79.1112 54.4762 77.7041 54.4762 75.9684C54.4762 74.2326 53.0691 72.8255 51.3333 72.8255C49.5976 72.8255 48.1905 74.2326 48.1905 75.9684C48.1905 77.7041 49.5976 79.1112 51.3333 79.1112ZM88 75.9683C88 77.704 86.5928 79.1111 84.8571 79.1111C83.1213 79.1111 81.7142 77.704 81.7142 75.9683C81.7142 74.2325 83.1213 72.8254 84.8571 72.8254C86.5928 72.8254 88 74.2325 88 75.9683Z" fill="#4B8697"/>
</svg>
