<svg width="17" height="11" viewBox="0 0 17 11" fill="none" xmlns="http://www.w3.org/2000/svg">
<path d="M8.75713 7.66113C8.75713 6.30593 8.1345 5.3042 6.84817 4.92873C7.78671 4.466 8.27617 3.76493 8.27617 2.67447C8.27617 0.524334 6.7235 0 4.93213 0H0V10.7954H5.07025C6.97142 10.7954 8.75713 9.85453 8.75713 7.66113ZM2.29925 1.84287H4.45683C5.28629 1.84287 6.03288 2.0834 6.03288 3.07633C6.03288 3.993 5.45204 4.36187 4.63038 4.36187H2.29925V1.84287ZM2.29854 8.96207V5.98913H4.80463C5.81683 5.98913 6.45717 6.42473 6.45717 7.5306C6.45717 8.62107 5.69288 8.96207 4.75717 8.96207H2.29854Z" fill="#758FA4"/>
<path d="M13.3138 11C15.1229 11 16.2945 10.1589 16.8583 8.371H15.0223C14.8247 9.03833 14.0101 9.39107 13.3783 9.39107C12.1593 9.39107 11.5189 8.65407 11.5189 7.40153H16.9823C16.9915 7.27467 17 7.13753 17 7.0004C17 4.6882 15.6896 2.76027 13.3138 2.76027C11.0054 2.76027 9.43854 4.55107 9.43854 6.897C9.43783 9.3302 10.9225 11 13.3138 11ZM13.2487 4.38093C14.2935 4.38093 14.819 5.01453 14.9069 6.05073H11.5218C11.5905 5.02333 12.2513 4.38093 13.2487 4.38093Z" fill="#758FA4"/>
<path d="M11.0975 0.566867H15.339V1.6302H11.0975V0.566867Z" fill="#758FA4"/>
</svg>
