<svg width="15" height="15" viewBox="0 0 15 15" fill="none" xmlns="http://www.w3.org/2000/svg">
<path d="M10.2313 14.4789C10.2438 14.4752 10.2557 14.4702 10.2682 14.4658C17.91 11.4332 15.7961 0 7.50734 0C3.34765 0 0 3.38696 0 7.4988C0 12.7023 5.27641 16.4155 10.2313 14.4789ZM3.30386 12.5349C3.83688 11.64 5.56169 9.11542 8.50582 8.24431C9.12142 9.81218 9.55309 11.6413 9.59563 13.7153C7.3647 14.4646 5.01178 13.9603 3.30386 12.5349ZM10.5184 13.3241C10.4365 11.3313 10.0292 9.5641 9.44861 8.03309C10.7511 7.83 12.2589 7.9656 13.9687 8.64987C13.6052 10.6877 12.3008 12.4005 10.5184 13.3241ZM14.0669 7.68065C12.1838 6.97389 10.524 6.88577 9.08764 7.15948C8.86554 6.65956 8.63219 6.17901 8.38507 5.73658C10.5891 4.85735 11.8916 3.78564 12.4747 3.21824C13.5038 4.40805 14.1151 5.94842 14.0669 7.68065ZM11.8084 2.55084C11.2779 3.05514 10.0286 4.07372 7.89209 4.90672C6.84482 3.25198 5.72497 2.08467 5.01553 1.43102C7.28525 0.49742 9.90281 0.896107 11.8084 2.55084ZM4.1184 1.88907C4.65393 2.35962 5.82945 3.48944 6.96368 5.23666C5.40591 5.73783 3.45275 6.1059 1.0773 6.15777C1.45517 4.3493 2.58378 2.81705 4.1184 1.88907ZM0.958437 7.09887C3.61729 7.05575 5.76939 6.63644 7.47043 6.06903C7.70566 6.48084 7.929 6.92952 8.14359 7.39569C5.18132 8.33804 3.33013 10.7708 2.62131 11.8694C1.47769 10.5946 0.847078 8.93107 0.958437 7.09887Z" fill="#758FA4"/>
</svg>
