<svg width="16" height="13" viewBox="0 0 16 13" fill="none" xmlns="http://www.w3.org/2000/svg">
<path d="M5.03187 12.9999C11.0699 12.9999 14.3718 7.99887 14.3718 3.66234C14.3718 3.52031 14.3689 3.37886 14.3625 3.23819C15.0034 2.7749 15.5605 2.19678 16 1.53873C15.4118 1.80021 14.7788 1.976 14.1149 2.05553C14.7926 1.64908 15.3129 1.00639 15.5583 0.24025C14.9241 0.616178 14.2216 0.889296 13.4739 1.03681C12.8749 0.398916 12.0219 0 11.0776 0C9.26491 0 7.79477 1.46967 7.79477 3.28133C7.79477 3.53899 7.82363 3.78941 7.87989 4.02966C5.15163 3.89242 2.73227 2.5866 1.1134 0.60082C0.8316 1.08572 0.668978 1.64917 0.668978 2.25039C0.668978 3.38883 1.24852 4.39415 2.12973 4.98205C1.59118 4.96552 1.08532 4.81771 0.643049 4.57169C0.64256 4.58548 0.64256 4.59889 0.64256 4.61356C0.64256 6.20297 1.77406 7.53001 3.2763 7.83072C3.00037 7.90575 2.71006 7.94615 2.41065 7.94615C2.1995 7.94615 1.99363 7.92541 1.79363 7.88696C2.21153 9.19093 3.42346 10.1398 4.86024 10.1664C3.73667 11.0468 2.32132 11.5712 0.783068 11.5712C0.51849 11.5712 0.256946 11.5561 0 11.5257C1.45283 12.4567 3.17796 13 5.03197 13" fill="#758FA4"/>
</svg>
