<svg width="29" height="32" viewBox="0 0 29 32" fill="none" xmlns="http://www.w3.org/2000/svg">
<path d="M14.4991 2.74525C14.8481 2.74525 15.1309 2.46544 15.1309 2.12025V0.625C15.1309 0.279813 14.8481 0 14.4991 0C14.1502 0 13.8673 0.279813 13.8673 0.625V2.12025C13.8673 2.46544 14.1502 2.74525 14.4991 2.74525Z" fill="white"/>
<path d="M21.1575 9.329C21.1575 9.67419 21.4404 9.954 21.7893 9.954H23.3032C23.6522 9.954 23.9351 9.67419 23.9351 9.329C23.9351 8.98381 23.6522 8.704 23.3032 8.704H21.7893C21.4404 8.704 21.1575 8.98381 21.1575 9.329Z" fill="white"/>
<path d="M5.69676 9.954H7.20893C7.55788 9.954 7.84074 9.67419 7.84074 9.329C7.84074 8.98381 7.55788 8.704 7.20893 8.704H5.69676C5.34781 8.704 5.06495 8.98381 5.06495 9.329C5.06495 9.67419 5.34781 9.954 5.69676 9.954Z" fill="white"/>
<path d="M19.6537 4.857C19.8153 4.857 19.977 4.796 20.1004 4.674L21.1699 3.61631C21.4167 3.37231 21.4168 2.97656 21.1701 2.73244C20.9234 2.48831 20.5233 2.48825 20.2766 2.73231L19.207 3.79C18.9602 4.034 18.9601 4.42975 19.2068 4.67387C19.3302 4.796 19.4919 4.857 19.6537 4.857Z" fill="white"/>
<path d="M8.89788 4.67406C9.02127 4.79606 9.18289 4.85706 9.34457 4.85706C9.50631 4.85706 9.66805 4.796 9.79138 4.67394C10.0381 4.42981 10.038 4.03406 9.79126 3.79006L8.72167 2.73237C8.47482 2.48825 8.07482 2.48838 7.82816 2.7325C7.58144 2.97662 7.58157 3.37238 7.82829 3.61637L8.89788 4.67406Z" fill="white"/>
<path d="M28.99 22.0785L27.7698 15.3666C27.7684 15.3585 27.7672 15.3504 27.7654 15.3424L27.159 12.0068C27.1048 11.7091 26.843 11.4924 26.5372 11.4924H18.9952C19.3246 10.8235 19.5007 10.0839 19.5007 9.32894C19.5007 6.60269 17.257 4.38475 14.4991 4.38475C11.7422 4.38475 9.49924 6.60269 9.49924 9.32894C9.49924 10.0836 9.67513 10.8232 10.0042 11.4924H2.46108C2.15522 11.4924 1.89333 11.7091 1.83925 12.0069L0.623712 18.6994C0.62188 18.7078 0.620616 18.7163 0.6191 18.7248L0.00997288 22.0787C-0.0231339 22.2609 0.0270949 22.4482 0.147139 22.5902C0.267182 22.7322 0.444657 22.8142 0.631799 22.8142H1.64295V23.5214C1.64295 24.5997 2.53001 25.4769 3.62025 25.4769H5.47284C5.82179 25.4769 6.10465 25.1971 6.10465 24.8519C6.10465 24.5068 5.82179 24.2269 5.47284 24.2269H3.62025C3.2267 24.2269 2.90656 23.9105 2.90656 23.5214V22.8142H26.0934V23.5214C26.0934 23.9104 25.7733 24.2269 25.3797 24.2269H11.1487C10.7997 24.2269 10.5169 24.5068 10.5169 24.8519C10.5169 25.1971 10.7997 25.4769 11.1487 25.4769H12.3748V28.0306H11.0054C9.8993 28.0306 8.99941 28.9206 8.99941 30.0144V30.75H6.25755C5.9086 30.75 5.62574 31.0298 5.62574 31.375C5.62574 31.7202 5.9086 32 6.25755 32H22.7425C23.0914 32 23.3743 31.7202 23.3743 31.375C23.3743 31.0298 23.0914 30.75 22.7425 30.75H20.0006V30.0144C20.0006 28.9205 19.1007 28.0306 17.9946 28.0306H16.6252V25.4769H25.3797C26.4701 25.4769 27.3571 24.5996 27.3571 23.5214V22.8141H28.3682C28.5553 22.8141 28.7328 22.7321 28.8529 22.5901C28.9729 22.4481 29.0231 22.2607 28.99 22.0785ZM13.6385 25.4769H15.3615V28.0306H13.6385V25.4769ZM17.9946 29.2806C18.4039 29.2806 18.737 29.6098 18.737 30.0144V30.75H10.263V30.0144C10.263 29.6098 10.5961 29.2806 11.0054 29.2806H17.9946ZM20.2654 18.2069H15.1309V16.0997H19.9713L20.2654 18.2069ZM19.5026 12.7425L19.7968 14.8497H15.1309V12.7425H19.5026ZM14.4991 5.63475C16.5603 5.63475 18.2371 7.292 18.2371 9.32894C18.2371 10.1088 17.9866 10.8667 17.5277 11.4924H11.4711C11.0131 10.8661 10.7629 10.1082 10.7629 9.32894C10.7629 7.292 12.4389 5.63475 14.4991 5.63475ZM6.98849 21.5641H1.38725L1.76994 19.4569H7.28304L6.98849 21.5641ZM7.4578 18.2069H1.99701L2.3797 16.0997H7.75235L7.4578 18.2069ZM7.92704 14.8497H2.60671L2.98939 12.7425H8.22159L7.92704 14.8497ZM13.8673 21.5641H8.26417L8.55872 19.4569H13.8673V21.5641ZM13.8673 18.2069H8.73342L9.02797 16.0997H13.8673V18.2069ZM13.8673 14.8497H9.20273L9.49728 12.7425H13.8673V14.8497ZM15.1309 21.5641V19.4569H20.44L20.7341 21.5641H15.1309ZM20.7782 12.7425H26.0088L26.3919 14.8497H21.0724L20.7782 12.7425ZM21.2469 16.0997H26.6192L27.0022 18.2069H21.541L21.2469 16.0997ZM22.0097 21.5641L21.7156 19.4569H27.2296L27.6126 21.5641H22.0097Z" fill="white"/>
<path d="M8.31257 25.4769C8.66152 25.4769 8.9435 25.1971 8.9435 24.8519C8.9435 24.5067 8.65975 24.2269 8.3108 24.2269C7.96185 24.2269 7.67899 24.5067 7.67899 24.8519C7.67899 25.1971 7.96185 25.4769 8.3108 25.4769H8.31257Z" fill="white"/>
</svg>
