<svg width="28" height="28" viewBox="0 0 28 28" fill="none" xmlns="http://www.w3.org/2000/svg">
<path d="M14 28C6.28037 28 0 21.7196 0 14C0 6.28037 6.28037 0 14 0C21.7196 0 28 6.28037 28 14C28 21.7196 21.7196 28 14 28ZM14 1.09375C6.88352 1.09375 1.09375 6.88346 1.09375 14C1.09375 21.1165 6.88346 26.9062 14 26.9062C21.1165 26.9062 26.9062 21.1165 26.9062 14C26.9062 6.88346 21.1165 1.09375 14 1.09375Z" fill="white"/>
<path d="M16.6107 21.1992C16.3267 21.3022 16.013 21.1555 15.9101 20.8716C15.807 20.5877 15.9538 20.274 16.2376 20.171C18.8245 19.2328 20.5625 16.7528 20.5625 14C20.5625 10.3814 17.6186 7.4375 14 7.4375C10.3814 7.4375 7.4375 10.3814 7.4375 14C7.4375 16.7526 9.17536 19.2326 11.7619 20.1709C12.0459 20.2739 12.1925 20.5875 12.0895 20.8715C11.9865 21.1555 11.6727 21.3021 11.3889 21.1991C8.37123 20.1044 6.34375 17.2113 6.34375 14C6.34375 9.77834 9.77834 6.34375 14 6.34375C18.2217 6.34375 21.6562 9.77834 21.6562 14C21.6562 17.2115 19.6286 20.1046 16.6107 21.1992Z" fill="white"/>
<path d="M14 19.1953C13.698 19.1953 13.4531 18.9505 13.4531 18.6484V17.7884C13.149 17.7447 12.8565 17.6648 12.5797 17.5538L12.0537 18.4649C11.9027 18.7264 11.5683 18.8161 11.3067 18.665C11.0451 18.514 10.9555 18.1795 11.1065 17.918L11.6333 17.0055C11.3962 16.8183 11.1817 16.6039 10.9945 16.3667L10.082 16.8936C9.82051 17.0446 9.48604 16.955 9.33499 16.6934C9.18395 16.4318 9.27358 16.0974 9.53515 15.9464L10.4462 15.4203C10.3352 15.1435 10.2553 14.851 10.2116 14.5469H9.16016C8.85812 14.5469 8.61328 14.3021 8.61328 14.0001C8.61328 13.698 8.85812 13.4532 9.16016 13.4532H10.2116C10.2553 13.149 10.3352 12.8566 10.4462 12.5798L9.53509 12.0537C9.27352 11.9027 9.18389 11.5683 9.33494 11.3067C9.43622 11.1313 9.62002 11.0331 9.80902 11.0331C9.90177 11.0331 9.99584 11.0568 10.082 11.1065L10.9945 11.6334C11.1817 11.3962 11.3961 11.1817 11.6333 10.9946L11.1065 10.0821C10.9554 9.82056 11.0451 9.48609 11.3066 9.3351C11.3928 9.28539 11.4868 9.26171 11.5796 9.26171C11.7686 9.26171 11.9524 9.35982 12.0537 9.53526L12.5797 10.4463C12.8565 10.3352 13.149 10.2554 13.4531 10.2117V9.16016C13.4531 8.85812 13.6979 8.61328 13.9999 8.61328C14.302 8.61328 14.5468 8.85812 14.5468 9.16016V10.2116C14.851 10.2553 15.1434 10.3352 15.4202 10.4462L15.9462 9.53515C16.0476 9.35971 16.2313 9.2616 16.4204 9.2616C16.5131 9.2616 16.6072 9.28528 16.6932 9.33499C16.9548 9.48598 17.0445 9.82045 16.8934 10.082L16.3666 10.9945C16.6038 11.1817 16.8182 11.3961 17.0054 11.6333L17.9179 11.1065C18.004 11.0568 18.098 11.0331 18.1908 11.0331C18.3798 11.0331 18.5636 11.1312 18.6649 11.3066C18.8159 11.5682 18.7263 11.9027 18.4647 12.0537L17.5537 12.5797C17.6648 12.8565 17.7446 13.149 17.7883 13.4531H18.8398C19.1418 13.4531 19.3867 13.698 19.3867 14C19.3867 14.302 19.1418 14.5469 18.8398 14.5469H17.7884C17.7447 14.851 17.6648 15.1435 17.5538 15.4203L18.4649 15.9463C18.7264 16.0973 18.8161 16.4318 18.665 16.6934C18.514 16.9549 18.1795 17.0445 17.918 16.8935L17.0055 16.3667C16.8183 16.6039 16.6039 16.8183 16.3667 17.0055L16.8935 17.918C17.0446 18.1795 16.9549 18.514 16.6934 18.665C16.4317 18.8161 16.0973 18.7264 15.9463 18.4649L15.4203 17.5538C15.1435 17.6649 14.851 17.7447 14.5469 17.7884V18.6484C14.5469 18.9505 14.302 19.1953 14 19.1953ZM16.7344 14C16.7344 12.4923 15.5077 11.2656 14 11.2656C12.4923 11.2656 11.2656 12.4923 11.2656 14C11.2656 15.5077 12.4923 16.7344 14 16.7344C15.5077 16.7344 16.7344 15.5077 16.7344 14Z" fill="white"/>
<path d="M14 20.5625C14.302 20.5625 14.5469 20.8073 14.5469 21.1094C14.5469 21.4114 14.302 21.6562 14 21.6562H13.9996C13.6976 21.6562 13.453 21.4114 13.453 21.1094C13.453 20.8073 13.698 20.5625 14 20.5625Z" fill="white"/>
</svg>
