<svg width="30" height="30" viewBox="0 0 30 30" fill="none" xmlns="http://www.w3.org/2000/svg">
<path d="M28.605 16.3573L24.8642 12.6164C24.7543 12.5065 24.6053 12.4447 24.4499 12.4447C24.2945 12.4447 24.1454 12.5065 24.0356 12.6164L14.4877 22.1647C13.6007 23.0516 12.4194 23.5401 11.1612 23.5401C9.90302 23.5401 8.72165 23.0517 7.83478 22.1647C6.00056 20.3304 6.00056 17.3458 7.83478 15.5115L17.3827 5.96326C17.6115 5.73444 17.6115 5.36341 17.3827 5.13454L13.6419 1.39359C13.4131 1.16477 13.0421 1.16477 12.8132 1.39359L3.26535 10.9418C-1.08845 15.2958 -1.08845 22.3802 3.26535 26.7343C5.37121 28.8402 8.17538 30 11.1613 30C14.1471 30 16.9513 28.8402 19.0572 26.7343L28.6051 17.186C28.8339 16.9572 28.8339 16.5862 28.605 16.3573ZM13.2275 2.63659L16.1397 5.54887L11.2633 10.4255L8.35111 7.51318L13.2275 2.63659ZM18.2285 25.9056C16.3439 27.7902 13.8341 28.8281 11.1612 28.8281C8.48833 28.8281 5.97847 27.7902 4.09398 25.9056C0.197094 22.0086 0.197094 15.6676 4.09398 11.7705L7.52248 8.34191L10.4346 11.2542L7.00615 14.6828C4.71502 16.974 4.71502 20.7021 7.00615 22.9934C8.11445 24.1017 9.59007 24.7121 11.1613 24.7121C12.7324 24.7121 14.2081 24.1017 15.3164 22.9934L18.7449 19.5647L21.657 22.477L18.2285 25.9056ZM22.4857 21.6483L19.5735 18.736L24.4499 13.8594L27.3621 16.7717L22.4857 21.6483Z" fill="white"/>
<path d="M20.8064 1.70157C20.5776 1.47269 20.2065 1.47275 19.9777 1.70157L17.7576 3.92183C17.5287 4.15065 17.5288 4.52168 17.7576 4.7505C17.872 4.86494 18.022 4.92213 18.1719 4.92213C18.3219 4.92213 18.4718 4.86494 18.5862 4.7505L20.8064 2.53024C21.0352 2.30142 21.0352 1.93045 20.8064 1.70157Z" fill="white"/>
<path d="M22.2173 0.290695C21.9884 0.0618774 21.6174 0.0618774 21.3886 0.290695L21.3792 0.300129C21.1504 0.529005 21.1504 0.900035 21.3792 1.12885C21.4935 1.24329 21.6435 1.30048 21.7935 1.30048C21.9434 1.30048 22.0934 1.24329 22.2079 1.12885L22.2173 1.11942C22.4461 0.890543 22.4462 0.519512 22.2173 0.290695Z" fill="white"/>
<path d="M19.7122 0.295617C19.4834 0.0667409 19.1124 0.0667995 18.8836 0.295617L16.5076 2.6718C16.2787 2.90062 16.2788 3.27165 16.5076 3.50047C16.622 3.61491 16.772 3.6721 16.9219 3.6721C17.0718 3.6721 17.2218 3.61485 17.3362 3.50047L19.7122 1.12428C19.941 0.895465 19.941 0.524493 19.7122 0.295617Z" fill="white"/>
<path d="M17.2173 0.290636C16.9884 0.0618188 16.6174 0.0618188 16.3886 0.290636L15.2576 1.42166C15.0288 1.65053 15.0288 2.02156 15.2576 2.25038C15.372 2.36482 15.522 2.42201 15.6719 2.42201C15.8219 2.42201 15.9718 2.36482 16.0863 2.25038L17.2173 1.11936C17.4461 0.890484 17.4461 0.519454 17.2173 0.290636Z" fill="white"/>
<path d="M14.836 0.171686C14.727 0.0626978 14.5764 0 14.4217 0C14.2676 0 14.1164 0.0626978 14.0074 0.171686C13.8985 0.280675 13.8358 0.431853 13.8358 0.58596C13.8358 0.740068 13.8985 0.891246 14.0074 1.00023C14.1164 1.10922 14.2676 1.17192 14.4217 1.17192C14.5764 1.17192 14.727 1.10922 14.836 1.00023C14.9449 0.891246 15.0076 0.740068 15.0076 0.58596C15.0076 0.431853 14.9449 0.280675 14.836 0.171686Z" fill="white"/>
<path d="M28.2981 9.19366C28.0693 8.96478 27.6983 8.96484 27.4695 9.19366L25.2494 11.4139C25.0205 11.6427 25.0206 12.0138 25.2494 12.2426C25.3638 12.357 25.5138 12.4142 25.6637 12.4142C25.8137 12.4142 25.9636 12.357 26.078 12.2426L28.2981 10.0223C28.527 9.79351 28.527 9.42254 28.2981 9.19366Z" fill="white"/>
<path d="M29.709 7.78273C29.4802 7.55391 29.1091 7.55391 28.8803 7.78273L28.8709 7.79216C28.6421 8.02104 28.6421 8.39207 28.8709 8.62088C28.9853 8.73532 29.1353 8.79251 29.2852 8.79251C29.4352 8.79251 29.5851 8.73532 29.6996 8.62088L29.709 8.61145C29.9378 8.38257 29.9378 8.01154 29.709 7.78273Z" fill="white"/>
<path d="M29.7042 10.2878C29.4753 10.059 29.1043 10.059 28.8755 10.2878L26.4994 12.664C26.2706 12.8928 26.2706 13.2639 26.4994 13.4927C26.6138 13.6071 26.7638 13.6643 26.9137 13.6643C27.0636 13.6643 27.2136 13.6071 27.3281 13.4927L29.7042 11.1165C29.933 10.8876 29.933 10.5166 29.7042 10.2878Z" fill="white"/>
<path d="M29.7091 12.783C29.4802 12.5541 29.1092 12.5541 28.8804 12.783L27.7494 13.914C27.5206 14.1429 27.5206 14.5139 27.7494 14.7427C27.8638 14.8571 28.0138 14.9143 28.1637 14.9143C28.3137 14.9143 28.4637 14.8571 28.5781 14.7427L29.7091 13.6117C29.9379 13.3828 29.9379 13.0118 29.7091 12.783Z" fill="white"/>
<path d="M29.8283 15.1641C29.7188 15.0551 29.5682 14.9924 29.4141 14.9924C29.2594 14.9924 29.1088 15.0551 28.9992 15.1641C28.8902 15.2731 28.8281 15.4243 28.8281 15.5784C28.8281 15.7325 28.8902 15.8837 28.9992 15.9927C29.1088 16.1017 29.2594 16.1644 29.4141 16.1644C29.5682 16.1644 29.7188 16.1017 29.8283 15.9927C29.9373 15.8837 30 15.7325 30 15.5784C30 15.4243 29.9373 15.2731 29.8283 15.1641Z" fill="white"/>
</svg>
