<svg width="23" height="30" viewBox="0 0 23 30" fill="none" xmlns="http://www.w3.org/2000/svg">
<path fill-rule="evenodd" clip-rule="evenodd" d="M4.46518 9.97971C4.76635 10.0813 5.09105 9.9147 5.19039 9.60732C6.09164 6.82526 8.62719 4.95621 11.5 4.95621C15.1635 4.95621 18.1442 7.99828 18.1442 11.7377C18.1442 14.6278 16.8758 16.3545 15.8569 17.742C15.1155 18.7511 14.4753 19.623 14.4753 20.6802C14.4753 20.7497 14.4744 20.8186 14.4728 20.8871H12.0741V19.541C12.0741 19.2174 11.8171 18.9551 11.5 18.9551C11.1829 18.9551 10.9259 19.2174 10.9259 19.541V20.8871H8.52695C8.52538 20.8186 8.52448 20.7497 8.52448 20.6802C8.52448 19.6227 7.88426 18.7511 7.1429 17.7418C6.39235 16.7198 5.54179 15.5614 5.11998 13.9156C5.0397 13.6024 4.72576 13.415 4.41921 13.4969C4.11267 13.5786 3.92901 13.8991 4.00929 14.212C4.48806 16.0803 5.45074 17.3914 6.22439 18.4447C6.86798 19.3211 7.37634 20.0132 7.37634 20.6802C7.37634 20.9608 7.388 21.2345 7.41065 21.4957V26.4519C7.41065 26.4677 7.41177 26.483 7.4129 26.4983C7.41334 26.502 7.41312 26.5059 7.41357 26.5096C7.41559 26.5313 7.41895 26.5524 7.42321 26.5734V26.5739C7.62257 27.5283 8.13295 28.3962 8.86085 29.0176C9.60266 29.6512 10.54 30 11.5 30C12.46 30 13.3971 29.6512 14.1391 29.0176C14.8668 28.3962 15.3774 27.5283 15.5766 26.5739C15.5766 26.5736 15.5768 26.5734 15.5768 26.5732C15.5811 26.5524 15.5842 26.5313 15.5864 26.5096C15.5867 26.5059 15.5867 26.502 15.5869 26.4983C15.588 26.4828 15.5891 26.4674 15.5891 26.4516V21.4957C15.6118 21.2345 15.6237 20.9608 15.6237 20.6802C15.6237 20.0132 16.132 19.3211 16.7756 18.4447C17.8376 16.9986 19.2923 15.0183 19.2923 11.7377C19.2923 7.35214 15.7966 3.78433 11.5 3.78433C8.13093 3.78433 5.15743 5.97656 4.10034 9.2395C4.00077 9.54666 4.16425 9.87808 4.46518 9.97971ZM11.5 28.8281C10.3328 28.8281 9.28019 28.1076 8.78147 27.0376H14.2185C13.7196 28.1076 12.667 28.8281 11.5 28.8281ZM14.4412 25.8657H8.55879V24.5483H14.4412V25.8657ZM14.4412 23.3764H8.55879V22.0589H14.4412V23.3764Z" fill="white"/>
<path fill-rule="evenodd" clip-rule="evenodd" d="M11.5 2.73308C11.8171 2.73308 12.0741 2.47078 12.0741 2.14714V0.585938C12.0741 0.262299 11.8171 0 11.5 0C11.1829 0 10.9259 0.262299 10.9259 0.585938V2.14714C10.9259 2.47078 11.1829 2.73308 11.5 2.73308Z" fill="white"/>
<path fill-rule="evenodd" clip-rule="evenodd" d="M0.574069 12.3237H2.10365C2.42073 12.3237 2.67772 12.0614 2.67772 11.7377C2.67772 11.4141 2.42073 11.1518 2.10365 11.1518H0.574069C0.256986 11.1518 0 11.4141 0 11.7377C0 12.0614 0.256986 12.3237 0.574069 12.3237Z" fill="white"/>
<path fill-rule="evenodd" clip-rule="evenodd" d="M14.1284 12.9215C14.1284 12.5979 13.8714 12.3356 13.5543 12.3356H9.44568C9.1286 12.3356 8.87161 12.5979 8.87161 12.9215C8.87161 13.2452 9.1286 13.5075 9.44568 13.5075H10.9259V14.8535C10.9259 15.1772 11.1829 15.4395 11.5 15.4395C11.8171 15.4395 12.0741 15.1772 12.0741 14.8535V13.5075H13.5543C13.8714 13.5075 14.1284 13.2452 14.1284 12.9215Z" fill="white"/>
<path fill-rule="evenodd" clip-rule="evenodd" d="M4.44993 5.37048C4.56206 5.48492 4.70894 5.54214 4.85582 5.54214C5.0027 5.54214 5.14958 5.48492 5.2617 5.37048C5.48595 5.1416 5.48595 4.77058 5.2617 4.54193L4.18017 3.43803C3.95592 3.20915 3.59242 3.20915 3.36817 3.43803C3.14415 3.66669 3.14415 4.0377 3.36817 4.26659L4.44993 5.37048Z" fill="white"/>
<path fill-rule="evenodd" clip-rule="evenodd" d="M3.37826 20.6133C3.52514 20.6133 3.67203 20.5561 3.78415 20.4417L4.86569 19.3378C5.08993 19.1089 5.08993 18.7381 4.86569 18.5092C4.64144 18.2803 4.27794 18.2803 4.05392 18.5092L2.97215 19.6131C2.74813 19.842 2.74813 20.213 2.97215 20.4417C3.08428 20.5561 3.23116 20.6133 3.37826 20.6133Z" fill="white"/>
<path fill-rule="evenodd" clip-rule="evenodd" d="M18.1442 5.54214C18.2911 5.54214 18.4379 5.48492 18.5501 5.37048L19.6316 4.26659C19.8559 4.0377 19.8559 3.66669 19.6316 3.43781C19.4076 3.20892 19.0441 3.20915 18.8198 3.43781L17.7383 4.5417C17.514 4.77058 17.514 5.1416 17.7381 5.37048C17.8502 5.48492 17.9973 5.54214 18.1442 5.54214Z" fill="white"/>
<path fill-rule="evenodd" clip-rule="evenodd" d="M18.1343 18.5092C17.9101 18.7379 17.9101 19.1089 18.1343 19.3378L19.2159 20.4417C19.328 20.5561 19.4749 20.6133 19.6217 20.6133C19.7686 20.6133 19.9155 20.5561 20.0276 20.4417C20.2519 20.213 20.2519 19.842 20.0276 19.6131L18.9461 18.5092C18.7218 18.2803 18.3583 18.2803 18.1343 18.5092Z" fill="white"/>
<path fill-rule="evenodd" clip-rule="evenodd" d="M20.8964 12.3237H22.4259C22.743 12.3237 23 12.0614 23 11.7377C23 11.4141 22.743 11.1518 22.4259 11.1518H20.8964C20.5793 11.1518 20.3223 11.4141 20.3223 11.7377C20.3223 12.0614 20.5793 12.3237 20.8964 12.3237Z" fill="white"/>
<path fill-rule="evenodd" clip-rule="evenodd" d="M11.5 16.6113C11.1838 16.6113 10.9259 16.8745 10.9259 17.1973C10.9259 17.52 11.1838 17.7832 11.5 17.7832C11.8162 17.7832 12.0741 17.52 12.0741 17.1973C12.0741 16.8745 11.8162 16.6113 11.5 16.6113Z" fill="white"/>
<path fill-rule="evenodd" clip-rule="evenodd" d="M4.85582 11.7377C4.85582 11.415 4.59794 11.1518 4.28175 11.1518C3.96534 11.1518 3.70768 11.415 3.70768 11.7377C3.70768 12.0605 3.96534 12.3237 4.28175 12.3237C4.59794 12.3237 4.85582 12.0605 4.85582 11.7377Z" fill="white"/>
</svg>
